<?xml version="1.0" encoding="UTF-8" standalone="no"?>
<!-- Created with Inkscape (http://www.inkscape.org/) -->

<svg
   version="1.1"
   id="svg824"
   width="951.87128"
   height="1547.7053"
   viewBox="0 0 951.87128 1547.7053"
   xmlns="http://www.w3.org/2000/svg"
   xmlns:svg="http://www.w3.org/2000/svg">
  <defs
     id="defs828" />
  <g
     id="g830">
    <path
       style="fill:#4c4a48;stroke-width:0.81287"
       class="species_main_colour"
       d="m 587.36985,1546.9389 c 1.38026,-0.3299 3.02632,-0.8683 3.65791,-1.1964 0.63159,-0.328 0.4383,-0.02 -0.42953,0.6832 -0.86784,0.7038 -2.5139,1.2421 -3.65792,1.1964 -1.91239,-0.076 -1.87777,-0.1316 0.42954,-0.6832 z m -7.5335,-2.446 c -3.97853,-2.4195 -6.27381,-6.0864 -13.2822,-21.2195 -7.75804,-16.7518 -15.01089,-30.7328 -28.01843,-54.0101 -17.20401,-30.7869 -23.76168,-45.009 -30.40942,-65.9508 -4.95753,-15.6173 -6.55737,-22.252 -6.57323,-27.2596 -0.0154,-4.8643 0.59023,-6.3662 2.56701,-6.3662 2.82975,0 4.53911,1.498 10.35541,9.0753 11.52895,15.0195 15.73879,14.1175 19.96235,-4.277 1.05224,-4.5827 1.25638,-7.859 0.85605,-13.7399 -2.24161,-32.9296 -17.03605,-102.2537 -37.12358,-173.9543 -11.44709,-40.8593 -13.71146,-56.3568 -8.81387,-60.3227 2.5749,-2.085 4.63181,-1.5387 18.246,4.8456 9.40145,4.4089 12.25624,5.385 16.66384,5.6979 4.63784,0.3293 5.51436,0.1608 6.84622,-1.3165 5.61735,-6.2307 1.46824,-23.506 -14.96294,-62.2997 -4.54468,-10.7299 -9.68538,-23.7155 -11.4238,-28.8569 -5.27054,-15.5878 -4.05376,-18.1253 4.87218,-10.1609 2.75577,2.459 5.72826,4.4708 6.60551,4.4708 1.40471,0 1.59502,-0.5727 1.59502,-4.8002 0,-2.6401 -1.26852,-11.5105 -2.81893,-19.7121 -3.8299,-20.25994 -4.93134,-27.984 -7.35478,-51.57732 -2.68458,-26.13541 -5.65494,-46.72737 -7.68205,-53.25537 -3.56242,-11.47228 -12.07512,-21.93953 -24.59743,-30.24512 -3.69901,-2.45341 -13.49262,-8.03165 -21.76358,-12.39611 -36.22026,-19.1127 -60.57203,-36.341 -104.45385,-73.89869 -20.26517,-17.34462 -26.68926,-22.18481 -56.08806,-42.25915 -12.96528,-8.85306 -29.12681,-20.24927 -35.91452,-25.3249 -11.84682,-8.85868 -28.44849,-23.88871 -33.67319,-30.48544 l -2.48867,-3.1422 3.30958,-3.75987 c 13.38545,-15.20668 13.79273,-44.07758 0.99618,-70.61684 -14.04707,-29.13275 -39.54257,-43.98416 -59.18455,-34.47565 -1.90063,0.92008 -5.31202,3.704 -7.58087,6.18648 -2.26886,2.48249 -4.24276,4.37625 -4.38646,4.20834 -1.14709,-1.34037 -15.6497,-28.82638 -24.8228,-47.04533 C 116.82927,521.49142 105.95308,498.38079 90.083277,462.92971 84.279317,449.96443 76.318143,432.77222 72.391771,424.7248 64.474975,408.49869 61.453115,404.24159 38.855916,377.48056 19.197103,354.19936 12.728693,344.23309 7.4228769,329.04978 0.40312495,308.96181 -1.4420023,279.71084 1.6646822,237.7646 5.4212617,187.04352 16.908967,166.69189 36.310102,176.38675 c 12.586866,6.28974 35.246932,31.23859 48.364108,53.24915 18.85583,31.63999 28.67478,66.13031 32.74505,115.02116 1.35454,16.27035 2.96369,22.92284 8.24962,34.10543 6.35973,13.45426 13.88774,23.73221 41.28417,56.36502 6.2086,7.39528 16.99946,21.65842 23.97968,31.69589 10.46153,15.04354 24.82376,35.02299 37.7028,52.44878 l 2.25112,3.04584 -1.96931,4.85283 c -3.10231,7.64482 -4.02926,14.00751 -3.52413,24.19016 0.99838,20.12624 9.57604,38.97727 24.01068,52.76805 16.88048,16.12752 35.79871,18.91758 49.09768,7.24093 l 2.67674,-2.35021 7.31093,8.60863 c 10.35505,12.19309 36.64141,38.40797 46.73514,46.60805 18.46059,14.99727 28.17463,21.28659 55.68163,36.05088 30.40719,16.32097 39.69064,22.43037 53.55077,35.24161 12.30167,11.37071 17.62624,13.96063 21.25046,10.33641 1.68306,-1.68306 2.01409,-2.79111 2.00932,-6.72598 -0.009,-7.45975 -2.86439,-17.66532 -7.73565,-27.64841 -7.39247,-15.15004 -18.08171,-30.46698 -58.58974,-83.955 -32.36804,-42.73973 -43.53538,-61.78921 -56.23025,-95.91871 -5.16482,-13.88533 -17.25237,-54.1209 -17.25237,-57.42756 0,-0.42561 2.26304,-1.24126 5.02899,-1.81256 6.83136,-1.41099 11.79028,-4.07748 17.61939,-9.4742 5.67065,-5.25002 10.57926,-12.62968 13.90256,-20.90126 2.73374,-6.8042 1.99512,-9.03246 5.72464,17.27011 3.02617,21.34222 4.68684,28.35825 9.81259,41.4564 7.27733,18.59619 16.25124,35.28796 45.45004,84.53852 26.72171,45.07238 36.80031,63.26337 48.75232,87.99379 26.11925,54.04441 33.67523,92.54081 35.45952,180.65989 0.29874,14.7536 0.35894,26.64183 0.13378,26.41829 -0.22516,-0.22354 -5.88374,-7.73739 -12.57461,-16.69742 -27.12239,-36.32076 -49.03044,-60.034 -91.27366,-98.79446 -22.19256,-20.36287 -30.04498,-26.53016 -60.96528,-47.88207 -37.78624,-26.09314 -47.21089,-33.50407 -66.13042,-52.00059 -31.3917,-30.68985 -63.36375,-69.69568 -117.62954,-143.50776 -33.88953,-46.09637 -48.29771,-70.07321 -78.51712,-130.66129 l -16.517625,-33.11683 1.168964,-5.08808 c 2.730408,-11.88436 3.709169,-35.0245 2.009205,-47.50173 -2.594463,-19.04245 -10.279802,-37.91073 -21.894048,-53.75207 -2.011854,-2.74409 -3.911862,-4.99991 -4.222241,-5.01294 -0.310378,-0.013 -1.575682,0.84623 -2.811787,1.90949 l -2.247462,1.93318 4.131263,5.9923 c 7.726101,11.20653 13.445285,24.79884 16.715537,39.72643 2.23098,10.18365 2.375499,28.93156 0.325742,42.25769 -0.789845,5.13505 -1.562422,9.46279 -1.716835,9.6172 -0.154415,0.15442 -2.257785,-1.30355 -4.674157,-3.23991 -2.416371,-1.93637 -8.757557,-6.88635 -14.091523,-10.99995 -5.333967,-4.11361 -13.152404,-10.60641 -17.374304,-14.42845 -4.221901,-3.82205 -7.946358,-6.94917 -8.276571,-6.94917 -0.330213,0 -1.351135,1.05432 -2.268715,2.34295 l -1.668329,2.34295 6.286981,5.99642 c 6.414708,6.11826 17.334083,15.13589 29.137613,24.06294 10.402711,7.8676 15.170171,13.68611 20.817639,25.40715 37.379673,77.57966 52.591543,103.76609 90.426603,155.66468 55.08737,75.56372 83.0905,110.11744 114.97255,141.86736 20.80786,20.72164 29.26523,27.47701 70.79709,56.54957 26.6061,18.62444 36.13887,26.2016 56.47567,44.88998 44.30954,40.71795 64.58188,63.30953 99.33389,110.69817 l 12.22028,16.66384 0.50564,30.48264 c 0.52053,31.38013 1.28288,46.43913 3.45667,68.28112 4.45989,44.81258 14.01812,87.16698 27.24119,120.71128 4.31799,10.9538 15.47837,33.5298 20.80545,42.0868 l 3.93479,6.3203 -2.60963,15.6272 c -13.99136,83.7836 -16.89417,177.5871 -8.75952,283.0614 1.35139,17.5222 5.58756,60.1368 7.19163,72.3454 0.5874,4.4708 1.01287,8.2066 0.94549,8.3019 -0.0674,0.095 -1.25203,-0.5139 -2.63254,-1.3534 z m 12.05319,-9.4512 c -7.51025,-67.1604 -10.08682,-102.1161 -11.53195,-156.4509 -1.84472,-69.3587 2.59695,-137.43 13.0189,-199.5222 4.11559,-24.5201 8.36542,-44.0275 16.29229,-74.7841 18.85949,-73.1758 23.94097,-94.3185 43.95755,-182.89587 33.22542,-147.02911 36.07154,-156.16408 78.76405,-252.8027 29.6648,-67.14915 38.76326,-89.79038 46.87502,-116.64691 4.60715,-15.25346 7.46578,-29.36684 8.12264,-40.10246 l 0.52502,-8.58071 21.14566,-26.2596 c 34.93441,-43.38309 50.85602,-65.48372 65.99403,-91.60565 7.81144,-13.47939 18.80836,-36.06679 22.73119,-46.68931 13.37887,-36.22844 22.88376,-93.57931 26.42812,-159.46336 0.89335,-16.60528 1.13696,-58.03044 0.36401,-61.89513 -0.4305,-2.15272 -0.72378,-2.32813 -3.4547,-2.0666 l -2.98421,0.28578 -0.0876,25.33501 c -0.25996,75.17554 -12.73004,156.74597 -30.48411,199.4045 -7.12627,17.1227 -19.15797,39.01317 -32.77493,59.63076 -12.75109,19.3065 -21.22006,30.37408 -57.36459,74.9668 l -10.97375,13.53867 -0.67116,-5.03173 c -0.36914,-2.76746 -2.46615,-16.55418 -4.66003,-30.63716 -7.0815,-45.45765 -7.58678,-50.75756 -7.59475,-79.6613 -0.006,-20.04835 0.29081,-27.51162 1.36543,-34.38864 3.13386,-20.05499 7.46524,-35.4053 15.75632,-55.83998 15.04887,-37.09038 30.86613,-67.99689 41.44824,-80.98888 1.94406,-2.38675 3.53461,-4.65382 3.53461,-5.03791 0,-1.29856 -3.12086,-3.53333 -4.54834,-3.25699 -3.34789,0.6481 -15.648,19.66496 -25.93573,40.0986 -11.71836,23.27508 -25.97289,57.40341 -30.39321,72.76771 -5.94901,20.67774 -8.07416,35.06934 -8.76106,59.33025 -0.72404,25.57355 0.86828,43.13724 8.25386,91.04149 5.24744,34.03596 6.22094,44.49835 5.25668,56.4945 -2.2251,27.68206 -12.9729,57.98574 -51.17331,144.2845 -48.21267,108.91749 -48.68667,110.40269 -82.8874,259.7121 -17.47938,76.30935 -25.01119,107.67472 -35.87016,149.37752 -11.53984,44.3176 -17.31342,67.3537 -19.03935,75.9658 -1.1447,5.7118 -1.73847,7.2977 -2.49678,6.6684 -1.78682,-1.483 -13.98658,-26.8975 -18.50447,-38.5486 -15.02025,-38.7352 -24.10018,-84.2342 -28.145,-141.03298 -0.46165,-6.48264 -1.18313,-37.02624 -1.6033,-67.87468 -0.89526,-65.73016 -1.30797,-79.86086 -2.95574,-101.20237 -3.85986,-49.99219 -12.77663,-85.13764 -31.85367,-125.5514 -11.81242,-25.02402 -24.5647,-47.96464 -55.59937,-100.02014 -32.43092,-54.3975 -40.85907,-70.89409 -46.54751,-91.10845 -3.3753,-11.99442 -10.35056,-61.35205 -14.40743,-101.94828 -1.58464,-15.85719 -1.8325,-23.10031 -1.86367,-54.46232 -0.0505,-50.78244 -0.32209,-49.6056 21.61498,-93.65529 16.5994,-33.33167 20.51715,-42.09576 25.53938,-57.13217 4.38837,-13.13867 6.75714,-24.67085 7.4095,-36.07256 l 0.50303,-8.79171 -2.65727,-0.53146 c -1.46149,-0.2923 -2.92207,-0.53145 -3.24573,-0.53145 -0.32366,0 -0.8091,3.56647 -1.07876,7.92549 -1.03515,16.73345 -6.07258,35.27387 -15.1839,55.88484 -2.56928,5.81202 -10.91623,22.89292 -18.54878,37.95755 -14.66087,28.93669 -17.95582,37.229 -20.0474,50.4528 -1.71437,10.83896 -2.86265,28.20241 -2.9156,44.08753 l -0.0461,13.8188 -5.95124,-11.78663 c -6.9291,-13.72331 -12.64248,-27.74022 -21.14517,-51.87643 -3.35765,-9.53119 -7.06662,-19.47263 -8.24216,-22.09208 l -2.13735,-4.76264 3.24433,-7.98412 c 8.25308,-20.31029 8.57431,-25.90684 7.16519,-124.83426 l -0.68024,-47.756133 h -3.03159 -3.03158 l -0.52483,7.925487 c -0.28866,4.359017 -0.54067,26.946656 -0.56002,50.194746 -0.0406,48.78843 -0.99635,79.96714 -2.75335,89.82219 -1.65171,9.26447 -6.96011,24.40485 -8.5474,24.37848 -0.25251,-0.004 -2.47095,-1.15364 -4.92988,-2.55432 -12.45998,-7.09755 -29.25615,-31.51895 -41.28589,-60.02907 -7.13053,-16.89914 -13.6029,-36.65855 -22.09981,-67.46825 -2.28102,-8.27096 -4.68042,-16.919874 -5.33198,-19.21981 l -1.18468,-4.181714 -3.16641,0.803725 -3.16641,0.803718 4.43624,17.196791 c 12.08984,46.86543 19.65557,69.41343 31.13595,92.79373 10.90688,22.21234 25.1793,40.83419 35.85006,46.77514 6.09914,3.3957 10.12025,7.33756 12.14512,11.90574 0.83028,1.87312 4.67273,12.66398 8.5388,23.97968 8.96778,26.24802 12.92694,36.31344 20.32172,51.66413 5.80706,12.05479 11.89728,22.17359 15.07827,25.05235 1.1978,1.08399 1.55955,2.48527 1.53984,5.96486 l -0.0258,4.54802 -1.73888,-2.43861 c -0.95639,-1.34124 -3.96258,-4.65332 -6.68043,-7.36018 -13.46658,-13.41212 -31.60318,-14.15044 -46.19996,-1.88072 -2.6196,2.20197 -3.98141,2.90531 -4.22307,2.1811 -0.19616,-0.5879 -2.0419,-7.65315 -4.10163,-15.70057 -7.98428,-31.19477 -12.6927,-45.68987 -21.85101,-67.26938 -3.27199,-7.70972 -8.42232,-20.96356 -11.44518,-29.45299 -8.07633,-22.68171 -12.11555,-31.30496 -25.4907,-54.41951 -17.60413,-30.42296 -23.68583,-52.92263 -25.06218,-92.71925 -0.60994,-17.636144 1.72528,-79.783015 3.37331,-89.773138 1.15164,-6.9811344 3.05008,-10.78971704 5.6311,-11.29687466 2.12028,-0.41662544 7.04194,5.29652816 10.79906,12.53573766 5.11895,9.8632 8.51682,18.609929 15.95845,41.079831 9.49852,28.680672 14.78162,42.334773 31.5711,81.595004 13.95589,32.63422 17.46447,39.50309 20.48124,40.09697 2.05739,0.40501 6.72509,-4.79155 7.94985,-8.85056 1.75356,-5.81151 1.42938,-58.92824 -0.50075,-82.050815 -2.40027,-28.75453 -1.72578,-40.990544 3.19565,-57.973398 3.76724,-12.99996 8.70148,-20.0621636 14.01709,-20.0621636 1.01693,0 3.2695,1.2833735 5.00572,2.8519413 5.73475,5.1809943 11.32457,18.1650803 16.79472,39.0108863 7.46844,28.460978 9.08932,41.301556 7.7525,61.415259 -2.36297,35.55295 -2.59589,45.9975 -1.71206,76.77271 0.97781,34.04807 1.87984,46.062 3.8231,50.91867 1.16031,2.89992 1.54543,3.19961 3.82629,2.97762 2.11421,-0.20577 2.8962,-0.92298 4.70069,-4.31119 6.1205,-11.49226 15.68887,-48.85066 22.67655,-88.53759 6.55501,-37.22956 27.49618,-76.881543 40.603,-76.881543 5.20621,0 8.5503,5.095109 10.9412,16.670233 1.83571,8.887243 1.55051,14.69446 -1.56739,31.91498 -1.54616,8.53958 -3.21076,21.12847 -3.69912,27.97531 -2.00722,28.1409 -4.99466,38.01614 -27.6191,91.29722 -3.22729,7.60034 -6.71269,17.12269 -7.74535,21.16079 -3.90631,15.27534 -4.44131,34.74605 -1.56584,56.98662 l 1.17052,9.05343 -5.9784,5.98468 c -6.59356,6.60048 -11.35848,15.18385 -13.92673,25.08713 -1.86054,7.1743 -2.52682,24.37492 -1.25233,32.33 3.66377,22.86861 15.22264,41.2718 30.8506,49.11814 5.09203,2.55655 5.7742,2.68362 14.37144,2.67701 l 9.02567,-0.007 5.1126,12.19998 c 10.29928,24.57679 21.37551,44.89251 46.75939,85.76477 21.29735,34.29228 28.38187,54.30949 35.29686,99.73078 1.37418,9.02635 2.72443,17.00028 3.00055,17.71983 1.05442,2.74777 3.2747,0.56613 7.24304,-7.11705 4.26294,-8.25352 6.93446,-11.72385 8.35119,-10.84827 4.76591,2.94549 3.34214,46.12103 -5.20327,157.7882 -1.0022,13.09629 -1.20741,23.69363 -0.8815,45.52074 0.58023,38.85805 2.20435,51.94193 13.82378,111.36325 3.32207,16.98899 6.98228,36.21972 8.1338,42.73496 4.34893,24.60594 9.42032,34.15034 16.44516,30.94954 4.41082,-2.0097 8.32504,-11.8726 9.40287,-23.693 0.42805,-4.6943 2.94018,-21.33782 5.58251,-36.98557 7.93185,-46.97197 9.79846,-62.60704 11.79105,-98.76376 0.7022,-12.74174 1.80085,-25.68906 2.44146,-28.77179 1.04874,-5.04679 2.90293,-8.62025 4.47288,-8.62025 0.31865,0 3.60247,2.01185 7.29738,4.47079 5.86367,3.90226 7.22634,4.47078 10.71521,4.47078 4.53565,0 7.42872,-1.2636 10.53529,-4.60141 9.54826,-10.25916 12.87646,-35.18098 12.90063,-96.60095 0.0178,-45.32937 1.63745,-69.55186 6.0255,-90.11652 2.68586,-12.58728 5.6068,-21.162 13.51583,-39.67716 l 6.83116,-15.99182 3.87147,3.62132 c 20.56639,19.23745 53.31724,-1.26305 62.47418,-39.10593 6.76593,-27.96153 -2.33057,-54.05886 -20.96755,-60.1547 l -4.14367,-1.35534 2.33283,-5.65718 c 1.28307,-3.11145 3.85031,-10.30472 5.70502,-15.98504 l 3.37216,-10.32745 -0.40322,-10.16088 c -0.25578,-6.44549 -1.62025,-17.31217 -3.73158,-29.71828 -4.95457,-29.11295 -6.66529,-43.72637 -7.17884,-61.32321 -0.89857,-30.78995 1.6695,-45.17143 15.74905,-88.19644 15.84587,-48.42263 30.67517,-74.83119 53.09932,-94.56123 20.90743,-18.39556 38.50348,-28.53349 49.5851,-28.56846 5.62677,-0.0177 9.03708,1.94687 11.55064,6.65411 1.65509,3.09955 1.85562,4.56941 1.80669,13.24104 -0.0858,15.2047 -3.56582,26.35836 -15.97835,51.21083 -11.38645,22.79786 -18.07345,40.49366 -27.07745,71.65491 -9.95035,34.43641 -17.17746,64.65212 -19.99657,83.60334 -1.63468,10.98903 -1.45248,32.17349 0.32638,37.94764 1.9528,6.33875 4.81207,9.60528 8.40771,9.60528 3.15605,0 4.5528,-1.63182 12.3649,-14.44628 6.46093,-10.59805 27.33975,-52.86404 34.95529,-70.76147 17.39608,-40.88309 30.81617,-91.05456 36.45797,-136.29944 1.21801,-9.76788 1.38644,-17.34858 1.18883,-53.50723 -0.288,-52.709978 0.72402,-64.09053 7.19024,-80.85807 4.82415,-12.509506 11.08471,-19.677344 17.18075,-19.670606 12.93537,0.0143 27.93893,33.403961 30.86315,68.684516 1.25003,15.08117 0.48536,73.38905 -1.24719,95.10584 -4.38308,54.93971 -8.94036,87.76352 -15.96177,114.9655 -13.44333,52.08157 -37.50625,103.06449 -75.79887,160.59757 -7.06774,10.61911 -13.48048,21.40747 -16.96842,28.5468 l -5.60702,11.47652 -4.44234,0.52212 c -14.27555,1.67781 -27.72878,12.90989 -36.14126,30.17429 -4.90202,10.06011 -7.21762,18.70307 -7.84411,29.27811 -0.91353,15.42008 3.34714,28.53988 11.76759,36.2357 l 4.45086,4.06783 -4.24959,15.20071 c -7.01876,25.10604 -12.36265,40.11675 -22.19593,62.3472 -13.50533,30.53201 -15.56877,37.36316 -16.46834,54.51963 -0.59884,11.42111 -2.41628,18.42647 -7.14762,27.55062 -7.59205,14.64093 -23.08901,31.67877 -37.54197,41.27487 -4.47079,2.96844 -9.29879,6.60791 -10.7289,8.08782 -8.02732,8.30672 -9.53695,25.67378 -3.81649,43.90541 4.60328,14.67117 10.64117,24.93658 19.37333,32.93799 2.93312,2.68768 5.33294,5.42575 5.33294,6.0845 0,0.65883 -6.12701,9.40207 -13.61558,19.42956 -28.09598,37.62143 -49.59215,72.68072 -57.5878,93.92322 -4.64967,12.3532 -8.77736,32.9102 -11.31813,56.3676 -1.23838,11.4332 -2.6796,52.0238 -1.84718,52.0238 0.22707,0 1.68809,-1.9205 3.24671,-4.2676 6.45937,-9.7274 15.79582,-17.7786 19.13198,-16.4984 2.85655,1.0961 -0.65133,16.34 -9.25029,40.1979 -2.02948,5.6308 -8.40081,22.1415 -14.1585,36.6903 -13.89587,35.113 -16.28257,44.4627 -17.462,68.4062 -0.48022,9.7491 0.56412,29.5 1.61542,30.5513 0.65055,0.6506 7.14308,-2.009 20.69267,-8.4766 6.88653,-3.2871 13.15165,-5.9766 13.92249,-5.9766 2.34926,0 3.39753,2.1811 3.34056,6.9505 -0.13158,11.0167 -9.44236,36.2464 -28.11428,76.1821 -18.20446,38.936 -23.32848,56.987 -29.81925,105.0469 -0.56513,4.1845 -1.02614,17.5798 -1.07704,31.2956 -0.0855,23.0258 -0.16576,24.1994 -2.01889,29.5051 -1.12708,3.227 -3.16728,6.9199 -4.90447,8.8775 l -2.97458,3.3519 z M 199.19008,688.42397 c -15.61498,-3.05142 -32.27771,-21.83233 -39.33409,-44.33429 -9.4006,-29.97736 0.84251,-57.14669 20.86054,-55.33152 13.11459,1.18919 28.36622,14.82524 37.07301,33.14594 10.8116,22.7496 10.71294,47.66574 -0.2401,60.64051 -4.03998,4.7857 -11.58749,7.20269 -18.35936,5.87936 z m 609.20259,-67.28121 c -8.4936,-3.85856 -13.38247,-14.58304 -13.39005,-29.37309 -0.009,-18.2628 8.22493,-36.62287 21.4199,-47.76021 8.51473,-7.18698 18.96012,-8.68458 25.90512,-3.71412 4.80382,3.43803 9.25868,12.28328 10.48367,20.81567 4.53834,31.6111 -23.51658,69.52735 -44.41864,60.03175 z M 270.60619,608.11451 c -20.29696,-7.9408 -36.8335,-35.25766 -36.71286,-60.64627 0.0514,-10.81951 2.09727,-17.40557 7.15381,-23.02966 4.69668,-5.22384 9.13076,-7.03021 15.77749,-6.42751 16.53834,1.49965 34.20611,20.04327 41.61917,43.6824 1.63899,5.22649 1.91183,7.7786 1.91183,17.88315 0,11.21185 -0.11116,12.02445 -2.27941,16.66384 -4.30971,9.22146 -10.19764,13.39229 -18.85523,13.35649 -2.72095,-0.0112 -6.52965,-0.66665 -8.6148,-1.48244 z m 436.99752,-14.84359 c -12.34899,-4.5364 -19.1136,-23.88887 -15.52945,-44.42733 4.25377,-24.37561 20.89947,-44.86392 36.44963,-44.86392 5.94794,0 9.86379,1.90383 14.31359,6.95906 6.07028,6.89621 8.68019,16.95611 8.00087,30.83941 -0.52235,10.67537 -2.34319,17.42185 -7.54779,27.96565 -2.98658,6.05038 -5.06616,8.9448 -9.97556,13.88421 -3.62308,3.64524 -7.8877,7.04241 -10.25499,8.16907 -4.56504,2.17262 -11.70159,2.85313 -15.4563,1.47385 z M 339.50784,462.9334 c -7.26858,-2.76449 -15.0315,-10.73479 -19.93726,-20.46986 -5.29389,-10.50528 -7.91727,-29.42416 -5.88268,-42.42359 2.78292,-17.78057 11.88914,-33.04936 23.2469,-38.97907 5.68267,-2.96683 14.47406,-3.05627 20.26509,-0.20617 6.38976,3.14478 12.96683,10.47223 17.11066,19.0628 5.61891,11.64858 6.48931,15.84914 6.50538,31.39493 0.012,11.60844 -0.23758,14.28081 -1.85573,19.86932 -4.05086,13.99028 -12.75518,26.24519 -21.70364,30.55685 -4.96972,2.39457 -13.14688,2.94503 -17.74872,1.19479 z m 97.22402,-30.90709 c -19.47449,-5.32802 -34.47321,-35.67549 -31.14808,-63.02307 4.00868,-32.96931 25.25545,-47.77427 45.29809,-31.56415 13.2395,10.70787 21.65693,33.20577 20.31692,54.30259 -1.15449,18.176 -8.91176,33.53842 -19.47495,38.56793 -5.57248,2.65327 -9.79956,3.1373 -14.99198,1.7167 z"
       id="path2162" />
  </g>
</svg>
