<?xml version="1.0" encoding="UTF-8" standalone="no"?>
<!-- Created with Inkscape (http://www.inkscape.org/) -->

<svg
   version="1.1"
   id="svg1661"
   width="609.65283"
   height="1793.1923"
   viewBox="0 0 609.65283 1793.1923"
   xmlns="http://www.w3.org/2000/svg"
   xmlns:svg="http://www.w3.org/2000/svg">
  <defs/>
  <path
     style="fill:#333333;stroke-width:0.81287"
     d="m 305.09315,1717.1889 c 0.003,-3.1295 0.15053,-4.3102 0.3265,-2.6237 0.17596,1.6866 0.17301,4.2471 -0.007,5.6901 -0.17957,1.443 -0.32354,0.063 -0.31993,-3.0664 z m -0.5862,-14.6982 c -0.85626,-2.2313 -0.5647,-25.5389 0.31946,-25.5389 0.50907,0 0.81288,5.0127 0.81288,13.4124 0,7.3768 -0.14377,13.4123 -0.31947,13.4123 -0.17571,0 -0.5415,-0.5786 -0.81287,-1.2858 z m -0.49341,-46.2671 c 0,-11.3802 0.18475,-13.4123 1.21931,-13.4123 1.41445,0 1.49383,1.955 0.68795,16.9426 -0.29224,5.4351 -0.84093,9.8821 -1.21931,9.8821 -0.37836,0 -0.68795,-6.0356 -0.68795,-13.4124 z m -0.6293,-34.3334 c 0.19998,-12.2078 0.36898,-13.6333 1.64539,-13.8784 1.30991,-0.2515 1.42253,0.8255 1.42253,13.6052 0,13.3918 -0.0577,13.8784 -1.6454,13.8784 -1.59528,0 -1.63861,-0.4143 -1.42252,-13.6052 z m -0.18357,-34.3541 v -13.8188 h 2.03218 c 1.98118,0 2.03207,0.1479 2.02797,5.8933 -0.002,3.2413 -0.24038,9.4598 -0.52904,13.8188 -0.46214,6.9789 -0.70436,7.9255 -2.02796,7.9255 -1.40333,0 -1.50315,-0.9177 -1.50315,-13.8188 z m -50.33379,0.3387 c 0.039,-0.947 0.23162,-1.1396 0.49111,-0.4911 0.23481,0.5868 0.20594,1.2879 -0.0641,1.558 -0.27011,0.2701 -0.46223,-0.2101 -0.42693,-1.0669 z m 1.14582,-4.4031 c 0.32286,-1.5648 0.90145,-3.1797 1.28575,-3.5887 0.3843,-0.4091 0.30751,0.6883 -0.17066,2.4386 -1.114,4.0777 -1.88276,4.8706 -1.11509,1.1501 z m 100.80525,-0.8129 c -0.30863,-1.4052 -0.3917,-2.7243 -0.18461,-2.9313 0.20709,-0.2071 0.61023,0.7919 0.89587,2.2201 0.67765,3.3883 0.021,4.0449 -0.71126,0.7112 z m -97.95089,-10.6843 c 0,-1.277 4.94256,-24.6054 5.28585,-24.9486 0.22234,-0.2224 0.63291,-0.1756 0.91239,0.1038 0.62674,0.6268 -4.4671,23.4444 -5.47269,24.5147 -0.39905,0.4248 -0.72555,0.5733 -0.72555,0.3301 z m 92.34843,-11.97 c -2.7097,-11.2501 -3.10418,-14.3673 -1.63186,-12.895 0.73317,0.7332 5.32724,23.3919 4.9596,24.4615 -0.1752,0.5099 -1.67269,-4.6951 -3.32774,-11.5665 z m -46.28577,6.6679 c -0.29806,-0.298 -0.54192,-6.5165 -0.54192,-13.8188 v -13.2769 h 2.43861 2.43862 v 13.8188 13.8188 h -1.8967 c -1.04319,0 -2.14056,-0.2439 -2.43861,-0.5419 z m -39.5597,-27.2957 c 0,-0.5571 0.80765,-6.2269 1.79478,-12.5995 1.5461,-9.9812 1.99876,-11.5866 3.26697,-11.5866 1.10573,0 1.37059,0.4553 1.06405,1.829 -0.22447,1.0059 -1.17105,6.0355 -2.10351,11.1769 -0.93246,5.1414 -1.87779,9.9882 -2.10074,10.7706 -0.46313,1.6252 -1.92155,1.9361 -1.92155,0.4096 z m 79.34475,-10.193 c -2.46954,-13.0408 -2.53098,-13.9931 -0.90275,-13.9931 0.67062,0 1.2194,0.2743 1.2195,0.6096 1.1e-4,0.3354 0.72411,4.9992 1.60888,10.3641 1.78023,10.7946 2.00196,14.2253 0.91942,14.2253 -0.39765,0 -1.67792,-5.0427 -2.84505,-11.2059 z m -40.32697,-9.9288 v -13.8188 h 2.84505 2.84505 l -0.004,5.8934 c -0.002,3.2413 -0.24038,9.4597 -0.52904,13.8188 l -0.52483,7.9254 h -2.316 -2.31602 v -13.8188 z m -33.77696,-11.4495 c -0.29987,-0.4852 -0.083,-6.3378 0.48186,-13.0059 1.02156,-12.0584 1.03787,-12.1237 3.02633,-12.1237 1.80727,0 1.95541,0.2537 1.5428,2.6418 -0.25104,1.453 -0.85406,6.2997 -1.34003,10.7705 -0.48598,4.4708 -1.08193,9.1347 -1.32435,10.3641 -0.45724,2.3189 -1.444,2.8784 -2.38661,1.3532 z m 69.62354,-6.6368 c -2.47329,-19.9253 -2.44684,-18.4928 -0.3414,-18.4928 1.03777,0 1.90358,0.4572 1.924,1.0161 0.0204,0.5588 0.51017,6.1371 1.0883,12.3962 1.01049,10.94 0.85473,12.5362 -1.22829,12.5871 -0.28011,0.01 -0.92928,-3.3711 -1.44261,-7.5066 z m -36.16604,-4.3341 c -0.27138,-0.7072 -0.49341,-6.7427 -0.49341,-13.4123 v -12.1266 h 3.25148 3.25149 v 13.4123 13.4124 h -2.75808 c -1.76514,0 -2.93571,-0.4629 -3.25148,-1.2858 z m -30.81247,-21.1755 c -0.3135,-0.3135 -0.57001,-6.1788 -0.57001,-13.0341 v -12.4639 h 2.43861 2.43861 l -0.10624,6.7061 c -0.19726,12.4506 -0.9924,18.861 -2.37201,19.1229 -0.69242,0.1314 -1.51545,-0.018 -1.82896,-0.331 z m 64.15547,-0.7321 c -0.2798,-0.7291 -0.50872,-6.5998 -0.50872,-13.0458 v -11.7201 h 2.05282 2.05282 l -0.22387,12.7923 c -0.19332,11.0478 -0.40391,12.8271 -1.54409,13.0459 -0.72614,0.1394 -1.54917,-0.3431 -1.82896,-1.0723 z m -87.4515,-3.3566 c -0.0802,-2.2067 2.43794,-13.3925 4.45382,-19.7836 2.59106,-8.2146 8.02371,-19.8458 12.09284,-25.8903 1.61033,-2.3922 2.92787,-5.1567 2.92787,-6.1436 0,-1.4491 0.66497,-1.9418 3.4547,-2.5602 2.70721,-0.6001 3.51217,-1.1712 3.72032,-2.6394 0.4138,-2.9191 -1.24924,-4.2569 -5.00103,-4.0229 l -3.31166,0.2064 -1.41281,-8.1287 c -0.77705,-4.4708 -1.43556,-10.444 -1.46334,-13.2737 l -0.0506,-5.145 2.64183,0.5665 c 3.72208,0.7984 3.85,0.9369 3.9573,4.2846 0.141,4.3985 1.02403,7.9013 1.94399,7.7114 0.44269,-0.091 1.20737,-2.1753 1.69928,-4.6309 1.5895,-7.9348 4.19682,-10.0641 15.18083,-12.3978 7.89203,-1.6767 30.62802,-1.1088 37.125,0.9273 5.8199,1.8239 9.40218,5.4047 10.19494,10.1904 0.76453,4.6154 1.10712,5.1572 2.51972,3.9849 0.7023,-0.5828 1.14693,-2.4988 1.14693,-4.9422 0,-4.1045 0.0682,-4.186 4.26757,-5.1062 l 2.23539,-0.4898 v 5.3358 c 0,2.9348 -0.61086,9.0141 -1.35747,13.5097 l -1.35747,8.1738 -3.05498,-0.4885 c -2.98696,-0.4777 -5.61026,0.8417 -5.61026,2.8215 0,1.5046 3.29933,4.0063 5.28366,4.0063 1.48362,0 2.03217,0.4346 2.03217,1.61 0,0.8855 1.23153,3.5375 2.73673,5.8933 6.79298,10.632 12.50402,24.3079 15.1971,36.3917 2.21504,9.9389 1.92196,11.0009 -1.11593,4.0435 -1.46913,-3.3646 -3.81756,-8.1198 -5.21873,-10.5673 -3.32897,-5.8148 -10.66536,-16.2399 -11.41712,-16.2241 -1.23849,0.026 -2.44493,1.271 -2.74524,2.8326 -0.26847,1.396 -0.84441,1.5877 -4.07489,1.3564 l -3.76223,-0.2694 -2.56424,5.2087 c -7.27463,14.7769 -19.86828,21.4534 -31.89869,16.9111 -5.85446,-2.2105 -12.64855,-8.8303 -16.05104,-15.6393 -2.93986,-5.8831 -3.91844,-7.1602 -5.19087,-6.7742 -4.57206,1.3871 -5.26422,1.2509 -6.11995,-1.2039 -0.46676,-1.3389 -1.21924,-2.4344 -1.67216,-2.4344 -2.86278,0 -12.81213,15.7752 -18.4562,29.2633 -1.02893,2.4589 -1.88625,4.0457 -1.90515,3.5262 z m 15.04984,-94.7486 c -2.11406,-3.0182 -1.65823,-10.6408 0.95584,-15.9838 2.63029,-5.376 9.81888,-12.716 16.30067,-16.6439 10.16974,-6.1627 23.32604,-8.4777 33.43887,-5.8841 10.01935,2.5696 20.71454,9.4342 28.9937,18.6094 5.22244,5.7878 6.20256,8.3455 5.20784,13.5906 -0.43598,2.2989 -1.00127,4.5174 -1.25621,4.9298 -0.88777,1.4365 -3.48316,0.7316 -7.66301,-2.0813 -8.21878,-5.5308 -23.92215,-8.3926 -40.25749,-7.3366 -15.52529,1.0036 -23.662,3.5295 -29.90347,9.2826 -1.98332,1.8282 -3.81872,3.324 -4.07869,3.324 -0.25995,0 -1.04208,-0.813 -1.73805,-1.8067 z m -3.70401,-35.9067 c 0,-7.8302 4.28411,-14.9859 13.36335,-22.3209 15.80734,-12.7704 35.17723,-15.3233 52.038,-6.8584 8.93389,4.4852 19.30176,13.4906 24.39856,21.1924 2.02341,3.0576 2.19067,3.8399 1.68546,7.8835 -0.30847,2.469 -0.7081,4.4891 -0.88804,4.4891 -0.17995,0 -3.1808,-2.3039 -6.66854,-5.1197 -7.66127,-6.1853 -13.24601,-9.4248 -21.33777,-12.3772 -8.19906,-2.9915 -20.88751,-3.6901 -29.48586,-1.6234 -10.66329,2.563 -21.17861,8.2238 -29.24403,15.743 l -3.86113,3.5997 z m -4.7977,-28.2504 c -0.49082,-1.408 -0.89239,-5.0075 -0.89239,-7.9989 0,-4.4254 0.45277,-6.3342 2.42953,-10.2428 4.82265,-9.5357 14.2919,-18.0117 26.15076,-23.4078 17.85209,-8.1232 34.49033,-6.6654 51.62999,4.5234 7.26327,4.7415 17.7569,14.9771 20.95251,20.4373 2.21201,3.7796 2.26197,4.1065 1.41174,9.2375 -1.44945,8.7471 -4.93456,10.6295 -10.51461,5.679 -11.19668,-9.9335 -28.06241,-16.8025 -41.25552,-16.8025 -14.14111,0 -33.86,8.2724 -43.44481,18.2256 -3.47958,3.6134 -5.29511,3.7114 -6.4672,0.3492 z m -6.43586,-32.2713 c -0.30418,-0.7379 -0.55306,-4.4508 -0.55306,-8.251 0,-8.3156 2.0416,-13.2214 8.65607,-20.7995 18.11291,-20.7517 45.10024,-28.2458 68.70741,-19.0791 11.75328,4.5639 28.37697,17.8621 35.03689,28.0281 2.23813,3.4164 2.6208,4.7339 2.6208,9.0235 0,4.8159 -1.09442,9.7175 -2.52157,11.2936 -0.38706,0.4274 -3.36752,-1.8263 -7.00167,-5.2945 -22.43693,-21.4121 -48.64131,-27.3167 -73.64848,-16.5952 -10.15931,4.3558 -15.05177,7.6481 -23.14841,15.5775 -6.02748,5.903 -7.70905,7.1612 -8.14798,6.0966 z m -5.36699,-37.7175 c -1.68248,-2.5784 -3.10631,-12.4704 -2.46562,-17.13 1.87855,-13.662 19.61451,-31.9061 38.48156,-39.5842 13.14342,-5.3487 28.62631,-6.6119 40.95947,-3.3415 16.5636,4.392 37.09868,19.4962 47.11366,34.6535 3.14788,4.7641 3.21305,5.009 2.81228,10.5673 -0.65797,9.1253 -3.34787,14.2252 -7.50303,14.2252 -0.7461,0 -3.23924,-1.6971 -5.54032,-3.7714 -11.05725,-9.9672 -25.1146,-17.7082 -37.56029,-20.6832 -9.35005,-2.235 -24.24908,-1.8583 -33.63062,0.8506 -13.10713,3.7845 -25.46597,11.1064 -34.98463,20.7264 -2.8931,2.9239 -5.53666,5.3162 -5.87457,5.3162 -0.33792,0 -1.15147,-0.823 -1.80789,-1.8289 z m -99.09801,-22.2863 c -1.12733,-1.1273 -0.29895,-2.9317 8.8061,-19.1818 5.1414,-9.176 9.34801,-17.2355 9.34801,-17.9098 0,-0.6742 3.65791,-12.0158 8.1287,-25.2033 5.76461,-17.004 8.12871,-25.094 8.12871,-27.8167 0,-5.1894 31.83258,-105.0909 34.05427,-106.874 0.8356,-0.6706 2.16753,-1.6027 2.95985,-2.0713 1.33282,-0.7883 1.36218,-1.356 0.39258,-7.5888 -1.66959,-10.7326 -0.79693,-19.14888 2.76265,-26.64436 8.65707,-18.22935 27.54113,-35.21777 49.23927,-44.29648 15.84356,-6.62904 33.3195,-9.14504 48.1329,-6.92956 15.06986,2.25377 27.05994,7.09896 41.5577,16.79342 14.1234,9.44409 30.74183,26.4443 36.0707,36.8992 1.75164,3.43665 2.10193,5.16676 1.9959,9.85825 -0.15943,7.05413 -1.46672,13.69323 -3.47498,17.64753 -2.11263,4.1598 -1.9558,4.7064 1.35033,4.7064 3.45201,0 6.3717,2.564 7.51822,6.6024 0.42873,1.5101 7.78507,24.6345 16.34741,51.3877 11.74481,36.6967 15.45635,49.2729 15.11366,51.2108 -0.34144,1.9309 1.57051,8.4873 7.69914,26.4017 4.48436,13.1081 8.15338,24.4437 8.15338,25.1903 0,0.7465 4.20661,8.9104 9.34801,18.1419 5.14141,9.2315 9.34801,17.3527 9.34801,18.0471 0,1.834 -1.61091,2.542 -2.84795,1.2514 -0.5864,-0.6117 -4.96812,-8.0622 -9.73714,-16.5567 -4.76902,-8.4945 -9.50906,-16.3591 -10.53341,-17.4768 -1.209,-1.3192 -4.65765,-10.4184 -9.82937,-25.9348 -5.73729,-17.2132 -8.58005,-24.6067 -10.15773,-26.4183 -2.99616,-3.4404 -35.14216,-103.6087 -34.76843,-108.3398 0.21349,-2.7027 0.0363,-3.0701 -1.38084,-2.8634 -9.07274,1.3228 -7.78077,1.7245 -16.17876,-5.0301 -33.50972,-26.95199 -68.76656,-33.16086 -105.10613,-18.50952 -13.99382,5.64202 -24.77521,12.68942 -36.41197,23.80142 -2.23539,2.1346 -4.97883,4.2246 -6.09653,4.6446 -2.09517,0.7872 -3.187,4.0125 -31.52373,93.1238 -2.4888,7.8266 -4.20055,11.8559 -5.5798,13.1341 -1.48206,1.3735 -4.04982,8.0168 -10.06566,26.0418 -5.38187,16.1254 -8.71544,24.8959 -9.9927,26.2902 -1.05415,1.1507 -5.88847,9.2252 -10.74292,17.9432 -9.43323,16.941 -10.35209,18.2037 -12.02745,16.5283 z m 92.57722,-22.5055 c -4.39011,-4.3901 -4.94265,-20.0537 -1.00671,-28.5383 8.03509,-17.3213 29.27616,-33.8287 50.95277,-39.5977 9.15045,-2.4354 26.86736,-2.6328 34.95343,-0.3894 7.1849,1.9932 18.75501,7.5533 26.26859,12.6234 8.53634,5.7602 20.89707,17.7863 25.77033,25.0723 3.99345,5.9707 4.04866,6.1397 4.01356,12.2857 -0.0582,10.1931 -2.87139,15.9199 -8.63483,17.578 -1.36763,0.3935 -2.91107,-0.5212 -6.90939,-4.0949 -19.15335,-17.1187 -41.28479,-25.8974 -61.64499,-24.4522 -20.56755,1.4599 -39.48985,10.1418 -54.4891,25.0006 -3.56733,3.534 -6.68288,6.4253 -6.92345,6.4253 -0.24057,0 -1.29816,-0.8607 -2.35021,-1.9128 z m -7.24448,-51.7899 c -3.73965,-2.9416 -6.21199,-16.513 -4.59063,-25.1993 3.76091,-20.1489 29.69348,-43.5378 57.06844,-51.4708 21.20406,-6.1447 40.82659,-4.0311 60.91934,6.5617 12.68738,6.6887 28.33672,20.0076 37.05435,31.5363 6.71759,8.8837 7.60386,12.3867 5.85733,23.1516 -1.5051,9.2767 -5.57137,13.8645 -12.264,13.8368 -2.11909,-0.01 -3.8928,-1.0126 -8.00585,-4.5308 -14.42482,-12.3388 -31.45802,-20.8895 -47.74932,-23.9706 -7.44411,-1.4078 -25.82391,-0.546 -33.81711,1.5857 -16.27261,4.3398 -29.71724,11.7937 -41.60415,23.0658 -4.26365,4.0432 -8.19815,7.1126 -9.11714,7.1126 -0.88916,0 -2.57723,-0.7555 -3.75126,-1.679 z m -5.2952,-58.9306 c -2.94582,-3.745 -3.74707,-7.6365 -3.7553,-18.2388 -0.007,-9.7449 0.0982,-10.3848 2.58345,-15.6312 3.44024,-7.2622 6.27253,-11.2657 13.27274,-18.7615 11.25782,-12.0548 25.47235,-21.0956 41.03684,-26.1006 13.72137,-4.4124 27.08738,-5.6418 40.40088,-3.7162 7.06032,1.0211 20.57957,5.6907 27.39266,9.4615 18.41015,10.1894 38.42685,29.1532 44.48854,42.1485 1.62264,3.4787 1.82831,4.8843 1.42727,9.7544 -1.00522,12.2074 -4.43474,19.0845 -10.14238,20.3381 -2.12455,0.4666 -3.05843,-0.02 -7.47663,-3.899 -16.28402,-14.2954 -34.23023,-23.6604 -52.60177,-27.4494 -14.82618,-3.0578 -34.72023,-1.1178 -50.25061,4.9001 -12.97073,5.026 -26.56257,13.7523 -36.04109,23.1391 -3.40887,3.3759 -6.76006,6.138 -7.44705,6.138 -0.687,0 -1.9864,-0.9374 -2.88755,-2.083 z M 201.63674,982.1667 c -4.53869,-6.85217 -5.21225,-10.86604 -4.67315,-27.84845 0.8809,-27.74994 5.60749,-47.5005 15.33336,-64.07216 4.07175,-6.93769 16.13762,-18.58629 23.49834,-22.68567 16.45878,-9.16626 38.33857,-13.23142 71.22224,-13.23289 43.83083,0 66.46237,6.09263 82.06511,22.0996 10.37599,10.64478 16.7187,24.26264 20.5629,44.1487 3.46891,17.94468 4.65401,46.79964 2.2317,54.33803 -1.41502,4.40365 -5.16945,10.52716 -6.21345,10.1343 -0.37349,-0.14054 -2.96721,-3.6849 -5.76382,-7.8763 -10.13442,-15.1889 -30.10956,-32.65017 -47.87458,-41.8495 -18.19739,-9.42329 -34.45354,-13.31035 -52.02894,-12.44099 -16.03396,0.79312 -28.11559,3.9764 -43.53583,11.47066 -20.8341,10.12544 -38.41151,26.40366 -47.85876,44.32144 -2.12808,4.03615 -3.99275,7.33843 -4.1437,7.33843 -0.15096,0 -1.4206,-1.73035 -2.82142,-3.8452 z M 79.807985,939.53904 c 0.220437,-1.49788 2.120105,-2.38992 12.550793,-5.89331 l 12.291052,-4.12833 10.81725,-8.73795 c 6.23427,-5.03589 11.53083,-9.99286 12.5015,-11.70005 2.43278,-4.27854 53.66369,-37.68224 57.79287,-37.68224 3.85585,0 4.45023,-1.59493 4.45023,-11.94139 0,-23.46017 5.83671,-50.58221 14.04865,-65.2813 13.01694,-23.29988 32.79341,-35.33657 66.42553,-40.42904 13.87291,-2.1006 61.32838,-2.03874 75.19051,0.098 36.73564,5.66252 55.9042,20.86795 66.26118,52.56156 4.30425,13.17151 6.50356,28.21108 7.95882,54.42485 l 0.56408,10.16088 3.21764,0.26239 c 2.58203,0.21054 8.04155,3.39943 27.6376,16.14321 28.73177,18.68488 29.61716,19.32323 30.65628,22.10284 0.46391,1.24093 5.44409,5.87973 11.89176,11.07666 l 11.09357,8.94157 12.21389,4.10776 c 10.4242,3.50575 12.25196,4.36935 12.47365,5.89332 0.38424,2.64126 -1.91293,2.34431 -14.48498,-1.87237 -5.99833,-2.01185 -11.937,-3.65792 -13.19703,-3.65792 -1.69816,0 -5.17607,-2.31375 -13.44043,-8.94157 -6.38622,-5.12157 -11.89265,-8.94158 -12.88907,-8.94158 -0.9568,0 -13.87586,-7.89508 -28.70904,-17.54467 -14.83318,-9.64959 -27.45299,-17.35909 -28.04404,-17.1323 -0.59104,0.22679 -1.94045,1.96804 -2.99869,3.86942 -2.43105,4.36788 -3.46522,4.69214 -4.78706,1.50089 -0.57938,-1.39871 -2.48532,-4.75863 -4.23543,-7.46638 -12.58291,-19.46817 -30.83292,-30.0489 -60.77626,-35.23598 -10.30618,-1.78531 -53.68231,-2.55217 -67.26323,-1.18923 -17.90555,1.79701 -33.9132,5.87973 -45.09377,11.50106 -13.18398,6.62863 -25.32304,17.69814 -32.33394,29.48509 -2.01186,3.38235 -4.02371,6.04661 -4.47079,5.92046 -0.44708,-0.12608 -1.91024,-2.11436 -3.25148,-4.41836 -1.34124,-2.304 -2.85305,-4.20132 -3.35959,-4.21628 -0.50653,-0.0146 -13.0102,7.83737 -27.78593,17.44957 -14.77573,9.61219 -27.56636,17.47671 -28.42362,17.47671 -1.80688,0 -4.81514,2.11582 -16.00794,11.25915 -5.22258,4.26627 -8.81508,6.624 -10.09299,6.624 -1.09129,0 -7.18585,1.64607 -13.543474,3.65792 -13.331189,4.21863 -15.225889,4.46014 -14.848071,1.89293 z M 204.9147,765.70261 c -0.48632,-2.26764 -0.88422,-7.74131 -0.88422,-12.1637 0,-4.99975 -0.34018,-8.25097 -0.89947,-8.59663 -0.49471,-0.30574 -14.66914,-2.50825 -31.49873,-4.89447 -17.40967,-2.46847 -31.47522,-4.84369 -32.63143,-5.51043 -1.41,-0.81307 -6.21001,-1.35389 -15.67798,-1.76646 -11.49862,-0.50103 -13.94883,-0.83297 -15.57171,-2.10953 -1.05926,-0.83321 -6.98977,-3.68006 -13.178927,-6.32635 -8.466005,-3.61979 -11.313986,-5.20495 -11.499207,-6.40032 -0.135408,-0.87389 0.268093,-1.78625 0.896677,-2.02746 0.628577,-0.24121 6.592038,1.87034 13.252122,4.69233 l 12.109245,5.13087 14.22524,0.19866 c 9.91437,0.13845 14.96423,-0.10809 16.66384,-0.81354 2.09445,-0.86934 6.51115,-0.42655 31.29551,3.13751 15.8713,2.28232 29.85586,4.14823 31.07681,4.14646 2.51048,-0.004 2.3843,0.32992 4.306,-11.38343 6.63995,-40.47257 26.3562,-67.58282 57.41981,-78.95346 12.25058,-4.48424 19.15354,-5.64433 36.44378,-6.12459 24.31193,-0.6753 38.9368,1.83747 54.86876,9.42724 27.1126,12.91608 42.04639,36.96377 47.98248,77.26559 0.69055,4.6883 1.61117,8.8798 2.04582,9.31445 0.51179,0.5118 11.6325,-0.72995 31.55785,-3.52377 28.20027,-3.95408 30.96365,-4.21378 33.11739,-3.11244 1.94919,0.99676 4.84432,1.10326 16.98147,0.62468 l 14.63167,-0.57693 11.32762,-4.9321 c 6.2302,-2.71266 11.82786,-4.74015 12.43926,-4.50553 0.61139,0.23461 1.00083,1.16856 0.86542,2.07544 -0.19005,1.27294 -2.74822,2.71604 -11.21994,6.32934 -6.03556,2.57425 -12.07113,5.40705 -13.41236,6.29509 -2.07832,1.37609 -4.42022,1.69677 -15.85098,2.17054 -9.62107,0.39877 -13.93989,0.89349 -15.2786,1.75018 -1.14308,0.73149 -13.84141,2.87769 -32.77025,5.53863 -16.9972,2.3894 -31.15486,4.59376 -31.46145,4.89859 -0.30659,0.30482 -0.74033,5.25061 -0.96387,10.99063 -0.22354,5.74002 -0.67515,10.70451 -1.00356,11.03217 -0.32842,0.32768 -2.34027,-1.03201 -4.47079,-3.02152 -12.27913,-11.46649 -29.74108,-18.91589 -52.23945,-22.28573 -11.81899,-1.77026 -39.7974,-2.71175 -57.30737,-1.92841 -37.98621,1.69936 -60.27505,8.95309 -80.1996,26.1003 l -4.60266,3.96108 z m 56.51119,-139.78953 c -12.73418,-2.28613 -17.20508,-7.68271 -16.63733,-20.08198 0.23916,-5.22316 0.78288,-7.37169 3.01054,-11.89624 2.44173,-4.95937 2.61742,-5.76623 1.72476,-7.92131 -2.13525,-5.15494 0.3959,-12.9762 6.60241,-20.40153 1.74868,-2.09206 3.1794,-4.4068 3.1794,-5.14388 0,-4.24651 -132.89559,-309.59546 -170.697094,-392.20395 -10.770403,-23.53682 -11.780911,-25.86353 -10.767579,-24.79255 3.40675,3.60057 86.638073,181.96404 159.502783,341.81204 13.95997,30.6249 26.69286,58.55546 28.2953,62.06793 l 2.91354,6.38629 3.30201,-0.56166 c 1.8161,-0.30892 4.41222,-0.7445 5.76915,-0.96796 1.71125,-0.28182 3.08101,0.0909 4.47079,1.21657 2.01726,1.63388 2.19807,3.0155 1.40129,10.70727 -0.20873,2.015 -0.16586,2.02892 5.07315,1.64783 8.70003,-0.63286 26.85489,-0.47051 32.67023,0.29217 l 5.43908,0.71332 -0.15542,-6.3784 c -0.153,-6.279 -0.11907,-6.39611 2.17645,-7.51379 1.9413,-0.94521 3.13977,-0.96394 7.15511,-0.11183 2.84301,0.60333 5.11259,0.72396 5.52804,0.29382 0.38765,-0.40136 11.8519,-25.23779 25.47611,-55.19207 44.16515,-97.10179 90.33774,-197.25047 121.23687,-262.9636 19.65937,-41.80956 45.34954,-95.17479 45.66536,-94.85897 0.14946,0.14946 -3.9713,9.57418 -9.15725,20.94384 -24.60768,53.9499 -58.09396,129.67123 -98.65139,223.07687 -34.84885,80.25851 -74.97609,173.75145 -75.37549,175.61823 -0.23615,1.10383 0.77834,3.01922 3.01382,5.69009 6.52875,7.80037 8.96073,14.70596 6.90867,19.61721 -1.24122,2.97067 -1.20976,3.18014 1.19473,7.9552 6.98065,13.86281 4.12265,25.20769 -7.44014,29.53389 -8.06056,3.01584 -15.54229,3.64835 -24.66453,2.08514 -11.22706,-1.92388 -37.83232,-1.90741 -47.52322,0.0294 -8.86847,1.77248 -15.64175,2.19993 -20.64015,1.30257 z M 74.478066,137.75012 c -0.784402,-2.04411 -0.553004,-2.57155 0.405244,-0.92369 0.474464,0.81591 0.691426,1.65472 0.482137,1.86401 -0.209288,0.20929 -0.60861,-0.21386 -0.887381,-0.94032 z"
     class="species_main_colour"/>
</svg>
