<?xml version="1.0" encoding="UTF-8" standalone="no"?>
<!-- Created with Inkscape (http://www.inkscape.org/) -->

<svg
   version="1.1"
   id="svg3539"
   width="866.5199"
   height="1592.4132"
   viewBox="0 0 866.5199 1592.4132"
   xmlns="http://www.w3.org/2000/svg"
   xmlns:svg="http://www.w3.org/2000/svg">
  <defs />
  <g>
      <path
         class="species_main_colour"
         style="fill:#4c4a48;stroke-width:0.81287;opacity:0.2;"
         d="M 251.58398 76.816406 L 254.38477 79.865234 C 256.99215 82.702534 257.67969 83.28674 257.67969 82.666016 C 257.67969 82.530177 256.3074 81.157895 254.63086 79.617188 L 251.58398 76.816406 z M 622.6582 78.847656 C 622.61625 78.8057 622.28721 79.053041 621.64258 79.558594 C 620.86019 80.172184 620.2207 80.811672 620.2207 80.980469 C 620.2207 81.64949 620.88731 81.219271 621.94922 79.865234 C 622.45477 79.220605 622.70016 78.889613 622.6582 78.847656 z M 249.55078 84.539062 C 249.50882 84.58102 249.75421 84.910057 250.25977 85.554688 C 250.87336 86.337076 251.5148 86.976562 251.68359 86.976562 C 252.35262 86.976563 251.92045 86.309956 250.56641 85.248047 C 249.92177 84.742494 249.59274 84.497105 249.55078 84.539062 z M 607.12695 85.351562 C 606.90342 85.351562 605.47953 86.632491 603.96289 88.197266 C 602.44626 89.762042 601.3878 91.041016 601.61133 91.041016 C 601.83487 91.041016 603.25875 89.762042 604.77539 88.197266 C 606.29202 86.632491 607.35049 85.351562 607.12695 85.351562 z M 605.58789 97.544922 C 605.54593 97.502965 605.2169 97.748354 604.57227 98.253906 C 603.78988 98.867501 603.15039 99.506989 603.15039 99.675781 C 603.15039 100.3448 603.81701 99.914586 604.87891 98.560547 C 605.38446 97.915916 605.62985 97.586879 605.58789 97.544922 z M 273.53125 99.576172 L 275.91797 102.21875 C 278.14343 104.68132 278.81445 105.23346 278.81445 104.60547 C 278.81445 104.46558 277.62487 103.27795 276.17188 101.96484 L 273.53125 99.576172 z M 266.62109 103.23438 C 266.57914 103.27633 266.82452 103.60537 267.33008 104.25 C 267.94367 105.03239 268.58512 105.67383 268.75391 105.67383 C 269.42294 105.67383 268.99075 105.00527 267.63672 103.94336 C 266.99208 103.4378 266.66305 103.19242 266.62109 103.23438 z M 597.45898 106.48633 C 597.41703 106.44437 597.08799 106.68976 596.44336 107.19531 C 595.66098 107.8089 595.02148 108.4484 595.02148 108.61719 C 595.02148 109.28622 595.68809 108.85599 596.75 107.50195 C 597.25556 106.85732 597.50094 106.52829 597.45898 106.48633 z M 585.67383 107.70508 L 583.03125 110.09375 C 581.57824 111.40686 580.38867 112.59448 580.38867 112.73438 C 580.38867 113.36236 581.0597 112.81022 583.28516 110.34766 L 585.67383 107.70508 z M 274.75 112.17578 C 274.70804 112.21774 274.95343 112.54678 275.45898 113.19141 C 276.52089 114.54545 277.18945 114.97761 277.18945 114.30859 C 277.18945 114.13979 276.54802 113.49837 275.76562 112.88477 C 275.12099 112.37922 274.79196 112.13382 274.75 112.17578 z M 294.66602 121.52344 L 297.4668 124.57227 C 300.07417 127.40956 300.76172 127.99377 300.76172 127.37305 C 300.76172 127.23721 299.38944 125.86688 297.71289 124.32617 L 294.66602 121.52344 z M 564.04492 130.05859 C 563.82138 130.05859 562.3975 131.33952 560.88086 132.9043 C 559.36422 134.46907 558.30576 135.75 558.5293 135.75 C 558.75284 135.75 560.17672 134.46907 561.69336 132.9043 C 563.21 131.33952 564.26846 130.05859 564.04492 130.05859 z M 572.26172 134.12305 C 572.21976 134.08109 571.88877 134.32648 571.24414 134.83203 C 570.46175 135.44563 569.82227 136.08706 569.82227 136.25586 C 569.82227 136.92488 570.48887 136.49466 571.55078 135.14062 C 572.05633 134.49599 572.30368 134.165 572.26172 134.12305 z M 299.94922 139.81445 C 299.90726 139.85641 300.15265 140.18545 300.6582 140.83008 C 301.27179 141.61247 301.91129 142.25195 302.08008 142.25195 C 302.74911 142.25195 302.31888 141.58535 300.96484 140.52344 C 300.32021 140.01788 299.99117 139.7725 299.94922 139.81445 z M 564.13281 143.06445 C 564.09086 143.0225 563.75987 143.26788 563.11523 143.77344 C 562.33285 144.38703 561.69336 145.02848 561.69336 145.19727 C 561.69336 145.8663 562.36192 145.43607 563.42383 144.08203 C 563.92938 143.4374 564.17477 143.10641 564.13281 143.06445 z M 315.80078 143.4707 L 318.60156 146.51953 C 321.20893 149.35682 321.89648 149.94103 321.89648 149.32031 C 321.89648 149.18447 320.52421 147.81415 318.84766 146.27344 L 315.80078 143.4707 z M 44.910156 147.38281 C 44.127769 147.58728 44.769208 147.75391 46.333984 147.75391 C 47.898759 147.75391 48.538247 147.58728 47.755859 147.38281 C 46.973471 147.17836 45.692544 147.17836 44.910156 147.38281 z M 809.4668 148.19922 C 808.81834 148.4587 809.01007 148.65241 809.95703 148.69141 C 810.81392 148.72671 811.2955 148.53378 811.02539 148.26367 C 810.75528 147.99363 810.05358 147.96441 809.4668 148.19922 z M 308.07812 148.75586 C 308.03617 148.79782 308.28156 149.12685 308.78711 149.77148 C 309.40071 150.55387 310.04019 151.19336 310.20898 151.19336 C 310.87801 151.19336 310.44779 150.52675 309.09375 149.46484 C 308.44912 148.95929 308.12008 148.7139 308.07812 148.75586 z M 42.757812 152.07812 C 38.834602 152.20808 35.483477 152.59339 32.955078 153.25195 C 14.886096 157.95833 4.1132886 173.59169 4.0761719 195.16211 C 4.0465131 212.39833 10.665797 226.67534 31.824219 255.01562 C 38.240015 263.60915 46.833245 275.86249 50.921875 282.24609 C 62.502999 300.3278 81.967216 331.72628 91.8125 348.20898 C 102.81661 366.63175 110.6452 377.21316 119.56641 385.72656 C 137.26689 402.61793 163.49498 414.98455 188.17969 418.07812 C 194.83355 418.91202 215.74763 418.50613 223.08398 417.40039 C 236.19984 415.42353 249.74544 411.61922 251.17773 409.50977 C 258.31884 398.9925 274.5287 385.44697 288.16211 378.60547 C 299.14756 373.09278 315.43683 368.28845 323.27734 368.24805 C 327.05107 368.2286 329.82125 366.21588 354.3418 345.66797 C 360.78592 340.26789 368.10216 334.83998 370.59961 333.60742 C 376.50382 330.69354 385.53682 330.07947 394.82227 331.96094 C 398.39278 332.68442 401.4879 333.27734 401.70117 333.27734 C 402.74819 333.27734 401.20272 328.39998 400.04688 328.05664 C 398.99901 327.74537 371.22999 320.53069 350.95508 315.30273 C 349.27734 314.87012 347.38414 313.70907 346.74805 312.7207 C 346.11196 311.73232 343.71161 302.14395 341.41406 291.41406 C 339.11652 280.68417 337.0788 271.35617 336.88672 270.68555 C 336.16722 268.17367 322.27563 261.07181 291.82031 247.64648 C 267.62353 236.98005 239.52902 223.71659 194.27539 201.59375 C 132.25795 171.27569 114.49456 163.95339 86.804688 157.28906 C 71.451042 153.5938 54.527444 151.68827 42.757812 152.07812 z M 816.37109 152.16602 C 799.84117 152.84531 777.29457 157.30103 756.52148 164.32031 C 735.98852 171.25846 726.68137 175.49571 647.97266 213.73242 C 615.2127 229.64721 585.01627 243.69819 564.94531 252.36719 C 551.93872 257.98497 535.01173 266.43125 531.84766 268.88281 C 530.33936 270.05145 529.32635 273.60746 525.62305 290.71875 C 523.19013 301.96019 520.79009 311.9232 520.28906 312.85938 C 519.78803 313.79555 518.56529 314.76791 517.57227 315.01953 C 516.57924 315.27114 504.97594 318.29484 491.78711 321.73828 L 467.80664 327.99805 L 467.56055 330.51953 L 467.31445 333.04297 L 473.25195 331.88281 C 476.52494 331.24337 481.78142 330.87397 484.96875 331.05859 C 493.80755 331.57057 498.86748 334.3983 514.66406 347.65625 C 539.52969 368.52578 537.96979 367.49235 546.51172 368.74805 C 562.05305 371.03269 575.79825 376.23636 588.71289 384.72266 C 597.63704 390.58677 607.49858 399.34411 612.49805 405.8457 C 616.3473 410.85148 616.87428 411.22492 622.44727 412.91016 C 630.60335 415.37651 642.46736 417.72103 650.91016 418.53516 C 661.18995 419.5265 664.29837 419.53681 674.27539 418.60547 C 697.37674 416.44902 719.29666 407.91115 738.10352 393.74414 C 751.9608 383.3056 761.59314 371.29136 776.875 345.38867 C 785.68541 330.45507 813.22979 286.38414 821.22852 274.42383 C 824.7871 269.10282 831.1483 260.21535 835.36328 254.67383 C 849.45187 236.15096 855.95908 225.08345 859.88086 212.97266 C 862.3067 205.48119 863.45853 197.10878 862.8457 191.43164 C 860.48854 169.59418 849.07982 155.91846 830.60742 152.79102 C 826.72308 152.13338 821.88107 151.93958 816.37109 152.16602 z M 542.5918 152.41406 L 539.94922 154.80078 C 538.49621 156.11389 537.30664 157.30347 537.30664 157.44336 C 537.30664 158.07135 537.97767 157.51725 540.20312 155.05469 L 542.5918 152.41406 z M 851.48242 157.29102 L 853.45312 159.52539 C 855.29501 161.61471 855.95312 162.13361 855.95312 161.49609 C 855.95312 161.35049 854.94627 160.34559 853.7168 159.26172 L 851.48242 157.29102 z M 14.476562 157.69727 C 14.253023 157.69727 13.40881 158.42811 12.599609 159.32227 C 11.790408 160.21642 11.311617 160.94922 11.535156 160.94922 C 11.758695 160.94922 12.602908 160.21642 13.412109 159.32227 C 14.221311 158.42811 14.700102 157.69727 14.476562 157.69727 z M 547.0625 161.76172 C 547.02054 161.71976 546.68956 161.96515 546.04492 162.4707 C 545.26254 163.08429 544.62305 163.72379 544.62305 163.89258 C 544.62305 164.56161 545.29161 164.13138 546.35352 162.77734 C 546.85907 162.13271 547.10446 161.80368 547.0625 161.76172 z M 337.74805 166.23242 L 340.54883 169.2793 C 343.1562 172.11659 343.84375 172.70275 343.84375 172.08203 C 343.84375 171.94619 342.47341 170.5739 340.79688 169.0332 L 337.74805 166.23242 z M 325.14844 167.45117 C 325.10648 167.49313 325.35187 167.82217 325.85742 168.4668 C 326.47102 169.24919 327.11051 169.89062 327.2793 169.89062 C 327.94833 169.89063 327.5181 169.22207 326.16406 168.16016 C 325.51943 167.65461 325.1904 167.40921 325.14844 167.45117 z M 538.93359 170.70312 C 538.89164 170.66117 538.5626 170.90656 537.91797 171.41211 C 537.13558 172.02571 536.49414 172.66518 536.49414 172.83398 C 536.49414 173.503 537.1627 173.07279 538.22461 171.71875 C 538.73016 171.07412 538.97555 170.74508 538.93359 170.70312 z M 520.96289 174.76758 C 520.73935 174.76758 519.31546 176.04656 517.79883 177.61133 C 516.28219 179.17611 515.22373 180.45703 515.44727 180.45703 C 515.67081 180.45703 517.09469 179.17611 518.61133 177.61133 C 520.12796 176.04656 521.18643 174.76758 520.96289 174.76758 z M 333.27734 176.39258 C 333.23539 176.43453 333.48077 176.76357 333.98633 177.4082 C 334.59992 178.19059 335.23941 178.83203 335.4082 178.83203 C 336.07722 178.83203 335.64701 178.16347 334.29297 177.10156 C 333.64834 176.59601 333.3193 176.35062 333.27734 176.39258 z M 358.88281 188.17969 L 361.68359 191.22852 C 364.29096 194.06581 364.97852 194.65003 364.97852 194.0293 C 364.97852 193.89346 363.60623 192.52117 361.92969 190.98047 L 358.88281 188.17969 z M 499.82812 196.71484 C 499.60459 196.71484 498.18069 197.99578 496.66406 199.56055 C 495.14742 201.12533 494.08896 202.4043 494.3125 202.4043 C 494.53603 202.4043 495.95992 201.12533 497.47656 199.56055 C 498.99319 197.99578 500.05165 196.71484 499.82812 196.71484 z M 513.73438 198.33984 C 513.69242 198.29788 513.36338 198.54327 512.71875 199.04883 C 511.93636 199.66242 511.29492 200.30387 511.29492 200.47266 C 511.29492 201.14169 511.96348 200.71146 513.02539 199.35742 C 513.53095 198.71279 513.77633 198.3818 513.73438 198.33984 z M 358.47656 204.03125 C 358.4346 204.07321 358.67999 204.40224 359.18555 205.04688 C 360.24746 206.40091 360.91406 206.83113 360.91406 206.16211 C 360.91406 205.99331 360.27457 205.35383 359.49219 204.74023 C 358.84756 204.23468 358.51852 203.98929 358.47656 204.03125 z M 505.60547 207.28125 C 505.56351 207.23929 505.23447 207.48468 504.58984 207.99023 C 503.80745 208.60383 503.16602 209.24526 503.16602 209.41406 C 503.16602 210.08308 503.83457 209.65287 504.89648 208.29883 C 505.40203 207.6542 505.64743 207.32321 505.60547 207.28125 z M 548.56445 231.66797 C 548.34091 231.66797 547.29808 232.58348 546.24805 233.70117 C 545.19803 234.81887 544.52255 235.73242 544.74609 235.73242 C 544.96963 235.73242 546.01248 234.81887 547.0625 233.70117 C 548.11253 232.58348 548.78799 231.66797 548.56445 231.66797 z M 433.47852 233.54297 C 432.68762 233.74906 433.13728 233.93067 434.47852 233.94727 C 435.81971 233.96384 436.46831 233.79689 435.91797 233.57422 C 435.36763 233.35157 434.26942 233.33687 433.47852 233.54297 z M 568.19727 239.79688 C 568.15531 239.75492 567.82432 240.00031 567.17969 240.50586 C 566.3973 241.11946 565.75781 241.75894 565.75781 241.92773 C 565.75781 242.59676 566.42442 242.16654 567.48633 240.8125 C 567.99188 240.16787 568.23922 239.83883 568.19727 239.79688 z M 458.86523 241.01562 L 460.41406 242.8457 C 461.86928 244.56446 462.52344 245.04502 462.52344 244.39453 C 462.52344 244.24027 461.69928 243.41612 460.69336 242.56445 L 458.86523 241.01562 z M 328.80664 246.70703 L 330.77734 248.94141 C 331.8612 250.17088 332.86612 251.17773 333.01172 251.17773 C 333.64924 251.17773 333.13033 250.5196 331.04102 248.67773 L 328.80664 246.70703 z M 347.0957 276.64844 C 347.0957 277.06346 356.73386 301.728 357 301.99414 C 357.15143 302.14557 363.85399 302.98593 371.89648 303.86133 C 389.13439 305.73761 391.91495 305.87576 390.17773 304.76367 C 389.50711 304.33438 384.56806 301.23806 379.20312 297.88477 C 373.83818 294.53147 364.42077 288.33534 358.27344 284.11523 C 352.12611 279.89511 347.0957 276.53555 347.0957 276.64844 z M 519.18945 277.49609 C 519.04277 277.3494 511.62832 282.18525 502.71289 288.24219 C 493.79745 294.29911 484.21612 300.54055 481.42188 302.11133 C 478.62764 303.6821 476.3418 305.11766 476.3418 305.30273 C 476.3418 305.48778 477.16595 305.63395 478.17188 305.62695 C 480.6745 305.60918 509.88205 302.46644 510.04688 302.19727 C 510.74223 301.06166 519.39021 277.69685 519.18945 277.49609 z M 334.69922 367.69141 C 334.14037 367.91691 334.59714 368.10156 335.71484 368.10156 C 336.83253 368.10156 337.29127 367.91691 336.73242 367.69141 C 336.17358 367.46591 335.25807 367.46591 334.69922 367.69141 z M 350.19531 369.30078 C 349.54686 369.56026 349.7386 369.75202 350.68555 369.79102 C 351.54245 369.82632 352.02205 369.63534 351.75195 369.36523 C 351.48184 369.09519 350.7821 369.06597 350.19531 369.30078 z M 329.32422 372.14648 L 318.49805 379.86914 C 298.71469 393.98425 276.32464 406.37187 260.10156 412.17578 L 253.17383 414.6543 L 247.98047 423.9375 C 245.12455 429.04407 240.62271 436.24873 237.97461 439.94727 C 223.29735 460.44668 220.06968 472.18637 225.87109 483.9707 C 232.42513 497.28383 253.89151 509.25466 282.06641 515.31055 C 288.56878 516.7081 291.90758 516.91934 303.20117 516.64453 C 318.02265 516.28386 325.63707 514.86962 343.03125 509.24609 C 353.32724 505.9174 356.44596 504.49938 361.37695 500.9043 L 364.68555 498.49219 L 363.14844 485.66406 L 361.60938 472.83594 L 363.37109 470.45312 C 364.3404 469.14206 373.06269 458.31622 382.75391 446.39648 C 392.44514 434.47674 401.739 422.62728 403.40625 420.0625 C 405.07349 417.49773 407.89982 414.43107 409.6875 413.24805 C 411.47518 412.06501 412.9375 410.84184 412.9375 410.53125 C 412.9375 409.38499 408.71212 399.61248 407.39258 397.70703 C 406.03829 395.7514 392.28593 388.70626 379.20312 383.26562 C 372.75032 380.58215 372.64417 380.5679 365.38477 381.36133 C 361.36106 381.80111 357.83915 382.41012 357.55859 382.71484 C 357.27802 383.01957 352.58693 394.97473 347.13281 409.28125 C 338.55208 431.78909 336.8685 435.56579 334.63672 437.32422 C 333.21815 438.44192 328.772 442.77553 324.75586 446.95508 C 320.73972 451.13464 316.09012 455.24954 314.42383 456.09961 C 305.44424 460.68066 295.28895 453.96796 298.73242 445.72656 C 300.62393 441.19954 306.37094 439.99935 310.23633 443.32422 C 312.34912 445.14156 312.6769 445.19226 315.61328 444.15625 C 320.49714 442.43313 329.66426 437.40805 331.51367 435.43945 C 332.80871 434.06095 334.6612 426.84932 339.68945 403.60547 C 343.26481 387.07783 345.99778 373.36395 345.76367 373.12891 C 345.52958 372.89386 341.73402 372.57653 337.33008 372.42383 L 329.32422 372.14648 z M 537.71289 372.19336 L 530.22656 372.48242 C 526.10844 372.64209 522.53877 372.97295 522.29492 373.2168 C 522.05107 373.46065 524.7839 387.1538 528.36719 403.64648 L 534.88281 433.63281 L 538.33008 436.66602 C 541.6771 439.60887 552.07119 444.64062 554.80273 444.64062 C 555.54568 444.64063 557.08397 443.90783 558.2207 443.01367 C 561.03757 440.79792 564.32364 440.97066 567.32031 443.49219 C 570.9336 446.53258 570.81181 450.42313 566.99023 454.02734 C 565.43305 455.49595 563.05823 456.94042 561.71094 457.23633 C 556.40116 458.40255 549.28203 454.09478 542.80859 445.79883 C 540.90051 443.35356 537.51079 440.13699 535.27539 438.65039 L 531.21094 435.94727 L 521.14258 409.60742 C 515.60549 395.12067 510.82124 382.98231 510.50977 382.63281 C 510.1983 382.28332 506.61281 381.62648 502.54102 381.17188 L 495.13672 380.34375 L 488.38086 383.14844 C 484.66531 384.69017 477.05333 388.11569 471.46484 390.76172 L 461.30469 395.57227 L 459.375 401.61328 C 458.3145 404.9358 456.9601 408.61117 456.36328 409.78125 C 455.33403 411.79916 455.44096 412.0418 458.4707 414.47656 C 460.22751 415.88837 462.67063 418.77234 463.89844 420.88477 C 465.6015 423.81484 496.10505 462.00171 503.85352 470.9043 C 505.02059 472.24521 505.00471 473.54503 503.67383 485.51562 L 502.21289 498.6543 L 504.51758 500.53906 C 511.9921 506.64297 537.19616 514.67469 556.00391 516.94727 C 569.18576 518.54008 583.99549 516.56521 601.11914 510.93164 C 623.3397 503.62122 636.3805 494.68525 641.4043 483.32812 C 646.44573 471.93116 643.0956 460.18252 629.26953 440.76172 C 626.17335 436.41267 621.44284 428.88048 618.75586 424.02539 L 613.86914 415.19922 L 604.24219 411.38477 C 585.61003 404.00315 565.97439 392.94122 547.73242 379.54883 L 537.71289 372.19336 z M 476.18945 378.24219 C 475.541 378.50168 475.73469 378.69342 476.68164 378.73242 C 477.53854 378.76771 478.01815 378.57675 477.74805 378.30664 C 477.47794 378.0366 476.77624 378.00737 476.18945 378.24219 z M 484.87695 378.79688 C 484.15358 378.79688 483.78814 379.16425 484.06445 379.61133 C 484.34076 380.05841 484.70619 380.42383 484.87695 380.42383 C 485.04772 380.42383 485.41314 380.05841 485.68945 379.61133 C 485.96576 379.16425 485.60034 378.79688 484.87695 378.79688 z M 755.06836 384.48828 C 754.84482 384.48828 753.42093 385.76725 751.9043 387.33203 C 750.38766 388.8968 749.33115 390.17773 749.55469 390.17773 C 749.77823 390.17773 751.20211 388.8968 752.71875 387.33203 C 754.23538 385.76725 755.2919 384.48828 755.06836 384.48828 z M 200.98242 422.92383 C 199.75295 423.11008 200.75787 423.26172 203.2168 423.26172 C 205.67574 423.26172 206.68258 423.11008 205.45312 422.92383 C 204.22365 422.73758 202.21189 422.73758 200.98242 422.92383 z M 656.20508 422.94141 C 655.41418 423.14751 655.86384 423.33106 657.20508 423.34766 C 658.54637 423.36422 659.19487 423.19533 658.64453 422.97266 C 658.09419 422.74992 656.99598 422.73532 656.20508 422.94141 z M 669.21094 422.94141 C 668.42004 423.14751 668.8697 423.33106 670.21094 423.34766 C 671.55213 423.36422 672.20073 423.19533 671.65039 422.97266 C 671.10005 422.74992 670.00184 422.73532 669.21094 422.94141 z M 405.46875 439.76367 C 405.24521 439.76367 404.39904 440.49451 403.58984 441.38867 C 402.78063 442.28283 402.30186 443.01367 402.52539 443.01367 C 402.74893 443.01367 403.59313 442.28283 404.40234 441.38867 C 405.21154 440.49451 405.69229 439.76367 405.46875 439.76367 z M 462.11719 440.98242 L 464.08789 443.2168 C 465.17176 444.44627 466.17667 445.45312 466.32227 445.45312 C 466.95979 445.45312 466.44088 444.79499 464.35156 442.95312 L 462.11719 440.98242 z M 410.72656 442.50977 C 410.6411 442.59523 410.58395 442.88004 410.56445 443.35352 C 410.52915 444.21042 410.72012 444.69003 410.99023 444.41992 C 411.26027 444.14981 411.2895 443.44812 411.05469 442.86133 C 410.92494 442.5371 410.81203 442.4243 410.72656 442.50977 z M 392.64844 453.98828 L 382.10156 464.96289 C 370.53644 476.994 370.96955 476.08591 372.00781 486.01953 C 372.29748 488.79087 372.80969 490.76484 373.14648 490.40625 C 373.48326 490.04764 375.7282 486.99057 378.13477 483.61328 C 382.99476 476.79295 387.41317 468.28783 390.56641 459.67773 L 392.64844 453.98828 z M 474.97852 455.48828 C 474.4897 455.97711 478.20514 465.49399 481.2207 471.47461 C 484.30281 477.58721 489.45953 485.4987 492.50977 488.79492 L 494.63086 491.08789 L 494.86719 483.65039 L 495.10156 476.21289 L 485.20117 465.6875 C 479.75669 459.89893 475.15735 455.30945 474.97852 455.48828 z M 426.19141 457.03906 C 421.36102 457.18302 425.08986 457.30011 434.47852 457.30078 C 443.86717 457.30144 447.81998 457.18369 443.26172 457.03906 C 438.70346 456.89483 431.02181 456.89509 426.19141 457.03906 z M 409.10156 457.14062 C 409.0161 457.22609 408.957 457.5109 408.9375 457.98438 C 408.9022 458.84127 409.09512 459.32089 409.36523 459.05078 C 409.63527 458.78067 409.6645 458.08092 409.42969 457.49414 C 409.29994 457.16992 409.18703 457.05516 409.10156 457.14062 z M 459.49805 459.58008 C 459.41258 459.66554 459.35544 459.95035 459.33594 460.42383 C 459.30065 461.28073 459.49356 461.76034 459.76367 461.49023 C 460.03372 461.22012 460.06099 460.51842 459.82617 459.93164 C 459.69643 459.60742 459.58351 459.49461 459.49805 459.58008 z M 409.91406 466.08203 C 409.8286 466.1675 409.7695 466.45231 409.75 466.92578 C 409.7147 467.78268 409.90762 468.26424 410.17773 467.99414 C 410.44777 467.72403 410.477 467.02234 410.24219 466.43555 C 410.11244 466.11132 409.99953 465.99657 409.91406 466.08203 z M 218.88867 469.33398 C 218.80321 469.41945 218.74606 469.70425 218.72656 470.17773 C 218.69126 471.03462 218.88419 471.51425 219.1543 471.24414 C 219.42434 470.97403 219.45161 470.27429 219.2168 469.6875 C 219.08706 469.36328 218.97414 469.24852 218.88867 469.33398 z M 457.87305 476.65039 C 457.78758 476.73586 457.73044 477.02067 457.71094 477.49414 C 457.67565 478.35103 457.86661 478.83066 458.13672 478.56055 C 458.40676 478.29044 458.43599 477.58873 458.20117 477.00195 C 458.07143 476.67773 457.95851 476.56493 457.87305 476.65039 z M 426.55469 485.49023 C 421.97213 485.63513 425.71966 485.75391 434.88477 485.75391 C 444.04989 485.75391 447.79936 485.63513 443.2168 485.49023 C 438.63425 485.34534 431.13725 485.34534 426.55469 485.49023 z M 409.41211 488.33203 C 409.18662 487.77318 409.00195 488.22996 409.00195 489.34766 C 409.00195 490.46535 409.18662 490.92212 409.41211 490.36328 C 409.63761 489.80443 409.63761 488.89088 409.41211 488.33203 z M 409.91406 497.78516 C 409.8286 497.87062 409.7695 498.15543 409.75 498.62891 C 409.7147 499.48581 409.90762 499.96542 410.17773 499.69531 C 410.44777 499.4252 410.477 498.72351 410.24219 498.13672 C 410.11244 497.81249 409.99953 497.69969 409.91406 497.78516 z M 372.85547 503.36914 C 372.65101 502.58675 372.48242 503.22819 372.48242 504.79297 C 372.48242 506.35774 372.65101 506.99723 372.85547 506.21484 C 373.05993 505.43245 373.05993 504.15153 372.85547 503.36914 z M 457.87305 508.35156 C 457.78758 508.43703 457.73044 508.72183 457.71094 509.19531 C 457.67565 510.0522 457.86661 510.53183 458.13672 510.26172 C 458.40676 509.99161 458.43599 509.29187 458.20117 508.70508 C 458.07143 508.38085 457.95851 508.2661 457.87305 508.35156 z M 493.97656 510.70117 C 493.77047 509.91027 493.58691 510.35994 493.57031 511.70117 C 493.55375 513.04237 493.72264 513.69096 493.94531 513.14062 C 494.16796 512.59029 494.18266 511.49206 493.97656 510.70117 z M 298.94336 521.28711 C 297.93222 521.48154 298.56716 521.6492 300.35547 521.6582 C 302.14371 521.66722 302.97054 521.50815 302.19336 521.30469 C 301.41618 521.10124 299.95449 521.09268 298.94336 521.28711 z M 570.85352 521.29883 C 570.06262 521.50492 570.51229 521.68848 571.85352 521.70508 C 573.19471 521.72165 573.84331 521.55275 573.29297 521.33008 C 572.74264 521.10733 571.64442 521.09273 570.85352 521.29883 z M 559.86523 521.32422 C 559.30638 521.54972 559.76316 521.73438 560.88086 521.73438 C 561.99856 521.73438 562.45533 521.54972 561.89648 521.32422 C 561.33763 521.09873 560.42408 521.09873 559.86523 521.32422 z M 459.81055 521.66016 C 459.58505 521.10131 459.40039 521.55808 459.40039 522.67578 C 459.40039 523.79347 459.58505 524.25026 459.81055 523.69141 C 460.03605 523.13257 460.03605 522.21901 459.81055 521.66016 z M 373.66992 522.08203 C 373.46382 521.29113 373.28222 521.74079 373.26562 523.08203 C 373.24905 524.42322 373.41796 525.06987 373.64062 524.51953 C 373.86336 523.9692 373.87601 522.87293 373.66992 522.08203 z M 493.16016 528.56836 C 492.9557 527.78597 492.78711 528.42741 492.78711 529.99219 C 492.78711 531.55697 492.9557 532.19645 493.16016 531.41406 C 493.36461 530.63168 493.36461 529.35074 493.16016 528.56836 z M 409.91406 528.67383 C 409.8286 528.75929 409.7695 529.0441 409.75 529.51758 C 409.7147 530.37447 409.90762 530.85409 410.17773 530.58398 C 410.44777 530.31387 410.477 529.61217 410.24219 529.02539 C 410.11244 528.70116 409.99953 528.58836 409.91406 528.67383 z M 426.55469 552.95898 C 421.97213 553.10387 425.71966 553.22266 434.88477 553.22266 C 444.04989 553.22266 447.79936 553.10387 443.2168 552.95898 C 438.63425 552.81408 431.13725 552.81408 426.55469 552.95898 z M 457.87305 570.13086 C 457.78758 570.21632 457.73044 570.50113 457.71094 570.97461 C 457.67565 571.83151 457.86661 572.31113 458.13672 572.04102 C 458.40676 571.77091 458.43599 571.06921 458.20117 570.48242 C 458.07143 570.1582 457.95851 570.04539 457.87305 570.13086 z M 411.53906 576.63281 C 411.4536 576.71828 411.39645 577.00309 411.37695 577.47656 C 411.34165 578.33346 411.53262 578.81308 411.80273 578.54297 C 412.07277 578.27286 412.102 577.57312 411.86719 576.98633 C 411.73744 576.6621 411.62453 576.54735 411.53906 576.63281 z M 457.87305 600.20703 C 457.78758 600.2925 457.73044 600.5773 457.71094 601.05078 C 457.67565 601.90767 457.86661 602.3873 458.13672 602.11719 C 458.40676 601.84708 458.43599 601.14538 458.20117 600.55859 C 458.07143 600.23437 457.95851 600.12157 457.87305 600.20703 z M 411.53906 606.70898 C 411.4536 606.79445 411.39645 607.07926 411.37695 607.55273 C 411.34165 608.40963 411.53262 608.88925 411.80273 608.61914 C 412.07277 608.34903 412.102 607.64929 411.86719 607.0625 C 411.73744 606.73828 411.62453 606.62352 411.53906 606.70898 z M 426.59766 624.49023 L 426.59766 624.49219 C 421.99132 624.63734 425.53694 624.75514 434.47852 624.75586 C 443.42009 624.75658 447.18877 624.63806 442.85352 624.49219 C 438.51829 624.34563 431.204 624.34507 426.59766 624.49023 z M 410.72656 627.84375 C 410.6411 627.92921 410.58395 628.21402 410.56445 628.6875 C 410.52915 629.5444 410.72012 630.02402 410.99023 629.75391 C 411.26027 629.48381 411.2895 628.78406 411.05469 628.19727 C 410.92494 627.87304 410.81203 627.75829 410.72656 627.84375 z M 457.06055 638.41016 C 456.97508 638.49562 456.91598 638.78043 456.89648 639.25391 C 456.86119 640.1108 457.05411 640.59238 457.32422 640.32227 C 457.59426 640.05216 457.62349 639.35045 457.38867 638.76367 C 457.25893 638.43944 457.14601 638.32469 457.06055 638.41016 z M 457.87305 658.73242 C 457.78758 658.81789 457.73044 659.1027 457.71094 659.57617 C 457.67565 660.43306 457.86661 660.91269 458.13672 660.64258 C 458.40676 660.37247 458.43599 659.67272 458.20117 659.08594 C 458.07143 658.76171 457.95851 658.64696 457.87305 658.73242 z M 457.06055 667.67383 C 456.97508 667.75929 456.91598 668.0441 456.89648 668.51758 C 456.86119 669.37448 457.05411 669.85604 457.32422 669.58594 C 457.59426 669.31583 457.62349 668.61413 457.38867 668.02734 C 457.25893 667.70312 457.14601 667.58836 457.06055 667.67383 z M 412.35156 674.17773 C 412.2661 674.2632 412.20895 674.548 412.18945 675.02148 C 412.15415 675.87837 412.34708 676.358 412.61719 676.08789 C 412.88723 675.81778 412.9145 675.11608 412.67969 674.5293 C 412.54994 674.20507 412.43703 674.09227 412.35156 674.17773 z M 410.72656 685.55664 C 410.6411 685.64211 410.58395 685.92692 410.56445 686.40039 C 410.52915 687.25729 410.72012 687.73885 410.99023 687.46875 C 411.26027 687.19864 411.2895 686.49695 411.05469 685.91016 C 410.92494 685.58593 410.81203 685.47118 410.72656 685.55664 z M 427.36719 687.89648 C 423.23171 688.04401 426.61381 688.16406 434.88477 688.16406 C 443.15573 688.16406 446.53978 688.04401 442.4043 687.89648 C 438.26882 687.74895 431.50267 687.74895 427.36719 687.89648 z M 457.06055 696.125 C 456.97508 696.21047 456.91598 696.49527 456.89648 696.96875 C 456.86119 697.82564 457.05411 698.30527 457.32422 698.03516 C 457.59426 697.76505 457.62349 697.0653 457.38867 696.47852 C 457.25893 696.15429 457.14601 696.03953 457.06055 696.125 z M 412.35156 702.62695 C 412.2661 702.71242 412.20895 702.99723 412.18945 703.4707 C 412.15415 704.3276 412.34708 704.80916 412.61719 704.53906 C 412.88723 704.26895 412.9145 703.56726 412.67969 702.98047 C 412.54994 702.65624 412.43703 702.54149 412.35156 702.62695 z M 456.24805 705.06641 C 456.16258 705.15187 456.10348 705.43668 456.08398 705.91016 C 456.04869 706.76706 456.24161 707.24667 456.51172 706.97656 C 456.78176 706.70645 456.81099 706.00671 456.57617 705.41992 C 456.44643 705.0957 456.33351 704.98094 456.24805 705.06641 z M 410.72656 713.19531 C 410.6411 713.28078 410.58395 713.56559 410.56445 714.03906 C 410.52915 714.89595 410.72012 715.37558 410.99023 715.10547 C 411.26027 714.83536 411.2895 714.13365 411.05469 713.54688 C 410.92494 713.22265 410.81203 713.10985 410.72656 713.19531 z M 457.87305 715.63281 C 457.78758 715.71828 457.73044 716.00504 457.71094 716.47852 C 457.67565 717.33542 457.86661 717.81503 458.13672 717.54492 C 458.40676 717.27481 458.43599 716.57311 458.20117 715.98633 C 458.07143 715.6621 457.95851 715.54735 457.87305 715.63281 z M 411.53906 722.13672 C 411.4536 722.22218 411.39645 722.50699 411.37695 722.98047 C 411.34165 723.83737 411.53262 724.31697 411.80273 724.04688 C 412.07277 723.77677 412.102 723.07702 411.86719 722.49023 C 411.73744 722.16601 411.62453 722.05125 411.53906 722.13672 z M 411.53906 749.77344 C 411.4536 749.8589 411.39645 750.14371 411.37695 750.61719 C 411.34165 751.47408 411.53262 751.95566 411.80273 751.68555 C 412.07277 751.41544 412.102 750.71373 411.86719 750.12695 C 411.73744 749.80273 411.62453 749.68797 411.53906 749.77344 z M 443.24219 779.84961 C 443.15672 779.93508 443.09762 780.21988 443.07812 780.69336 C 443.04283 781.55025 443.23575 782.03183 443.50586 781.76172 C 443.7759 781.49161 443.80512 780.78991 443.57031 780.20312 C 443.44057 779.8789 443.32765 779.76414 443.24219 779.84961 z M 426.54688 826.51758 C 426.38769 823.70578 426.25591 825.79521 426.25391 831.16016 C 426.25231 836.5251 426.38218 838.82463 426.54297 836.27148 C 426.70384 833.71826 426.70605 829.3293 426.54688 826.51758 z M 442.80469 843.58789 C 442.6455 840.77609 442.51372 842.86552 442.51172 848.23047 C 442.51012 853.59541 442.63999 855.89495 442.80078 853.3418 C 442.96165 850.78858 442.96387 846.39961 442.80469 843.58789 z M 427.35938 902.11523 C 427.20019 899.30343 427.06841 901.39287 427.06641 906.75781 C 427.06481 912.12276 427.19662 914.42228 427.35742 911.86914 C 427.51829 909.31591 427.51855 904.92695 427.35938 902.11523 z M 441.99219 919.18555 C 441.83301 916.37375 441.70122 918.46317 441.69922 923.82812 C 441.69762 929.19307 441.82749 931.4926 441.98828 928.93945 C 442.14916 926.38623 442.15138 921.99727 441.99219 919.18555 z M 428.17188 978.52539 C 428.01269 975.71359 427.88286 977.80108 427.88086 983.16602 C 427.87926 988.53097 428.00912 990.83244 428.16992 988.2793 C 428.33079 985.72607 428.33105 981.33711 428.17188 978.52539 z M 441.17773 995.5957 C 441.01855 992.7839 440.88872 994.87137 440.88672 1000.2363 C 440.88512 1005.6012 441.01499 1007.9027 441.17578 1005.3496 C 441.33666 1002.7964 441.33692 998.40742 441.17773 995.5957 z M 428.98633 1054.1211 C 428.82714 1051.3093 428.69536 1053.3987 428.69336 1058.7637 C 428.69175 1064.1286 428.82162 1066.4301 428.98242 1063.877 C 429.14329 1061.3237 429.14551 1056.9328 428.98633 1054.1211 z M 440.36523 1071.1914 C 440.20605 1068.3796 440.07427 1070.4691 440.07227 1075.834 C 440.07067 1081.199 440.20249 1083.5005 440.36328 1080.9473 C 440.52416 1078.3941 440.52442 1074.0031 440.36523 1071.1914 z M 429.79883 1129.7188 C 429.63964 1126.907 429.50786 1128.9964 429.50586 1134.3613 C 429.50425 1139.7262 429.63412 1142.0259 429.79492 1139.4727 C 429.95579 1136.9195 429.95801 1132.5304 429.79883 1129.7188 z M 439.55273 1146.7891 C 439.39355 1143.9773 439.26177 1146.0666 439.25977 1151.4316 C 439.25817 1156.7965 439.38804 1159.0961 439.54883 1156.543 C 439.70971 1153.9898 439.71192 1149.6009 439.55273 1146.7891 z M 430.61133 1206.1289 C 430.45214 1203.3171 430.32036 1205.4046 430.31836 1210.7695 C 430.31675 1216.1345 430.44662 1218.436 430.60742 1215.8828 C 430.76829 1213.3296 430.77051 1208.9406 430.61133 1206.1289 z M 438.74023 1223.1992 C 438.58105 1220.3874 438.44927 1222.4749 438.44727 1227.8398 C 438.44567 1233.2048 438.57554 1235.5063 438.73633 1232.9531 C 438.89721 1230.3999 438.89942 1226.0109 438.74023 1223.1992 z M 431.42383 1281.7246 C 431.26464 1278.9128 431.13286 1281.0022 431.13086 1286.3672 C 431.12926 1291.7321 431.26108 1294.0336 431.42188 1291.4805 C 431.58275 1288.9273 431.58301 1284.5364 431.42383 1281.7246 z M 437.92773 1298.7949 C 437.76855 1295.9831 437.63677 1298.0725 437.63477 1303.4375 C 437.63317 1308.8024 437.76304 1311.1039 437.92383 1308.5508 C 438.08471 1305.9975 438.08692 1301.6066 437.92773 1298.7949 z M 432.23633 1357.291 C 432.0776 1354.4968 431.94727 1356.7826 431.94727 1362.3711 C 431.94727 1367.9595 432.0776 1370.2454 432.23633 1367.4512 C 432.39506 1364.657 432.39506 1360.0853 432.23633 1357.291 z M 437.11328 1374.3613 C 436.95455 1371.5671 436.82422 1373.853 436.82422 1379.4414 C 436.82422 1385.0299 436.95455 1387.3157 437.11328 1384.5215 C 437.27201 1381.7272 437.27201 1377.1555 437.11328 1374.3613 z M 433.04883 1433.7324 C 432.88965 1430.9206 432.75981 1433.01 432.75781 1438.375 C 432.75621 1443.7399 432.88608 1446.0394 433.04688 1443.4863 C 433.20775 1440.933 433.20801 1436.5441 433.04883 1433.7324 z M 436.30078 1450.8027 C 436.1416 1447.9909 436.01177 1450.0804 436.00977 1455.4453 C 436.00817 1460.8103 436.13804 1463.1098 436.29883 1460.5566 C 436.45971 1458.0034 436.45997 1453.6144 436.30078 1450.8027 z M 433.86328 1509.3281 C 433.7041 1506.5163 433.57231 1508.6058 433.57031 1513.9707 C 433.56871 1519.3356 433.69858 1521.6372 433.85938 1519.084 C 434.02026 1516.5308 434.02246 1512.1398 433.86328 1509.3281 z M 435.48828 1526.3984 C 435.3291 1523.5866 435.19731 1525.676 435.19531 1531.041 C 435.19371 1536.4059 435.32554 1538.7074 435.48633 1536.1543 C 435.64721 1533.6011 435.64747 1529.2102 435.48828 1526.3984 z M 434.6543 1563.3535 C 434.46805 1562.124 434.31641 1563.1289 434.31641 1565.5879 C 434.31641 1568.0468 434.46805 1569.0536 434.6543 1567.8242 C 434.84055 1566.5947 434.84055 1564.5829 434.6543 1563.3535 z M 221.99219 1569.668 C 221.93132 1569.6727 222.03547 1570.0286 222.25781 1570.7363 C 222.51511 1571.5553 222.75572 1572.6516 222.79102 1573.1738 C 222.83734 1573.8589 222.96536 1573.8499 223.25391 1573.1387 C 223.4738 1572.5966 223.23513 1571.4985 222.72266 1570.6992 C 222.2798 1570.0087 222.05305 1569.6633 221.99219 1569.668 z M 646.11719 1570.873 L 645.41992 1572.498 C 645.03568 1573.3921 644.70028 1574.6732 644.67578 1575.3438 C 644.63606 1576.4276 644.7195 1576.4276 645.41992 1575.3438 C 645.85331 1574.6731 646.18661 1573.3921 646.16211 1572.498 L 646.11719 1570.873 z M 221.91406 1581.0332 C 221.46698 1581.0332 221.13704 1582.5882 221.18164 1584.4883 C 221.25047 1587.4231 221.36119 1587.6366 221.91406 1585.9102 C 222.85091 1582.985 222.85091 1581.0332 221.91406 1581.0332 z M 645.59766 1584.3789 C 645.48051 1584.4185 645.45461 1584.8181 645.44336 1585.6055 C 645.42976 1586.5556 645.69399 1588.5673 646.0293 1590.0762 L 646.63867 1592.8203 L 646.89062 1589.7852 C 647.02892 1588.1163 646.7647 1586.1046 646.30469 1585.3145 C 645.92344 1584.6597 645.71481 1584.3393 645.59766 1584.3789 z" 
         />
      <path
         class="species_main_colour"
         style="fill:#4c4a48;stroke-width:0.81287"
         d="M 40.878906 0.43945312 C 37.416221 -0.10918469 35.765625 0.44946461 35.765625 2.0878906 C 35.765625 2.8810896 36.738179 3.270071 38.814453 3.3105469 C 40.490998 3.3432303 47.167749 4.7510341 53.650391 6.4375 C 70.469311 10.812959 70.688046 10.742491 56.867188 5.4296875 C 49.616276 2.642406 44.341592 0.98809098 40.878906 0.43945312 z M 830.2793 1.0800781 C 827.56992 0.04036826 820.16314 1.644387 810.83789 5.2890625 C 805.47295 7.3858984 800.90127 9.294018 800.67773 9.5292969 C 800.45419 9.764572 801.00232 9.743597 801.89648 9.484375 C 810.66621 6.9419679 827.44597 3.2060777 828.87109 3.4785156 C 830.97106 3.8799495 832.18564 1.8115888 830.2793 1.0800781 z M 75.166016 12.361328 C 75.039765 12.492391 99.868854 21.155425 130.33984 31.613281 L 185.74023 50.628906 L 214.84961 64.072266 L 242.77148 76.96875 L 244.18945 78.644531 C 245.04113 79.650459 245.86528 80.474609 246.01953 80.474609 C 246.67003 80.474609 246.18946 79.82045 244.4707 78.365234 L 242.88281 77.019531 L 243.96094 77.517578 L 305.54883 145.07422 L 367.13867 212.62891 L 382.07812 252.33984 C 396.97886 291.94898 397.02333 292.05322 399.89844 293.35742 L 402.78125 294.66602 L 402.20898 299.84375 C 401.89369 302.69124 401.43771 305.2166 401.19727 305.45703 C 400.13347 306.52085 386.5344 298.58188 367.01172 285.5 C 355.38767 277.71089 345.28624 270.8125 344.56445 270.17188 C 343.84266 269.5312 341.51008 264.44766 339.38086 258.875 C 336.12519 250.35415 335.09717 248.48894 332.92188 247.14453 C 331.49921 246.26527 327.17215 242.1074 323.30664 237.9043 C 316.02968 229.99182 312.50684 227.60352 308.10547 227.60352 C 300.12554 227.60352 295.01461 236.2636 300.46484 240.55078 C 303.87231 243.2311 310.29353 242.27827 309.13672 239.26367 C 308.35058 237.21501 313.72334 238.50911 321.49023 242.24023 C 331.24078 246.92428 332.94399 248.87042 334.81445 257.45898 C 335.6686 261.381 336.2562 264.70751 336.11914 264.85156 C 335.98207 264.9956 334.43948 264.21094 332.69141 263.10742 C 327.65812 259.93005 317.05377 254.76482 303.72656 249 C 284.02628 240.47844 253.85373 226.43965 221.91406 210.93359 C 142.7316 172.4921 136.4823 169.61956 115.83398 162.16016 C 102.71598 157.42115 80.775054 151.81925 67.875 149.91602 C 54.580631 147.95453 37.738908 147.93344 31.294922 149.87109 C 11.369791 155.86242 0.39714884 172.14134 0.5390625 195.49609 C 0.58301966 202.73013 1.0072079 205.81555 2.7617188 211.6543 C 6.9438369 225.57175 12.79966 235.86135 27.970703 255.94922 C 32.572374 262.04225 38.719139 270.50275 41.628906 274.75 C 47.620908 283.49624 77.962233 332.11414 89.314453 351.16016 C 106.74648 380.40648 118.69803 393.19012 140.06445 405.44141 C 160.57491 417.2019 179.64953 422.22403 203.625 422.17383 C 218.14108 422.14343 226.55241 421.09415 240.40625 417.5918 C 244.54172 416.54632 247.92578 415.86369 247.92578 416.07422 C 247.92578 417.32093 240.203 430.22097 234.42383 438.62695 C 217.842 462.74575 215.50179 475.58019 225.08594 489.83789 C 231.40276 499.23499 244.67914 507.55126 263.3125 513.78125 C 291.64918 523.2555 309.20925 523.21585 341.40625 513.60547 C 351.63899 510.55114 357.18834 508.19618 362.07227 504.83594 L 365.71289 502.33008 L 366.14844 504.98438 C 366.38731 506.44405 367.3283 513.93329 368.24023 521.62695 L 369.89844 535.61523 L 362.62305 550.07617 C 358.14113 558.98514 353.15351 567.49646 349.63477 572.24219 C 339.57779 585.80604 337.39471 592.70916 341.77539 597.08984 C 343.03309 598.34754 344.69943 599.08594 346.2832 599.08594 C 351.02154 599.08594 354.26241 593.6078 352.01172 589.40234 C 351.15015 587.79249 353.12392 577.06546 355.87891 568.39453 C 356.7675 565.5978 361.073 557.22427 365.44531 549.78516 L 373.39453 536.25977 L 373.17578 528.45117 C 373.05524 524.15694 372.71557 515.33964 372.42188 508.85742 L 371.88867 497.07227 L 375.29297 493.24023 C 384.38893 483.00073 392.51143 467.62012 396.58398 452.92383 C 397.38888 450.01927 398.24155 448.14957 399.5625 446.17383 C 399.86281 445.9892 400.30458 445.53871 400.84961 444.84375 C 401.51995 443.98901 401.72993 443.69184 401.42188 443.88086 C 402.28578 442.81633 402.77411 442.03001 404.15039 440.51172 C 410.04489 434.00907 410.09819 433.97238 410.60742 436.24805 C 410.88983 437.5101 411.1639 440.12608 411.2168 442.06055 C 411.29139 444.78862 411.84649 446.11033 413.68945 447.95312 L 416.06445 450.33008 L 434.35352 450.33008 L 452.64453 450.33008 L 455.14453 448.22656 C 457.05117 446.62223 457.66476 445.4133 457.72656 443.14453 C 457.77112 441.50773 458.05009 439.30688 458.3457 438.25391 C 458.84804 436.46466 459.21522 436.71368 463.95508 442.04688 C 466.74445 445.18542 469.02539 448.19605 469.02539 448.73633 C 469.02539 450.87632 474.79259 466.78398 477.60742 472.4082 C 481.42133 480.02865 486.75986 488.10186 491.38672 493.24805 L 495.02148 497.29102 L 494.12109 516.70898 L 493.2207 536.125 L 501.43945 550.10156 C 508.32521 561.80923 510.03924 565.43176 512.00195 572.43555 C 515.20047 583.84922 515.66885 587.14986 514.56836 590.48438 C 513.81764 592.7591 513.87728 593.75238 514.87695 595.68555 C 517.9174 601.56513 525.85078 599.66993 527.23828 592.73242 C 527.94731 589.18731 524.3928 582.07861 516.95703 572.17188 C 510.63033 563.74275 497.17301 537.5833 497.34961 534.05664 C 497.40557 532.93894 498.23881 525.38908 499.20117 517.2793 L 500.95117 502.5332 L 505.80078 505.66797 C 511.43938 509.31237 516.23522 511.21357 529.30664 514.98438 C 545.62657 519.69227 551.76085 520.61378 566.57031 520.58398 C 581.62437 520.55366 587.62696 519.4522 604.65625 513.59375 C 625.48108 506.42954 638.43146 497.4092 644.26953 486.00195 C 647.21179 480.25296 647.88915 470.74925 645.85938 463.66797 C 644.04201 457.32785 639.22349 448.44493 632.45117 438.94922 C 627.13744 431.49865 618.50457 416.90641 619.05273 416.30078 C 619.19963 416.13847 623.08877 416.93151 627.69531 418.0625 C 642.29703 421.64747 647.57623 422.2602 663.70898 422.25 C 675.28337 422.24267 680.97895 421.87642 686.43945 420.7832 C 717.43294 414.57813 744.85112 397.75998 762.75391 373.97461 C 765.97347 369.69716 772.77676 359.2484 777.87305 350.75391 C 788.32679 333.32964 807.71827 302.06499 818.84961 284.68555 C 822.93827 278.30194 831.53022 266.04667 837.94336 257.45312 C 851.26444 239.60285 857.17085 230.1344 861.16992 220.2168 C 870.60613 196.81555 867.08888 173.10351 852.11914 159.1875 C 843.83924 151.49047 835.25634 148.65543 820.18555 148.64062 C 797.2193 148.61808 767.94439 155.26248 738.08594 167.27148 C 722.93859 173.36371 712.7949 178.07909 673.46289 197.31641 C 619.64739 223.63762 593.6411 235.85007 560.47461 250.37305 C 551.53303 254.28839 541.29388 259.15181 537.7207 261.18164 C 534.14752 263.21146 531.10372 264.75214 530.95703 264.60547 C 530.81036 264.45878 531.31505 261.18813 532.08008 257.33594 C 533.31147 251.13554 533.80347 250.04052 536.36328 247.79297 C 540.08122 244.52858 550.06975 239.78287 554.46484 239.19336 C 556.84106 238.87465 557.70959 239.00928 557.32422 239.63281 C 556.62091 240.77081 559.30859 242.23438 562.09961 242.23438 C 565.18199 242.23437 567.01669 241.01831 568.18359 238.20117 C 569.61808 234.738 568.14402 231.58164 564.00586 229.25586 C 557.78015 225.75682 550.93156 228.77005 543.24023 238.39258 C 541.09526 241.07614 537.51394 244.62921 535.2832 246.28711 C 531.45933 249.12905 530.99413 249.89604 527.1543 259.69727 L 523.08203 270.0918 L 502.98242 283.64648 C 483.8568 296.54256 470.33514 304.82617 468.41211 304.82617 C 467.92719 304.82617 467.27767 302.46666 466.96875 299.58203 C 466.4414 294.65772 466.53232 294.22247 468.46094 292.46875 C 469.98558 291.08239 474.27173 280.59029 485.08789 251.76172 L 499.66016 212.91992 L 559.73633 147.05664 C 592.77866 110.83178 620.45364 80.441862 621.23633 79.523438 C 622.01902 78.605013 635.37632 71.951455 650.91797 64.736328 C 679.0332 51.683987 679.44703 51.522906 733.36719 32.933594 C 763.1734 22.657717 787.44642 14.135875 787.30664 13.996094 C 787.16686 13.856315 762.95863 21.286431 733.50977 30.507812 C 680.36347 47.14962 679.74374 47.369416 650.00391 60.013672 L 620.04297 72.751953 L 555.22461 139.97656 L 490.4082 207.20312 L 476.38086 241.58594 C 468.66578 260.49689 462.24897 276.08158 462.12109 276.21875 C 461.99322 276.35592 460.21142 275.28629 458.16211 273.8418 C 454.45159 271.22639 454.4439 271.21111 456.24414 270.01367 C 471.96573 259.55643 467.45505 242.10133 447.48438 236.11523 C 444.55507 235.23719 444.26003 234.90861 444.50586 232.79492 C 444.87613 229.6114 447.47483 223.84094 450.11719 220.33203 C 451.31407 218.74264 451.66313 217.94835 450.89453 218.56641 C 448.36194 220.60296 443.78445 227.44028 442.56445 231.00781 L 441.36523 234.51367 L 433.24805 234.60352 C 426.72958 234.6756 425.13086 234.46558 425.13086 233.53711 C 425.13086 231.21468 421.04353 223.82489 418.46094 221.47852 C 417.00194 220.15296 416.39974 219.7992 417.12305 220.69336 C 419.63917 223.8038 421.99574 229.40866 422.14062 232.63086 C 422.28445 235.8255 422.22463 235.89714 418.10547 237.45312 C 412.96616 239.39447 406.93159 244.57787 404.68555 248.98047 C 401.38611 255.44791 404.15263 263.77954 411.32422 268.97461 L 414.55664 271.31641 L 412.73047 272.51562 C 411.72659 273.17458 409.76555 274.88062 408.37109 276.30859 L 405.83594 278.90625 L 404.57617 275.8125 C 377.95532 210.42474 376.45378 207.02451 372.36133 202.83008 C 370.17013 200.58427 341.11249 170.42164 307.78711 135.80273 L 247.19531 72.859375 L 218.30078 60.425781 L 189.4082 47.992188 L 132.40234 30.056641 C 101.04909 20.192551 75.292266 12.230267 75.166016 12.361328 z M 247.51953 72.751953 L 249.49023 74.986328 C 250.5741 76.215795 251.579 77.222656 251.72461 77.222656 C 252.36212 77.222656 251.84322 76.564529 249.75391 74.722656 L 247.51953 72.751953 z M 612.81641 79.662109 C 612.59287 79.662109 611.16898 80.941083 609.65234 82.505859 C 608.1357 84.070635 607.07724 85.351576 607.30078 85.351562 C 607.52432 85.351563 608.9482 84.070635 610.46484 82.505859 C 611.98148 80.941083 613.03995 79.662109 612.81641 79.662109 z M 267.83984 93.886719 L 270.22852 96.529297 C 272.45398 98.991881 273.125 99.544007 273.125 98.916016 C 273.125 98.776121 271.93543 97.586549 270.48242 96.273438 L 267.83984 93.886719 z M 591.36328 102.01562 L 588.7207 104.40234 C 587.2677 105.71546 586.08008 106.90503 586.08008 107.04492 C 586.08008 107.67291 586.7511 107.11881 588.97656 104.65625 L 591.36328 102.01562 z M 595.00977 108.91992 C 594.93663 108.91418 594.6102 109.16081 594.00586 109.63477 C 593.22347 110.24837 592.58203 110.88785 592.58203 111.05664 C 592.58203 111.72567 593.25059 111.29545 594.3125 109.94141 C 594.84965 109.25649 595.09265 108.92643 595.00977 108.91992 z M 277.19922 114.60938 C 277.11633 114.61588 277.36129 114.94594 277.89844 115.63086 C 278.51204 116.41325 279.15151 117.05273 279.32031 117.05273 C 279.98933 117.05273 279.55912 116.38613 278.20508 115.32422 C 277.60074 114.85027 277.27235 114.60364 277.19922 114.60938 z M 288.97461 115.83398 L 291.77734 118.88281 C 294.38472 121.7201 295.07227 122.30432 295.07227 121.68359 C 295.07227 121.54775 293.69998 120.17547 292.02344 118.63477 L 288.97461 115.83398 z M 569.73438 124.36914 C 569.51084 124.36914 568.08695 125.65007 566.57031 127.21484 C 565.05368 128.77962 563.99521 130.05859 564.21875 130.05859 C 564.44229 130.05859 565.86618 128.77962 567.38281 127.21484 C 568.89945 125.65007 569.95784 124.36914 569.73438 124.36914 z M 569.81055 136.55859 C 569.73742 136.55286 569.41098 136.79753 568.80664 137.27148 C 568.02425 137.88507 567.38281 138.52457 567.38281 138.69336 C 567.38281 139.36238 568.05138 138.93218 569.11328 137.57812 C 569.65043 136.89321 569.89343 136.5651 569.81055 136.55859 z M 310.92383 138.59375 L 313.31055 141.23633 C 315.53601 143.6989 316.20703 144.25104 316.20703 143.62305 C 316.20703 143.48316 315.01745 142.29554 313.56445 140.98242 L 310.92383 138.59375 z M 302.39844 142.24805 C 302.31555 142.25455 302.5605 142.58265 303.09766 143.26758 C 304.15957 144.62161 304.82617 145.0538 304.82617 144.38477 C 304.82617 144.21598 304.18668 143.57453 303.4043 142.96094 C 302.79995 142.48698 302.47157 142.24231 302.39844 142.24805 z M 561.68164 145.5 C 561.60851 145.49426 561.28207 145.73894 560.67773 146.21289 C 559.89535 146.82649 559.25391 147.46598 559.25391 147.63477 C 559.25391 148.3038 559.92245 147.87357 560.98438 146.51953 C 561.52152 145.83461 561.76453 145.5065 561.68164 145.5 z M 548.28125 146.72266 L 545.63867 149.11133 C 544.18566 150.42444 542.99805 151.61205 542.99805 151.75195 C 542.99805 152.37994 543.66906 151.82779 545.89453 149.36523 L 548.28125 146.72266 z M 812.69531 148.04102 C 812.44049 148.04469 812.16101 148.09649 811.9043 148.19922 C 811.25585 148.4587 811.44953 148.65241 812.39648 148.69141 C 813.25335 148.72671 813.733 148.53378 813.46289 148.26367 C 813.31095 148.11177 813.02294 148.03629 812.69531 148.04102 z M 310.52734 151.18945 C 310.44446 151.19596 310.68942 151.52602 311.22656 152.21094 C 311.84016 152.99333 312.47964 153.63281 312.64844 153.63281 C 313.31746 153.63281 312.88724 152.96425 311.5332 151.90234 C 310.92886 151.42839 310.60048 151.18371 310.52734 151.18945 z M 48.671875 151.25195 C 67.978464 151.52783 94.618903 157.19449 120.5957 166.97266 C 137.24643 173.24029 148.9269 178.56435 188.99219 198.14453 C 247.06004 226.52268 273.26199 238.82992 305.37305 252.81055 C 325.16004 261.42547 336.91688 268.06991 337.66797 271.0625 C 337.95253 272.19628 340.00326 281.5557 342.22656 291.86133 C 344.44986 302.16697 346.64364 311.29644 347.09961 312.14844 C 347.55558 313.00043 349.1128 314.01724 350.56055 314.4082 C 352.0083 314.79917 364.25712 317.98781 377.78125 321.49414 L 402.37109 327.86914 L 402.37109 331.07422 C 402.37109 334.14576 402.27693 334.25878 400.13477 333.79688 C 398.9053 333.53177 394.70173 332.73957 390.79297 332.03516 C 377.9491 329.72048 371.4289 332.21254 356.03711 345.31836 C 350.8957 349.69617 342.54309 356.61865 337.47656 360.70312 C 328.91826 367.60267 327.93828 368.1689 323.6582 368.67383 C 300.71065 371.381 280.42046 380.99391 263.33398 397.25391 C 259.33552 401.05896 254.77899 405.92177 253.20898 408.06055 C 250.54246 411.69308 249.92207 412.06636 243.79102 413.7207 C 240.18115 414.69475 233.69032 416.21567 229.36719 417.09961 C 223.97949 418.20122 215.1399 418.89202 206.37305 419.09766 C 207.18483 419.03906 207.21498 418.94891 206.26562 418.84961 C 204.58907 418.67424 201.84646 418.67424 200.16992 418.84961 C 199.35498 418.93485 199.26459 419.011 199.76758 419.06836 C 193.64051 419.02784 187.86282 418.81394 184.11523 418.20508 C 165.40032 415.1645 144.13511 406.17716 129.24609 395.01562 C 113.46731 383.18727 107.63175 375.99386 89.550781 346.08984 C 59.411824 296.24315 45.163766 274.20526 29.935547 253.87891 C 13.975418 232.57562 7.3130131 220.20831 4.4042969 206.48828 C 1.0372121 190.60618 5.1481517 173.28825 14.638672 163.10156 C 14.661853 163.72054 15.318229 163.29489 16.361328 161.96484 C 16.831896 161.36482 16.974918 161.1467 16.972656 161.07031 C 21.373436 156.9161 25.275566 154.56711 32.105469 152.82031 C 35.481078 151.95698 39.676538 151.5906 44.181641 151.4375 C 43.159263 151.61421 43.967544 151.76367 46.333984 151.76367 C 48.792917 151.76367 49.797826 151.61008 48.568359 151.42383 C 48.092263 151.3517 47.457492 151.3324 46.837891 151.31641 C 47.475971 151.3133 48.016598 151.24259 48.671875 151.25195 z M 820.18555 151.68555 C 830.30319 151.68695 832.70119 151.94531 837.11719 153.50391 C 842.17351 155.28852 845.45684 157.42382 848.77148 160.3418 L 850.20117 161.96484 C 851.90506 163.89762 852.56815 164.43902 852.66211 164.01172 C 859.78528 172.05384 863.23621 182.16232 863.25586 195.60742 C 863.25785 196.97474 862.92652 198.25582 862.84766 199.58984 C 862.81064 199.54801 862.76613 199.43017 862.73438 199.43359 C 862.62104 199.44582 862.54269 199.74243 862.51953 200.30469 C 862.49884 200.80721 862.56996 201.1114 862.67578 201.2793 C 861.34112 216.61899 854.5022 230.72389 836.16211 255.11914 C 831.57394 261.22219 826.14218 268.60166 824.0918 271.51953 C 819.41438 278.17569 784.33602 334.27423 776.32617 347.9082 C 767.50295 362.92666 760.16684 373.26091 752.48047 381.63867 C 752.95864 380.99281 752.73762 381.13247 751.70117 381.94531 C 750.91878 382.5589 750.2793 383.1984 750.2793 383.36719 C 750.2793 383.57834 750.3463 383.68012 750.4707 383.67773 C 749.863 384.30506 749.20551 384.84064 748.5918 385.45117 C 748.7987 385.12243 748.50438 385.3293 747.63672 386.00977 C 746.85433 386.62337 746.21484 387.26285 746.21484 387.43164 C 746.21484 387.52889 746.23044 387.60298 746.25781 387.6543 C 742.0923 391.59281 737.77569 395.29802 732.80273 398.62109 C 720.04948 407.14317 706.45176 413.03346 690.93945 416.75781 C 685.04739 418.17244 680.41591 418.57762 672.16992 418.81641 C 671.64298 418.68936 670.95409 418.71011 670.48047 418.87891 C 668.84321 418.91676 668.1918 419.00994 666.14648 419.03906 C 661.93169 419.09908 660.50341 418.99078 657.14258 418.9707 C 657.10619 418.94851 657.05951 418.92557 657.00195 418.90234 C 656.4431 418.67684 655.52954 418.67684 654.9707 418.90234 C 654.9285 418.91937 654.89209 418.93663 654.86133 418.95312 C 652.32456 418.91949 647.68523 418.97944 647.04492 418.89453 C 640.84352 418.07219 627.63219 415.29476 622.08594 413.64844 C 617.10483 412.16987 615.90679 411.44564 614.08203 408.8125 C 610.41137 403.51574 596.56877 390.73921 589.33203 385.96875 C 576.04633 377.21081 561.56276 371.516 548.28125 369.82617 C 544.25754 369.31422 539.81318 368.34153 538.40625 367.66602 C 536.99932 366.99051 528.03868 359.89049 518.49219 351.88672 C 498.54904 335.16639 493.73 332.26621 485.07812 331.77734 C 480.24795 331.50441 472.83988 332.37646 468.00977 333.78516 C 466.82308 334.13126 466.58789 333.66119 466.58789 330.95117 C 466.58789 327.12752 463.61223 328.24368 496.25781 319.82617 C 508.93792 316.55666 517.99031 313.80941 518.88867 312.95898 C 519.95953 311.94524 521.66007 305.66469 524.85547 290.91016 C 527.31288 279.56323 529.70887 269.81338 530.17969 269.24414 C 531.95631 267.09609 547.2257 259.21603 562.63086 252.49805 C 594.48774 238.60571 621.02411 226.13502 679.15234 197.74023 C 698.37673 188.3494 717.58088 179.11291 721.82812 177.21484 C 754.85073 162.45715 783.35084 154.54487 808.34375 152.55078 C 808.38415 152.65451 808.61274 152.73396 809.14453 152.75586 C 809.88458 152.78635 810.24432 152.63064 810.18164 152.41797 C 813.50494 152.19244 816.99466 151.68508 820.18555 151.68555 z M 332.05664 160.54102 L 334.44531 163.18359 C 335.75842 164.6366 336.94605 165.82617 337.08594 165.82617 C 337.71393 165.82617 337.16178 165.15515 334.69922 162.92969 L 332.05664 160.54102 z M 851.35352 162.58789 C 851.58295 162.82602 851.79292 162.92247 852.02734 163.17383 C 852.13221 163.28627 852.19744 163.42187 852.30078 163.53516 C 852.15871 163.3535 851.7469 162.96861 851.35352 162.58789 z M 14.986328 162.72656 C 14.929885 162.79943 14.720185 162.96131 14.707031 163.00391 C 14.736634 162.97236 14.753496 162.92594 14.783203 162.89453 C 14.854689 162.81895 14.915359 162.80096 14.986328 162.72656 z M 526.65234 169.07617 C 526.4288 169.07617 525.00492 170.35709 523.48828 171.92188 C 521.97164 173.48664 520.91318 174.76758 521.13672 174.76758 C 521.36026 174.76758 522.78414 173.48665 524.30078 171.92188 C 525.81742 170.3571 526.87588 169.07617 526.65234 169.07617 z M 536.48242 173.13672 C 536.40929 173.13098 536.08286 173.3776 535.47852 173.85156 C 534.69613 174.46515 534.05664 175.10465 534.05664 175.27344 C 534.05664 175.94246 534.72325 175.51224 535.78516 174.1582 C 536.3223 173.47328 536.56531 173.14322 536.48242 173.13672 z M 335.72656 178.82617 C 335.64368 178.83268 335.88668 179.16273 336.42383 179.84766 C 337.03742 180.63004 337.67887 181.26953 337.84766 181.26953 C 338.51668 181.26953 338.08646 180.60293 336.73242 179.54102 C 336.12808 179.06706 335.79969 178.82043 335.72656 178.82617 z M 354.00586 183.30273 L 356.39258 185.94336 C 357.7057 187.39637 358.89527 188.58594 359.03516 188.58594 C 359.66315 188.58594 359.10904 187.91491 356.64648 185.68945 L 354.00586 183.30273 z M 505.19922 191.43164 L 502.55664 193.81836 C 501.10363 195.13147 499.91602 196.32105 499.91602 196.46094 C 499.91602 197.08893 500.58509 196.53483 502.81055 194.07227 L 505.19922 191.43164 z M 3.6503906 193.33203 C 3.5258623 193.31651 3.4394531 193.96516 3.4394531 195.08984 C 3.4394531 196.65461 3.6080408 197.29411 3.8125 196.51172 C 4.0169594 195.72933 4.0169594 194.44841 3.8125 193.66602 C 3.7549958 193.44597 3.6991191 193.33811 3.6503906 193.33203 z M 503.15625 209.7168 C 503.08312 209.71106 502.75473 209.95573 502.15039 210.42969 C 501.368 211.04328 500.72852 211.68277 500.72852 211.85156 C 500.72852 212.52058 501.39512 212.09037 502.45703 210.73633 C 502.99418 210.05141 503.23913 209.7233 503.15625 209.7168 z M 454.38281 216.21875 C 454.30968 216.21301 453.98325 216.45964 453.37891 216.93359 C 452.59653 217.54718 451.95508 218.18668 451.95508 218.35547 C 451.95508 219.0245 452.62364 218.59427 453.68555 217.24023 C 454.2227 216.55531 454.4657 216.22525 454.38281 216.21875 z M 406.0293 264.58984 L 407.57812 266.41797 C 408.42981 267.4239 409.252 268.24805 409.40625 268.24805 C 410.05675 268.24805 409.57618 267.59389 407.85742 266.13867 L 406.0293 264.58984 z M 521.05078 275.20117 C 521.05078 275.90824 511.05235 301.95125 510.55078 302.55078 C 510.41165 302.71708 504.76265 303.30099 501.24609 303.74219 C 501.31049 303.67459 501.41107 303.61224 501.32031 303.52148 C 501.16838 303.36959 500.88036 303.2941 500.55273 303.29883 C 500.29792 303.3025 500.02039 303.35625 499.76367 303.45898 C 499.21207 303.67972 499.38993 303.83002 500.00195 303.90039 C 497.12194 304.24647 496.74808 304.42944 493.00391 304.79688 C 483.61591 305.71811 474.93064 306.64068 473.70117 306.84766 C 472.47171 307.05472 471.46484 307.05553 471.46484 306.84961 C 471.46484 306.64367 473.74507 305.32442 476.53125 303.91797 C 479.31742 302.51151 490.47253 295.38271 501.32227 288.07617 C 512.17199 280.76964 521.05078 274.97595 521.05078 275.20117 z M 346.47656 275.25195 C 347.04053 275.58731 355.73175 281.38071 365.79102 288.125 C 375.85029 294.86929 386.64193 301.74152 389.77148 303.39648 L 395.46094 306.4043 L 391.80273 306.32227 C 389.79087 306.27646 380.99185 305.50228 372.24805 304.60352 L 356.34961 302.9707 L 352.42188 292.7207 C 350.26175 287.08382 347.8097 280.70982 346.97266 278.55664 C 345.95935 275.94998 345.79381 274.84594 346.47656 275.25195 z M 368.86719 303.29883 C 368.61237 303.3025 368.33499 303.35625 368.07812 303.45898 C 367.42967 303.71847 367.62141 303.91022 368.56836 303.94922 C 369.42526 303.98451 369.90682 303.79159 369.63672 303.52148 C 369.48478 303.36959 369.19481 303.2941 368.86719 303.29883 z M 376.94141 304.11328 C 376.70185 304.12315 376.44541 304.17609 376.20703 304.27148 C 375.55857 304.53097 375.75031 304.72272 376.69727 304.76172 C 377.55416 304.79701 378.03378 304.60605 377.76367 304.33594 C 377.60329 304.1756 377.29152 304.09886 376.94141 304.11328 z M 492.36914 304.11328 C 492.12959 304.12315 491.87315 304.17609 491.63477 304.27148 C 490.98632 304.53097 491.17805 304.72272 492.125 304.76172 C 492.9819 304.79701 493.46152 304.60605 493.19141 304.33594 C 493.03103 304.1756 492.71926 304.09886 492.36914 304.11328 z M 401.42773 328.06445 C 401.19532 328.06959 401.1892 328.64726 401.41602 329.75977 C 401.7629 331.46108 401.96623 331.66638 402.20312 330.54883 C 402.37903 329.71895 402.16777 328.68544 401.73438 328.25195 C 401.60712 328.12471 401.5052 328.06274 401.42773 328.06445 z M 485.79492 334.61133 C 489.0461 334.93796 491.9466 335.91499 495.16602 337.60938 C 497.85849 339.02641 507.51028 346.40552 516.61328 354.00586 C 531.00413 366.02116 532.92313 367.88985 531.3125 368.32617 C 530.29368 368.60218 526.37887 369.03953 522.61328 369.29883 C 515.95714 369.75717 515.07214 369.58744 490.77148 363.16992 L 465.77539 356.56836 L 465.82227 350.00391 C 465.84804 346.39303 466.12686 341.97778 466.44336 340.19336 L 467.01953 336.94922 L 474.32227 335.51562 C 478.94252 334.60889 482.54374 334.28469 485.79492 334.61133 z M 382.57422 334.67578 C 382.85877 334.70008 383.22852 334.71484 383.67578 334.71484 C 384.05982 334.71484 384.38706 334.70378 384.65234 334.68555 C 388.73642 334.80237 394.00241 335.42309 397.08789 336.24023 L 402.77734 337.74805 L 403.00391 347.12305 L 403.23242 356.5 L 377.39844 363.20312 C 363.19033 366.88999 350.65286 369.84819 349.53516 369.77539 C 348.41747 369.70255 344.27216 369.2324 340.32422 368.73242 L 333.14648 367.82422 L 340.45117 361.92188 C 344.46893 358.67532 352.23048 352.21714 357.69922 347.57031 C 363.16795 342.92348 369.69425 338.08033 372.20312 336.80859 C 375.84375 334.96318 377.68936 334.66237 382.57422 334.67578 z M 328.80664 371.31641 L 337.53711 371.66211 C 342.3392 371.8527 346.45832 372.19856 346.68945 372.42969 C 346.92059 372.66081 344.16355 386.5332 340.56445 403.25781 L 334.02148 433.66602 L 330.40625 437.04102 C 326.92508 440.29177 318.02819 444.63949 312.45117 445.81445 C 310.34825 446.25749 309.84174 446.07038 309.48828 444.71875 C 308.47821 440.85621 301.69956 441.95009 299.21484 446.37695 C 296.69697 450.86283 302.07004 456.83398 308.625 456.83398 C 313.0626 456.83398 318.30842 453.30745 323.83008 446.61328 C 326.30964 443.60721 330.07937 439.90863 332.20898 438.39453 L 336.08203 435.64062 L 343.64844 415.95703 C 347.80985 405.13103 352.50018 392.94077 354.07227 388.86719 L 356.93164 381.46094 L 365.15625 380.71484 L 373.38281 379.9707 L 381.16992 383.28711 C 395.51947 389.40097 407.24805 395.30026 407.24805 396.40234 C 407.24805 397.00304 407.57192 397.49414 407.96875 397.49414 C 408.72458 397.49414 413.76286 409.34852 413.75586 411.10938 C 413.75346 411.66823 413.3872 412.125 412.94141 412.125 C 411.41303 412.125 405.45281 418.15679 402.64453 422.54688 C 401.09981 424.96165 391.75267 436.86484 381.87109 448.99805 C 371.98951 461.13125 363.566 471.49959 363.15234 472.03906 C 362.68371 472.65021 362.94615 477.91361 363.84961 486.00391 L 365.29883 498.98828 L 363.31055 500.63672 C 357.59611 505.37219 340.37792 511.76317 323.52148 515.40625 C 313.26052 517.62389 293.1019 518.23802 284.46289 516.5957 C 268.40888 513.54375 249.87516 506.50851 239.23047 499.42578 C 227.91421 491.8962 222.74848 483.73911 222.73438 473.37891 C 222.72062 463.32041 226.61673 454.10578 236.72461 440.28516 C 239.05989 437.09209 243.56714 429.96004 246.74219 424.43555 L 252.51562 414.39062 L 262.21094 410.53125 C 282.48222 402.46344 304.2943 389.93944 323.52148 375.33008 L 328.80664 371.31641 z M 333.99023 371.57227 C 333.10624 371.5708 332.1934 371.61462 331.46289 371.70508 C 330.00188 371.88599 331.00112 372.03797 333.68359 372.04297 C 336.36608 372.04753 337.5613 371.89837 336.33984 371.71289 C 335.72911 371.6203 334.87423 371.57373 333.99023 371.57227 z M 537.00586 371.68359 C 538.406 371.91236 539.18444 372.45433 540.55859 373.50781 C 561.57368 389.61891 588.66101 405.15505 607.62109 411.97266 L 614.12305 414.31055 L 617.375 420.19727 C 619.16331 423.43562 624.42481 431.7872 629.06641 438.75586 C 645.03605 462.73183 647.52344 472.10091 641.33398 484.93945 C 635.23587 497.58853 619.56757 506.91326 591.36328 514.67969 C 584.87903 516.46521 580.93507 516.91469 573.49219 517.19141 C 573.15931 517.03639 572.59394 517.04945 572.10742 517.24414 C 572.09207 517.25028 572.07886 517.25565 572.06445 517.26172 C 570.73757 517.30217 570.24423 517.40063 568.60352 517.43555 C 565.82006 517.49478 563.63328 517.43443 561.31055 517.4043 C 561.28363 517.35935 561.20973 517.3105 561.08398 517.25977 C 560.52513 517.03427 559.60963 517.03427 559.05078 517.25977 C 558.93343 517.30712 558.86111 517.35212 558.83008 517.39453 C 548.1442 517.06428 540.51833 515.39751 523.89453 510.34961 C 515.78752 507.88786 506.93057 503.74054 503.26562 500.68945 L 501.33203 499.08008 L 502.65625 488.63477 C 504.80931 471.64633 506.54515 475.57307 485.4668 449.77734 C 475.28505 437.31688 465.20232 424.48536 463.06055 421.26367 C 460.91877 418.04198 458.08488 414.76874 456.76367 413.98828 C 455.15051 413.03536 454.53393 412.16128 454.88477 411.33008 C 455.17212 410.6493 456.57466 406.80104 458.00195 402.77734 L 460.59766 395.46094 L 470.70508 390.41602 C 476.2643 387.64117 484.01303 384.07663 487.92383 382.49414 L 495.0332 379.61719 L 503.0957 380.5332 L 511.1582 381.44922 L 521.52344 408.40625 L 531.89062 435.36328 L 538.86523 440.16016 L 545.8418 444.95703 L 539.94531 439.31055 L 534.04688 433.66602 L 527.50195 403.29688 C 523.90229 386.59406 521.13294 372.75378 521.34766 372.53906 C 521.56238 372.32435 525.33335 371.96247 529.72656 371.73633 C 533.58458 371.53774 535.60572 371.45482 537.00586 371.68359 z M 320.89844 372.10547 C 323.36977 371.92344 321.05758 373.5271 311.73633 380.03516 C 295.68488 391.2422 280.22051 399.88775 264.61914 406.38086 C 260.251 408.19883 256.50599 409.6875 256.29688 409.6875 C 255.50705 409.6875 260.9188 403.43003 265.10742 399.5 C 280.21922 385.32113 297.38344 376.46437 316.91406 372.76758 C 318.71855 372.42602 320.07466 372.16615 320.89844 372.10547 z M 546.73828 372.33203 C 551.46248 372.81746 563.84997 376.24806 571.44727 379.52344 C 584.01196 384.94037 602.98931 399.03263 608.90039 407.33398 C 609.82203 408.62825 610.27787 409.67521 609.91211 409.66211 C 608.73926 409.62012 594.83567 403.54448 587.875 400.03125 C 575.48733 393.77886 548.98587 377.02408 545.0293 372.94336 C 544.44006 372.33564 545.16355 372.17022 546.73828 372.33203 z M 466.0957 376.73828 C 467.03736 376.93211 472.1956 377.50893 477.56055 378.01953 C 482.92549 378.53014 487.40224 379.0314 487.50781 379.13281 C 487.6134 379.23422 482.16986 381.85268 475.41016 384.95117 C 468.65048 388.04965 462.74619 390.72486 462.29102 390.89648 C 461.78698 391.08653 461.67231 390.45166 461.99609 389.27148 C 462.28849 388.2057 462.9448 384.86955 463.45508 381.85938 C 464.28976 376.9355 464.55537 376.42121 466.0957 376.73828 z M 404.40234 376.75195 L 405.38867 380.82227 C 405.93065 383.06153 406.61117 386.44953 406.90234 388.34961 C 407.19351 390.2497 407.11654 391.77559 406.73047 391.74219 C 406.34439 391.7088 403.6521 390.51834 400.74609 389.0957 C 397.84008 387.67306 391.98553 384.88982 387.73828 382.91016 L 380.01758 379.31055 L 392.21094 378.03125 L 404.40234 376.75195 z M 361.49805 381.33594 C 361.25849 381.3458 361.0001 381.39875 360.76172 381.49414 C 360.11327 381.75362 360.30696 381.94537 361.25391 381.98438 C 362.1108 382.01966 362.59042 381.8287 362.32031 381.55859 C 362.15993 381.39826 361.84816 381.32152 361.49805 381.33594 z M 216.04883 421.97852 C 215.79401 421.98219 215.51453 422.03399 215.25781 422.13672 C 214.60935 422.3962 214.80304 422.58991 215.75 422.62891 C 216.60689 422.66421 217.08652 422.47128 216.81641 422.20117 C 216.66447 422.04927 216.37645 421.97379 216.04883 421.97852 z M 664.01562 422.7832 C 663.13163 422.78174 662.21879 422.82556 661.48828 422.91602 C 660.02726 423.09693 661.02651 423.24891 663.70898 423.25391 C 666.39147 423.25847 667.58669 423.10931 666.36523 422.92383 C 665.7545 422.83124 664.89964 422.78467 664.01562 422.7832 z M 540.47656 439.20898 L 544.62109 442.83398 C 546.90029 444.82776 548.57935 446.64525 548.35352 446.87109 C 548.12768 447.09692 546.01546 445.89469 543.6582 444.20117 L 539.37109 441.12305 L 542.73828 445.11719 C 547.21997 450.43466 551.00266 453.92654 553.9707 455.48633 C 557.38545 457.28086 561.34349 457.13343 565.00391 455.07617 C 568.74831 452.97169 570.12856 449.82722 568.88086 446.24805 C 567.85911 443.31706 566.03068 442.20117 562.25195 442.20117 C 559.43337 442.20117 557.12776 443.82912 558.24609 445.0293 C 559.70886 446.59913 551.77127 444.58926 546.39258 442.02734 L 540.47656 439.20898 z M 410.7168 449.92383 L 410.0957 452.23438 C 409.38721 454.86473 411.03829 476.19478 412.26172 480.21094 C 412.71774 481.7079 414.01485 483.37555 415.24023 484.04102 C 416.93384 484.96077 421.15292 485.22505 434.47852 485.24805 C 450.09532 485.27504 451.77453 485.13963 454.19141 483.66602 C 455.64442 482.78011 456.85978 481.96014 456.89258 481.8418 C 457.38106 480.08225 459.733 453.70647 459.4668 452.97266 C 458.91305 451.44623 457.82104 451.74757 457.23633 453.58984 C 456.11467 457.12386 453.18842 457.64648 434.47852 457.64648 C 414.70694 457.64648 412.7222 457.20674 411.44141 452.55469 L 410.7168 449.92383 z M 393.51172 452.10156 C 394.47531 451.72775 390.92832 461.81985 387.45117 469.3457 C 385.82475 472.86588 382.51419 478.71503 380.0957 482.34375 C 377.6772 485.97248 374.7495 489.82826 373.58984 490.91211 L 371.48242 492.88281 L 371.48242 487.97656 C 371.48242 485.27855 371.26357 481.4664 370.99609 479.50391 L 370.50977 475.93555 L 381.67383 464.14844 C 387.81403 457.6658 393.14109 452.24533 393.51172 452.10156 z M 473.26758 452.66992 C 473.3941 452.30389 478.5265 457.31281 484.67383 463.80078 L 495.85156 475.59766 L 495.79102 480.64453 C 495.75788 483.41993 495.4838 487.32732 495.18164 489.32812 L 494.63086 492.96484 L 491.71094 489.32812 C 487.1483 483.64592 484.14221 478.91671 480.61523 471.87109 C 477.16529 464.97936 472.88208 453.78524 473.26758 452.66992 z M 299.14844 452.76367 C 299.06555 452.77018 299.30855 453.10023 299.8457 453.78516 C 300.45929 454.56754 301.09879 455.20703 301.26758 455.20703 C 301.9366 455.20703 301.50638 454.54043 300.15234 453.47852 C 299.548 453.00456 299.22157 452.75793 299.14844 452.76367 z M 458.25195 485.46289 C 458.09041 485.53686 457.93982 486.00082 457.70312 486.90039 C 457.41038 488.01306 455.94352 489.75077 454.44336 490.76172 C 451.83236 492.52132 451.00826 492.59961 435.14648 492.59961 C 416.33541 492.59961 413.64452 492.02536 411.79102 487.61719 C 410.77472 485.20014 410.65467 485.1382 410.14062 486.75781 C 409.83596 487.71767 410.17754 494.447 410.89844 501.71094 C 412.25723 515.40271 412.81981 517.08092 416.5957 518.67969 C 417.48985 519.05829 425.98731 519.28946 435.47852 519.19336 L 452.73438 519.01758 L 454.91211 516.83984 C 456.97107 514.77925 457.15274 513.94047 458.29297 501.25977 C 458.95577 493.88858 459.21441 487.18685 458.86719 486.36719 C 458.58648 485.70451 458.41349 485.38893 458.25195 485.46289 z M 410.89453 519.85352 C 410.0623 519.76702 410.11112 524.6729 411.04688 534.48438 C 412.32893 547.92921 413.15531 550.60878 416.43945 551.93164 C 417.41931 552.32634 425.80634 552.67277 435.07617 552.70117 L 451.92969 552.75195 L 454.375 550.51562 C 456.77559 548.32089 456.84271 548.04166 458.05078 535.15039 C 459.34834 521.3042 459.07203 517.22907 457.14648 521.80859 C 455.24848 526.32262 452.4231 526.89066 433.35156 526.59375 C 415.10391 526.30968 413.84555 526.01582 412.01953 521.60742 C 411.54668 520.46585 411.17194 519.88235 410.89453 519.85352 z M 566.57031 521.14453 C 565.90731 521.14453 565.24515 521.19218 564.74219 521.28906 C 563.73626 521.48281 564.55846 521.64062 566.57031 521.64062 C 568.58217 521.64063 569.40632 521.48281 568.40039 521.28906 C 567.89743 521.19218 567.23331 521.14453 566.57031 521.14453 z M 411.92188 552.98242 C 411.77514 552.87427 411.53871 553.01401 411.17773 553.375 C 410.45576 554.09696 410.48254 557.4456 411.29102 567.42773 C 412.25445 579.32307 412.53681 580.75297 414.34375 582.90039 L 416.33398 585.26758 L 434.46094 585.26758 C 451.0522 585.26758 452.75032 585.13668 454.49414 583.72461 C 456.23381 582.31592 456.51344 581.0254 457.71875 568.88867 C 459.07101 555.27218 458.79122 549.92079 456.99609 555.07031 C 455.4055 559.63307 452.65592 560.1948 433.24219 559.91016 C 416.6085 559.66628 416.28036 559.62812 414.2207 557.69141 C 413.06802 556.60755 412.125 554.97985 412.125 554.07422 C 412.125 553.44715 412.06853 553.09058 411.92188 552.98242 z M 411.92188 585.54297 C 411.77641 585.40374 411.54412 585.52423 411.19336 585.875 C 410.49183 586.57653 410.58533 590.19037 411.57031 600.46484 C 412.80778 613.3731 412.99494 614.22462 414.98633 615.95312 C 417.03015 617.72719 417.61478 617.78125 434.47852 617.78125 C 456.8695 617.78125 455.87242 618.38739 457.33398 603.875 C 458.59989 591.30527 458.69264 586.08008 457.64648 586.08008 C 457.1994 586.08008 456.83398 586.78478 456.83398 587.64648 C 456.83398 588.50819 455.8694 589.97184 454.69141 590.89844 C 452.66932 592.48898 451.53074 592.58203 434.33203 592.58203 L 416.11523 592.58203 L 414.12109 590.58789 C 413.02371 589.49052 412.125 587.77148 412.125 586.76758 C 412.125 586.08106 412.06727 585.6822 411.92188 585.54297 z M 456.94336 616.5625 L 456.88867 618.32422 C 456.69629 624.48716 454.63997 625.09766 434.05078 625.09766 L 416.87695 625.09766 L 414.50195 622.7207 C 413.1951 621.41385 412.11516 619.67614 412.10156 618.85938 C 412.0795 617.53404 411.99212 617.51716 411.30273 618.69727 C 410.38326 620.27122 412.57022 644.02425 413.85547 646.42578 C 414.31594 647.28616 415.85173 648.50842 417.26953 649.14258 C 419.26922 650.03701 423.44416 650.25127 435.88477 650.09375 C 456.79238 649.82903 455.54243 650.83323 457.32422 632.875 C 458.21971 623.84963 458.35432 619.47174 457.77344 618.27344 L 456.94336 616.5625 z M 457.02344 649.68555 C 456.90915 649.77231 456.86752 650.18095 456.85742 650.94336 C 456.84382 651.96961 455.93527 653.70731 454.83789 654.80469 L 452.8418 656.79883 L 434.6582 656.79883 C 416.84963 656.79883 416.43696 656.76221 414.75391 654.9707 C 413.80868 653.96454 412.67216 652.22685 412.22656 651.10938 C 411.52279 649.34446 411.40808 649.6187 411.36328 653.20312 C 411.28712 659.30171 412.88533 674.76583 413.8457 677.22656 C 414.30441 678.40191 415.47706 679.7478 416.45117 680.21875 C 417.50505 680.72826 425.06631 681.09806 435.125 681.13086 C 452.02195 681.18585 452.03101 681.18384 454.02539 679.18945 C 455.12277 678.09208 456.03172 676.53904 456.04492 675.73633 C 456.05816 674.93362 456.58918 669.18133 457.22461 662.95508 C 457.94649 655.88187 458.09838 651.15462 457.63086 650.35547 C 457.32513 649.83285 457.13772 649.59878 457.02344 649.68555 z M 457.51367 680.7793 L 456.38281 683.35938 C 454.22224 688.29186 453.338 688.50343 434.9082 688.49023 C 416.38266 688.47693 414.64561 688.09995 413.37891 683.81641 C 412.95115 682.36985 412.31166 681.18555 411.95703 681.18555 C 411.10365 681.18555 411.21389 685.11737 412.42188 697.75 C 413.36257 707.58788 413.55757 708.33455 415.66406 710.14648 C 417.86027 712.03561 418.2329 712.07422 434.08008 712.07422 C 451.50052 712.07422 453.74737 711.64994 455.0957 708.10742 C 456.02606 705.66305 457.68399 689.87903 457.58203 684.4375 L 457.51367 680.7793 z M 412.75586 711.38672 C 412.63974 711.33386 412.43829 711.6273 412.08203 712.23828 C 411.53644 713.17398 411.67766 717.63441 412.51758 726.00977 C 413.5669 736.47329 414.02729 738.68156 415.48242 740.23047 C 416.42985 741.23897 417.98128 742.21588 418.93164 742.40234 C 422.6766 743.13713 447.66324 742.90391 450.53125 742.10742 C 452.53656 741.55052 453.95431 740.51074 454.67578 739.06445 C 455.56252 737.28687 457.65148 719.30604 457.64648 713.49609 C 457.64457 711.16219 456.41273 711.88282 455.57812 714.70508 C 454.31789 718.96676 452.53281 719.36561 434.64258 719.37891 C 415.24256 719.39336 412.99926 718.6943 412.91406 712.61719 C 412.90315 711.83905 412.87197 711.43958 412.75586 711.38672 z M 412.73242 741.62891 C 412.63575 741.53648 412.47851 741.86041 412.21094 742.55664 C 411.8673 743.4508 411.80334 746.61839 412.07031 749.5957 C 412.53025 754.72518 412.47513 754.96561 411.01758 754.18555 C 409.24293 753.23579 409.13416 753.35721 405.58203 760.22656 C 382.2277 805.39097 350.61026 908.22071 319.03711 1041.6934 C 284.56634 1187.4147 246.01789 1390.4119 229.26758 1514.4336 C 225.76416 1540.3735 226.30707 1539.8194 230.51758 1513.1582 C 247.87718 1403.2364 280.91129 1241.9173 314.16016 1104.6914 C 349.92917 957.06459 386.16627 838.62505 412.58594 782.99805 L 417.70312 772.22656 L 434.04297 772.22656 L 450.38281 772.22656 L 454.08008 780.15234 C 492.35613 862.22567 541.94687 1038.9066 590.45898 1266.0449 C 611.15582 1362.9495 633.9287 1484.4254 639.83398 1529.416 C 640.42079 1533.8868 641.02495 1536.9326 641.17578 1536.1855 C 642.26318 1530.7988 623.54755 1412.0021 609.25977 1333.5957 C 566.74822 1100.3069 518.06826 900.13356 479.36328 799.45898 C 470.63602 776.7587 459.50138 753.26961 457.78125 753.92969 C 456.78537 754.31184 456.67741 753.50328 457.10156 748.87695 C 457.38477 745.7878 457.26387 742.83437 456.82617 742.15039 C 456.22224 741.20666 456.0432 741.44436 456.0332 743.20312 C 456.02599 744.51915 455.18092 746.31518 454.02539 747.4707 C 452.03022 749.46588 452.02867 749.4668 434.47852 749.4668 C 416.92836 749.4668 416.92876 749.46588 414.93359 747.4707 C 413.81407 746.35119 412.91562 744.47813 412.88672 743.20312 C 412.86465 742.22998 412.82909 741.72133 412.73242 741.62891 z M 426.17578 779.54297 L 426.46094 789.09375 C 426.61746 794.34693 428.48659 966.17651 430.61328 1170.9395 C 432.73997 1375.7015 434.57109 1539.0281 434.68359 1533.8867 C 434.79609 1528.7453 436.51152 1369.4423 438.49609 1179.8809 C 440.48064 990.31884 442.32339 822.69526 442.58984 807.38281 L 443.07422 779.54297 L 434.625 779.54297 L 426.17578 779.54297 z M 226.53906 1537.3418 C 226.3346 1536.5594 226.16602 1537.1989 226.16602 1538.7637 C 226.16602 1540.3284 226.3346 1540.9679 226.53906 1540.1855 C 226.74351 1539.4031 226.74351 1538.1242 226.53906 1537.3418 z M 641.91602 1538.9668 C 641.71156 1538.1844 641.54297 1538.8239 641.54297 1540.3887 C 641.54297 1541.9535 641.71156 1542.5949 641.91602 1541.8125 C 642.12047 1541.0301 642.12047 1539.7492 641.91602 1538.9668 z M 225.72852 1544.6719 C 225.52242 1543.8811 225.34082 1544.3326 225.32422 1545.6738 C 225.30766 1547.0148 225.4746 1547.6617 225.69727 1547.1113 C 225.92001 1546.561 225.93461 1545.4628 225.72852 1544.6719 z M 642.70508 1545.877 C 642.47959 1545.3181 642.29684 1545.7749 642.29688 1546.8926 C 642.29687 1548.0103 642.47959 1548.4671 642.70508 1547.9082 C 642.93058 1547.3494 642.93058 1546.4358 642.70508 1545.877 z M 224.58008 1551.2637 C 224.49461 1551.3491 224.43552 1551.6359 224.41602 1552.1094 C 224.38073 1552.9662 224.57364 1553.4459 224.84375 1553.1758 C 225.11379 1552.9057 225.14302 1552.204 224.9082 1551.6172 C 224.77846 1551.2929 224.66554 1551.1782 224.58008 1551.2637 z M 643.20703 1552.8906 C 643.12156 1552.9761 643.06442 1553.2609 643.04492 1553.7344 C 643.00963 1554.5913 643.20255 1555.071 643.47266 1554.8008 C 643.7427 1554.5307 643.76997 1553.829 643.53516 1553.2422 C 643.40541 1552.918 643.2925 1552.8052 643.20703 1552.8906 z " />
      <path
         class="species_main_colour"
         style="fill:#4c4a48;stroke-width:0.81287;opacity:0.5;"
         d="M 318.71289 373.18164 C 315.66573 372.85532 298.81643 378.11835 291.41406 381.83398 C 280.92331 387.09982 265.45175 398.82811 260.59375 405.19727 L 258.38867 408.08984 L 261.89453 406.74023 C 269.32949 403.88007 285.28217 395.93752 293.44531 391.03125 C 303.38343 385.05816 319.65084 373.84226 319.13086 373.32227 C 319.05729 373.2487 318.91603 373.2034 318.71289 373.18164 z M 548.07227 373.2832 C 547.87424 373.27965 547.72234 373.29307 547.62305 373.32617 C 546.64807 373.65116 562.33614 384.5798 572.66797 390.77344 C 582.08683 396.41977 588.32252 399.66137 599.08594 404.50391 C 603.33319 406.41477 607.09427 407.99673 607.44531 408.01953 C 608.9113 408.11463 606.05575 404.62849 600.52148 399.56641 C 592.47244 392.20413 580.22685 384.12394 571.21094 380.22656 C 564.54204 377.34374 551.04266 373.33648 548.07227 373.2832 z " />
  </g>
</svg>
