<?xml version="1.0" encoding="UTF-8" standalone="no"?>
<!-- Created with Inkscape (http://www.inkscape.org/) -->

<svg
   version="1.1"
   id="svg6728"
   width="1587.536"
   height="1850.906"
   viewBox="0 0 1587.536 1850.906"
   xmlns="http://www.w3.org/2000/svg"
   xmlns:svg="http://www.w3.org/2000/svg">
  <defs/>
  <path
     style="fill:#333333;stroke-width:0.81287"
     d="m 396.21849,1850.0094 c -0.86343,-0.3382 -1.20409,-0.6461 -0.75701,-0.6844 0.49073,-0.042 0.4632,-0.3063 -0.0695,-0.6668 -1.33213,-0.9017 -6.53665,-10.1911 -15.81887,-28.2348 -10.00895,-19.4564 -17.85129,-33.55 -21.59946,-38.8165 -1.5121,-2.1247 -2.74929,-4.228 -2.74929,-4.674 0,-2.0212 1.68212,-0.2932 6.1344,6.3016 2.641,3.912 12.14122,16.2574 21.11158,27.4344 8.97037,11.177 17.84927,22.3669 19.73087,24.8665 4.23247,5.6223 4.49989,8.6282 1.02759,11.55 -1.31645,1.1077 -2.21555,2.192 -1.998,2.4096 0.71799,0.7179 -3.41066,1.1417 -5.01234,0.5144 z m 791.38521,0.01 c -1.1177,-0.315 -1.7859,-0.6093 -1.485,-0.6538 0.3009,-0.045 -0.5221,-1.1503 -1.829,-2.4572 -4.6073,-4.6073 -4.8903,-4.0991 18.3633,-32.9837 15.6362,-19.4227 22.0272,-27.8115 25.5491,-33.5353 1.4428,-2.3448 3.1826,-4.2632 3.8663,-4.2632 1.1022,0 1.1073,0.2073 0.045,1.8289 -6.855,10.4649 -9.8544,15.6251 -16.9593,29.1766 -16.1138,30.7348 -20.596,38.9827 -22.0082,40.4986 -1.0124,1.0867 -1.1402,1.6315 -0.4378,1.8664 1.8175,0.6076 -3.039,1.1049 -5.1044,0.5227 z m -844.61892,-85.479 c -9.081,-15.3638 -26.23505,-39.5052 -50.68432,-71.3294 -21.02422,-27.366 -46.70364,-61.576 -49.39085,-65.7984 -1.31881,-2.0722 -2.29996,-4.7476 -2.29996,-6.2715 0,-4.9334 8.02222,-11.7828 15.13182,-12.9194 6.16465,-0.9856 7.45203,0.9542 39.95016,60.1968 27.85823,50.7842 40.07817,71.5373 52.3022,88.8246 3.07508,4.3489 5.59415,8.3376 5.59793,8.864 0.009,1.3158 -3.95734,4.3266 -5.70019,4.3266 -0.90486,0 -2.69256,-2.1471 -4.90679,-5.8933 z m 892.92062,4.0122 c -2.5903,-2.2281 -2.5878,-2.235 4.4966,-12.2666 11.0767,-15.6847 25.654,-40.4571 50.0315,-85.0225 13.9209,-25.4494 28.6798,-51.6402 32.5976,-57.8472 3.7903,-6.0048 7.1663,-6.8478 13.9286,-3.478 5.9481,2.9641 9.9666,7.6416 9.9666,11.601 0,3.7958 -4.4956,10.1155 -43.6526,61.3627 -29.945,39.1908 -46.3054,61.8197 -55.8114,77.1955 -6.8888,11.1423 -7.7231,11.7527 -11.5569,8.4551 z m -980.66408,-171.744 c -10.91089,-2.8983 -19.50889,-9.7443 -19.50889,-15.5333 0,-2.1256 4.27595,-13.1176 14.15761,-36.394 35.04296,-82.5448 63.1449,-151.4946 78.19139,-191.8475 2.2258,-5.9693 4.88894,-11.6208 6.12881,-13.0059 2.05045,-2.2908 2.55249,-2.4445 7.74226,-2.3717 10.48655,0.1471 21.40059,7.1972 21.40059,13.8242 0,1.7726 -3.08543,10.395 -8.0617,22.5288 -17.40769,42.4458 -40.26181,102.5518 -70.01328,184.1339 -7.06632,19.3766 -13.47806,35.9266 -14.24834,36.7778 -1.52042,1.68 -6.04492,3.2025 -9.28548,3.1244 -1.1177,-0.027 -4.04403,-0.5834 -6.50297,-1.2367 z m 1065.20068,0.4654 c -1.3777,-0.4246 -3.0827,-1.4176 -3.789,-2.2067 -0.7063,-0.7891 -7.2113,-17.7125 -14.4556,-37.6075 -26.9785,-74.091 -56.145,-150.6741 -70.9877,-186.3938 -3.8647,-9.3007 -7.0268,-17.8235 -7.0268,-18.9397 0,-5.4657 5.7711,-10.6932 14.8497,-13.4507 7.0631,-2.1453 11.35,-1.7061 14.4866,1.4843 1.4687,1.4938 3.6636,6.1286 6.2842,13.2694 12.7677,34.7919 48.1374,121.4607 81.3491,199.3353 11.2909,26.4748 11.9634,28.9513 9.1264,33.6038 -4.2039,6.8937 -21.8849,13.3562 -29.8369,10.9056 z m -539.27349,-13.061 c -64.02539,-8.2179 -132.67956,-75.0612 -161.06068,-156.8125 -10.00256,-28.8122 -13.86259,-56.1747 -12.11614,-85.8876 2.16659,-36.8606 8.64535,-63.7506 21.6102,-89.6924 20.34889,-40.7169 53.96625,-67.4648 100.95524,-80.3257 7.38983,-2.0226 11.25537,-3.4633 11.40716,-4.2515 0.12628,-0.6558 -2.54985,-4.2989 -5.94695,-8.0958 -15.16532,-16.9505 -26.49208,-39.1589 -30.82053,-60.4299 -3.09692,-15.219 -2.33679,-35.0726 2.00135,-52.2727 5.15457,-20.437 16.00979,-36.6876 31.16111,-46.64896 3.17465,-2.08721 5.4172,-4.13605 5.4172,-4.94925 0,-0.76328 -0.58972,-3.68962 -1.3105,-6.50304 -0.89742,-3.50299 -1.20393,-7.34396 -0.97243,-12.18599 0.29234,-6.11449 0.73786,-7.87736 3.29463,-13.03665 5.14418,-10.38044 15.58347,-19.94873 26.01809,-23.84751 5.29491,-1.97828 12.54057,-1.33993 18.58235,1.63713 l 4.56219,2.24807 4.78582,-2.34985 c 3.99456,-1.96137 5.80081,-2.34992 10.9248,-2.34992 5.37932,0 6.81688,0.34409 11.61737,2.78066 10.27533,5.21554 19.88671,15.84846 23.38815,25.87408 2.05973,5.89737 2.19922,14.95909 0.34376,22.33004 -0.75645,3.00518 -1.14184,5.84185 -0.85644,6.30364 0.2854,0.46188 2.78246,2.35847 5.54898,4.21482 7.15424,4.80043 16.57329,14.77183 21.10179,22.33933 4.63532,7.7458 8.83639,19.1206 11.28167,30.5459 2.43739,11.3884 2.66418,35.7221 0.43017,46.1534 -4.67311,21.8199 -14.71873,41.5225 -30.57823,59.9735 -3.56607,4.1487 -6.29682,8.0303 -6.06841,8.6257 0.2285,0.5953 3.77928,1.9169 7.8907,2.9369 31.94215,7.9242 57.85353,22.5988 78.71984,44.5821 25.35099,26.7081 40.37291,62.1329 45.89661,108.2341 1.97382,16.4735 1.9991,46.5083 0.0504,59.746 -7.94662,53.9783 -35.10405,107.2025 -75.31082,147.5975 -39.22352,39.4071 -82.81906,58.5388 -121.94829,53.5164 z M 369.4496,1342.9945 c -5.98527,-3.6501 -11.90755,-13.4648 -13.90483,-23.0438 -1.24306,-5.9618 -0.75154,-9.9236 1.656,-13.348 0.67469,-0.9596 6.66807,-4.1407 13.63573,-7.2373 90.61102,-40.2696 196.00028,-88.7635 253.44801,-116.6215 15.8713,-7.6964 29.91636,-14.3138 31.21124,-14.7051 1.31477,-0.3974 3.71006,-0.407 5.42468,-0.022 3.57654,0.8035 4.82047,-0.027 4.82047,-3.2177 0,-4.209 4.53328,-7.5268 14.22524,-10.411 4.36378,-1.2986 21.77057,-8.0434 30.98763,-12.0071 0.50128,-0.2156 1.858,1.2232 3.01493,3.1974 1.15694,1.9742 4.31871,6.577 7.02616,10.2286 3.18914,4.3011 4.56057,6.767 3.89446,7.0024 -0.56549,0.1998 -4.5032,1.5092 -8.75045,2.9098 -25.32282,8.3506 -47.47675,21.9475 -65.62016,40.2741 l -9.12566,9.2179 -22.98272,10.8718 c -41.87851,19.8104 -95.27878,45.9774 -168.17088,82.4063 -77.00984,38.4869 -75.39268,37.7962 -80.78985,34.5048 z m 781.9814,-27.5283 c -75.2278,-37.7617 -179.16047,-88.5738 -200.779,-98.1597 -2.88716,-1.2802 -6.88973,-4.6282 -13.8188,-11.5589 -20.86134,-20.8661 -39.81838,-31.8454 -74.20036,-42.9745 -0.67915,-0.2198 0.34141,-2.1119 2.93072,-5.4333 2.185,-2.8028 5.01257,-6.742 6.28349,-8.7539 4.47363,-7.0819 3.01713,-6.9776 17.00111,-1.2171 6.85314,2.823 15.53964,6.0721 19.30331,7.2201 9.33289,2.8467 12.10267,4.8385 13.72963,9.873 1.02202,3.1626 1.63956,3.9864 2.84505,3.7953 6.81291,-1.0799 7.7551,-0.7398 35.03585,12.6456 50.6296,24.8415 168.9971,79.4062 251.8214,116.0839 8.9416,3.9597 17.2364,8.1648 18.4331,9.3448 2.8141,2.775 3.5458,6.9296 2.3188,13.1663 -1.8462,9.3842 -8.8974,20.7931 -14.708,23.7978 -5.2945,2.7379 -5.334,2.7213 -66.1963,-27.8294 z M 466.79775,1130.9598 c -2.88704,-0.5835 -6.45284,-4.7538 -8.03552,-9.3976 -1.01742,-2.9852 -1.45589,-6.7198 -1.45589,-12.4005 0,-12.5217 3.62758,-20.5463 9.8511,-21.7916 1.25139,-0.2503 21.11352,0.2874 44.13808,1.1949 23.02455,0.9076 66.55377,1.8895 96.73158,2.1819 l 54.86876,0.5317 2.17729,-1.7276 c 3.43643,-2.7267 7.41094,-3.0337 18.68012,-1.4427 l 10.29009,1.4528 0.55588,4.5166 c 0.74454,6.0498 4.74831,21.4489 6.84536,26.3284 2.57423,5.9899 2.44494,6.2284 -3.3921,6.2589 -2.79424,0.015 -7.64098,0.383 -10.77053,0.8185 -13.40016,1.8649 -16.16163,1.8918 -19.99817,0.1947 -2.59137,-1.1463 -4.18552,-1.4066 -5.54167,-0.9049 -1.04709,0.3873 -25.7239,0.8389 -54.83736,1.0035 -29.11345,0.1645 -67.38233,0.8723 -85.04194,1.5726 -45.64805,1.8105 -53.01049,2.0258 -55.06508,1.6104 z m 617.16505,-0.7134 c -60.2661,-2.3496 -83.8422,-2.8927 -119.08557,-2.7431 -22.61267,0.096 -37.76312,-0.1521 -38.9864,-0.6386 -1.52357,-0.6059 -2.86846,-0.4118 -5.63864,0.8135 -3.83651,1.6971 -6.59799,1.6702 -19.99816,-0.1947 -3.12955,-0.4355 -7.97629,-0.8039 -10.77053,-0.8185 -2.79425,-0.015 -5.08044,-0.2247 -5.08044,-0.4667 0,-0.2422 1.24783,-4.0251 2.77294,-8.4067 2.91447,-8.373 6.16863,-22.0492 6.16863,-25.9246 v -2.2851 l 10.3641,-1.4631 c 11.19144,-1.58 15.22287,-1.2993 18.51361,1.2892 1.97333,1.5522 3.38975,1.6008 44.09115,1.5136 40.88261,-0.087 54.14941,-0.404 121.27541,-2.894 37.7425,-1.4001 36.1925,-1.6504 40.2689,6.5025 2.3031,4.6062 2.4386,5.4191 2.4386,14.6316 0,9.2125 -0.1355,10.0254 -2.4386,14.6317 -1.7812,3.5623 -3.2057,5.2604 -5.2837,6.2984 -3.2284,1.6128 -1.3956,1.6055 -38.6113,0.1546 z m -662.8959,-12.1873 c -25.77298,-10.1661 -100.64272,-36.3901 -148.34886,-51.961 -20.11855,-6.5664 -38.37278,-12.549 -40.56497,-13.2946 -6.01588,-2.046 -7.41211,-4.4502 -7.31634,-12.5981 0.16109,-13.7041 8.48031,-26.482 16.5858,-25.475 2.88093,0.3579 16.77425,5.7046 78.44199,30.1879 41.87432,16.6248 76.44366,29.607 99.69271,37.4385 9.67604,3.2595 18.35981,6.3368 19.29726,6.8385 4.34401,2.3248 5.29368,9.5692 2.40712,18.3622 -3.77591,11.5022 -9.76381,14.6161 -20.19471,10.5016 z m 732.3282,0.2251 c -5.1184,-3.4492 -9.8192,-16.0199 -8.5401,-22.8375 0.3229,-1.7217 1.3953,-3.9386 2.3831,-4.9263 1.153,-1.1531 8.7715,-4.1415 21.284,-8.3487 27.0122,-9.083 53.7127,-19.1573 110.762,-41.7917 66.4785,-26.3756 65.8773,-26.153 69.1972,-25.6142 7.7815,1.2628 15.537,16.4461 14.5403,28.4661 -0.4821,5.8131 -2.4695,8.0326 -9.0982,10.1609 -68.4626,21.9807 -111.7481,36.8039 -169.7892,58.1445 -12.8616,4.729 -24.4214,8.5982 -25.6884,8.5982 -1.267,0 -3.5399,-0.8331 -5.0507,-1.8513 z m -467.73887,-60.7881 c -3.57663,-0.8397 -7.78324,-1.5461 -9.34801,-1.5699 -4.25707,-0.065 -9.44132,-2.7342 -10.94072,-5.6337 -1.15169,-2.2271 -1.69294,-2.5025 -4.91869,-2.5025 -2.16082,0 -10.44132,-2.1066 -20.50411,-5.2164 -33.06143,-10.2174 -80.44699,-23.4162 -147.26068,-41.018 -41.86443,-11.02915 -40.71919,-10.52314 -41.36207,-18.27532 -0.94675,-11.4166 6.03539,-24.9613 12.95325,-25.12818 1.49538,-0.0358 20.45977,5.64806 42.14309,12.63127 66.43238,21.39499 110.63366,34.96603 142.25233,43.67553 8.27096,2.2783 15.68022,4.3337 16.46502,4.5677 0.78479,0.2338 2.54455,1.3657 3.91057,2.5152 2.25186,1.8948 2.76354,2.0065 5.48249,1.1972 3.60758,-1.0738 6.72874,-0.4254 13.97258,2.9028 2.90601,1.3351 7.05276,3.0662 9.215,3.8467 2.91664,1.053 3.83221,1.7622 3.54726,2.7478 -0.21126,0.7307 -1.34788,4.5965 -2.52584,8.5907 -1.17795,3.9942 -2.55348,9.7555 -3.05672,12.8027 -1.0462,6.3349 -0.4647,6.1106 -10.02475,3.8664 z m 206.29181,-4.2192 c -0.8171,-5.0671 -3.92779,-16.9699 -5.48338,-20.9815 -0.38221,-0.9856 1.19508,-1.9576 7.05498,-4.3473 14.90967,-6.0805 15.6984,-6.29 19.79389,-5.2588 3.36959,0.8485 3.80764,0.786 4.84153,-0.69 1.48439,-2.1192 2.66996,-2.5427 22.33606,-7.9777 30.55889,-8.4454 80.57268,-23.77193 138.18798,-42.34692 13.1888,-4.25204 28.4032,-9.15341 33.8096,-10.89189 11.8588,-3.81318 14.3397,-3.56371 18.2511,1.83587 4.8784,6.73438 7.2378,20.40947 4.4511,25.79831 -1.5393,2.97673 -3.3121,3.6041 -28.8742,10.21867 -57.3644,14.84396 -117.7178,31.51506 -153.04929,42.27606 -13.71865,4.1783 -23.99171,6.8783 -26.17077,6.8783 -3.11419,0 -3.72685,0.2947 -4.64751,2.2354 -1.30116,2.7429 -7.27373,5.8913 -11.19038,5.899 -1.58184,0 -5.91696,0.7347 -9.63365,1.6257 -3.71677,0.8911 -7.20073,1.6201 -7.74227,1.6201 -0.59291,0 -1.36253,-2.3442 -1.93479,-5.8933 z m -698.98723,-27.5383 c -5.31219,-3.1867 -25.75336,-16.5043 -45.42482,-29.59489 -38.30937,-25.49316 -53.261656,-34.74111 -69.749423,-43.13977 -5.725433,-2.91641 -10.627733,-5.87038 -10.894001,-6.56425 -0.642432,-1.67411 0.652564,-5.16701 2.298627,-6.19976 1.023159,-0.64201 3.196685,0.30043 9.754445,4.22961 12.352062,7.40086 42.679742,22.18299 67.777482,33.03578 46.06422,19.91907 67.30651,29.84268 69.47587,32.45658 2.90377,3.4989 0.0809,13.3315 -5.40133,18.8137 -4.19972,4.1997 -6.39698,3.8256 -17.83685,-3.037 z m 1184.42429,3.2253 c -6.1376,-5.3888 -8.9477,-15.6909 -5.2803,-19.3582 2.8618,-2.8619 21.4861,-11.58052 64.2373,-30.0717 27.4106,-11.85588 61.2667,-28.25944 73.1077,-35.42132 8.2188,-4.97094 9.2315,-5.05987 11.2331,-0.98576 0.562,1.14371 0.8282,2.57314 0.5916,3.17653 -0.2365,0.6034 -5.0564,3.46129 -10.7109,6.3508 -16.6369,8.50181 -35.0379,19.88687 -72.1893,44.66503 -41.5338,27.70082 -52.1109,34.21332 -55.5673,34.21332 -1.6427,0 -3.4968,-0.8784 -5.4219,-2.5687 z m -677.12158,-21.2284 c -4.90445,-4.576 -10.62492,-9.68984 -12.71216,-11.36411 -4.38133,-3.51444 -6.76136,-7.09042 -7.50428,-11.27508 -0.42884,-2.41561 -1.16271,-3.29603 -4.0652,-4.87722 -2.37673,-1.29474 -7.37944,-6.34169 -15.20738,-15.34187 -28.70111,-32.99905 -78.44282,-86.4313 -143.0669,-153.68168 -22.18867,-23.09041 -22.78898,-23.94181 -21.08068,-29.89829 1.34025,-4.67316 4.71839,-9.56963 9.73304,-14.10765 8.55951,-7.7459 17.63725,-10.73683 22.63958,-7.45926 1.27831,0.83756 16.90611,18.53214 34.72844,39.32131 57.59458,67.18219 94.28376,108.71239 126.09069,142.72785 7.49802,8.01873 11.81846,13.30612 12.45931,15.24791 0.89349,2.70726 1.24876,2.97258 3.98079,2.97258 4.33223,0 8.24943,3.04355 12.76804,9.92036 2.14329,3.2618 5.82581,8.32452 8.18337,11.25045 2.35756,2.92593 4.69898,6.40095 5.20315,7.72227 0.85245,2.23409 0.72734,2.54461 -1.78558,4.43185 -4.96936,3.73197 -13.01579,11.73938 -16.74785,16.66658 -2.0318,2.6825 -3.92031,5.1443 -4.19668,5.4706 -0.27638,0.3264 -4.51524,-3.1506 -9.4197,-7.7266 z m 174.72341,3.7263 c -3.70637,-5.3862 -11.7507,-13.63724 -16.9034,-17.33759 -3.24799,-2.33253 -3.53404,-2.80277 -2.9482,-4.84544 0.35685,-1.24426 2.82188,-4.95745 5.47793,-8.25144 2.65598,-3.29408 6.12319,-8.00109 7.70496,-10.46002 4.21107,-6.54678 7.83339,-9.6795 12.01813,-10.39385 3.13694,-0.5356 3.76188,-1.02194 5.4611,-4.25026 1.05535,-2.00502 4.77204,-6.57181 8.25926,-10.14844 21.64999,-22.20494 76.62994,-84.39229 138.50439,-156.66106 13.2921,-15.52514 25.0946,-28.83502 26.2279,-29.57752 2.9414,-1.92734 9.9117,-1.07643 14.848,1.81259 4.8748,2.85302 11.6802,9.27333 14.7632,13.92785 2.9225,4.41227 3.8352,9.48024 2.3369,12.97659 -0.5964,1.39148 -12.4405,14.35819 -26.3204,28.8149 -63.6892,66.33632 -109.09021,115.14781 -137.85834,148.21416 -9.29981,10.68933 -13.06722,14.44544 -15.44154,15.39544 -2.3348,0.93423 -3.14507,1.72751 -3.1584,3.09216 -0.035,3.55883 -3.05298,8.49864 -7.3755,12.07048 -2.38537,1.97113 -8.21056,7.33325 -12.9448,11.91575 -4.73424,4.5826 -8.80128,8.332 -9.03774,8.332 -0.23655,0 -1.86261,-2.0818 -3.61345,-4.6263 z M 429.19076,970.61324 c -0.67327,-0.39465 -17.1339,-16.69579 -36.57917,-36.22476 C 359.0737,900.7063 296.09492,838.97285 257.45276,801.9024 c -10.00667,-9.59968 -17.91652,-17.83106 -18.19297,-18.9325 -1.92618,-7.67453 12.92797,-22.64575 20.76157,-20.92521 1.47579,0.32415 6.37319,4.87329 14.71214,13.66598 42.15488,44.44862 143.03202,147.74885 160.09031,163.9357 6.75715,6.41192 12.50196,12.51967 12.76623,13.57258 0.86389,3.44202 -0.48668,7.33705 -3.8813,11.19355 -5.00426,5.68513 -11.01658,8.25307 -14.51798,6.20074 z m 720.03824,-1.57461 c -3.9842,-2.55795 -8.4767,-7.98629 -9.2895,-11.22469 -0.2592,-1.03308 -0.2429,-2.78888 0.037,-3.90178 0.2949,-1.17524 8.7225,-10.1208 20.1023,-21.33785 27.1683,-26.77993 116.4695,-118.42441 154.267,-158.31521 5.5071,-5.81203 10.9966,-11.0576 12.199,-11.65684 3.5668,-1.77759 8.1382,-0.0307 13.9148,5.31741 5.4812,5.07468 8.093,9.39283 8.093,13.38075 0,3.07917 1.225,1.82981 -54.8688,55.96093 -20.1185,19.41468 -58.7096,57.38906 -85.7578,84.38758 -55.1394,55.03791 -51.4382,52.04972 -58.6965,47.3897 z M 736.34622,949.228 c -5.46285,-8.78819 -8.82716,-19.07328 -8.82716,-26.98576 0,-16.95395 12.65069,-30.71821 27.98835,-30.45183 l 4.12003,0.0715 -5.41659,1.39627 c -2.97911,0.768 -6.08834,1.90634 -6.90939,2.52965 -4.16775,3.16402 -6.34621,5.71716 -8.66572,10.15617 -4.9747,9.52042 -2.84861,21.32395 5.74479,31.8937 1.90316,2.34082 3.46029,4.46859 3.46029,4.72847 0,0.62672 -8.36827,10.11829 -8.91919,10.11642 -0.23585,-8.2e-4 -1.39479,-1.55543 -2.57541,-3.4547 z m 107.63807,-1.61753 -4.1384,-5.07378 1.58404,-2.03884 c 9.76387,-12.56771 12.48666,-22.28874 8.89239,-31.74804 -3.15141,-8.29388 -8.62154,-13.30319 -17.02744,-15.59305 l -5.38632,-1.46731 6.15115,0.28955 c 4.88527,0.22996 7.03572,0.771 10.44978,2.62914 5.17961,2.81912 9.82378,7.9059 12.85709,14.08258 2.04843,4.17116 2.24035,5.3482 2.20263,13.5108 -0.0333,7.12082 -0.41651,10.01749 -1.88391,14.22523 -1.90967,5.4759 -7.83542,16.25741 -8.93547,16.25741 -0.3449,0 -2.48942,-2.28319 -4.76554,-5.07369 z m 683.63431,-9.02254 c -0.2876,-0.46529 -0.1837,-0.95894 0.2307,-1.09713 3.3537,-1.11819 15.9651,-9.20381 24.3603,-15.61849 14.5137,-11.08959 25.7351,-18.75723 27.4634,-18.76585 0.8168,0 2.5385,1.046 3.826,2.33351 1.3516,1.35164 2.4835,1.95284 2.6784,1.42252 0.1855,-0.50512 0.602,0.42155 0.9253,2.05925 0.5898,2.98794 0.01,6.45679 -1.0387,6.2 -0.3081,-0.0756 -3.1207,1.04974 -6.2503,2.50047 -3.1295,1.45073 -11.5427,4.72067 -18.696,7.26641 -7.1532,2.54583 -17.4992,6.85998 -22.9911,9.587 -6.1471,3.05241 -10.1862,4.63312 -10.508,4.11231 z M 50.319601,934.72379 c -4.290351,-2.20443 -14.243055,-6.34535 -22.117122,-9.20202 -16.42294,-5.9581 -25.7583681,-10.07455 -25.776315,-11.36604 -0.00684,-0.49268 -0.3328769,-0.38986 -0.7245132,0.22849 -1.08923825,1.71988 -1.93922809,-3.22067 -0.97107222,-5.64432 0.43566192,-1.09063 0.81529882,-1.7367 0.84363752,-1.43578 0.028338,0.30093 1.1207621,-0.5221 2.4276077,-1.82896 1.3068455,-1.30685 3.0672259,-2.3761 3.9119563,-2.3761 1.8385682,0 11.0243799,6.22139 27.0529429,18.32251 6.489954,4.89974 14.800993,10.55472 18.468976,12.56657 6.253206,3.42983 8.074004,4.96631 5.700627,4.81049 -0.558849,-0.0366 -4.526375,-1.87034 -8.816725,-4.07484 z M 229.01895,759.08507 c -1.16305,-1.05861 -13.29141,-23.79994 -27.45591,-51.48135 -42.49423,-83.04568 -65.30207,-126.57055 -76.2467,-145.50381 -10.31757,-17.84847 -9.74339,-16.54662 -7.90441,-17.92218 3.10483,-2.32244 4.34899,-1.4816 7.71571,5.21447 7.48497,14.88687 28.39513,49.56987 84.54814,140.23722 19.24967,31.08147 35.42806,57.45255 35.95198,58.6024 2.03551,4.46745 -4.00472,10.82762 -11.60073,12.21522 -2.38347,0.4354 -3.31026,0.18335 -5.00808,-1.36197 z m 1122.13365,0.73637 c -1.4757,-0.47263 -4.1854,-2.19248 -6.0216,-3.8219 -5.8795,-5.21762 -10.4518,3.55357 43.661,-83.75568 42.8289,-69.10281 66.8095,-108.96094 74.0968,-123.15596 1.7177,-3.34591 3.6044,-6.08504 4.1926,-6.08696 1.8083,-0.006 4.2141,1.61637 4.2141,2.84158 0,0.63918 -1.9444,4.37566 -4.3209,8.30332 -10.4571,17.28248 -34.8293,63.51573 -79.3965,150.61283 -24.5165,47.91206 -27.4944,53.45118 -29.4857,54.84597 -2.0058,1.40492 -3.1212,1.43977 -6.9398,0.2168 z m -865.60436,-3.41227 c -1.41927,-0.61735 -3.19488,-2.06015 -3.94582,-3.20621 -0.81052,-1.23701 -3.1354,-11.5858 -5.7213,-25.46724 -9.86948,-52.98091 -33.40883,-165.34843 -54.37622,-259.57049 -3.81753,-17.15503 -6.94097,-32.74607 -6.94097,-34.64677 0,-7.08379 8.93937,-12.30342 22.35394,-13.05231 8.23901,-0.45996 12.36696,0.6882 14.57166,4.05299 0.76777,1.17177 3.59157,15.03481 7.00941,34.41167 16.3052,92.43966 39.73242,216.34311 49.92341,264.03825 2.4744,11.5805 4.49754,21.82266 4.49587,22.76037 -0.005,2.79581 -2.97533,6.81711 -6.26482,8.4814 -6.37543,3.2256 -16.35403,4.26498 -21.10516,2.19834 z m 601.25956,-0.077 c -6.1907,-1.7151 -10.2136,-4.55001 -11.3521,-7.99962 -0.8245,-2.4983 -0.2567,-6.06961 4.7547,-29.91161 11.4819,-54.62524 35.6387,-182.81176 50.5062,-268.00731 2.2936,-13.14298 4.7216,-24.73794 5.3956,-25.76659 4.2227,-6.44465 23.8596,-5.47728 33.184,1.63473 5.397,4.11649 5.4503,3.46862 -3.6607,44.4601 -21.8452,98.28371 -47.9588,223.47936 -55.6541,266.82015 -2.4877,14.01036 -2.771,14.89145 -5.6502,17.57032 -1.7799,1.65598 -3.1127,2.04558 -7.6053,2.22315 -3.0737,0.12148 -7.3954,-0.32441 -9.9181,-1.02332 z M 111.73016,533.16501 C 110.5306,530.7978 101.17833,516.38379 90.947312,501.13387 80.716299,485.88395 72.345471,472.63058 72.345471,471.68193 c 0,-2.12187 3.610239,-5.0943 6.187412,-5.0943 1.107415,0 2.433353,0.80818 3.169694,1.93198 0.696231,1.06258 6.553939,13.36888 13.017137,27.34733 6.463196,13.97845 13.613276,28.8694 15.889076,33.091 2.27581,4.22159 3.94985,7.8636 3.7201,8.09335 -0.22975,0.22975 -1.39918,-1.51908 -2.59873,-3.88628 z m 1361.28304,3.73577 c 0.173,-0.44716 3.2785,-6.66562 6.9011,-13.8188 3.6226,-7.15317 10.9385,-22.46045 16.2574,-34.01616 5.605,-12.1771 10.3007,-21.348 11.169,-21.81341 3.0958,-1.65927 7.8498,1.09198 7.8498,4.54288 0,1.04494 -6.7389,11.82085 -15.5953,24.9377 -8.5775,12.70371 -17.9266,26.92946 -20.7759,31.61276 -4.8528,7.97642 -6.5491,10.47589 -5.8061,8.55503 z M 432.17678,407.70829 c -2.16052,-0.5807 -4.90396,-1.77988 -6.09653,-2.66486 -4.48739,-3.32997 -4.42962,-3.70772 7.18378,-46.974 42.43782,-158.10414 54.57817,-205.19266 60.56693,-234.91956 1.17089,-5.81202 2.44287,-10.8875 2.8266,-11.27882 1.02851,-1.04883 6.51928,0.19824 7.05838,1.6031 0.25502,0.66458 -1.02944,7.3201 -2.85437,14.79003 -6.75918,27.6672 -15.27554,71.45734 -37.10456,190.78747 -14.46278,79.06196 -14.8561,81.14634 -16.00532,84.8204 -1.44817,4.62984 -7.27894,6.06601 -15.57491,3.83624 z m 711.93842,0.44684 c -0.8942,-0.39334 -2.2372,-1.39846 -2.9845,-2.23362 -1.5624,-1.7461 -2.1561,-4.74849 -16.9378,-85.65056 -21.9345,-120.05125 -32.5083,-174.04539 -38.7502,-197.875 l -2.1139,-8.06975 1.8295,-1.48148 c 2.3182,-1.87709 5.4359,-1.90582 6.3965,-0.0589 0.4069,0.78239 1.1756,3.98307 1.7082,7.11262 2.9212,17.16557 16.6255,71.62493 40.3639,160.40186 7.8509,29.36069 18.0863,67.6379 22.7455,85.06049 4.659,17.42258 8.471,32.64505 8.471,33.82771 0,4.84314 -5.8107,8.57033 -14.4929,9.29637 -2.5353,0.21201 -5.3412,0.0636 -6.2353,-0.32969 z M 502.85151,98.504778 c -0.26296,-0.425464 -0.12468,-1.82152 0.30728,-3.102344 1.46861,-4.354661 4.77152,-24.204972 8.90847,-53.539606 4.85583,-34.4320447 5.61047,-38.616034 7.06568,-39.1744504 0.60215,-0.2310656 0.91083,-0.7178163 0.68595,-1.0816684 -0.6633,-1.07324136 4.00226,-1.73708481 6.15753,-0.87613063 1.09062,0.43566193 1.72522,0.81529873 1.41023,0.84363743 -0.31498,0.028338 0.32515,0.9493773 1.42253,2.0467524 1.09737,1.0973751 1.99523,2.6644817 1.99523,3.4824593 0,1.430908 -3.26223,12.2554123 -15.00771,49.7975033 -3.00729,9.612193 -6.82772,22.864456 -8.48985,29.449475 -3.05286,12.094797 -3.58871,13.556623 -4.45534,12.154372 z m 580.41979,-0.214744 c -0.186,-0.633608 -1.3281,-5.358621 -2.5379,-10.500026 -1.2099,-5.141406 -5.3258,-19.407282 -9.1466,-31.701947 -13.1092,-42.183496 -14.8901,-48.3639326 -14.4564,-50.1712871 0.2383,-0.9930225 1.1708,-2.2001985 2.0722,-2.6826133 0.9013,-0.4824149 1.4482,-1.1855365 1.2153,-1.5624924 -0.6059,-0.98038002 3.2576,-1.79598044 5.6561,-1.19400806 1.1146,0.27974858 1.8246,0.83540516 1.5778,1.23479246 -0.2469,0.3993873 -0.074,0.7261587 0.3834,0.7261587 0.4577,0 1.1772,0.6446277 1.5989,1.4325058 0.4217,0.7878783 3.0164,17.1570569 5.7662,36.3759529 4.9476,34.580882 7.4207,49.464466 9.094,54.730387 0.6125,1.927625 0.6094,2.970505 -0.011,3.590628 -0.6234,0.623366 -0.971,0.543639 -1.2122,-0.278051 z"
     class="species_main_colour"/>
</svg>
