<?xml version="1.0" encoding="UTF-8" standalone="no"?>
<!-- Created with Inkscape (http://www.inkscape.org/) -->

<svg
   version="1.1"
   id="svg1450"
   width="1920"
   height="1920"
   viewBox="0 0 1920 1920"
   xmlns="http://www.w3.org/2000/svg"
   xmlns:svg="http://www.w3.org/2000/svg">
  <defs/>
  <path
     style="fill:#333333;stroke-width:0.81287"
     d="m 424.38,1648.2569 c -1.44307,-3.7955 1.43085,-13.2386 8.46899,-27.8272 8.80605,-18.2532 20.73102,-34.2649 59.19519,-79.4817 9.9593,-11.7077 20.63801,-24.3959 23.73045,-28.1961 10.42443,-12.8101 19.58573,-22.9253 98.13901,-108.3573 18.19672,-19.7901 28.25401,-31.329 28.25401,-32.4162 0,-1.5565 -0.31818,-1.646 -4.07425,-1.1478 -2.24084,0.2972 -4.5525,0.724 -5.13705,0.9483 -0.58453,0.2243 -11.82817,12.169 -24.98586,26.5439 -13.15769,14.3748 -32.88497,35.3123 -43.8384,46.5277 -23.91737,24.4896 -36.13055,37.8296 -70.32574,76.814 -55.60943,63.398 -84.54996,93.1643 -104.41744,107.397 -6.90505,4.9467 -12.88396,8.0596 -15.47976,8.0596 -3.55625,0 -3.5529,-6.3649 0.008,-15.4722 2.45198,-6.2709 10.85995,-22.1389 15.05556,-28.4138 8.03427,-12.0158 22.03464,-28.5187 55.17596,-65.0387 10.34581,-11.4005 22.70358,-25.1177 27.46171,-30.4826 4.75813,-5.3649 17.13995,-18.5334 27.51517,-29.2633 18.94416,-19.5918 21.75602,-22.7932 20.83162,-23.7176 -0.76812,-0.7681 -5.74164,2.7998 -16.83027,12.0737 -5.56661,4.6556 -14.14319,11.7406 -19.05909,15.7444 -13.43639,10.9434 -27.50362,23.4894 -64.22035,57.2757 -48.4466,44.5799 -68.462,62.1397 -89.41286,78.4432 -18.24305,14.1963 -34.83498,23.94 -41.2532,24.2262 -3.41288,0.1522 -3.46071,0.1166 -3.70184,-2.7598 -0.63522,-7.5775 11.99518,-28.4022 27.62683,-45.5504 7.70852,-8.4564 28.99141,-28.3845 55.93667,-52.3758 10.95343,-9.7528 23.93904,-21.4391 28.8569,-25.9697 10.42247,-9.6018 22.04614,-19.4873 51.19354,-43.5382 27.04015,-22.3122 33.59791,-28.3987 30.59743,-28.3987 -0.75748,0 -28.25929,19.6353 -41.96032,29.9581 -11.2634,8.4863 -24.02206,18.7599 -55.68162,44.836 -63.26183,52.1053 -92.75401,74.3218 -115.86638,87.2826 -12.81152,7.1844 -22.99154,9.9852 -23.22807,6.3907 -0.4239,-6.4419 5.10573,-16.187 18.20212,-32.0783 10.37408,-12.5881 22.95751,-23.6394 68.76826,-60.395 49.07669,-39.3761 48.27513,-38.7686 141.53982,-107.2779 70.43504,-51.7395 98.35732,-72.9834 98.35732,-74.8324 0,-0.6505 -0.73135,-1.1827 -1.62523,-1.1827 -0.89389,0 -22.20125,15.4896 -47.34971,34.4215 -64.85043,48.8196 -94.21385,70.2345 -118.8828,86.7016 -15.15176,10.1142 -34.22126,24.2295 -73.56478,54.4526 -42.2518,32.4572 -63.31068,48.0044 -82.50635,60.9123 -26.8393,18.0479 -44.10979,27.0039 -52.43015,27.189 -4.10548,0.091 -4.49284,-0.056 -4.74065,-1.8067 -0.93227,-6.5849 16.12708,-29.6153 32.30592,-43.6136 6.10205,-5.2796 8.17423,-8.5362 5.43176,-8.5362 -0.62894,0 -3.64672,1.126 -6.70618,2.5021 -6.84065,3.0768 -14.39571,5.0867 -16.54996,4.403 -5.13775,-1.6306 1.25846,-13.8821 16.52638,-31.6551 10.2598,-11.9431 8.90794,-12.133 -12.52946,-1.7595 -24.0042,11.6155 -39.00319,17.3305 -50.16003,19.1123 -12.04996,1.9245 -12.23766,-3.0812 -0.61624,-16.4334 4.8818,-5.6089 17.87241,-17.1826 25.40557,-22.6347 9.22955,-6.6797 33.03357,-20.6345 68.12739,-39.9386 18.33023,-10.083 36.98561,-20.4032 41.45639,-22.9339 4.47079,-2.5305 33.73413,-17.3375 65.02964,-32.9043 l 56.90093,-28.3034 27.6376,-18.9011 c 35.48964,-24.2711 80.61647,-55.853 97.86096,-68.4879 14.75813,-10.8132 22.4397,-17.0511 36.6691,-29.7774 19.14786,-17.1252 53.36531,-45.1665 92.58917,-75.8772 6.33823,-4.9626 9.03833,-7.5699 8.83855,-8.5351 -0.17527,-0.8468 -0.91059,-1.3019 -1.88224,-1.1648 -0.87703,0.1237 -5.27666,0.4472 -9.77697,0.7187 -6.84545,0.4132 -8.67749,0.2589 -11.21277,-0.9441 -7.55579,-3.5855 -6.90518,-13.1124 1.5718,-23.0159 3.30214,-3.8578 3.43561,-6.3647 0.32126,-6.0337 -1.10374,0.1173 -4.06413,0.2697 -6.57865,0.3387 -5.74949,0.1578 -11.6646,-2.5705 -14.41472,-6.6485 -1.79657,-2.664 -1.89005,-3.3751 -1.46927,-11.177 0.50117,-9.2924 0.46725,-9.342 -4.86853,-7.1126 -4.58995,1.9178 -8.12487,1.5969 -9.75123,-0.8852 -1.2389,-1.8908 -1.28065,-2.9435 -0.41109,-10.3641 0.53233,-4.5428 2.30559,-13.9293 3.94058,-20.8591 1.63499,-6.9297 3.00037,-13.5139 3.03418,-14.6316 0.0613,-2.028 0.0477,-2.0316 -6.51506,-1.7463 -5.44611,0.2367 -7.15037,-0.01 -9.91501,-1.4173 -8.77422,-4.4763 -13.1854,-18.7902 -10.29782,-33.4156 2.32534,-11.7776 2.50051,-11.2244 -4.23319,-13.37 -7.76887,-2.4756 -11.65316,-4.9255 -11.65316,-7.35 0,-3.4789 8.25846,-12.19117 24.58933,-25.9403 4.47732,-3.76953 5.83008,-6.08369 3.65792,-6.25764 -0.55885,-0.0447 -4.01994,-0.0138 -7.69132,0.0683 -6.24588,0.13973 -6.81478,0.01 -8.84494,-2.02039 -2.00438,-2.00438 -2.1356,-2.54591 -1.72209,-7.10628 0.32553,-3.58996 1.4385,-6.94313 4.08027,-12.2932 1.99795,-4.04614 3.4591,-7.80892 3.24699,-8.36167 -0.28393,-0.73996 -2.14973,-0.88058 -7.07307,-0.53308 -9.25349,0.65298 -10.59949,-0.12445 -10.01528,-5.78479 0.48896,-4.73766 3.73274,-12.41132 9.15891,-21.6669 2.49517,-4.25611 3.61921,-7.0949 3.61921,-9.14049 0,-1.63192 1.09737,-6.3929 2.43861,-10.57999 1.34123,-4.18702 2.43861,-8.20813 2.43861,-8.93581 0,-1.48999 -1.5815,-1.94316 -8.36563,-2.3974 -5.21761,-0.34929 -8.94336,-2.46373 -9.36804,-5.31649 -0.14133,-0.94927 0.82325,-3.29026 2.1435,-5.20205 3.2801,-4.74985 17.13451,-18.0532 29.40897,-28.23928 6.21038,-5.15368 10.24425,-9.08984 10.37532,-10.12398 0.18237,-1.43894 -1.05495,-2.21548 -8.27293,-5.19229 -8.65726,-3.57037 -14.79658,-7.34103 -15.67352,-9.62626 -0.89389,-2.32944 2.11756,-9.64333 7.05882,-17.14382 2.84178,-4.31363 4.68587,-7.91815 4.41374,-8.62728 -0.25707,-0.66993 -1.89115,-1.45858 -3.63128,-1.75258 -3.70022,-0.62515 -7.27608,-3.16915 -7.27608,-5.17648 0,-2.93791 8.80089,-9.3309 21.98662,-15.97113 4.18644,-2.10826 5.68406,-3.27661 5.49203,-4.28455 -0.21247,-1.11522 -1.49143,-1.47303 -6.54954,-1.83233 -10.14262,-0.72048 -13.84364,-4.47678 -14.2994,-14.51303 -0.37124,-8.17477 1.65339,-13.23673 7.33879,-18.3484 3.53354,-3.17737 11.08405,-6.92958 13.94344,-6.92958 1.60762,0 2.8994,-1.69533 2.36095,-3.09851 -0.26902,-0.70106 -2.34373,-3.86551 -4.61048,-7.03211 -9.12285,-12.74448 -13.22723,-26.34611 -9.89473,-32.79046 2.93148,-5.66884 10.01969,-11.76306 18.98252,-16.32057 1.90009,-0.96617 3.4547,-2.22686 3.4547,-2.80153 0,-0.57468 -0.9441,-2.30476 -2.09799,-3.84462 -9.42363,-12.57575 -13.4909,-32.12803 -10.60207,-50.96656 1.60824,-10.48762 3.79206,-15.63226 8.33192,-19.6284 4.51781,-3.97674 10.73765,-5.76957 20.01631,-5.76957 3.85351,0 7.99126,-0.37445 9.19501,-0.83212 2.46713,-0.938 2.46782,-1.35373 0.0236,-14.20598 -3.23219,-16.99519 0.55378,-47.14806 7.71803,-61.46915 5.82893,-11.65185 18.53039,-16.83074 35.69637,-14.55485 15.41152,2.04328 15.44454,2.0438 15.44454,0.24171 0,-0.98888 -3.0607,-4.6336 -7.76632,-9.24824 -10.64393,-10.43812 -12.97515,-15.11005 -12.92831,-25.90919 0.0385,-8.87504 1.62729,-15.35035 7.37981,-30.07713 3.86115,-9.88477 6.29425,-13.29636 10.40064,-14.58334 8.19833,-2.56944 22.93073,-1.31723 42.16076,3.58351 12.9117,3.29053 14.40287,3.43405 14.40287,1.38625 0,-1.02128 -1.78326,-2.32133 -5.85379,-4.26757 -25.97559,-12.4197 -36.48276,-28.03784 -37.82472,-56.22367 -0.73869,-15.51494 2.12541,-20.13062 12.49528,-20.13693 6.06832,-0.004 14.28073,2.30242 33.0119,9.27004 12.1424,4.51673 41.0248,13.37269 103.62241,31.77287 8.59595,2.52672 16.00323,4.36272 16.46063,4.08 2.12655,-1.31429 0.008,-3.16862 -10.75167,-9.41052 -27.6298,-16.02859 -49.67395,-30.67527 -62.26491,-41.37028 -10.86442,-9.22851 -19.97808,-24.34287 -22.55827,-37.41136 -2.60654,-13.20199 -0.0874,-31.85345 5.90091,-43.68907 2.9772,-5.88438 6.22682,-8.35057 11.00325,-8.35057 6.45679,0 12.0265,3.80709 30.49744,20.84599 10.54544,9.72793 17.67651,15.09115 43.31485,32.57679 33.61342,22.92473 66.6527,44.24219 68.10416,43.94185 0.76792,-0.15889 1.35522,-0.82357 1.30498,-1.47705 -0.0504,-0.6535 -6.37672,-9.05269 -14.059,-18.66488 -22.28257,-27.88029 -37.45065,-50.04836 -41.621,-60.82866 -2.71027,-7.00607 -3.03079,-17.70719 -0.73459,-24.52274 3.07005,-9.11241 9.60138,-18.46898 21.46271,-30.74673 5.92598,-6.13398 8.21446,-7.46068 12.85205,-7.45056 7.81924,0.0171 17.69456,8.94936 29.34535,26.54308 6.68521,10.09527 9.40735,14.7019 22.91612,38.78027 3.47909,6.2013 8.42923,14.06582 11.00033,17.47672 8.1969,10.8743 32.5137,35.62541 55.4068,56.39637 6.5448,5.93808 10.415,7.87583 10.415,5.21465 0,-2.35416 -13.171,-22.59442 -30.5027,-46.87426 -13.8408,-19.38945 -17.7525,-25.49152 -21.5427,-33.60577 -4.6366,-9.92629 -5.8257,-15.49753 -6.6203,-31.01743 -0.389,-7.60034 -0.9163,-16.12433 -1.1714,-18.9422 -0.7317,-8.07821 1.4338,-11.59623 16.3994,-26.64264 11.2081,-11.26857 12.7474,-12.5354 15.2314,-12.5354 8.3177,0 20.6218,16.66883 37.5015,50.80441 20.0757,40.59897 108.7288,236.81608 119.728,264.99576 9.8219,25.16361 12.6155,41.27107 9.2708,53.45531 -0.9525,3.46984 -1.7318,7.52658 -1.7318,9.01496 0,4.72984 4.5701,12.11015 17.2221,27.8129 27.3006,33.88305 31.0458,41.12984 32.1093,62.13004 0.7926,15.65113 -1.8862,31.67335 -9.1058,54.46232 -4.0359,12.73969 -6.0651,23.68403 -6.6314,35.7663 -0.5203,11.10246 0.8442,27.42366 2.4275,29.03626 0.7656,0.77968 2.7145,0.45881 9.0978,-1.49778 4.468,-1.3695 8.6667,-3.01233 9.3305,-3.65073 1.0598,-1.01925 0.7746,-1.53301 -2.3396,-4.21522 -3.2461,-2.79578 -3.4969,-3.28057 -2.9603,-5.72378 0.8608,-3.91887 9.3325,-14.72923 19.5319,-24.92354 10.4244,-10.41914 17.4311,-15.90539 24.7981,-19.41706 4.6949,-2.23793 6.0535,-2.50959 12.1931,-2.43804 6.8066,0.0793 8.5337,0.53226 20.0875,5.26802 1.4359,0.58859 2.8575,0.82351 3.1589,0.52205 0.3015,-0.30146 0.1142,-2.75372 -0.4161,-5.44948 -0.5304,-2.69576 -0.6716,-5.35892 -0.314,-5.91814 0.3578,-0.55923 8.3321,-8.51645 17.7208,-17.68272 17.9831,-17.55716 21.708,-20.26484 28.8081,-20.94096 5.0647,-0.4823 21.2959,2.4948 32.2852,5.92172 7.224,2.25276 10.4133,2.82828 15.6733,2.82828 7.5886,0 8.2012,-0.54011 6.1153,-5.39198 -5.6158,-13.06234 -6.4797,-20.02336 -3.3155,-26.7164 2.0668,-4.37183 4.1812,-6.55789 10.8719,-11.24056 2.3507,-1.64521 7.4255,-5.56738 11.2773,-8.71594 13.2358,-10.81923 18.114,-13.62768 28.3436,-16.31778 7.07,-1.85919 13.6205,-1.95792 16.2353,-0.24468 2.039,1.33601 4.5145,6.77785 14.6989,32.31265 6.0054,15.05692 5.3559,14.32173 14.1864,16.05902 7.3384,1.44373 7.6484,0.89177 6.8861,-12.25914 -1.3745,-23.71176 -0.457,-25.72018 19.4641,-42.61017 13.9131,-11.7961 30.1284,-24.61015 35.7509,-28.25197 7.4328,-4.81437 11.7288,-4.0158 15.2672,2.83795 1.623,3.14391 1.7424,4.45352 1.5783,17.32542 -0.1121,8.80241 0.2923,17.73494 1.0995,24.28345 1.8402,14.92901 5.8648,37.87354 6.8089,38.81759 1.1085,1.1085 6.2092,0.0446 7.5532,-1.57538 0.8597,-1.03612 1.1032,-6.01272 1.1225,-22.94208 l 0.024,-21.61894 2.6294,-4.87722 c 1.4462,-2.68247 6.1821,-9.26672 10.5242,-14.63167 4.3421,-5.36494 9.9704,-12.82248 12.5074,-16.57231 5.6071,-8.28788 38.6406,-41.98814 42.9053,-43.77141 5.4888,-2.29517 10.3656,0.49983 13.1046,7.51074 1.566,4.0084 1.0459,14.43067 -1.6427,32.91766 -7.5385,51.8346 -21.8893,106.50008 -34.6051,131.81868 -5.5376,11.02594 -16.9929,23.26438 -29.26,31.26056 -9.854,6.42312 -27.5526,14.68568 -45.8824,21.42002 -8.718,3.20301 -18.4582,7.07114 -21.6449,8.59585 -5.7219,2.7377 -10.8699,7.3757 -10.8699,9.79301 0,1.96849 -7.9009,9.79434 -13.385,13.25788 -13.7529,8.68572 -37.5262,18.78826 -67.379,28.63292 -10.6658,3.51728 -21.4673,7.501 -24.0034,8.8527 -20.4354,10.89195 -51.9357,44.48869 -77.7166,82.88878 -9.5552,14.23214 -13.7191,21.62341 -13.0962,23.24663 0.4274,1.11396 3.9344,1.19581 31.1723,0.72784 34.1314,-0.58648 37.4958,-1.0234 41.421,-5.37909 7.7805,-8.63382 12.881,-11.56097 29.62,-16.99842 22.522,-7.31608 47.6542,-11.53796 69.3872,-11.65624 12.8631,-0.0699 15.4963,0.14827 21.7846,1.80506 18.2615,4.81147 33.3407,13.25857 63.9226,35.80857 8.2989,6.11921 18.5638,13.48983 22.8111,16.3791 17.6104,11.97976 34.2428,31.83469 46.3019,55.27283 2.1931,4.26278 4.6521,8.33705 5.4643,9.05408 4.3002,3.7958 28.8886,17.5371 40.0072,22.3579 25.0307,10.853 58.6076,30.7686 58.6076,34.7622 0,1.945 -7.6664,2.287 -20.7282,0.9247 -12.0863,-1.2605 -28.3897,-2.4312 -92.5703,-6.6473 -32.1521,-2.112 -33.3792,-2.1368 -37.7985,-0.7638 -7.5405,2.3427 -13.6693,6.0759 -20.711,12.6157 -8.2727,7.6831 -11.7729,10.1025 -22.0616,15.2497 -14.5927,7.3002 -26.5232,10.8555 -42.8283,12.7628 -12.5901,1.4728 -19.9826,3.8099 -34.4513,10.8921 -23.479,11.4923 -54.5153,31.9177 -86.3407,56.8219 -12.5323,9.807 -18.5439,13.4398 -30.5931,18.488 -24.0896,10.0927 -56.4977,18.8419 -109.8002,29.6429 -13.4123,2.7177 -26.7637,5.7179 -29.6697,6.6671 -8.2891,2.7071 -16.9987,7.3813 -34.547,18.5404 -40.0702,25.4808 -65.2201,38.5814 -90.2286,47.0002 -48.6333,16.3717 -135.0744,33.8646 -215.41072,43.5922 -26.89723,3.257 -44.23324,4.5298 -61.77815,4.5358 -9.31444,0 -20.94394,0.5406 -27.23116,1.2583 -27.28573,3.1147 -72.71458,12.0092 -141.24262,27.6539 l -5.8997,1.3469 -22.54506,26.5319 c -26.17154,30.7996 -52.64349,61.0711 -64.10948,73.3111 -16.91591,18.0578 -28.18083,31.2966 -72.24667,84.9058 -33.92922,41.2772 -52.43449,62.3102 -71.51841,81.287 -21.99262,21.8693 -35.4459,30.6169 -37.75324,24.5482 z m 1187.2872,-642.8393 c 4.7254,-2.2462 8.8607,-7.10677 10.3699,-12.189 1.5846,-5.33568 1.5797,-6.67432 -0.044,-12.14965 -3.376,-11.38279 -16.2327,-17.22968 -27.6065,-12.55454 -10.6988,4.39763 -15.136,19.15253 -8.8327,29.37112 2.5493,4.13277 9.0735,8.81997 13.2511,9.51977 3.5689,0.5979 9.2622,-0.2863 12.8625,-1.9977 z M 1213.4123,794.51301 c -0.7747,-0.77463 -2.3277,0.48008 -1.7504,1.41415 0.3431,0.55519 0.7978,0.54117 1.3816,-0.0426 0.4786,-0.47859 0.6445,-1.09577 0.3688,-1.37153 z"
     class="species_main_colour"/>
</svg>
