<?xml version="1.0" encoding="UTF-8" standalone="no"?>
<!-- Created with Inkscape (http://www.inkscape.org/) -->

<svg
   version="1.1"
   id="svg4825"
   width="1272.1423"
   height="1665.5715"
   viewBox="0 0 1272.1423 1665.5715"
   sodipodi:docname="Krepsdyr.svg"
   inkscape:version="1.1 (c68e22c387, 2021-05-23)"
   xmlns:inkscape="http://www.inkscape.org/namespaces/inkscape"
   xmlns:sodipodi="http://sodipodi.sourceforge.net/DTD/sodipodi-0.dtd"
   xmlns="http://www.w3.org/2000/svg"
   xmlns:svg="http://www.w3.org/2000/svg">
  <defs/>

  <path
     style="fill:#333333;stroke-width:0.81287"
     d="m 629.16175,1664.7586 c -1.1177,-0.358 -1.48349,-0.7004 -0.81287,-0.7611 0.67062,-0.061 -0.71451,-0.8062 -3.07808,-1.6568 -15.92524,-5.7304 -32.19964,-27.1771 -38.01306,-50.0942 -1.09505,-4.3168 -1.99099,-8.1345 -1.99099,-8.4838 0,-0.3493 1.9204,-0.069 4.26757,0.6233 3.53549,1.0425 11.03053,1.3021 43.69178,1.5135 35.74901,0.2314 42.74607,-0.01 50.91832,-1.7342 l 2.55253,-0.5395 -0.72105,3.945 c -2.58879,14.1632 -11.07501,31.1282 -20.97205,41.9256 -4.84207,5.2826 -13.35681,11.2262 -18.77182,13.1036 -2.01185,0.6975 -3.10923,1.3221 -2.43861,1.3879 2.89384,0.2845 -3.28339,1.4215 -7.72227,1.4215 -2.68247,0 -5.7917,-0.2928 -6.9094,-0.6508 z m -70.3133,-17.9718 c -10.6586,-1.5371 -23.63445,-6.6302 -33.02033,-12.9606 -7.19534,-4.8529 -16.00922,-13.8507 -20.66014,-21.0913 -2.15384,-3.3531 -4.30825,-6.3652 -4.78757,-6.6937 -0.47932,-0.3285 -2.88335,-0.6082 -5.34229,-0.6217 -10.81622,-0.059 -21.8238,-4.6912 -28.49527,-11.9908 -14.35159,-15.703 -16.26371,-45.4475 -4.24357,-66.0123 4.76158,-8.1463 12.251,-15.1762 22.9844,-21.5742 22.11187,-13.1804 37.83818,-25.1149 56.59413,-42.9487 l 8.22651,-7.8221 5.99781,5.1187 c 7.50566,6.4056 17.78579,17.4969 17.78025,19.1832 -0.002,0.6986 -0.88831,5.4768 -1.96893,10.6182 -4.24139,20.1799 -6.61544,49.9026 -5.94077,74.3776 0.45069,16.3497 1.19768,19.8257 5.93938,27.6376 2.30736,3.8014 3.12677,6.2221 3.71458,10.9738 1.45568,11.7673 6.10709,25.5756 12.15433,36.0815 1.7725,3.0795 3.06617,5.7555 2.87481,5.9469 -0.19135,0.1913 -3.21967,0.8598 -6.7296,1.4853 -7.03906,1.2546 -17.55593,1.3773 -25.07773,0.2926 z m 128.97348,-0.2678 c -3.27967,-0.6258 -6.11744,-1.2922 -6.30617,-1.4809 -0.18872,-0.1887 1.47562,-3.7978 3.69853,-8.0203 6.65884,-12.6487 11.31607,-27.3596 11.41892,-36.0695 0.0269,-2.2805 0.88996,-4.5866 2.88996,-7.7223 4.77712,-7.4898 6.17768,-13.3128 6.64745,-27.6376 0.74885,-22.8346 -1.76507,-54.6923 -5.93264,-75.1813 -1.09023,-5.3599 -1.98224,-10.3525 -1.98224,-11.0946 0,-1.7183 9.98068,-12.4468 17.77784,-19.1099 l 5.99123,-5.1199 9.45331,9.0064 c 16.60279,15.8181 34.36737,29.2689 54.56763,41.3169 4.69433,2.7998 10.48139,6.7457 12.86013,8.7687 26.47362,22.5144 24.57418,72.6065 -3.29332,86.8516 -4.95163,2.5312 -12.78683,4.3656 -18.7116,4.3808 -5.31159,0.014 -5.42714,0.1025 -10.59308,8.1407 -9.51755,14.8094 -26.4772,26.5669 -45.6982,31.6807 -8.48322,2.257 -24.43191,2.8847 -32.78775,1.2905 z m -94.42648,-51.1883 c -10.39535,-2.2603 -15.16872,-7.5064 -17.14234,-18.8397 -1.25183,-7.1886 -0.49694,-43.3337 1.23375,-59.0738 1.20723,-10.9793 3.53654,-25.8919 4.13823,-26.4936 0.16793,-0.1679 1.98837,0.5094 4.04544,1.5052 7.35212,3.5592 16.44312,4.2003 54.46497,3.8415 37.24983,-0.3516 42.49182,-0.8644 47.71289,-4.667 1.20568,-0.878 2.3556,-1.3256 2.55538,-0.9945 0.51459,0.8528 2.77886,14.7595 3.73766,22.9559 2.38551,20.3929 3.25069,54.9183 1.59997,63.8479 -2.03552,11.0111 -7.6381,16.4513 -18.73185,18.1887 -7.57029,1.1857 -77.96454,0.9578 -83.6141,-0.2706 z m 15.03206,-108.565 c -16.37387,-1.0448 -18.53723,-1.7865 -22.1138,-7.5817 -5.97549,-9.6823 -22.9074,-26.5518 -33.77953,-33.6551 -7.29995,-4.7694 -12.64562,-6.5206 -25.76576,-8.4403 -11.29074,-1.6522 -14.66002,-2.9296 -14.66002,-5.5583 0,-1.6652 4.32986,-5.8233 8.08706,-7.7662 2.19554,-1.1353 2.67079,-1.0915 6.28878,0.5818 3.3759,1.5612 5.25426,1.8054 13.66819,1.7777 11.32697,-0.037 14.97127,-1.1296 31.69709,-9.4999 15.86955,-7.9419 35.92389,-13.6974 55.88971,-16.0401 18.0691,-2.1201 49.49121,4.9054 71.74068,16.0401 16.70639,8.3607 20.37143,9.4606 31.69709,9.5126 8.53228,0.039 10.27866,-0.1923 13.93838,-1.8482 3.95618,-1.7901 4.32064,-1.8224 6.69521,-0.5945 3.87733,2.005 8.22331,6.1467 8.22331,7.8367 0,2.6287 -3.36928,3.9061 -14.66002,5.5583 -17.34051,2.5373 -22.61295,4.9331 -36.31846,16.5034 -9.12035,7.6995 -23.72147,24.164 -24.99913,28.1895 -1.19575,3.7675 -9.98292,4.8999 -41.07574,5.2933 -13.6359,0.1726 -29.18477,0.033 -34.55304,-0.3091 z m -77.81606,-71.1631 c -6.6702,-2.45 -15.12313,-10.0274 -18.44083,-16.5307 -4.44835,-8.7194 -4.06782,-21.8588 1.04677,-36.1451 3.5946,-10.0406 10.33168,-22.9447 11.89694,-22.7872 0.67062,0.067 3.59695,0.7529 6.50296,1.5231 10.34218,2.7413 21.22491,0.3641 38.90332,-8.4978 15.49986,-7.7698 32.72801,-13.1217 51.11674,-15.8791 11.04425,-1.6561 18.12895,-1.5742 29.87834,0.3455 18.88093,3.0847 33.92631,7.8304 49.37258,15.5734 17.59511,8.8201 28.49699,11.1952 38.82387,8.458 2.90601,-0.7702 5.83234,-1.4556 6.50296,-1.5231 1.65396,-0.1664 8.95383,14.0451 12.18077,23.7139 3.58406,10.7387 4.66179,18.9822 3.42479,26.1959 -1.25077,7.294 -3.33617,11.3405 -8.79197,17.0604 -6.0791,6.3733 -12.01628,9.2386 -19.89319,9.6003 -8.55344,0.3929 -13.90199,-1.174 -29.85645,-8.7464 -15.05754,-7.1469 -26.97361,-11.1969 -41.84224,-14.2214 -17.35832,-3.5311 -24.78375,-4.0507 -36.36125,-2.5446 -21.55906,2.8048 -37.38836,7.4587 -56.99401,16.7564 -7.44001,3.5283 -15.65572,6.9695 -18.25715,7.6471 -5.78383,1.5065 -15.11374,1.5072 -19.21295,0 z m 1.212,-83.6291 c -8.53282,-2.7966 -17.53228,-11.1442 -20.68621,-19.1878 -2.53242,-6.4585 -2.49056,-19.086 0.0929,-28.044 1.57515,-5.4616 5.88753,-16.254 6.89874,-17.2652 0.16071,-0.1607 2.68417,0.1243 5.60769,0.6334 10.26147,1.787 19.66016,-0.6848 40.39549,-10.6234 19.11953,-9.1642 36.32528,-14.422 57.00526,-17.4197 15.09973,-2.1887 27.25792,-1.2534 47.79086,3.6766 14.82485,3.5595 23.28262,6.5993 38.26909,13.7543 20.83788,9.9486 30.15337,12.3958 40.39549,10.6122 2.92352,-0.5091 5.41062,-0.8161 5.52689,-0.682 0.94527,1.0891 3.84695,7.9008 5.64404,13.2495 4.49021,13.364 4.61344,25.5209 0.34857,34.3909 -2.52441,5.2502 -9.88757,12.3814 -15.74226,15.2462 -4.23778,2.0737 -5.78308,2.3855 -11.78662,2.3787 -8.40894,-0.01 -11.61316,-1.0177 -28.45047,-8.9505 -18.1207,-8.5375 -34.54456,-13.5021 -53.6501,-16.2173 -10.75146,-1.5279 -16.88483,-1.5279 -27.63629,0 -18.93734,2.6913 -35.70587,7.7309 -52.83723,15.8796 -6.48265,3.0835 -13.98138,6.3722 -16.66385,7.3083 -6.24017,2.1772 -15.91163,2.7712 -20.52204,1.2602 z m -8.95909,-73.6536 c -5.44438,-1.1449 -13.15923,-5.6733 -18.15242,-10.655 -11.0926,-11.067 -13.16167,-26.3034 -6.42634,-47.3229 2.13033,-6.6484 2.78919,-7.8984 3.92393,-7.4449 0.75006,0.2998 4.10717,1.1136 7.46026,1.8087 11.96528,2.4803 23.97657,-0.557 47.11184,-11.9128 19.06714,-9.3591 39.05116,-15.4176 61.98452,-18.7916 13.57775,-1.9976 20.21938,-1.9976 33.79713,0 22.93336,3.374 42.91738,9.4325 61.98452,18.7916 23.13527,11.3558 35.14656,14.3931 47.11184,11.9128 3.35309,-0.6951 6.7102,-1.5089 7.46026,-1.8087 1.13456,-0.4534 1.79199,0.792 3.91233,7.4113 6.74949,21.0705 4.63769,36.2592 -6.6108,47.547 -2.96049,2.9709 -6.80158,5.6972 -10.8359,7.6911 -5.6748,2.8046 -6.86057,3.0906 -12.8905,3.109 -8.80647,0.027 -15.20011,-2.0027 -33.0591,-10.494 -18.39554,-8.7463 -30.98571,-12.776 -52.43015,-16.7808 -28.11776,-5.2511 -61.4842,0.6093 -95.51228,16.7754 -20.15711,9.5763 -29.72003,12.0794 -38.82914,10.1638 z M 291.1876,1238.3147 c -2.10967,-4.0027 -5.7866,-17.8139 -6.70454,-25.1835 -0.94672,-7.6005 -0.8281,-11.9241 0.51882,-18.9114 0.35586,-1.8461 0.18479,-2.9432 -0.52761,-3.3834 -0.84326,-0.5212 -0.20694,-6.5627 3.17969,-30.1894 4.62832,-32.2892 6.63233,-41.053 15.67663,-68.5556 2.79344,-8.4945 5.09581,-16.1761 5.11637,-17.0703 0.0206,-0.8941 2.19465,-5.4665 4.83129,-10.1608 4.22203,-7.517 6.16177,-9.8928 16.26032,-19.9154 12.96984,-12.8723 23.2363,-21.7404 25.9097,-22.3805 0.99457,-0.2381 2.15139,-1.2022 2.5707,-2.1424 0.72044,-1.6154 1.57036,-1.7391 15.44454,-2.2482 43.71816,-1.6041 61.75857,-0.8005 92.63108,4.1262 7.10562,1.1339 13.68987,1.9068 14.63167,1.7176 2.73627,-0.5499 31.38826,-22.5611 31.33681,-24.07366 -0.025,-0.73297 -2.1705,-4.44185 -4.76793,-8.24202 l -4.72259,-6.9094 h -27.57099 c -30.65017,0 -29.49051,0.19135 -34.8322,-5.74683 -2.65076,-2.94674 -122.43675,-80.011 -124.36631,-80.011 -0.64774,0 -7.49762,4.17133 -15.22195,9.26957 -7.72434,5.09832 -17.77416,11.32158 -22.33293,13.82944 -10.06536,5.5372 -23.85661,11.84767 -25.94783,11.87287 -0.84139,0.0106 -7.56536,4.41868 -14.94216,9.79688 -14.22913,10.37385 -41.99216,27.57671 -44.50503,27.57671 -0.82425,0 -2.9446,1.51015 -4.71188,3.35585 -5.97048,6.23553 -39.38597,20.17496 -39.38597,16.43015 0,-0.92042 6.64411,-9.42548 10.8675,-13.91147 6.45563,-6.85689 14.93196,-13.3683 19.34915,-14.86366 2.48389,-0.84083 4.59438,-2.19353 5.41873,-3.47291 0.74262,-1.15265 7.69535,-7.2421 15.4505,-13.53226 13.19452,-10.70201 20.60096,-15.63824 34.80548,-23.19721 3.20299,-1.70442 6.19126,-3.90592 6.64059,-4.89209 1.11352,-2.4439 38.00034,-29.31927 48.75843,-35.52488 4.77632,-2.75514 13.96399,-7.3008 20.41705,-10.10138 7.79039,-3.38105 12.31983,-5.82828 13.47978,-7.28299 l 1.74696,-2.19085 57.23995,45.3776 c 31.48196,24.95772 58.58529,46.45489 60.22958,47.77142 l 2.98964,2.39374 20.44628,-0.60063 c 16.38572,-0.4813 20.53318,-0.82702 20.88381,-1.74077 0.24063,-0.62704 -0.88028,-5.60929 -2.49092,-11.0717 -1.61065,-5.46232 -3.52937,-13.40659 -4.26383,-17.65384 -0.73446,-4.24724 -1.7465,-8.14618 -2.24898,-8.66422 -0.50248,-0.51804 -5.46047,-2.27758 -11.01774,-3.91007 -11.21069,-3.29318 -13.6409,-4.65197 -15.93329,-8.90873 -1.76217,-3.27213 -3.50381,-3.66491 -5.66451,-1.27735 -0.80921,0.89416 -1.95808,1.62574 -2.55305,1.62574 -0.59497,0 -30.80755,-22.98041 -67.13904,-51.06752 -54.48336,-42.11997 -66.10145,-51.43944 -66.30939,-53.19016 -0.22458,-1.8908 -2.73441,-3.41736 -22.97899,-13.97659 -12.49979,-6.51967 -27.93248,-15.17802 -34.29488,-19.24078 -12.75056,-8.14197 -39.08524,-26.10949 -41.64422,-28.41287 -0.99242,-0.89329 -16.66727,-5.60295 -40.23709,-12.08963 -21.23624,-5.84445 -41.17189,-11.52313 -44.30144,-12.61929 -38.168147,-13.36876 -54.804261,-19.45339 -56.494499,-20.66278 -1.168001,-0.83572 -4.185723,-1.64842 -7.096412,-1.91113 -4.218959,-0.38078 -6.904215,-1.4198 -16.087937,-6.225 -11.26163,-5.89242 -19.897786,-11.62501 -19.897786,-13.20795 0,-1.32648 24.259097,-0.32178 31.701949,1.31296 3.35309,0.73647 7.87638,2.42723 10.051753,3.75725 2.351381,1.43762 4.552666,2.2286 5.428568,1.95059 2.336728,-0.74164 61.715594,15.37004 82.391014,22.35574 10.32657,3.48908 28.46906,9.69246 40.31665,13.78529 16.79094,5.80054 21.85232,7.25314 22.95256,6.58733 0.77632,-0.4698 1.92962,-0.85417 2.5629,-0.85417 1.97274,0 58.92811,30.2354 68.77751,36.51131 5.14141,3.27604 14.91458,9.75259 21.71816,14.39233 6.80358,4.63974 13.1305,8.4359 14.05982,8.4359 1.02635,0 2.23328,-0.95533 3.07439,-2.43348 0.7616,-1.3384 1.84783,-2.43578 2.41384,-2.43861 0.56602,-0.002 27.54252,25.14304 59.94779,55.87971 32.40527,30.73666 59.47658,56.00474 60.15846,56.1513 0.68189,0.14664 2.80987,-0.4935 4.72884,-1.42253 4.24842,-2.05656 6.54484,-2.11086 14.14209,-0.334 3.23547,0.75678 6.10989,1.14866 6.38762,0.87091 0.53782,-0.5378 0.64099,-75.34339 0.10465,-75.87974 -0.17429,-0.17428 -5.8791,-1.93771 -12.67734,-3.91871 -6.79826,-1.98101 -13.51663,-4.27708 -14.92971,-5.10236 -1.41309,-0.82529 -3.53052,-3.13683 -4.7054,-5.13676 -2.06323,-3.51212 -2.27059,-3.63624 -6.07441,-3.63624 h -3.93825 l -34.04688,-76.7291 c -23.92643,-53.92134 -33.79142,-76.98455 -33.18749,-77.58848 0.47266,-0.47266 0.84862,-1.42636 0.83546,-2.11933 -0.0132,-0.69298 -6.64625,-8.75868 -14.74019,-17.9238 -8.09394,-9.16511 -18.26785,-21.41913 -22.60868,-27.23116 -9.48265,-12.6965 -28.759,-40.6372 -30.16575,-43.72466 -0.65468,-1.43686 -12.37909,-10.64156 -33.59216,-26.3728 -31.88393,-23.64457 -77.07485,-60.74919 -81.51326,-66.92757 -0.97916,-1.36302 -3.71783,-3.46255 -6.08594,-4.66562 -3.10503,-1.57745 -6.55963,-4.68076 -12.38877,-11.12899 -7.65242,-8.46515 -15.72687,-19.56427 -14.86194,-20.42921 0.61869,-0.61868 12.62565,3.60449 18.04666,6.34749 8.7852,4.44528 17.94712,10.89711 19.85257,13.98019 1.06554,1.72408 2.72353,3.1731 3.99103,3.48801 1.19254,0.29628 14.02172,9.16611 28.50931,19.71074 19.67855,14.32281 34.37905,25.94615 58.12024,45.95431 26.97225,22.73115 32.1734,26.78868 34.38537,26.82472 2.38366,0.0389 4.43129,2.12498 23.97968,24.4307 21.49262,24.52418 30.25119,35.66997 44.92248,57.16651 4.3723,6.40634 8.4592,11.84342 9.08199,12.08241 0.62279,0.23898 2.23488,-0.0222 3.58242,-0.58033 1.34754,-0.55818 2.65937,-0.80556 2.91519,-0.54974 0.25581,0.25581 11.40413,33.83305 24.77403,74.61607 13.3699,40.78304 24.67153,74.58788 25.11471,75.12189 0.51244,0.61745 2.25869,0.8313 4.79679,0.58743 2.66695,-0.25626 7.1643,0.35445 13.55604,1.84082 8.6964,2.02231 9.65174,2.10572 10.51987,0.91847 0.52518,-0.71822 1.20558,-5.24224 1.51201,-10.05338 1.30953,-20.5604 4.92825,-49.67268 8.69818,-69.97608 1.01078,-5.44368 2.04983,-9.89762 2.309,-9.89762 0.25915,0 1.33459,2.2862 2.38983,5.08044 9.82743,26.0225 33.84092,53.60138 61.31257,70.41587 25.65751,15.70414 52.61,23.62211 80.53428,23.65899 23.10644,0.0305 43.88373,-4.92453 65.94683,-15.72725 32.15998,-15.74643 56.68239,-39.42581 71.56444,-69.10422 3.33557,-6.65196 6.06469,-12.59607 6.06469,-13.20915 0,-0.61307 0.30031,-1.11468 0.66736,-1.11468 2.02132,0 9.49752,53.81225 11.20857,80.67721 0.36566,5.74097 0.93165,9.04948 1.65014,9.64577 0.82019,0.6807 3.31614,0.35621 9.98384,-1.29795 6.01091,-1.49123 10.39337,-2.11422 13.53122,-1.92351 3.47599,0.21125 4.82991,-0.024 5.39355,-0.93725 0.414,-0.67062 11.68363,-34.50635 25.04373,-75.19052 20.70796,-63.0601 24.50715,-73.94783 25.75605,-73.81274 0.80571,0.0872 2.42885,0.39611 3.60703,0.68657 1.97974,0.4881 2.56054,-0.078 7.66797,-7.4743 18.14375,-26.27467 26.46048,-36.96204 47.26996,-60.74406 16.30781,-18.63723 22.61942,-25.3171 23.9826,-25.38204 1.01764,-0.0485 2.2723,-0.13993 2.78815,-0.20322 0.51593,-0.0633 15.15337,-12.09476 32.52774,-26.73659 23.8119,-20.06693 38.091,-31.34391 57.9951,-45.80167 14.5229,-10.54909 27.4047,-19.42484 28.626,-19.72389 1.2447,-0.30475 2.7291,-1.52098 3.3775,-2.76733 1.6792,-3.22766 4.04,-5.16622 12.6604,-10.3963 6.6392,-4.02804 22.5483,-10.92977 25.1942,-10.92977 1.2587,0 -1.6558,5.40196 -5.7317,10.62362 -8.3219,10.66125 -17.366,19.71142 -21.6668,21.68139 -2.3472,1.0751 -4.2676,2.32984 -4.2676,2.78831 0,1.13829 -2.0569,2.99905 -27.2311,24.63493 -15.3695,13.20913 -31.6624,26.0747 -54.3607,42.92544 l -32.41334,24.06282 -11.10145,16.50626 c -17.0793,25.39448 -27.10655,38.56442 -43.51263,57.14979 -8.2877,9.38865 -15.0733,17.63725 -15.07907,18.33023 -0.008,0.69297 0.36107,1.63142 0.81506,2.08543 0.55877,0.55874 -10.18088,25.63093 -33.23478,77.58848 l -34.06033,76.763 -3.76139,-0.19816 c -3.68206,-0.19398 -3.81155,-0.11681 -6.1362,3.65791 -1.30612,2.12085 -3.49282,4.51498 -4.85942,5.3203 -1.36652,0.80532 -8.03303,3.08888 -14.81447,5.07459 -6.78145,1.98571 -12.50268,3.78315 -12.71385,3.99432 -0.21118,0.21117 -0.40183,17.04732 -0.42368,37.41363 -0.0282,26.25653 0.22466,37.29401 0.86906,37.93837 0.6698,0.6698 2.30212,0.55885 6.20723,-0.42212 6.97402,-1.75182 9.82857,-1.67899 14.03663,0.35806 1.91894,0.92903 4.02541,1.56917 4.68099,1.42253 0.65558,-0.14656 27.71547,-25.41464 60.13315,-56.1513 32.4176,-30.73667 59.29931,-55.88484 59.73704,-55.88484 0.43773,0 1.57729,1.09737 2.53234,2.43861 0.95504,1.34123 2.42609,2.43861 3.26904,2.43861 0.84286,0 8.22527,-4.52178 16.40527,-10.0484 22.64462,-15.2993 29.65465,-19.42263 59.5793,-35.04447 26.0753,-13.61239 27.7766,-14.37651 30.121,-13.52873 2.2214,0.80326 4.6346,0.15743 22.7617,-6.09165 11.1523,-3.8446 29.2629,-10.0226 40.2457,-13.7289 22.8824,-7.72196 81.1831,-23.55022 83.7465,-22.73663 0.9928,0.31511 2.2201,0.0458 3.0322,-0.66517 2.8526,-2.49769 7.1735,-4.04745 15.4421,-5.53857 10.2095,-1.84111 28.9456,-2.18816 28.3995,-0.52603 -0.5938,1.80733 -9.7019,7.68111 -20.5298,13.23967 -8.8232,4.52939 -11.4828,5.51922 -16.1137,5.99696 -3.0506,0.3147 -5.8225,1.01882 -6.1599,1.56472 -0.58,0.93858 -21.5666,8.71795 -49.789,18.45593 -6.9977,2.41452 -28.7623,8.80289 -48.3658,14.19639 -38.5592,10.60873 -43.1288,11.96278 -43.5165,12.89441 -0.4148,0.99638 -8.1275,6.44977 -26.2668,18.57215 -22.7301,15.19035 -24.4963,16.23445 -49.95782,29.53328 -19.26559,10.06262 -21.98123,11.71685 -21.98123,13.38969 0,1.56836 -11.82101,11.04807 -66.30365,53.17158 -36.46708,28.19466 -66.77105,51.26294 -67.34234,51.26294 -0.5712,0 -1.70061,-0.73158 -2.50982,-1.62574 -2.21434,-2.44682 -4.20807,-2.0186 -5.75219,1.23532 -1.9687,4.14881 -4.43584,5.54028 -15.78888,8.90475 -5.58848,1.65615 -10.59041,3.43576 -11.11539,3.95462 -0.52498,0.51885 -1.51823,4.25367 -2.20722,8.29957 -0.68899,4.0459 -2.54566,11.84823 -4.12593,17.33852 -1.58027,5.49029 -2.87322,10.63666 -2.87322,11.43644 0,1.34319 1.57852,1.49942 20.70305,2.04941 l 20.70303,0.59535 7.54425,-5.95022 c 21.48937,-16.94916 110.16582,-87.27676 111.41048,-88.35763 1.32482,-1.15046 1.62827,-1.04998 3.65792,1.2115 1.26141,1.40554 4.66035,3.44755 7.90338,4.74822 7.7825,3.12134 25.62306,12.03089 31.19317,15.57777 10.60544,6.75325 42.59201,30.74382 43.42331,32.56839 0.5312,1.16581 2.9113,2.98258 5.817,4.44014 12.5781,6.30942 22.6578,13.01251 36.0389,23.96642 7.8532,6.42867 14.6717,12.44042 15.1521,13.35953 0.4983,0.95342 2.6741,2.27287 5.0668,3.07265 7.2101,2.40992 22.3619,16.4651 28.9261,26.83253 l 1.5872,2.50673 h -1.7889 c -2.5987,0 -14.5908,-4.19775 -23.9762,-8.39265 -5.5483,-2.4799 -9.5838,-4.95005 -12.7121,-7.7812 -2.5209,-2.28132 -5.2086,-4.14791 -5.9727,-4.14791 -2.4047,0 -30.3203,-17.32121 -44.4286,-27.56728 -7.4405,-5.40364 -14.2082,-9.82476 -15.0391,-9.82476 -2.2363,0 -18.9083,-7.86997 -29.14642,-13.7584 -4.91787,-2.82855 -14.32075,-8.75454 -20.89532,-13.16891 -6.57458,-4.41437 -12.52195,-8.02612 -13.2163,-8.02612 -2.05778,0 -121.61949,76.98834 -125.61743,80.88776 -5.34097,5.20928 -7.35249,5.49313 -36.54805,5.15596 l -24.76141,-0.28589 -4.65136,6.9094 c -2.55825,3.80017 -4.67556,7.54392 -4.70514,8.31958 -0.0339,0.8887 3.4776,4.0199 9.49746,8.4686 5.25317,3.8822 12.00079,9.0089 14.99471,11.3926 3.31521,2.6395 6.2411,4.334 7.48354,4.334 1.12203,0 7.63436,-0.8957 14.47184,-1.9906 30.23373,-4.8411 48.61509,-5.6495 92.14357,-4.0523 13.95439,0.512 14.71995,0.6247 15.44454,2.2747 0.41928,0.9548 1.54917,1.8482 2.51072,1.9853 2.16369,0.3083 22.96513,18.7333 31.40013,27.8129 6.37859,6.8659 15.64344,21.6786 15.41942,24.6527 -0.0626,0.8329 1.89748,7.4195 4.35617,14.6368 9.62504,28.2544 11.30963,35.4187 16.26188,69.159 4.17702,28.459 4.47274,31.3694 3.30562,32.5365 -1.14208,1.1421 -1.15346,1.6455 -0.10429,4.6191 1.49235,4.2297 1.48324,9.5762 -0.0333,19.6372 -1.12932,7.4925 -5.3847,22.0938 -6.87948,23.6056 -1.58356,1.6014 -5.88543,-14.5887 -8.17366,-30.7617 -0.63981,-4.5221 -0.66948,-7.6088 -0.0974,-10.1331 0.72768,-3.2104 0.35498,-5.5599 -3.22328,-20.3218 -6.79364,-28.027 -10.15893,-43.2455 -15.37455,-69.5282 -2.75035,-13.8594 -5.42884,-25.8025 -5.95216,-26.5403 -1.80254,-2.5408 -34.58154,-40.3612 -35.44221,-40.8931 -0.47415,-0.2931 -4.97883,0.032 -10.01042,0.7224 -20.52782,2.8166 -35.47115,3.6844 -72.83092,4.2298 -30.1761,0.4405 -38.51692,0.3428 -39.4875,-0.4627 -0.99725,-0.8276 -1.92753,-0.755 -4.90757,0.3831 -6.87612,2.6259 -9.18521,1.6102 -29.63792,-13.0386 -7.17641,-5.1401 -13.62161,-9.3455 -14.3226,-9.3455 -0.70099,0 -4.63886,3.2006 -8.75084,7.1126 -17.13674,16.3031 -37.80583,29.0796 -57.94093,35.8161 -30.97006,10.3614 -61.77453,8.1201 -92.5994,-6.7376 -14.57925,-7.0273 -27.84532,-16.2758 -42.78257,-29.8263 -3.85895,-3.5007 -7.44835,-6.3648 -7.97645,-6.3648 -0.52809,0 -6.51557,3.9839 -13.30549,8.8533 -21.08767,15.1227 -23.38876,16.1559 -30.19384,13.557 -2.94744,-1.1256 -3.94792,-1.1962 -5.46262,-0.3856 -1.42742,0.7639 -10.54215,0.8637 -39.59112,0.4332 -36.65711,-0.5434 -51.90721,-1.4278 -72.13466,-4.1836 -4.9731,-0.6776 -9.5455,-1.0168 -10.16088,-0.7537 -0.92608,0.3958 -30.38441,34.355 -35.0431,40.3974 -0.91952,1.1926 -3.51256,12.2819 -7.46021,31.9041 -5.65144,28.0911 -10.17073,48.2597 -16.00537,71.4286 -2.14849,8.5315 -2.32942,10.1362 -1.56049,13.8401 0.72844,3.5089 0.53686,6.1677 -1.1789,16.3614 -1.95115,11.5923 -4.43274,21.4234 -6.02407,23.865 -0.59755,0.9169 -0.88379,0.8413 -1.54146,-0.4064 z m 218.07576,-53.4126 c -6.16049,-1.5751 -12.36289,-5.2744 -18.47679,-11.02 -16.41378,-15.4251 -16.84208,-38.198 -1.33124,-70.7834 7.40991,-15.5669 16.97012,-30.5901 28.21303,-44.335 7.58843,-9.2771 16.49845,-19.1024 17.32288,-19.1024 0.38703,0 3.35269,2.2329 6.59036,4.9621 31.56821,26.6105 70.39389,40.5533 104.10122,37.3841 30.30446,-2.8493 60.09384,-16.186 86.22461,-38.603 l 4.79478,-4.1133 4.41906,4.859 c 16.51197,18.1561 30.18964,37.6528 39.32298,56.0528 16.91443,34.0756 16.94974,57.8219 0.10954,73.6791 -12.35462,11.6335 -24.5382,14.4674 -40.82801,9.4965 -2.91352,-0.8891 -12.08316,-4.8689 -20.37698,-8.8441 -20.75304,-9.9467 -38.29853,-15.5224 -61.33015,-19.4897 -15.07387,-2.5965 -25.67613,-2.848 -38.62155,-0.9161 -25.81466,3.8524 -44.97183,9.6481 -67.35879,20.3781 -8.32555,3.9904 -17.62127,8.0137 -20.65717,8.9405 -7.10402,2.1689 -16.82423,2.8082 -22.11778,1.4548 z M 612.90434,778.63651 c -11.58874,-2.07709 -28.01352,-7.41309 -38.45806,-12.49406 -17.00547,-8.27268 -30.3033,-18.00149 -44.11795,-32.27709 -21.92172,-22.65317 -34.47734,-50.41329 -34.47734,-76.22838 V 650.5589 L 481.47327,639.30675 C 459.87852,622.40648 448.68255,612.89889 436.10501,600.78017 417.04439,582.41486 369.18932,534.75036 364.94646,529.905 l -3.99062,-4.55729 6.01724,3.15303 c 9.27931,4.86238 16.79277,6.56445 29.30128,6.63781 12.12831,0.0711 20.11897,-1.12874 29.01551,-4.35692 8.57856,-3.1128 13.38915,-6.55346 23.79756,-17.02066 4.90494,-4.93264 9.34674,-8.96844 9.8707,-8.96844 0.52394,0 1.18298,0.60031 1.46453,1.33401 0.738,1.92321 2.07004,15.30891 2.08656,20.968 0.0211,7.25115 2.08871,14.4358 7.2665,25.25091 6.93875,14.49326 13.85011,24.78402 25.50353,37.97372 6.25368,7.07812 15.6257,14.86286 17.89334,14.86286 2.07606,0 5.54381,-6.35388 19.96374,-36.57917 15.09833,-31.64725 24.09957,-55.01005 29.85641,-77.4926 l 2.35868,-9.21149 -3.25148,-2.56934 c -9.96651,-7.87556 -15.84686,-15.04962 -19.0994,-23.30137 -2.3267,-5.90288 -1.69799,-6.63656 1.48182,-1.72927 1.46252,2.25706 4.53904,5.74823 6.83669,7.75816 4.33556,3.79264 12.53578,8.59503 14.67628,8.59503 1.24953,0 3.01401,-3.88218 3.01401,-6.63137 0,-1.34834 0.46837,-1.45649 4.33793,-1.0017 10.09895,1.18693 20.48026,-5.41523 23.68461,-15.06262 1.70167,-5.12323 1.36448,-12.11366 -0.79074,-16.39351 -3.27131,-6.49617 -12.3806,-12.93451 -18.3004,-12.93451 -1.2708,0 -1.49957,-0.43167 -1.18465,-2.2354 0.21465,-1.22946 1.51378,-9.55122 2.88696,-18.4928 5.57878,-36.32675 10.1507,-52.90819 18.2958,-66.35527 1.52484,-2.51742 2.77243,-5.13592 2.77243,-5.81889 0,-1.86274 -15.11715,-24.05477 -23.73991,-34.85026 C 552.7793,260.58774 517.32057,224.69363 474.92984,187.58122 443.50219,160.06681 421.99251,143.02127 402.77732,130.40331 345.08344,92.517693 274.56056,65.442112 189.20954,48.409045 168.59591,44.29529 142.70913,39.915148 138.13167,39.766477 c -1.08672,-0.0353 -1.52171,-0.247647 -0.96662,-0.471893 2.55773,-1.033284 50.02096,6.12449 77.01458,11.614315 53.52149,10.884933 109.63885,28.979912 146.32843,47.183443 48.2623,23.945338 72.22483,40.215498 124.77562,84.720558 42.30865,35.83104 89.6477,82.97455 108.82742,108.37791 8.43517,11.1723 8.46466,4.71184 0.0936,-20.50496 -2.152,-6.48264 -5.43893,-15.26164 -7.30429,-19.50889 -4.72572,-10.76002 -4.7316,-10.93437 -0.1348,-3.99857 9.31514,14.05501 21.23873,39.80793 26.50281,57.24158 2.38273,7.89117 3.87797,10.30835 5.42168,8.76464 1.6772,-1.6772 -4.51857,-37.83962 -9.92753,-57.9433 -3.56558,-13.25231 -3.56369,-13.35024 0.1095,-5.70415 5.00205,10.41223 10.13834,23.77153 16.41303,42.68976 3.11398,9.38865 6.0365,17.52752 6.49449,18.08636 0.45799,0.55885 2.3892,1.01609 4.29157,1.01609 1.90237,0 3.82602,-0.45724 4.27478,-1.01609 0.44876,-0.55884 2.66295,-6.7385 4.9204,-13.73255 6.69876,-20.75404 19.92392,-54.3541 20.97886,-53.29917 0.15358,0.15359 -0.81603,4.09619 -2.1547,8.76134 -2.96618,10.33682 -7.39495,31.9378 -9.86255,48.10391 -1.43452,9.398 -1.61632,12.1972 -0.84244,12.97109 1.61292,1.61292 3.03107,-0.65334 5.44285,-8.69793 4.9575,-16.53589 13.89615,-36.31782 24.42693,-54.05868 5.48546,-9.24115 7.04392,-11.16825 4.76374,-5.89051 -6.63198,15.35046 -10.49282,25.99664 -14.20095,39.15876 -1.31289,4.66009 -2.38705,9.32393 -2.38705,10.36409 0,3.63099 2.75392,2.00317 8.1287,-4.8048 11.49373,-14.55855 21.57662,-25.56146 43.83857,-47.83864 50.58334,-50.61796 108.70714,-98.41071 148.4053,-122.02739 59.59292,-35.45222 131.833,-60.104621 217.2842,-74.149618 19.5088,-3.206526 44.3712,-6.45598 45.7866,-5.984185 0.5367,0.17891 -2.6514,0.793683 -7.0847,1.366162 -11.4821,1.482692 -42.2607,6.996113 -57.3479,10.272831 -88.23161,19.162611 -159.21545,48.807846 -217.2266,90.72111 -20.70283,14.95792 -64.52532,52.58523 -95.68968,82.16212 -36.82623,34.95034 -71.67321,75.65473 -84.57598,98.79229 -1.92129,3.44531 -1.922,3.4569 -0.37098,6.09653 7.02313,11.95253 11.42215,24.40795 15.06648,42.65939 2.15657,10.80046 5.61385,32.00069 7.01132,42.99383 l 0.52885,4.16013 -3.10093,0.58174 c -7.19177,1.34919 -13.14661,6.18593 -16.42073,13.33753 -1.67753,3.66423 -1.93669,5.23344 -1.61179,9.7594 0.48233,6.71893 2.62419,11.05697 7.63852,15.47076 4.49957,3.96068 10.67306,6.04142 16.73602,5.6408 l 4.14535,-0.27391 0.89032,3.65069 c 1.15071,4.71843 2.4679,4.9203 8.84291,1.35519 6.64568,-3.71647 11.94919,-8.45293 15.28407,-13.64988 3.6583,-5.70099 3.97097,-3.60491 0.53571,3.59141 -3.62288,7.58934 -8.11676,13.17482 -15.21291,18.90825 -3.9162,3.16414 -5.71442,5.17439 -5.71442,6.38818 0,0.97412 1.29727,6.32835 2.88282,11.89827 7.68891,27.01064 17.06188,49.65514 37.24921,89.99167 7.58437,15.15441 10.64638,20.52498 11.70226,20.52498 1.68477,0 12.13812,-9.06618 17.80761,-15.44454 14.10428,-15.86774 24.92178,-33.36098 30.02525,-48.55452 1.6281,-4.84703 2.28563,-8.9586 2.82972,-17.69442 0.91052,-14.61927 1.48386,-18.31502 2.92726,-18.8689 0.74992,-0.28776 4.88963,3.20959 11.48144,9.69979 11.07536,10.90473 14.64036,13.39643 23.45789,16.39545 8.65057,2.94224 16.70482,4.08526 28.30716,4.01722 12.5104,-0.0734 20.02198,-1.77543 29.30675,-6.64066 l 6.02263,-3.15589 -8.05985,8.6245 c -4.43291,4.74348 -17.86893,18.33968 -29.85771,30.21379 -45.96937,45.52936 -53.89152,52.72167 -83.25266,75.58225 l -13.49537,10.5075 -0.46731,9.56437 c -1.41936,29.05001 -14.15805,54.81932 -38.91527,78.72238 -20.37592,19.67291 -46.09191,33.31853 -74.25327,39.40085 -12.24219,2.64408 -37.14055,2.98219 -49.99154,0.67887 z M 387.31372,525.17915 c -22.7261,-3.64701 -36.31032,-17.89565 -46.45642,-48.72865 -6.36208,-19.33377 -8.49606,-40.42583 -5.53635,-54.72082 3.34929,-16.17659 13.28159,-26.74378 28.63455,-30.46492 7.62906,-1.84908 24.08726,-1.85885 31.09955,-0.0185 23.61708,6.19833 40.2705,27.34863 49.72199,63.14827 3.23615,12.25763 4.08228,28.89877 1.95546,38.45845 -3.69894,16.62598 -14.81668,27.41556 -31.94362,31.0007 -7.17919,1.5028 -21.93432,2.21461 -27.47516,1.32543 z m 476.36116,-0.12163 c -17.55645,-2.39653 -28.90632,-9.59558 -34.85759,-22.10967 -3.63166,-7.63648 -4.72741,-13.36022 -4.69172,-24.50749 0.0626,-19.48173 7.93207,-44.90325 19.09327,-61.67754 8.81452,-13.24739 20.41182,-21.98484 33.86841,-25.51653 7.17057,-1.88193 23.62201,-1.86465 30.88908,0.0324 14.68922,3.83466 22.68363,11.25542 27.49883,25.52551 1.98162,5.87256 2.12314,7.27629 2.10875,20.92649 -0.0138,13.1144 -0.24987,15.63333 -2.27701,24.29115 -8.48929,36.25669 -22.6929,56.04468 -44.43768,61.90896 -5.69749,1.53653 -19.88557,2.12435 -27.19434,1.12668 z M 571.00121,452.43831 c -8.29456,-3.61288 -10.02176,-14.71531 -3.21852,-20.68863 8.34972,-7.33115 20.73554,-1.73539 20.73554,9.36806 0,8.83756 -9.34797,14.87879 -17.51702,11.32057 z m 119.30318,-0.16242 c -3.7398,-1.90785 -6.06047,-5.5352 -6.5057,-10.16882 -0.86849,-9.03859 5.9049,-15.0522 15.02654,-13.34097 4.08744,0.76682 8.86293,5.60859 9.64535,9.77923 1.83915,9.80351 -9.32433,18.24122 -18.16619,13.73056 z M 326.4539,398.24404 c -18.44829,-16.8607 -38.21889,-73.2792 -47.54842,-135.68689 -6.63902,-44.41015 -7.52573,-115.04816 -2.09179,-166.63844 1.83909,-17.460445 1.80112,-17.313464 4.34185,-16.805226 2.39293,0.478675 28.42042,10.000663 29.91942,10.94582 0.53067,0.33461 1.54882,5.173433 2.26255,10.752946 3.1461,24.59434 8.01875,47.06855 13.32536,61.46069 4.4002,11.93386 10.38078,22.62511 19.25428,34.42016 11.16606,14.84241 18.0073,21.76079 24.84847,25.12869 7.48977,3.6872 11.96066,3.94302 24.19238,1.38423 10.71209,-2.24088 20.27072,-2.69072 25.70247,-1.20958 5.0426,1.37503 11.15126,8.11863 13.24486,14.62153 3.84429,11.94072 5.80979,28.3246 6.42736,53.57677 0.43244,17.68228 0.339,19.60844 -1.2567,25.90844 -3.22903,12.74845 -7.42286,19.81911 -22.48084,37.90189 -8.59269,10.31877 -14.76081,18.84994 -18.41442,25.4691 -1.31206,2.37703 -1.4319,2.4157 -4.87722,1.57405 -5.43041,-1.32658 -22.90297,-1.01901 -29.95041,0.52721 -11.55469,2.53513 -21.59447,8.5061 -27.7905,16.52786 -1.81295,2.34716 -3.58811,4.26757 -3.94479,4.26757 -0.35668,0 -2.68044,-1.85707 -5.16391,-4.12682 z m 609.93786,-0.29627 c -9.58334,-12.00991 -23.7685,-17.75362 -43.85997,-17.75945 -5.58849,-0.002 -11.73038,0.38084 -13.64859,0.84993 -3.31659,0.81102 -3.55127,0.74706 -4.78341,-1.30353 -4.77367,-7.94486 -12.61974,-18.78218 -18.62783,-25.72965 -13.33652,-15.4215 -19.99864,-26.6275 -22.76541,-38.29236 -2.79383,-11.77878 -0.79856,-53.10451 3.4886,-72.25802 2.4908,-11.12768 7.25511,-18.18323 14.2445,-21.09494 4.63685,-1.93166 15.03867,-1.60251 26.74465,0.84627 21.67812,4.5349 28.65645,0.55228 50.86253,-29.02791 17.16514,-22.86536 24.56373,-46.38715 31.59603,-100.451305 l 0.44375,-3.411211 8.69511,-3.363202 c 12.98122,-5.021077 23.56731,-8.540736 24.09649,-8.011591 0.78019,0.780238 3.57866,27.823369 4.44859,42.989759 2.16037,37.6641 1.61949,91.24473 -1.18167,117.05334 -6.72252,61.93766 -22.80727,118.96892 -42.00459,148.93427 -3.57208,5.57577 -11.92131,14.45269 -13.59347,14.45269 -0.34417,0 -2.2141,-1.99039 -4.15531,-4.42309 z M 377.07848,214.28921 c -3.9009,-1.39403 -6.99986,-3.66997 -11.19695,-8.22327 -3.11662,-3.38114 -3.41958,-4.06471 -2.99585,-6.75963 0.88604,-5.63537 2.02392,-30.61607 2.58957,-56.85077 0.31408,-14.56703 0.89017,-26.21507 1.29654,-26.21507 2.22246,0 38.85058,22.80491 38.85058,24.18863 0,0.36858 2.56054,16.13447 5.69009,35.03531 3.12955,18.90085 5.6901,34.70644 5.6901,35.12354 0,0.41709 -2.76671,0.75836 -6.14826,0.75836 -3.40051,0 -10.53196,0.9082 -15.95713,2.03218 -11.02244,2.28359 -13.6073,2.41571 -17.81869,0.91072 z M 876.68081,213.364 c -5.12612,-1.13442 -11.62974,-1.98709 -15.24132,-1.99824 -5.12799,-0.0159 -6.29975,-0.25278 -6.29975,-1.27394 0,-3.46848 11.56951,-69.93324 12.33353,-70.8538 1.87496,-2.25915 36.02203,-22.99755 37.86692,-22.99755 0.43114,0 0.98341,11.5222 1.30075,27.13701 0.53845,26.49692 1.66817,50.97673 2.6072,56.49327 0.4305,2.52925 0.0813,3.12578 -4.35658,7.44146 -2.65353,2.58048 -6.0306,5.31545 -7.50466,6.07772 -4.22985,2.18731 -10.74192,2.17916 -20.70609,-0.0259 z M 396.64971,109.939 c -1.99476,-1.19009 -9.6624,-5.28875 -17.0392,-9.10814 l -13.41236,-6.944326 -0.18281,-37.798475 -0.18279,-37.798474 5.71678,5.937613 c 10.14455,10.53641 16.7567,22.22671 20.20042,35.714432 1.69733,6.647775 9.27645,51.41151 8.78748,51.90049 -0.14338,0.14338 -1.89277,-0.71302 -3.88752,-1.90312 z m 474.74744,1.42367 c 0,-2.7699 7.55116,-46.132022 8.98864,-51.616694 3.61256,-13.783892 8.37355,-22.323223 19.46183,-34.90674 l 6.09653,-6.918652 0.21183,37.170104 c 0.11657,20.443558 0.0407,37.617395 -0.16916,38.164075 -0.20963,0.546688 -5.79186,3.731409 -12.40497,7.077167 -6.61311,3.34575 -14.31001,7.40059 -17.10426,9.01076 -2.79424,1.61016 -5.08044,2.51916 -5.08044,2.01998 z M 295.88485,65.845893 c -15.49318,-5.205636 -14.41984,-3.532625 -10.43235,-16.260797 2.71736,-8.673899 20.49531,-45.2036434 20.769,-42.6756974 0.0968,0.8941575 0.76508,12.2336994 1.48505,25.1989834 0.71997,12.965283 1.56717,26.801515 1.88266,30.74718 0.3155,3.945666 0.37886,7.246587 0.14082,7.335379 -0.23805,0.08879 -6.46838,-1.866479 -13.84518,-4.345048 z m 666.04275,2.63844 c 0.2263,-0.782388 1.00812,-11.66469 1.73734,-24.182895 0.72931,-12.518204 1.57478,-26.327032 1.87879,-30.686283 l 0.55283,-7.9259107 9.06652,18.0867917 c 8.45946,16.875715 12.59071,27.262557 13.76547,34.608738 l 0.48976,3.062793 -12.96163,4.229645 c -7.12896,2.326304 -13.40692,4.229645 -13.95105,4.229645 -0.55706,0 -0.80962,-0.621569 -0.57803,-1.422524 z M 131.88824,38.457448 c 0.78238,-0.204459 2.06265,-0.204459 2.84504,0 0.78239,0.204459 0.14225,0.371744 -1.42252,0.371744 -1.56478,0 -2.20491,-0.167285 -1.42252,-0.371744 z m 1005.52076,0 c 0.7824,-0.204459 2.0627,-0.204459 2.8451,0 0.7824,0.204459 0.1422,0.371744 -1.4226,0.371744 -1.5647,0 -2.2049,-0.167285 -1.4225,-0.371744 z"
     class="species_main_colour" />
</svg>
