<?xml version="1.0" encoding="UTF-8" standalone="no"?>
<!-- Created with Inkscape (http://www.inkscape.org/) -->

<svg
   version="1.1"
   id="svg5184"
   width="968.94159"
   height="1426.5876"
   viewBox="0 0 968.94159 1426.5876"
   xmlns="http://www.w3.org/2000/svg"
   xmlns:svg="http://www.w3.org/2000/svg">
  <defs/>
  <path
     style="fill:#333333;stroke-width:0.81287"
     d="m 357.25657,1425.792 c -1.34124,-0.3508 -1.88993,-0.7141 -1.21931,-0.8073 0.67062,-0.093 0.0328,-0.5121 -1.41732,-0.9309 -3.90675,-1.1283 -7.89007,-5.6095 -10.07693,-11.3365 l -1.93641,-5.071 -5.02416,-1.3753 c -7.58283,-2.0757 -13.57458,-6.0692 -22.573,-15.0446 -9.47255,-9.4484 -17.24685,-20.0758 -23.48746,-32.107 -6.31905,-12.1825 -8.80652,-20.008 -12.66101,-39.8307 -1.86908,-9.6122 -10.53063,-49.4835 -19.24791,-88.6029 -20.47825,-91.8977 -25.27928,-114.2547 -36.54178,-170.1646 C 210.45927,997.91209 202.87744,966.02578 189.69882,920.16932 176.2711,873.4461 156.38624,814.15232 142.26548,778.72987 125.42487,736.48459 98.170748,686.70575 62.084909,632.28245 l -11.674775,-17.60746 -3.460782,-0.57503 c -9.258399,-1.53834 -11.747855,-6.06982 -13.526471,-24.6218 -0.897959,-9.36621 0.440591,-6.9641 -12.312018,-22.0946 C 10.514478,554.81134 3.9030393,543.42658 2.7558597,535.77664 c -0.4240001,-2.82743 -0.7019029,-3.34878 -1.1323303,-2.12426 -0.4023982,1.14478 -0.73995417,0.26843 -1.14595503,-2.97507 -0.6612716,-5.28284 0.25449771,-15.83294 1.15219263,-13.27381 0.4178011,1.19106 0.7152409,0.60107 1.1463684,-2.27389 0.3202001,-2.13524 2.2328902,-7.17972 4.2504225,-11.20993 8.1872501,-16.35483 27.8498851,-32.38789 58.6099391,-47.79099 44.023713,-22.04488 97.446793,-40.52078 146.116263,-50.533 33.39424,-6.86982 58.12158,-10.01377 79.25487,-10.07681 20.80196,-0.062 29.61774,1.66017 42.67569,8.33706 7.3127,3.73917 17.66522,13.87754 21.82945,21.37789 6.78409,12.21904 7.92839,26.52742 2.96908,37.12524 -1.35484,2.89521 -3.57352,8.57768 -4.9304,12.62771 -3.27424,9.77294 -6.68554,15.12128 -14.43821,22.6366 -5.28613,5.12431 -7.19632,7.71489 -10.65835,14.45474 -11.68889,22.75586 -19.08566,60.52177 -25.00152,127.65091 -2.05688,23.34007 -2.06127,92.10074 -0.007,112.17612 3.1723,31.00387 10.64405,78.18683 28.1905,178.01862 20.77184,118.18303 22.4515,131.26113 25.2615,196.68973 0.48904,11.3867 1.06566,20.9888 1.28138,21.3378 0.21573,0.3491 0.90276,0.6346 1.52673,0.6346 1.30482,0 1.51069,-1.0514 3.26299,-16.6638 2.71659,-24.2039 9.58691,-77.6828 13.47117,-104.8603 8.19739,-57.35566 14.03052,-88.66451 23.4092,-125.6471 9.16317,-36.13283 12.51605,-48.20542 56.93063,-204.98796 25.8434,-91.22665 41.32841,-150.0565 47.98082,-182.28619 15.03864,-72.85939 21.04674,-155.41912 17.89436,-245.89331 -1.83748,-52.73604 -7.62166,-87.90183 -18.2739,-111.09878 -3.29692,-7.17959 -6.19506,-11.34612 -12.55787,-18.05397 -7.63895,-8.05317 -13.99482,-22.35758 -16.22425,-36.51401 -0.4439,-2.818681 -1.75177,-7.486207 -2.90639,-10.372295 -6.43908,-16.095172 -4.34369,-34.774918 5.8071,-51.768413 6.71656,-11.24421 19.69659,-23.270862 31.57604,-29.256762 6.3623,-3.2058837 19.18624,-7.0117929 27.39147,-8.1292812 5.42734,-0.739161 6.82421,-1.1439594 5.08409,-1.4733112 -1.47823,-0.2797823 0.78072,-0.69401117 5.88407,-1.07897972 9.23933,-0.69695183 29.45996,0.27678049 24.63798,1.18644372 l -2.84505,0.5367151 3.25148,0.1156173 c 13.43755,0.477817 55.73979,9.681618 90.57223,19.706022 73.05438,21.024268 140.36576,50.517803 208.85015,91.510954 47.36173,28.34964 74.36334,52.7002 87.11898,78.56557 2.23767,4.53739 4.77416,10.99324 5.63669,14.34633 0.86246,3.35309 1.63038,5.54784 1.70638,4.87722 0.35937,-3.16954 1.48333,6.06969 1.48333,12.19306 0,6.33694 -1.16176,15.56838 -1.48333,11.78662 -0.0756,-0.89416 -0.85628,1.11743 -1.73393,4.4702 -3.92796,15.00529 -12.05308,26.59658 -33.38752,47.63047 -8.20528,8.08975 -15.39203,15.27943 -15.97038,15.97707 -0.57836,0.69764 -2.27978,7.06436 -3.78083,14.14826 -1.50113,7.08392 -3.53452,15.01312 -4.51866,17.62047 -3.31969,8.79516 -9.42231,13.49612 -17.56565,13.5311 -4.95493,0.0213 -4.90307,-0.028 -23.1803,21.96535 -50.51884,60.78994 -93.22214,120.99226 -124.25582,175.17358 -14.246,24.8719 -44.16234,86.49891 -67.08225,138.18797 -39.08651,88.14802 -68.35209,166.79175 -97.55372,262.15072 -17.68488,57.75052 -26.42102,84.65832 -71.52083,220.28792 -23.4145,70.4149 -44.9813,136.0745 -47.92621,145.9102 -2.94491,9.8357 -6.13699,19.895 -7.09351,22.3539 -12.84371,33.0176 -45.85119,71.1319 -73.72479,85.1313 -3.84713,1.9323 -8.44464,3.746 -10.21671,4.0305 -2.59258,0.4162 -2.91014,0.6392 -1.62574,1.1414 1.31421,0.5138 1.16539,0.6362 -0.84242,0.6923 -1.34123,0.037 -3.17019,0.2106 -4.06435,0.3846 -0.89416,0.174 -2.72312,0.029 -4.06435,-0.3213 z M 102.01524,602.33699 c 11.74485,-1.63155 20.88084,-2.43861 27.60504,-2.43861 20.08776,0 35.08322,-5.07644 51.47915,-17.42733 10.63172,-8.00876 20.54008,-18.00757 38.48267,-38.83402 23.41729,-27.18106 35.71276,-38.87942 50.64726,-48.18769 9.50596,-5.9248 19.45031,-9.83307 36.09606,-14.18625 23.50324,-6.14654 30.40712,-9.09495 36.85571,-15.73978 5.66724,-5.8397 6.7596,-8.76151 6.7596,-18.0803 0,-7.85579 -0.12245,-8.41998 -3.17574,-14.63166 -9.72529,-19.78535 -31.64853,-28.73822 -64.60479,-26.38287 -68.14392,4.87018 -148.30805,27.69808 -213.294975,60.73884 -40.649787,20.66723 -59.4027601,41.64103 -55.94326,62.56836 1.765206,10.67814 5.072312,16.44847 18.802982,32.80796 5.423718,6.46212 10.230268,12.6638 10.681222,13.78149 0.450955,1.1177 1.370467,6.7623 2.043359,12.54355 1.833629,15.75388 0.45343,14.41519 14.687063,14.24532 6.594266,-0.0787 13.086949,0.23153 14.428186,0.68939 4.077503,1.39194 10.11414,1.0808 28.450463,-1.4664 z M 890.77548,331.04148 c 1.80547,-1.53306 3.08793,-5.92476 6.21764,-21.29171 1.08543,-5.32941 2.55453,-11.08648 3.26466,-12.79347 0.86611,-2.08193 6.99418,-8.72314 18.61514,-20.17392 9.52822,-9.38865 19.01653,-19.48689 21.08504,-22.44054 27.54282,-39.3284 3.40821,-78.96849 -77.5024,-127.29461 C 806.88016,93.853288 754.89239,69.717773 696.22355,49.873433 647.12644,33.266666 595.99994,20.903925 567.4267,18.729464 532.70506,16.087102 506.50223,26.82276 493.01785,49.21579 c -13.19606,21.914228 -8.31563,42.871521 13.22938,56.80892 7.43688,4.81089 12.59852,7.10063 34.1694,15.15777 27.85471,10.40428 39.95753,16.7666 54.6006,28.70295 19.39001,15.80584 32.59504,31.49679 60.95875,72.43463 23.30958,33.64311 32.64643,45.32835 47.72143,59.72415 22.44245,21.43133 44.39796,31.54022 74.10454,34.11967 11.83146,1.02734 17.23956,2.08214 38.30276,7.47065 21.78981,5.57441 30.313,6.79454 38.38139,5.49448 5.62043,-0.90563 7.39541,-0.82127 17.47671,0.83053 6.17156,1.0112 11.76963,1.94594 12.44025,2.07721 3.05453,0.5979 4.82106,0.322 6.37242,-0.99527 z"
     class="species_main_colour" />
</svg>
