<?xml version="1.0" encoding="UTF-8" standalone="no"?>
<!-- Created with Inkscape (http://www.inkscape.org/) -->

<svg
   version="1.1"
   id="svg5471"
   width="1924.0645"
   height="1451.7866"
   viewBox="0 0 1924.0645 1451.7866"
   sodipodi:docname="Leddormer.svg"
   inkscape:version="1.1 (c68e22c387, 2021-05-23)"
   xmlns:inkscape="http://www.inkscape.org/namespaces/inkscape"
   xmlns:sodipodi="http://sodipodi.sourceforge.net/DTD/sodipodi-0.dtd"
   xmlns="http://www.w3.org/2000/svg"
   xmlns:svg="http://www.w3.org/2000/svg">
  <defs/>
  <path
     style="fill:#333333;stroke-width:0.812871"
     d="m 876.77628,1450.3516 c 1.05185,-0.6915 -18.32666,-83.9193 -20.01239,-85.9505 -0.55568,-0.6696 -1.50145,-1.2174 -2.10175,-1.2174 -2.00219,0 -6.80674,-4.9897 -7.7039,-8.0008 -1.29653,-4.3512 6.86591,-130.2111 8.6465,-133.3246 0.67509,-1.1804 1.90716,-3.2436 2.73791,-4.5848 0.96106,-1.5516 4.2301,-15.892 8.9871,-39.4242 4.11206,-20.3421 7.64065,-37.1547 7.84127,-37.3614 0.4509,-0.4647 26.33757,4.6107 27.0251,5.2986 0.27312,0.2732 -2.56997,15.6213 -6.31804,34.107 -3.74798,18.4856 -6.60766,34.1496 -6.35469,34.8088 0.25296,0.6592 1.58827,1.4464 2.9673,1.7493 3.43357,0.7541 7.8129,5.0895 8.81786,8.7294 0.97674,3.5374 -6.49939,125.6479 -8.02198,131.0259 -0.49577,1.7514 -1.96576,4.2486 -3.26668,5.5495 -1.38326,1.3832 -2.36529,3.2316 -2.36529,4.4519 0,1.7818 16.60288,73.6599 17.63685,76.3545 0.24321,0.6337 -3.99331,1.978 -12.6568,4.0164 -7.16237,1.6851 -12.83734,3.3632 -12.6112,3.7291 0.22622,0.366 -0.61624,0.6598 -1.87212,0.653 -1.25832,-0.01 -1.87562,-0.2805 -1.37505,-0.6097 z m 69.47783,-8.0743 c -1.43025,-3.4879 -8.85013,-21.8878 -16.48867,-40.8887 -10.61422,-26.4027 -14.5273,-35.2607 -16.59874,-37.5747 -1.49072,-1.6653 -2.96681,-4.0429 -3.28017,-5.2837 -0.54447,-2.156 1.63053,-93.2961 2.89568,-121.3414 0.67347,-14.928 1.63127,-18.1909 5.76261,-19.6311 2.82651,-0.9853 2.04347,2.7231 8.21218,-38.8956 2.75002,-18.5537 5.31195,-34.0744 5.69327,-34.4905 0.72841,-0.7945 25.81343,2.5062 26.95308,3.5467 0.34246,0.3126 -1.57795,15.1739 -4.26757,33.0251 -2.68955,17.8512 -4.89015,33.3736 -4.89015,34.4942 0,1.5986 0.74434,2.3902 3.4547,3.6739 2.59062,1.2269 3.92592,2.583 5.33893,5.4217 l 1.88415,3.7854 -1.67215,62.0457 c -0.91968,34.1251 -1.99812,64.6951 -2.39659,67.9332 -0.84815,6.8932 -2.36366,9.6159 -5.76862,10.3639 -1.53949,0.338 -2.46974,1.0518 -2.47559,1.8996 -0.008,0.7468 5.89794,16.1037 13.11802,34.1264 7.50206,18.7263 12.81824,33.0611 12.4057,33.4515 -0.39692,0.3757 -5.84283,2.7671 -12.10193,5.3141 -6.2591,2.5471 -11.78467,4.7964 -12.27898,4.9985 -0.50512,0.2066 -2.03778,-2.4102 -3.49916,-5.9742 z m 61.46329,2.4396 c -0.215,-0.3589 -6.852,-16.7474 -14.74901,-36.4189 -7.89687,-19.6714 -15.71043,-38.3268 -17.3634,-41.4564 l -3.00542,-5.6901 -0.21176,-68.6875 c -0.19785,-64.2025 -0.11827,-68.8731 1.21931,-71.5279 1.1533,-2.2891 2.03071,-2.9361 4.52062,-3.3335 1.6993,-0.2712 3.41982,-0.8233 3.82341,-1.2269 0.40359,-0.4035 3.06233,-16.182 5.90835,-35.0632 2.84594,-18.8813 5.38771,-34.5427 5.64823,-34.8032 0.50967,-0.5097 26.50347,3.2902 27.18767,3.9744 0.2262,0.2261 -1.6551,14.1743 -4.1806,30.9959 -2.5255,16.8216 -4.4777,31.5739 -4.3382,32.7829 0.1961,1.6992 0.7474,2.2552 2.4295,2.4496 3.1249,0.3611 3.8416,1.6339 4.7169,8.3772 0.8439,6.5002 1.1596,141.1655 0.3361,143.3116 -0.3444,0.8973 -1.5521,1.2858 -3.9979,1.2858 -4.4765,0 -6.076,0.6319 -6.076,2.4002 0,0.7775 5.4869,15 12.193,31.6058 6.7062,16.6057 12.1914,30.4708 12.1893,30.8112 0,0.4743 -12.0026,5.527 -25.2202,10.6194 -0.3514,0.1354 -0.8149,-0.047 -1.0299,-0.4064 z m -189.44171,-2.8965 c -0.25369,-1.0106 -4.69676,-19.7574 -9.87356,-41.6596 -6.16735,-26.093 -9.84599,-40.1508 -10.67011,-40.7754 -0.69176,-0.5243 -3.98854,-1.2091 -7.32617,-1.5218 -3.52639,-0.3305 -6.56189,-1.0622 -7.24642,-1.7467 -0.78366,-0.7836 -1.178,-2.9218 -1.178,-6.3873 0,-2.8651 3.29874,-32.4696 7.33052,-65.7877 4.03179,-33.3181 7.11522,-61.4361 6.85208,-62.4845 -0.47335,-1.886 21.14329,-87.9582 22.46266,-89.4409 0.56698,-0.6373 24.09169,4.6225 26.44406,5.9125 0.61477,0.337 -1.92138,11.44 -7.91167,34.6366 -4.84901,18.7773 -8.82257,35.1299 -8.83021,36.3391 -0.0122,1.9178 0.37546,2.2592 3.03445,2.6727 5.98736,0.9312 9.47384,4.0109 10.70111,9.4527 0.40847,1.811 -1.34725,25.7502 -4.91364,66.9989 -4.59036,53.0913 -5.83194,64.9278 -7.18553,68.5028 l -1.63639,4.3219 9.02091,38.1998 c 4.96152,21.0099 8.89069,38.3293 8.73145,38.4875 -0.41237,0.4097 -24.88392,6.1169 -26.22832,6.1169 -0.6138,0 -1.3236,-0.8269 -1.57722,-1.8375 z m 231.43021,-42.394 c -15.6997,-38.9982 -17.0422,-42.7155 -15.8555,-43.9021 1.1866,-1.1866 1.1034,-6.9568 -0.9836,-68.1479 -1.254,-36.7683 -2.028,-67.4916 -1.7201,-68.274 0.4627,-1.1755 1.6006,-1.4225 6.554,-1.4225 5.5528,0 6.0242,-0.1346 6.4034,-1.8289 0.2252,-1.006 2.5825,-16.4029 5.2385,-34.2155 2.656,-17.8125 4.9554,-32.5126 5.1097,-32.6669 0.3455,-0.3454 26.9377,3.6942 27.4146,4.1645 0.3033,0.2992 -8.4507,60.7884 -9.4048,64.9872 -0.2392,1.0527 0.5634,2.8366 2.1943,4.8773 1.4143,1.7696 2.9292,4.1319 3.3665,5.2496 0.7749,1.9804 4.6642,100.8609 4.7001,119.492 0.026,13.6871 -1.1329,15.4978 -10.678,16.6793 -2.084,0.2579 -3.9779,0.9609 -4.2086,1.5622 -0.2308,0.6012 5.4299,15.6188 12.5791,33.3724 7.1493,17.7536 12.884,32.3914 12.7438,32.5286 -0.4395,0.4297 -25.0376,10.1505 -25.6856,10.1505 -0.3388,0 -8.3342,-19.1727 -17.7678,-42.6058 z m -290.09234,37.5253 c -0.20314,-0.5588 -3.86789,-15.8306 -8.14388,-33.9373 -4.276,-18.1067 -8.68903,-36.7701 -9.80676,-41.4744 -1.11771,-4.7041 -2.31599,-9.0122 -2.66284,-9.5734 -0.34685,-0.5612 -4.26078,-1.5732 -8.69763,-2.2488 -11.79105,-1.7955 -11.71999,-1.7479 -11.74983,-7.8545 -0.0141,-2.8859 4.45489,-31.6876 10.29966,-66.379 9.83738,-58.3894 10.25504,-61.332 8.85122,-62.3585 -0.81035,-0.5926 -1.76703,-1.182 -2.12595,-1.3099 -0.35892,-0.1279 1.52321,-8.6457 4.18253,-18.9285 2.65932,-10.2828 7.81408,-30.3099 11.45502,-44.5047 5.22976,-20.389 6.89346,-25.808 7.92259,-25.8056 1.6239,0 25.26032,6.207 25.83302,6.7796 0.23022,0.2303 -3.64031,16.1936 -8.60118,35.4743 -4.96088,19.2806 -9.01977,35.9333 -9.01977,37.0061 0,1.6194 0.51731,2.0386 3.04827,2.4705 10.39885,1.7746 14.02201,5.0141 14.02201,12.5373 0,1.8348 -3.65791,31.5651 -8.1287,66.0671 -4.47079,34.5021 -8.12871,63.8003 -8.12871,65.1073 0,1.3069 0.36948,3.699 0.82105,5.3157 0.96183,3.4433 17.62505,74.5364 18.01606,76.8649 0.23601,1.4055 -1.12771,1.9184 -12.33414,4.6389 -14.27294,3.465 -14.54658,3.5035 -15.05204,2.1129 z m 356.80654,-36.5792 c -22.7938,-41.2338 -25.5484,-46.2891 -25.5457,-46.881 0,-0.2577 1.373,-1.2002 3.0483,-2.0944 2.7563,-1.4711 3.066,-1.9736 3.2558,-5.2837 0.1153,-2.0118 -1.3889,-28.516 -3.3427,-58.8982 -2.4979,-38.8418 -3.3245,-56.0657 -2.7847,-58.0208 1.0611,-3.8428 3.9173,-6.4346 8.4174,-7.6382 2.4216,-0.6476 4.0554,-1.6144 4.4805,-2.651 0.3679,-0.8975 1.8225,-16.995 3.2323,-35.7723 1.4098,-18.7773 2.6571,-34.2435 2.7718,-34.3694 0.394,-0.4327 26.8466,1.6851 27.4356,2.1965 0.3241,0.2813 -0.6607,16.5972 -2.1885,36.2575 l -2.7776,35.7461 2.9355,4.2709 2.9354,4.271 3.5677,56.137 3.5677,56.1369 -1.7714,3.6593 c -1.9836,4.0976 -6.2062,7.3295 -10.5293,8.0586 -6.0536,1.0211 -6.4897,1.2096 -6.4897,2.8054 0,0.875 7.5193,15.2153 16.7095,31.8673 15.3893,27.8841 16.5956,30.3595 15.2683,31.3299 -2.4664,1.8036 -21.9933,12.4036 -22.8492,12.4036 -0.4462,0 -9.1524,-15.089 -19.347,-33.531 z m -415.72572,31.5667 c 0,-1.6358 -21.33223,-90.4071 -21.85049,-90.928 -0.75467,-0.7584 -18.79479,-4.6522 -21.5541,-4.6522 -1.06822,0 -2.11236,0.4572 -2.32031,1.0161 -0.20796,0.5588 0.27719,17.4706 1.07809,37.5818 0.8009,20.1111 1.37544,36.6463 1.27675,36.745 -0.0987,0.099 -6.47562,0.4351 -14.17099,0.7475 -11.73291,0.4762 -13.99256,0.3839 -13.99781,-0.5724 -0.0398,-7.2641 -3.36877,-81.1297 -3.70393,-82.1857 -0.25005,-0.7878 -1.79306,-1.7706 -3.45146,-2.1985 -1.64958,-0.4256 -7.342,-1.9253 -12.64983,-3.3328 -6.75894,-1.7923 -9.90713,-2.3025 -10.50674,-1.703 -0.59961,0.5997 -0.43908,11.4888 0.53576,36.3415 0.76556,19.517 1.27327,35.604 1.12827,35.7489 -0.145,0.1451 -6.55983,0.5193 -14.25519,0.8317 l -13.99156,0.5679 0.009,-2.766 c 0.0206,-6.7261 -2.56467,-69.201 -3.08687,-74.5942 l -0.57955,-5.9855 -8.94158,-3.1661 c -12.9612,-4.5894 -16.29588,-5.5079 -17.43644,-4.803 -0.81072,0.501 -0.72992,7.8845 0.39957,36.5197 0.77865,19.7405 1.25886,36.0486 1.06713,36.2403 -0.19172,0.1918 -6.57793,0.6015 -14.19158,0.9106 l -13.84299,0.5619 -1.47441,-40.1521 c -0.81093,-22.0837 -1.71038,-41.6119 -1.99876,-43.3962 l -0.52435,-3.244 -11.65828,-4.8428 c -10.47104,-4.3497 -11.75679,-4.7081 -12.62555,-3.52 -0.56054,0.7666 -2.38232,15.7422 -4.33252,35.6146 -1.85089,18.8604 -3.47568,34.379 -3.61063,34.4857 -0.37503,0.2964 -27.47975,-2.5409 -27.75974,-2.906 -0.13489,-0.1758 1.10087,-13.854 2.74612,-30.3959 1.64525,-16.5419 3.66245,-37.1529 4.48266,-45.8021 l 1.49128,-15.726 5.07246,0.5433 c 4.71271,0.5046 5.15898,0.4092 6.29237,-1.3444 1.8812,-2.9107 46.8537,-105.3946 46.8537,-106.7707 0,-1.7877 -8.53225,-5.8003 -9.9048,-4.658 -0.58792,0.4893 -12.4085,25.6429 -26.26794,55.897 -16.48228,35.9796 -26.13475,56.1073 -27.90415,58.187 -3.46987,4.0782 -5.5632,4.1025 -13.53608,0.1575 -5.32926,-2.637 -6.24866,-2.87 -7.2173,-1.829 -0.69021,0.7418 -3.01692,13.7926 -6.15165,34.5053 -2.77288,18.3218 -5.17514,33.4459 -5.33838,33.6092 -0.29252,0.2925 -27.37675,-3.7537 -27.67486,-4.1345 -0.13055,-0.1667 11.00232,-73.6038 13.15361,-86.7667 0.61766,-3.7792 0.9796,-4.4398 2.33988,-4.2706 0.88506,0.11 2.02505,-0.073 2.53332,-0.4065 1.55212,-1.0187 52.45067,-100.9307 52.16725,-102.4025 -0.35212,-1.8283 -7.34418,-6.1012 -8.96578,-5.4789 -0.70024,0.2687 -13.4755,23.5776 -28.38947,51.7976 -14.91397,28.22 -28.11503,52.6911 -29.33567,54.3801 -1.22066,1.6891 -3.34194,3.6515 -4.71398,4.361 -2.38443,1.2331 -2.69006,1.1911 -6.92062,-0.951 -3.14243,-1.5912 -4.67814,-1.9891 -5.29538,-1.3718 -0.47815,0.4782 -3.16017,15.8253 -5.96004,34.1047 -3.85347,25.1582 -5.37194,33.2895 -6.24805,33.458 -1.47158,0.2832 -25.8386,-3.4982 -26.44404,-4.1037 -0.24852,-0.2485 2.14223,-17.4007 5.31276,-38.116 3.17054,-20.7153 5.76102,-38.8645 5.75663,-40.3316 -0.005,-1.6153 -0.48888,-2.8518 -1.22728,-3.1352 -1.63807,-0.6286 -1.51012,-4.046 0.30074,-8.0322 1.89164,-4.1642 70.14047,-115.4003 72.80559,-118.6631 l 1.99192,-2.4386 3.0944,1.6902 c 1.70192,0.9296 6.84255,3.8102 11.42364,6.4014 6.68949,3.7839 8.55841,4.5212 9.4933,3.7453 0.64023,-0.5313 8.9632,-14.658 18.49548,-31.3925 9.53229,-16.7345 17.67241,-30.4285 18.08916,-30.4311 0.94515,-0.01 24.03482,13.0227 24.03482,13.562 0,0.2164 -7.8688,14.2205 -17.48624,31.1204 -9.94166,17.4696 -17.29011,31.2382 -17.03168,31.9117 0.60117,1.5666 26.0446,13.9359 27.5096,13.3737 0.62572,-0.2401 9.12948,-15.14 18.89723,-33.111 9.76775,-17.9708 18.18213,-32.8365 18.69863,-33.0347 0.88653,-0.3402 23.45902,11.4215 24.18964,12.6044 0.18832,0.3048 -7.50289,14.9689 -17.09158,32.5868 -9.58869,17.6179 -17.32489,32.599 -17.19155,33.2914 0.27157,1.4101 24.31348,12.2628 27.22406,12.289 1.35989,0.012 2.20443,-0.9131 3.50902,-3.8449 0.94495,-2.1237 7.96069,-18.3099 15.59053,-35.9696 7.62984,-17.6596 13.99731,-32.2513 14.14995,-32.4261 0.57724,-0.6609 25.51843,10.76 25.51843,11.6852 0,0.5334 -6.25697,15.3862 -13.90438,33.0061 -15.691,36.1527 -16.23661,37.5256 -15.43114,38.8289 0.32008,0.5179 5.4743,2.5825 11.45383,4.5881 7.10071,2.3816 11.64204,4.3843 13.09217,5.7736 1.22116,1.1699 2.65353,1.9828 3.18306,1.8062 0.52952,-0.1765 1.82009,-2.3201 2.86793,-4.7635 16.20279,-37.7829 31.33039,-71.9365 31.95488,-72.1447 1.14048,-0.3802 24.61063,9.7438 25.01166,10.7889 0.18481,0.4817 -6.43954,16.5183 -14.72076,35.6371 -8.28126,19.1188 -15.05681,35.0979 -15.05681,35.5092 0,1.1859 2.27873,2.1024 10.93756,4.399 4.45088,1.1806 8.73579,2.7286 9.52201,3.4401 0.78623,0.7116 2.05179,2.9864 2.81238,5.0553 1.69228,4.6033 2.07058,5.0841 3.36857,4.2819 0.56183,-0.3472 8.83398,-18.636 18.38256,-40.6417 9.54858,-22.0057 17.53815,-40.1875 17.75459,-40.4039 0.34981,-0.3499 24.87405,9.8027 25.71808,10.6468 0.18655,0.1866 -6.15864,15.346 -14.10042,33.6877 -11.37092,26.2614 -14.24013,33.589 -13.50095,34.4796 0.51626,0.6221 3.3954,1.5853 6.39809,2.1404 3.00269,0.5551 6.49411,1.533 7.75871,2.173 2.33022,1.1792 5.35415,6.5255 5.42472,9.5909 0.0206,0.8941 -4.97277,29.6898 -11.09634,63.9904 -10.95332,61.3539 -11.11135,62.4079 -9.75053,65.0297 1.8343,3.5339 21.92048,89.3192 21.08677,90.0588 -0.35643,0.3161 -5.76914,1.7458 -12.02824,3.1771 -6.25911,1.4313 -12.20322,2.8024 -13.20915,3.047 -1.00593,0.2446 -1.82896,0.2132 -1.82896,-0.07 z m -44.79393,-113.7661 c 0.50923,-0.6136 6.66787,-26.6278 13.68584,-57.8094 l 12.75997,-56.6936 -1.87867,-1.5213 c -2.64387,-2.1409 -8.04269,-3.6711 -9.12691,-2.5868 -1.15533,1.1553 -28.57754,117.1747 -28.03158,118.5975 0.60278,1.5709 11.28941,1.5823 12.59135,0.014 z m -62.21421,-16.7852 c 0.38346,-0.3548 8.15397,-26.1585 17.26781,-57.3415 13.47856,-46.1168 16.38423,-56.9208 15.57172,-57.8998 -1.40528,-1.6933 -7.70424,-4.2691 -9.11545,-3.7275 -0.64671,0.2481 -1.54306,1.6077 -1.99188,3.0211 -6.26989,19.7459 -35.0289,114.5123 -35.0289,115.427 0,0.681 0.82304,1.4038 1.82896,1.6062 2.45305,0.4934 10.5942,-0.2771 11.46774,-1.0855 z m -63.2936,-16.3699 c 1.06601,-1.066 42.74058,-113.1688 42.51204,-114.3556 -0.29207,-1.5165 -5.03911,-4.095 -7.64808,-4.1543 -1.32137,-0.03 -2.13451,0.9511 -3.50453,4.2285 -22.89247,54.7636 -46.43769,113.1205 -46.04916,114.133 0.41589,1.0837 1.6148,1.2352 7.38179,0.9325 3.78689,-0.1987 7.07546,-0.5516 7.30794,-0.7841 z m 644.15636,104.7872 c -21.8789,-39.5881 -25.0994,-45.5184 -25.1287,-46.2739 -0.011,-0.3025 2.0183,-1.717 4.5114,-3.1435 2.4931,-1.4263 4.7277,-3.1011 4.9658,-3.7216 0.2381,-0.6206 -1.6849,-24.4789 -4.2732,-53.0185 l -4.7062,-51.8902 1.6104,-3.1032 c 1.7577,-3.3871 5.9283,-6.0972 9.3831,-6.0972 1.2045,0 2.6809,-0.4909 3.2809,-1.0908 0.7897,-0.7897 1.8472,-11.1704 3.8301,-37.5953 1.5066,-20.0774 2.8413,-36.6273 2.966,-36.7776 0.1248,-0.1503 6.4747,0.1853 14.1111,0.7456 11.7046,0.8589 13.8821,1.2207 13.8703,2.3054 -0.01,0.7076 -1.2755,17.7242 -2.8176,37.8146 l -2.8038,36.5281 2.422,4.2331 2.422,4.2332 4.3704,48.5242 c 2.7425,30.4492 4.725,48.8756 5.3223,49.4674 0.7233,0.7168 2.2569,0.2503 6.3894,-1.9437 5.1822,-2.7513 5.4486,-3.0376 5.6732,-6.0965 0.1297,-1.7653 -1.9736,-21.9402 -4.674,-44.8332 -2.7003,-22.893 -4.9097,-42.9382 -4.9097,-44.545 0,-6.1071 4.0743,-10.4829 10.5958,-11.3798 2.5196,-0.3465 4.3295,-1.0692 4.766,-1.9032 0.3871,-0.7394 1.8993,-17.6221 3.3606,-37.5171 1.4613,-19.895 2.9438,-36.4964 3.2943,-36.8918 0.5904,-0.6661 26.7121,0.8734 27.5031,1.6209 0.1877,0.1773 -0.997,17.7037 -2.6325,38.9476 l -2.9736,38.6251 2.0516,3.8449 c 1.871,3.5063 2.4979,7.7083 7.1214,47.7322 4.3966,38.0608 5.2517,43.9224 6.4405,44.1514 1.5151,0.2917 10.7548,-5.6494 11.388,-7.3225 0.2196,-0.5803 -2.1001,-18.4301 -5.1549,-39.6663 -3.0547,-21.2363 -5.5648,-40.0745 -5.578,-41.8629 -0.046,-6.2956 3.9932,-10.2584 11.6228,-11.4026 5.1335,-0.7698 5.4173,-1.6333 5.4191,-16.4911 7e-4,-6.5653 0.2437,-23.2339 0.5399,-37.0412 l 0.5385,-25.1044 13.7013,0.3956 c 7.5357,0.2175 13.9169,0.6111 14.1803,0.8745 0.2635,0.2634 0.1062,18.5029 -0.3494,40.5321 -0.7906,38.2266 -0.7601,40.1871 0.6698,42.9897 1.043,2.0446 3.0077,13.5352 6.4676,37.8262 2.7332,19.1892 5.1601,35.5296 5.393,36.312 0.5799,1.9481 2.2495,1.7859 6.3494,-0.6169 7.2831,-4.2681 7.2079,-0.9449 0.8762,-38.7077 -5.2942,-31.5761 -5.5313,-33.5417 -4.4239,-36.6752 1.5271,-4.3213 4.4991,-6.4204 10.1816,-7.1916 2.5382,-0.3444 5.0023,-1.0138 5.476,-1.4874 0.7954,-0.7954 1.9548,-38.0953 2.1179,-68.1408 l 0.058,-10.7706 h 14.2253 14.2252 l -0.013,6.2998 c -0.01,3.4648 -0.3722,22.3224 -0.8116,41.9056 -0.693,30.8842 -0.6399,35.9136 0.4009,37.9261 0.6599,1.2762 3.2657,14.6998 5.7905,29.8303 2.5249,15.1304 4.9017,28.3329 5.2817,29.3388 0.3801,1.006 1.2532,1.829 1.94,1.829 2.0994,0 9.3528,-5.1743 9.8417,-7.0205 0.2529,-0.9553 -1.7838,-13.2093 -4.526,-27.2312 -3.0966,-15.834 -4.8072,-26.4641 -4.5144,-28.0537 0.9703,-5.2676 6.1341,-9.2272 12.0339,-9.2272 5.8407,0 5.6016,1.2138 6.3368,-32.1746 0.3634,-16.5055 0.6818,-34.3588 0.7074,-39.6739 l 0.046,-9.6639 14.022,0.5911 c 7.7121,0.3252 14.1429,0.7102 14.2907,0.8555 0.1477,0.1454 -0.1378,19.1373 -0.6346,42.2042 -0.6329,29.3861 -0.6471,42.4184 -0.047,43.5388 0.4706,0.8794 2.8312,11.6563 5.2456,23.9485 2.4145,12.2923 4.6227,22.7263 4.9072,23.1867 0.2845,0.4604 1.1328,0.837 1.8849,0.837 1.9227,0 9.9167,-5.6525 9.9167,-7.012 0,-0.6183 -1.829,-9.351 -4.0644,-19.4062 -2.2354,-10.0553 -4.0629,-19.8385 -4.0613,-21.7406 0.01,-6.6703 4.1082,-10.5255 12.3268,-11.5844 2.0871,-0.2689 4.2372,-1.0221 4.7781,-1.6738 0.7671,-0.9244 0.7811,-8.2925 0.063,-33.4911 -0.5059,-17.7684 -1.1171,-35.2813 -1.3581,-38.9176 l -0.4383,-6.6117 13.8941,-0.5958 c 7.6418,-0.3278 14.0815,-0.4085 14.3106,-0.1794 0.2291,0.229 0.9546,19.0185 1.6124,41.7544 l 1.1961,41.338 3.691,17.0703 c 2.03,9.3886 3.8713,17.7104 4.0918,18.4928 0.551,1.9561 3.4588,1.7847 5.7172,-0.3369 1.7553,-1.6491 1.9665,-1.6746 3.3678,-0.4065 1.6655,1.5072 4.2121,1.814 4.2121,0.5074 0,-0.4651 -1.6461,-7.4004 -3.6579,-15.4118 -4.0953,-16.3075 -4.3733,-19.5449 -2.0114,-23.4189 1.8764,-3.0775 5.1872,-4.6959 11.2525,-5.5005 2.65,-0.3515 4.497,-1.0596 4.9444,-1.8954 0.416,-0.7774 0.1993,-17.5451 -0.5193,-40.1806 -0.6783,-21.3656 -1.0703,-39.0094 -0.8712,-39.2086 0.1991,-0.1991 6.638,-0.599 14.3085,-0.8885 l 13.9464,-0.5266 v 5.6148 c 0,3.0882 0.5612,22.7915 1.2451,43.7852 1.2735,39.0956 1.5528,41.905 5.3565,53.8872 0.8819,2.7782 2.8242,3.4565 4.655,1.6257 0.8129,-0.8128 1.8049,-0.1625 4.9603,3.2515 2.1693,2.3472 4.5029,4.2676 5.1856,4.2676 1.0777,0 1.0301,-0.7238 -0.3608,-5.4869 -6.4909,-22.2279 -7.4233,-29.2736 -4.1031,-31.0036 0.7421,-0.3867 4.5546,-1.173 8.4723,-1.7476 3.9177,-0.5745 7.5343,-1.5401 8.037,-2.1459 0.6775,-0.8163 0.604,-11.1393 -0.284,-39.9013 -0.659,-21.3402 -1.0678,-38.9597 -0.9086,-39.1547 0.5754,-0.7047 27.8968,-1.0558 27.9489,-0.3591 0.029,0.3924 0.6784,20.3293 1.4422,44.3041 1.4452,45.3636 1.5605,46.4388 4.9377,46.0047 1.5224,-0.1956 3.1604,1.6573 38.113,43.1139 12.16,14.4228 22.109,26.5643 22.109,26.9811 0,0.417 -4.6137,4.6834 -10.2528,9.481 -7.4073,6.3022 -10.5528,8.5148 -11.3339,7.9724 -0.5946,-0.4129 -11.3896,-13.0048 -23.9889,-27.9819 -25.5391,-30.3592 -28.2048,-33.3277 -29.9278,-33.3277 -0.6612,0 -4.7704,1.4632 -9.1315,3.2515 -8.5574,3.5091 -12.4038,3.9751 -16.2769,1.9723 -6.7608,-3.4962 -3.6023,0.9973 22.0206,31.3273 13.0173,15.4089 23.5647,28.4233 23.4387,28.921 -0.2094,0.827 -2.7521,3.0929 -16.2024,14.4385 l -4.5932,3.8744 -26.2072,-30.9882 c -14.414,-17.0435 -26.7185,-31.1843 -27.3434,-31.4241 -0.6249,-0.2398 -5.2373,1.0512 -10.2496,2.8689 -5.0124,1.8178 -10.7563,3.417 -12.7643,3.5538 -2.6943,0.1835 -3.7209,0.6176 -3.918,1.6567 -0.1683,0.8876 7.9102,11.1039 21.8542,27.6376 12.1667,14.4263 22.8125,26.9977 23.6572,27.9366 1.5321,1.7027 1.5106,1.7285 -8.6664,10.395 -5.6112,4.7785 -10.6531,8.8342 -11.204,9.0127 -0.551,0.1786 -8.6835,-8.8409 -18.0721,-20.0432 -31.4461,-37.5209 -36.236,-42.9344 -37.9885,-42.9344 -0.9096,0 -6.4514,1.5054 -12.3153,3.3455 -5.8638,1.84 -11.1187,3.4745 -11.6776,3.6324 -0.5588,0.1578 -1.0161,0.9665 -1.0161,1.7972 0,0.8306 9.0126,14.4678 20.0278,30.3049 11.0153,15.837 20.1625,29.3434 20.3271,30.014 0.3145,1.2812 -21.0548,16.6074 -22.4627,16.1105 -0.4045,-0.1427 -9.6336,-13.0622 -20.5091,-28.71 -28.9997,-41.7249 -26.6611,-38.6209 -29.0419,-38.547 -1.1414,0.036 -7.0091,1.5931 -13.0392,3.4614 -7.9605,2.4665 -11.037,3.7768 -11.2309,4.7832 -0.152,0.7896 8.2003,13.5557 19.4072,29.6631 10.8207,15.5523 19.7155,28.7836 19.766,29.4029 0.079,0.9704 -20.8408,16.3507 -22.24,16.3507 -0.2806,0 -4.8683,-6.3099 -10.1948,-14.022 -23.076,-33.4113 -36.4059,-52.2939 -37.5547,-53.1985 -0.9639,-0.759 -1.8805,-0.7238 -4.1877,0.1607 -1.6245,0.6229 -7.2517,2.2945 -12.5048,3.7149 -8.0108,2.1658 -9.5513,2.836 -9.5513,4.1546 0,0.8647 8.8235,14.2619 19.6078,29.7716 10.7842,15.5097 19.7707,28.6188 19.9699,29.1314 0.4636,1.1923 -22.4362,16.9688 -23.266,16.0289 -0.3416,-0.3869 -9.8909,-14.0549 -21.2207,-30.3733 -11.3297,-16.3183 -22.0628,-31.773 -23.8514,-34.3437 -3.452,-4.9617 -4.3481,-5.3877 -7.2851,-3.4633 -1.0163,0.6659 -5.6673,2.1353 -10.3356,3.2653 -9.7614,2.363 -12.1455,3.253 -12.1455,4.534 0,0.5039 9.1941,14.1374 20.4315,30.2968 11.2372,16.1594 20.4735,29.7993 20.5249,30.3109 0.1279,1.2724 -22.3039,16.8488 -23.0465,16.0033 -0.4827,-0.5497 -21.4215,-30.6288 -46.1639,-66.3154 -2.4022,-3.4648 -4.9002,-6.2997 -5.5511,-6.2997 -0.6507,0 -2.5471,0.8764 -4.214,1.9477 -1.667,1.0712 -5.9572,2.5597 -9.5339,3.3077 -9.1416,1.912 -9.348,1.9937 -9.348,3.7003 0,1.1996 21.6168,41.4014 32.1981,59.8802 l 1.9467,3.3999 -11.9416,6.5861 c -6.5679,3.6223 -12.3717,6.4211 -12.8972,6.2194 -0.5256,-0.2017 -2.5171,-3.2322 -4.4255,-6.7345 -15.2524,-27.9908 -38.6669,-69.8714 -39.3065,-70.3061 -1.2308,-0.8365 -2.5258,-0.024 -4.0358,2.5324 -1.9011,3.2182 -5.7279,5.3792 -11.5297,6.5108 -7.2151,1.4072 -7.7223,1.6224 -7.7223,3.277 0,0.8335 7.5147,15.1197 16.6993,31.7473 9.1846,16.6275 16.5919,30.332 16.4606,30.4543 -0.4873,0.4545 -24.0987,13.3962 -24.4405,13.3962 -0.1953,0 -8.8964,-15.4547 -19.3356,-34.3438 z M 299.32011,1264.8571 c -6.82865,-1.6776 -12.58926,-3.2237 -12.80135,-3.4357 -0.21209,-0.2121 3.63487,-17.3651 8.54882,-38.1178 4.91394,-20.7526 8.93704,-38.5337 8.94022,-39.5136 0.004,-1.2219 -1.52605,-2.9601 -4.87145,-5.5343 -2.68247,-2.0641 -4.87365,-4.1888 -4.86928,-4.7215 0.027,-3.293 8.09142,-14.5528 43.4846,-60.7146 37.30432,-48.6543 44.53813,-57.7138 46.08362,-57.7138 0.35385,0 3.60341,2.1948 7.22126,4.8772 3.61785,2.6825 7.25432,4.8773 8.08105,4.8773 1.70365,0 3.75938,-2.4612 28.34677,-33.9374 9.51658,-12.1829 17.48901,-22.1507 17.71652,-22.1507 0.2275,0 5.31894,3.8655 11.31432,8.59 9.68923,7.6353 10.78691,8.7475 9.87693,10.0073 -1.22345,1.6937 -42.42276,54.3772 -50.43129,64.4889 -5.59835,7.0685 -5.61366,7.08 -7.62026,5.7653 -1.87995,-1.2319 -2.1088,-1.2167 -3.52087,0.233 -0.83062,0.8528 -14.92066,22.5836 -31.31118,48.2906 -16.39053,25.707 -30.72706,47.96 -31.85897,49.4511 -2.56655,3.3809 -6.4757,5.8171 -9.34077,5.8211 -1.20308,0 -2.4236,0.3851 -2.71226,0.8522 -0.42874,0.6937 -4.02653,15.6128 -15.42832,63.9772 -0.23715,1.0059 -0.88145,1.7906 -1.43178,1.7437 -0.55033,-0.047 -6.58768,-1.4579 -13.41633,-3.1355 z m -58.91366,-38.3864 c -6.59441,-2.6964 -11.98984,-5.2458 -11.98984,-5.6654 0,-0.4196 6.6063,-17.3975 14.68066,-37.7287 9.1139,-22.9487 14.48232,-37.4983 14.15761,-38.3701 -0.28767,-0.7723 -3.92968,-4.5135 -8.09336,-8.3136 -8.69652,-7.9373 -9.13308,-9.1725 -5.19981,-14.713 2.87585,-4.0508 84.67171,-86.4466 94.48689,-95.1799 l 6.391,-5.6865 2.99128,2.921 c 1.64521,1.6065 3.57556,2.9209 4.28967,2.9209 0.71411,0 13.99039,-11.2481 29.50284,-24.9958 15.51245,-13.74768 28.67138,-25.10437 29.24207,-25.23719 0.5707,-0.13274 5.14375,4.39413 10.16233,10.05984 7.45356,8.41467 8.92544,10.48343 8.03662,11.29597 -0.59845,0.54698 -14.10724,12.52458 -30.01954,26.61668 -20.42052,18.0846 -29.51818,26.6694 -30.92595,29.1826 -2.00016,3.5706 -76.46009,96.831 -81.83327,102.4954 -2.34796,2.4752 -5.44764,9.4733 -17.28213,39.0178 -8.41332,21.0035 -14.87638,36.0601 -15.51411,36.142 -0.60122,0.077 -6.48854,-2.0656 -13.08296,-4.762 z m 1400.27375,-18.8579 c -3.3477,-1.513 -4.8992,-3.848 -6.8931,-10.3744 -1.3525,-4.4272 -1.4958,-5.9787 -0.7932,-8.588 0.7736,-2.8732 2.8709,-5.558 5.4979,-7.0382 1.6398,-0.9239 25.6745,-5.3758 29.0586,-5.3824 7.5038,-0.015 13.3514,5.6045 12.203,11.7264 -1.0511,5.6028 -4.9048,8.6888 -18.3052,14.6585 -13.2979,5.9241 -16.8354,6.7755 -20.768,4.9981 z M 195.90179,1187.9886 c -8.18828,-3.3518 -12.51324,-5.5316 -12.35314,-6.2259 0.13549,-0.5876 7.17698,-18.4918 15.64776,-39.787 8.47077,-21.2952 15.4014,-39.3178 15.4014,-40.0501 0,-2.2329 -13.90815,-18.7757 -15.78547,-18.7757 -1.21081,0 -6.84344,6.8514 -21.20834,25.7975 -10.75781,14.1885 -19.91671,26.1545 -20.35311,26.5909 -0.51603,0.516 -4.20053,-1.7795 -10.53783,-6.5651 -5.35941,-4.0472 -10.36883,-7.9658 -11.13205,-8.7078 -1.30215,-1.2661 0.0608,-3.2531 22.11272,-32.2383 12.92522,-16.989 23.5175,-31.4844 23.5384,-32.2121 0.0209,-0.7276 -0.54114,-1.8036 -1.24898,-2.3911 -0.70783,-0.5874 -3.84299,-5.3875 -6.96704,-10.6668 -3.71368,-6.2758 -6.15934,-9.5988 -7.06449,-9.5988 -0.76144,0 -11.96406,9.3277 -24.89471,20.7282 -12.93066,11.4005 -23.77273,20.7282 -24.0935,20.7282 -0.63802,0 -18.606078,-19.8943 -18.606078,-20.6007 0,-0.897 68.236258,-60.68633 69.259998,-60.68633 0.58777,0 1.52555,0.73159 2.08396,1.62574 0.55841,0.89416 1.80796,1.62575 2.77677,1.62575 2.30693,0 103.98302,-48.0552 104.49598,-49.38798 0.57782,-1.50129 -0.44729,-6.18318 -1.74128,-7.9528 -1.06783,-1.46032 -4.01026,-0.29849 -60.36986,23.83848 -54.05966,23.15185 -59.6434,25.37359 -63.77078,25.37359 -4.95574,0 -6.14308,-0.81523 -7.99166,-5.48687 -0.57494,-1.45301 -1.54576,-2.64183 -2.15735,-2.64183 -1.01114,0 -6.63146,4.80325 -36.48925,31.18455 -5.364945,4.7403 -10.019149,8.5334 -10.342671,8.4291 -1.262786,-0.4068 -18.366187,-20.49957 -17.980675,-21.12329 0.22527,-0.36449 12.60126,-11.43343 27.502206,-24.5977 14.90094,-13.1642 27.24593,-24.39481 27.43329,-24.95691 0.18737,-0.5621 -0.18807,-3.12102 -0.83432,-5.68652 -0.64625,-2.5655 -0.95392,-5.24058 -0.68371,-5.94477 0.2702,-0.7041 2.41618,-2.15687 4.76886,-3.22831 4.65046,-2.11793 130.71621,-33.62796 135.82016,-33.94815 l 3.12064,-0.19574 4.01404,12.34669 c 2.90887,8.94734 4.41913,12.4752 5.48544,12.8136 0.84392,0.26784 17.36531,-5.09751 38.74043,-12.58104 20.49795,-7.17643 37.66085,-12.89034 38.13976,-12.69744 0.88062,0.35465 9.86639,25.54591 9.30374,26.08273 -0.16735,0.15965 -16.21621,5.85226 -35.66414,12.6503 -19.44793,6.79795 -36,12.70029 -36.78239,13.11623 -0.78239,0.41595 -1.42252,1.18793 -1.42252,1.71565 0,0.52763 1.87286,4.20441 4.16191,8.17065 4.55773,7.89719 4.92079,10.93375 1.86487,15.59768 -0.86862,1.32571 -22.02103,15.93559 -51.50649,35.57534 -27.51792,18.3293 -50.64804,33.8626 -51.40028,34.5186 -0.75224,0.6559 -1.17813,1.6867 -0.94641,2.2905 0.62117,1.6187 8.93019,7.6909 10.52408,7.6909 0.75367,0 22.52526,-15.0889 48.3813,-33.5309 40.40189,-28.81687 47.01552,-33.8166 47.04311,-35.56305 0.026,-1.64842 1.37278,-2.9 7.13198,-6.62814 57.88516,-37.47057 70.41714,-45.39223 70.92677,-44.83404 1.06252,1.16387 14.61527,22.44181 14.61047,22.93864 -0.002,0.26369 -14.63421,9.98684 -32.51482,21.60699 -25.25338,16.41145 -32.50282,21.4919 -32.47716,22.7604 0.0182,0.898 1.08727,2.8654 2.37579,4.3719 2.56267,2.9963 2.49816,3.9254 -0.55959,8.0595 -1.08608,1.4684 -22.15646,21.3839 -46.82306,44.2566 -24.6666,22.8727 -44.96547,42.2487 -45.1086,43.0578 -0.14312,0.809 0.31412,1.6914 1.01609,1.9608 0.70198,0.2693 1.27632,1.0014 1.27632,1.6269 0,1.5721 -33.48219,85.6837 -34.07155,85.5921 -0.26149,-0.041 -6.14522,-2.3947 -13.07494,-5.2313 z m 1496.81121,-8.0481 c -0.2448,-0.6381 -0.3248,-1.9932 -0.1777,-3.0114 0.2443,-1.6902 6.1013,-3.8046 67.3294,-24.3056 36.884,-12.3499 71.7909,-24.1589 77.571,-26.2423 5.78,-2.0834 10.6362,-3.6608 10.7916,-3.5056 1.1637,1.1638 -148.7344,58.2251 -152.9551,58.2251 -1.1627,0 -2.3143,-0.5221 -2.5592,-1.1602 z m -398.4199,-84.4139 c -9.6938,-0.6078 -12.3963,-1.0245 -12.3963,-1.9117 0,-1.4918 3.9391,-66.2295 4.3344,-71.234 0.4441,-5.6222 -0.3035,-6.1944 -8.8052,-6.7397 -4.0237,-0.2581 -8.1322,-0.6342 -9.13,-0.8359 -2.6566,-0.5368 -4.2824,-4.3869 -4.2824,-10.1412 0,-5.70462 13.3879,-125.49294 14.5696,-130.36122 0.6712,-2.76547 -0.3506,-8.12464 -7.6671,-40.21262 -4.6429,-20.362 -8.2829,-37.18064 -8.0888,-37.3747 0.5095,-0.50947 26.7386,-6.50453 27.0668,-6.18651 0.1512,0.14659 3.8872,16.11566 8.3021,35.48688 4.4149,19.37111 8.4166,36.57738 8.8927,38.23605 0.8925,3.10988 1.3392,3.3352 8.0875,4.08085 1.4748,0.16298 2.1575,0.89172 2.6592,2.8383 0.3713,1.44049 0.5758,34.5978 0.4545,73.68288 -0.2054,66.17169 -0.3179,71.17139 -1.6334,72.62489 -0.7771,0.8584 -1.5953,2.6342 -1.8182,3.9461 -0.2229,1.3119 -1.3442,18.2973 -2.4918,37.7452 -1.1475,19.4479 -2.2383,35.8171 -2.4239,36.3759 -0.1856,0.5589 -0.989,0.958 -1.7854,0.887 -0.7965,-0.071 -7.0264,-0.479 -13.8443,-0.9065 z m 56.5585,-2.9657 c -3.8766,-0.2582 -7.2487,-0.6714 -7.4935,-0.9181 -0.2448,-0.2468 0.471,-15.0613 1.5904,-32.9212 1.1194,-17.86 1.931,-34.4845 1.8034,-36.9435 l -0.2319,-4.4707 -4.3897,-0.4065 c -5.5126,-0.5104 -7.1807,-2.4888 -8.2698,-9.8086 -0.4279,-2.8761 -1.498,-33.39545 -2.378,-67.82051 -1.4912,-58.33126 -1.5093,-62.96226 -0.2661,-68.04522 l 1.3341,-5.45428 -15.632,-27.36675 c -8.5976,-15.05176 -15.3308,-27.65993 -14.9627,-28.01819 0.368,-0.35826 5.7903,-3.59205 12.0494,-7.18619 9.7511,-5.59935 11.513,-6.35908 12.3082,-5.30725 0.5104,0.67516 8.8854,15.2034 18.6112,32.28498 9.7258,17.08149 18.5093,31.97182 19.519,33.08951 3.0607,3.38829 6.8229,12.63607 6.3656,15.64752 -0.2206,1.45316 4.0089,30.4359 9.3991,64.40608 5.3901,33.97018 9.8003,63.2959 9.8003,65.1683 0,3.7517 0.1804,3.6472 -8.3058,4.8103 -2.1092,0.2891 -4.2536,1.03 -4.7653,1.6467 -0.7472,0.9002 -5.4709,65.129 -5.5989,76.128 l -0.026,2.2354 -6.7062,-0.1402 c -3.6884,-0.077 -9.878,-0.3514 -13.7548,-0.6096 z m -135.5191,-7.403 c -6.4326,-2.1965 -11.8649,-4.163 -12.0719,-4.3699 -0.207,-0.207 4.8662,-16.118 11.2737,-35.358 7.7374,-23.2335 11.378,-35.2536 10.8401,-35.7915 -1.0199,-1.0199 -28.7253,-6.7701 -30.0922,-6.2456 -0.5554,0.2131 -6.3615,16.6911 -12.9024,36.6175 -7.0507,21.4794 -12.2965,36.2301 -12.8847,36.2301 -2.2011,0 -25.7863,-8.3228 -25.7863,-9.0995 0,-0.4597 5.1326,-16.4132 11.4058,-35.4523 6.2732,-19.0391 11.2405,-35.04728 11.0385,-35.57377 -0.4751,-1.23793 -28.4361,-10.24819 -29.9728,-9.65853 -0.6415,0.24614 -8.995,14.7407 -18.5633,32.21 -9.5682,17.4693 -17.812,31.9232 -18.3195,32.1198 -1.3443,0.5209 -24.3189,-12.4733 -24.0441,-13.599 0.1276,-0.523 7.5614,-14.2962 16.5195,-30.6071 8.9581,-16.31085 16.1206,-30.09071 15.9168,-30.62192 -0.511,-1.33173 -27.2482,-12.70809 -28.6252,-12.17965 -0.6112,0.23452 -10.2898,14.32758 -21.5081,31.31795 l -20.397,30.89152 -2.2036,-1.4438 c -15.3214,-10.0377 -20.5366,-13.5586 -20.8612,-14.0838 -0.2128,-0.3444 8.0132,-13.37792 18.28,-28.96341 10.2668,-15.58557 18.6656,-29.0845 18.6638,-29.9976 0,-1.32595 -2.522,-2.92877 -12.5131,-7.96003 -6.8804,-3.46486 -13.2264,-6.29975 -14.1021,-6.29975 -1.1951,0 -6.5367,7.50117 -21.4177,30.07621 -10.90411,16.54191 -20.11255,30.07621 -20.46323,30.07621 -0.46106,0 -21.1769,-13.44895 -23.18615,-15.05258 -0.13063,-0.10429 11.0665,-17.33584 24.88253,-38.29245 25.56115,-38.77205 25.70305,-38.95259 29.41085,-37.40846 0.6706,0.2793 1.6275,0.23727 2.1263,-0.0933 0.4988,-0.33059 13.2403,-22.91441 28.3144,-50.18621 19.9328,-36.06203 27.205,-49.90771 26.665,-50.76804 -0.8678,-1.38259 -8.1348,-3.43216 -10.061,-2.83759 -0.7266,0.22428 -14.5953,23.89976 -30.8194,52.61213 -30.27411,53.57727 -35.94137,63.17808 -37.29309,63.17808 -0.42838,0 -5.16286,-2.56054 -10.52106,-5.69009 -5.3582,-3.12955 -10.30281,-5.69009 -10.98806,-5.69009 -0.68704,0 -11.32264,13.33489 -23.71054,29.72805 -14.75588,19.52677 -22.84369,29.58271 -23.56918,29.30431 -1.76425,-0.67704 -21.43336,-15.47974 -21.47181,-16.15946 -0.0195,-0.33856 12.23858,-16.98209 27.23937,-36.98561 21.01669,-28.02566 27.71726,-36.42765 29.20571,-36.6216 1.60054,-0.2085 7.17716,-8.82289 32.53481,-50.25726 16.83175,-27.50314 30.41215,-50.50345 30.17875,-51.11182 -0.4717,-1.22906 -5.421,-2.82156 -8.7909,-2.82857 -1.4569,-0.003 -2.7036,0.73697 -3.7585,2.23086 -0.8681,1.22947 -15.55864,24.36579 -32.6455,51.41405 -17.08695,27.04827 -31.85624,50.03649 -32.82071,51.08485 -4.70107,5.11019 -11.83905,5.51857 -18.77983,1.07445 -2.21117,-1.41586 -4.77171,-2.55762 -5.69009,-2.53738 -1.22938,0.0268 -7.55839,7.86875 -23.99496,29.7296 -12.2789,16.33106 -22.52879,29.81861 -22.77753,29.97232 -0.42627,0.26354 -7.56368,-4.87738 -18.10124,-13.03779 l -4.67726,-3.62215 27.25043,-36.37433 c 14.98779,-20.00579 28.2492,-36.9487 29.46981,-37.65085 3.1467,-1.8101 63.59679,-97.11963 63.35732,-99.89323 -0.14892,-1.7246 -0.82515,-2.15827 -4.91624,-3.15286 -4.05419,-0.98563 -4.90811,-0.98869 -5.87576,-0.0211 -0.62265,0.62268 -15.59565,23.44028 -33.27331,50.70579 -17.67773,27.26546 -33.27485,50.75392 -34.66031,52.1966 -4.36544,4.54541 -11.74484,4.64865 -18.13278,0.25362 -2.06274,-1.41919 -4.38007,-2.46137 -5.14962,-2.31595 -0.76954,0.14534 -12.55584,13.31392 -26.19174,29.26342 -13.6359,15.94957 -25.07787,29.02386 -25.42659,29.0541 -1.22061,0.10575 -20.95239,-17.39705 -20.7276,-18.38615 0.19892,-0.87538 39.77909,-47.59812 55.58389,-65.6145 3.74238,-4.26598 16.86796,-23.69008 37.32913,-55.24171 25.38473,-39.14407 31.39347,-48.92225 30.71992,-49.99153 -0.46049,-0.7311 -3.0985,-1.85344 -5.86226,-2.49409 -4.74115,-1.09901 -5.11141,-1.07605 -6.55523,0.40644 -0.84156,0.86418 -15.97347,24.25033 -33.62634,51.96921 -29.74513,46.70643 -32.35468,50.53661 -35.62665,52.29074 -4.75489,2.54924 -9.04489,2.04445 -15.26758,-1.79642 -2.62094,-1.61777 -5.27512,-2.9414 -5.89802,-2.9414 -0.62299,0 -12.07872,12.81417 -25.4572,28.47591 -13.37848,15.66174 -24.77341,28.373 -25.32208,28.24725 -1.38128,-0.31663 -20.59498,-16.82953 -20.59498,-17.70003 0,-0.38782 4.32139,-5.76024 9.60309,-11.93871 5.28171,-6.17838 18.50532,-21.65853 29.38582,-34.40027 10.88049,-12.74174 20.61384,-23.89839 21.62965,-24.79255 1.55038,-1.36469 58.21059,-89.5892 61.27105,-95.40389 0.82124,-1.56026 0.80555,-2.11538 -0.0829,-2.93766 -1.53112,-1.41712 -10.33264,-3.00359 -11.87498,-2.14046 -0.68956,0.38589 -15.43486,23.65551 -32.7673,51.71025 -17.33248,28.05475 -32.89737,52.42574 -34.58865,54.15777 -1.95244,1.99948 -3.81797,3.14913 -5.11008,3.14913 -1.11927,0 -5.40637,-2.01185 -9.52689,-4.47079 -4.12052,-2.45893 -8.03615,-4.47078 -8.70137,-4.47078 -0.66524,0 -11.73508,12.25402 -24.59966,27.23116 -12.86457,14.97713 -23.78567,27.23116 -24.26912,27.23116 -1.09763,0 -20.76661,-16.94949 -20.76661,-17.89532 0,-0.3802 10.46914,-12.87846 23.26477,-27.77392 36.71166,-42.73627 36.21476,-42.18503 37.63042,-41.74542 0.70917,0.22022 1.69592,0.13442 2.19278,-0.19069 1.38067,-0.90341 53.96538,-93.22004 53.96538,-94.74052 0,-0.79045 -0.90873,-1.53412 -2.23539,-1.82935 -4.99607,-1.11184 -5.08044,-1.18026 -5.08044,-4.11867 0,-2.22824 -0.29699,-2.79254 -1.36156,-2.58705 -0.84977,0.16403 -13.30069,21.56512 -33.12448,56.93552 -17.4696,31.16998 -32.54933,57.68988 -33.51052,58.93311 l -1.7476,2.2604 -10.64548,-5.54383 c -6.02587,-3.13809 -11.40622,-5.43093 -12.39857,-5.28366 -1.31543,0.19523 -6.23738,7.30563 -19.7153,28.48134 -9.87921,15.52164 -18.25489,28.2329 -18.61261,28.24725 -0.868,0.0348 -22.37083,-13.71241 -22.97341,-14.68739 -0.25944,-0.41979 7.23597,-12.81356 16.65648,-27.5417 9.42051,-14.72813 17.12821,-27.29592 17.12821,-27.92839 0,-1.74563 -1.12634,-2.41196 -13.29294,-7.86393 -9.47477,-4.24574 -11.43307,-4.87057 -12.34706,-3.93959 -0.87973,0.89609 -7.90345,23.74055 -17.02261,55.36558 -0.95408,3.30873 -1.74642,4.67124 -2.7126,4.66455 -1.38284,-0.01 -25.21308,-6.90399 -25.76255,-7.45346 -0.16407,-0.16406 3.87277,-14.47003 8.97076,-31.79103 5.09798,-17.321 9.07169,-32.00706 8.83045,-32.63571 -0.24123,-0.62864 -1.05045,-1.39457 -1.79828,-1.70205 -4.48533,-1.84427 -25.11767,-8.50821 -26.3424,-8.50821 -0.80873,0 -1.81848,0.82303 -2.2439,1.82895 -0.42542,1.00593 -5.21144,17.00932 -10.63559,35.56309 -5.42417,18.55376 -9.97163,33.85172 -10.10549,33.99546 -0.34254,0.36783 -25.8873,-7.18752 -26.5345,-7.84809 -0.29204,-0.29807 4.0002,-15.90521 9.53832,-34.68251 5.53811,-18.77731 10.07511,-34.9495 10.08221,-35.93819 0.0142,-1.97727 -0.78848,-2.27656 -12.58657,-4.69313 -3.57663,-0.73258 -7.34405,-1.67554 -8.37205,-2.09547 -2.19307,-0.89584 -4.99693,-6.58627 -5.02247,-10.19311 -0.01,-1.38706 4.75558,-30.97485 10.58976,-65.75065 7.18833,-42.84745 11.09952,-64.19294 12.13365,-66.22 2.42234,-4.74818 3.40836,-5.23202 9.18132,-4.50533 8.99983,1.13289 10.72696,1.00447 10.97177,-0.81581 0.12026,-0.89415 -2.87911,-17.8914 -6.66526,-37.77165 -3.78616,-19.88025 -6.72335,-36.30647 -6.52711,-36.50272 0.48217,-0.48216 23.93118,-4.97148 25.97965,-4.97381 1.49972,-0.002 2.18566,2.94377 8.84882,37.99742 3.9727,20.89961 7.78721,40.74272 8.47669,44.09581 2.70703,13.16484 2.81695,12.58705 -14.33318,75.34726 -8.5755,31.38173 -15.59182,57.76539 -15.59182,58.63036 0,2.00277 1.16599,2.86484 5.58687,4.13062 2.31915,0.66403 3.83131,0.74115 4.35055,0.22191 0.43773,-0.43773 8.44054,-26.63535 17.78404,-58.21694 9.34351,-31.58158 17.69264,-58.80191 18.55363,-60.4896 1.94539,-3.81327 3.40492,-5.05047 6.76972,-5.73847 l 2.63682,-0.53916 0.21142,-37.15563 0.21142,-37.15563 h 14.21703 14.21703 l 0.0124,41.65961 c 0.007,24.34012 0.32758,42.15793 0.77045,42.85824 0.4169,0.65926 2.87039,1.98687 5.4522,2.95025 5.97168,2.2283 6.55343,3.1568 5.39886,8.61665 -0.50067,2.3676 -9.92736,27.65952 -20.94819,56.20426 -11.02083,28.54473 -19.92498,52.50409 -19.78699,53.24301 0.27719,1.48442 8.01697,4.43012 9.82108,3.73782 0.6021,-0.23105 9.63892,-21.53151 20.08185,-47.33438 10.44292,-25.80286 20.55743,-50.32395 22.47668,-54.49131 3.87596,-8.41606 3.11454,-3.75808 9.95314,-60.88818 1.67113,-13.96069 3.22887,-25.57353 3.46165,-25.80631 0.4568,-0.45679 26.80275,2.64465 27.38145,3.22334 0.19215,0.19216 -1.71174,17.64739 -4.23088,38.78937 -2.51914,21.142 -4.57763,39.80329 -4.5744,41.46952 0.006,3.50038 0.22123,3.66828 10.74383,8.41102 6.99064,3.15082 7.08048,3.22833 7.11262,6.13719 0.0179,1.62033 -0.48034,4.36377 -1.10721,6.09653 -0.62687,1.73275 -11.98267,25.62261 -25.23511,53.08857 -13.25244,27.46596 -24.17054,50.69373 -24.26244,51.61727 -0.12038,1.2097 0.24073,1.61007 1.2916,1.43201 0.80229,-0.13594 2.67442,0.5042 4.1603,1.42252 1.48588,0.91832 3.29793,1.66968 4.02678,1.66968 2.03846,0 47.95802,-92.1884 47.27503,-94.90966 -0.43676,-1.74016 9.87289,-91.95515 10.59976,-92.75364 0.33261,-0.36538 27.12277,2.81468 27.58216,3.27407 0.18158,0.18158 -1.64358,16.77816 -4.05591,36.88129 -2.41233,20.10312 -4.49777,38.91952 -4.6343,41.81421 l -0.24824,5.26307 10.56732,5.87742 c 6.43945,3.58155 11.36113,5.81228 12.59949,5.71068 2.01326,-0.1652 2.09832,-0.49522 9.13707,-35.45118 3.90771,-19.40643 7.19984,-35.37777 7.31583,-35.49186 0.32662,-0.32117 26.6268,5.06685 27.11493,5.55492 0.23735,0.23743 -3.08721,18.06785 -7.3881,39.62314 -4.3009,21.55529 -7.70797,40.13892 -7.57132,41.29697 0.20224,1.7136 1.83424,3.05586 8.76746,7.21082 4.68538,2.80791 9.51733,5.84343 10.73761,6.74562 2.89341,2.13918 4.5876,2.07688 5.13002,-0.18863 0.24086,-1.00592 3.48876,-17.11054 7.21756,-35.78805 3.72888,-18.6775 6.94988,-34.12922 7.15782,-34.33716 0.4626,-0.46263 26.0325,4.51997 26.85521,5.23307 0.32319,0.28009 -3.08176,18.97339 -7.56645,41.54066 -5.04955,25.40984 -7.89029,41.46351 -7.4615,42.16635 1.07299,1.75893 20.44101,13.90317 22.17316,13.90317 1.84903,0 0.97439,3.01908 10.98302,-37.90951 4.3582,-17.82208 8.06863,-32.56779 8.24543,-32.76824 0.64217,-0.72809 26.49088,6.06006 26.87358,7.05728 0.21647,0.5641 -4.06557,18.94911 -9.51571,40.85559 -5.45013,21.90646 -9.78696,40.17829 -9.63747,40.60404 0.40343,1.14898 21.59342,14.67566 22.98985,14.67566 1.40009,0 0.57145,2.92953 10.87043,-38.4322 4.42836,-17.78462 8.20276,-32.48689 8.38761,-32.67169 0.32466,-0.32465 25.66831,5.83592 26.74451,6.50111 0.2923,0.18063 -3.97081,18.53952 -9.47361,40.79752 -5.50273,22.25801 -9.82932,41.05373 -9.61456,41.76826 0.21468,0.71455 1.38928,1.74727 2.61013,2.29493 1.22085,0.54767 5.9203,3.34662 10.44319,6.21989 8.87075,5.6354 11.24835,6.31001 11.96595,3.39517 0.2477,-1.00593 3.797,-17.19221 7.8875,-35.96952 4.0906,-18.77731 7.5176,-34.22507 7.6157,-34.32837 0.098,-0.10329 6.2819,1.1453 13.7417,2.77464 8.4737,1.8508 13.5632,3.333 13.5632,3.94996 0,0.54313 -3.8408,18.56545 -8.5351,40.0496 -4.6943,21.48414 -8.5351,40.09942 -8.5351,41.36729 0,2.09526 0.9713,2.87758 10.6657,8.58982 5.8661,3.45654 11.3389,6.28461 12.1617,6.28461 1.8356,0 1.2953,2.06397 10.1075,-38.61135 3.8743,-17.88314 7.3024,-32.78812 7.6179,-33.12218 0.3156,-0.33405 6.3707,0.67188 13.4557,2.23539 7.0851,1.56353 13.012,2.84276 13.1709,2.84276 0.8094,0 -0.2473,5.57574 -6.2655,33.0624 -9.8489,44.98172 -10.4909,48.15707 -9.9969,49.44434 0.4977,1.29717 22.1798,12.59911 24.1705,12.59911 0.6745,0 1.4499,-0.36175 1.7232,-0.80388 0.2732,-0.44212 2.1542,-17.17709 4.1799,-37.18882 2.0258,-20.01172 3.9272,-36.62739 4.2253,-36.9237 0.5868,-0.58348 26.5831,1.92291 27.2915,2.63127 0.2366,0.23657 -1.4018,18.51791 -3.6408,40.6252 -2.2391,22.10728 -3.965,41.65002 -3.8355,43.42826 l 0.2356,3.23311 10.9737,4.67782 c 6.0356,2.57282 11.6229,4.68433 12.4165,4.6923 0.7934,0.008 1.7468,-0.80848 2.1187,-1.81441 0.3719,-1.00593 2.2596,-17.83234 4.1948,-37.39204 3.2103,-32.44536 3.6475,-35.56308 4.9865,-35.56308 2.3413,0 26.2482,2.55481 26.5328,2.83544 0.1417,0.13975 -1.603,18.62532 -3.8773,41.07905 -2.8191,27.83311 -3.8743,41.13915 -3.3156,41.81221 0.4507,0.54308 2.3783,1.44146 4.2837,1.99649 1.9054,0.55503 6.5287,1.93081 10.274,3.05737 l 6.8096,2.04819 -0.4144,5.40607 c -0.2537,3.3092 -6.4649,28.10744 -16.013,63.93283 -10.6531,39.97136 -15.3629,58.9062 -14.8557,59.72379 0.897,1.44577 10.0947,4.51362 11.6931,3.90023 0.7568,-0.29036 5.5624,-18.77893 14.3861,-55.34713 l 13.2495,-54.9111 -0.8737,-5.94623 c -1.0612,-7.22179 -3.734,-89.1166 -2.9347,-89.91681 0.3121,-0.31237 6.7556,-0.69627 14.3191,-0.85313 l 13.7516,-0.28517 0.021,6.78814 c 0.011,3.73348 0.5508,20.87112 1.1981,38.08365 0.6474,17.21253 1.1922,32.20999 1.2106,33.32769 0.064,3.8852 0.2519,3.9699 13.6243,6.1466 l 2.6418,0.43001 v 6.17026 c 0,3.39365 -3.6579,32.48035 -8.1287,64.63726 -4.4707,32.15691 -8.1287,59.69501 -8.1287,61.19589 0,2.55266 0.2624,2.81595 4.0644,4.07879 2.7247,0.9049 4.0643,1.7993 4.0643,2.713 0,0.7497 -6.339,20.3816 -14.0866,43.6264 -11.8325,35.5006 -14.3364,42.2884 -15.6478,42.4193 -0.8586,0.086 -6.8241,-1.6414 -13.2567,-3.8379 z m -61.9712,-176.17212 c 15.7486,-42.81551 19.4259,-53.56312 18.6036,-54.37168 -1.2479,-1.22695 -8.7948,-2.22743 -10.075,-1.33555 -1.2058,0.83994 -40.1286,100.97265 -40.1286,103.23479 0,1.3084 1.2081,2.33773 4.9218,4.19344 2.707,1.35269 5.4005,2.27571 5.9857,2.05119 0.5852,-0.22451 9.8968,-24.42204 20.6925,-53.77219 z m -90.7063,26.54087 1.9767,-2.52583 3.2381,2.14289 c 1.781,1.17858 3.769,1.93918 4.4178,1.6902 1.5389,-0.59055 50.5747,-104.97002 50.0075,-106.44798 -0.5214,-1.35856 -9.2493,-2.62232 -10.8599,-1.57242 -1.0634,0.69321 -51.5355,103.67032 -52.6449,107.41002 -0.8164,2.75246 1.4908,2.33643 3.8647,-0.69688 z m 352.203,144.57495 c -0.2327,-1.453 -1.9118,-18.3709 -3.7314,-37.5953 -2.8211,-29.8069 -3.5981,-35.7314 -5.2766,-40.2371 -1.1599,-3.11325 -6.8211,-30.55754 -13.7822,-66.81302 -11.2308,-58.49375 -12.9879,-69.91003 -11.1916,-72.7133 0.3285,-0.51259 2.2433,-1.35741 4.2552,-1.87732 6.2516,-1.61574 6.5029,-1.73589 6.5029,-3.10744 0,-0.73508 -7.1329,-13.85237 -15.851,-29.1497 -8.718,-15.29733 -15.8509,-28.17652 -15.8509,-28.62049 0,-1.07427 22.7984,-14.10247 23.9187,-13.66841 0.4806,0.1862 9.2233,15.01533 19.4282,32.95365 13.9672,24.55154 18.9272,32.61505 20.0621,32.61505 0.9445,0 1.6045,-0.68306 1.7672,-1.82896 0.2044,-1.4387 2.3413,-2.86968 10.0143,-6.70618 7.6689,-3.83439 9.7544,-5.23074 9.7544,-6.53077 0,-1.11916 -7.9438,-9.08886 -24.58,-24.66005 -20.3027,-19.00287 -24.4425,-23.24171 -23.7891,-24.35829 0.4351,-0.7435 4.729,-5.48989 9.542,-10.54752 l 8.7509,-9.19569 5.5258,4.92812 c 3.0391,2.71047 5.8472,4.92813 6.2401,4.92813 0.393,0 0.8326,0.48951 0.9773,1.08779 0.2702,1.11827 38.5429,37.28839 42.048,39.73814 2.4565,1.7167 3.0983,1.38822 11.5737,-5.92363 l 6.5388,-5.64122 2.4681,1.42365 c 1.3575,0.78301 17.136,16.23821 35.0633,34.3449 69.2586,69.95157 64.592,65.0763 67.8588,70.89255 0.9306,1.65687 11.2596,16.21441 22.9534,32.35005 11.6939,16.13564 21.1276,29.44606 20.964,29.57881 -4.6932,3.80529 -22.1986,15.94941 -22.7335,15.77106 -0.4099,-0.13656 -10.0219,-13.04998 -21.3602,-28.69644 -11.3383,-15.64645 -21.1888,-28.56199 -21.89,-28.70123 -0.7011,-0.13916 -4.016,1.92528 -7.3664,4.58768 -3.3504,2.66239 -8.4941,6.42037 -11.4306,8.35102 -2.9365,1.93057 -5.3391,3.70767 -5.3391,3.94893 0,0.24134 5.8527,18.31559 13.0059,40.16498 7.1533,21.84945 13.0059,39.84125 13.0059,39.98165 0,0.1404 -5.9375,2.1458 -13.1946,4.4564 -10.6269,3.3834 -13.3284,3.9865 -13.8827,3.099 -0.3785,-0.6061 -5.7218,-16.4461 -11.874,-35.1999 -6.1522,-18.75387 -11.7258,-34.43845 -12.3855,-34.85464 -0.8636,-0.5447 -4.7146,0.99715 -13.746,5.50338 -6.9004,3.44308 -13.0394,6.73959 -13.642,7.32567 -0.9156,0.8905 0.8543,7.01223 10.7706,37.25389 6.5263,19.9036 11.8662,36.5068 11.8662,36.896 0,0.592 -24.526,9.2048 -26.2116,9.2048 -0.3038,0 -6.0906,-16.735 -12.8595,-37.1889 -6.7691,-20.4538 -13.1998,-39.54967 -14.2905,-42.4352 -2.742,-7.25398 -2.4658,-8.12635 3.1668,-9.99896 3.8425,-1.27751 4.674,-1.87895 4.674,-3.38056 0,-1.9248 -40.2439,-102.72504 -41.5646,-104.10806 -1.016,-1.06413 -8.335,2.78384 -8.6656,4.5559 -0.2439,1.30774 35.9648,103.62293 37.2198,105.17218 1.2281,1.51592 4.0688,11.22769 4.0688,13.91008 v 2.66784 l -9.9576,3.17841 c -5.4767,1.74816 -11.2379,3.51657 -12.8027,3.92977 -2.4729,0.653 -2.8812,1.1201 -3.1217,3.5707 -0.1521,1.5507 1.2959,18.9904 3.2178,38.7549 1.9218,19.7646 3.2987,36.1312 3.0596,36.3703 -0.4426,0.4425 -22.0808,2.8847 -25.5597,2.8847 -1.5244,0 -1.9936,-0.5316 -2.3317,-2.6418 z m 119.2319,-133.86774 c 4.3521,-1.43642 5.4868,-2.14866 5.4868,-3.44397 0,-0.89814 -14.906,-23.35238 -33.1244,-49.89837 -26.1244,-38.06567 -33.4906,-48.2711 -34.857,-48.29231 -1.7082,-0.026 -5.9898,4.59093 -5.9898,6.45964 0,1.32091 58.4085,95.33962 59.989,96.56283 0.7349,0.56868 1.7124,0.89651 2.1723,0.72857 0.4599,-0.16802 3.3053,-1.12038 6.3231,-2.11639 z M 63.792353,941.13505 c -4.813219,-7.85533 -6.851904,-11.89522 -6.374297,-12.63136 0.386202,-0.59526 14.419375,-9.40621 31.18483,-19.57985 l 30.482644,-18.49752 -0.28576,-10.07991 c -0.15717,-5.54394 -0.52296,-12.47748 -0.81287,-15.40788 -0.45236,-4.57248 -0.76691,-5.36235 -2.21808,-5.56971 -0.93003,-0.1329 -15.35702,3.79936 -32.06,8.73836 -16.702971,4.939 -30.769138,8.98002 -31.258148,8.98002 -1.127672,0 -8.899652,-26.02551 -8.002322,-26.79684 0.36628,-0.31483 16.695575,-5.27553 36.287321,-11.02366 19.591749,-5.74822 36.203609,-10.87702 36.915269,-11.39742 0.90841,-0.66428 1.72988,-4.06866 2.75731,-11.42717 1.75404,-12.56267 1.87003,-16.4952 0.50197,-17.02017 -0.56119,-0.21535 -15.27414,3.81984 -32.695464,8.96709 -17.42131,5.14723 -32.233956,9.35611 -32.916989,9.35294 -0.904795,-0.008 -2.277426,-3.58354 -5.057039,-13.18737 -2.098338,-7.24993 -3.714539,-13.28232 -3.591557,-13.40531 0.325386,-0.32538 85.156599,-25.26819 86.977819,-25.57396 1.26591,-0.21255 1.94457,0.951 3.86505,6.62647 1.28123,3.78636 2.79062,7.34539 3.3542,7.90897 1.3608,1.3608 118.4559,32.05748 120.18841,31.5076 1.45213,-0.46089 2.30659,-2.74012 2.3243,-6.19996 0.0129,-2.53234 7.19577,0.0346 -62.1735,-22.21963 -25.93057,-8.31876 -50.03237,-16.06655 -53.55956,-17.21729 -8.0448,-2.62463 -12.68939,-6.44794 -12.68939,-10.44562 0,-1.47568 0.73159,-4.38977 1.62575,-6.47576 1.74843,-4.07893 2.05633,-6.54733 0.90541,-7.25864 -0.39618,-0.24486 -15.63202,-2.08992 -33.85742,-4.10015 -18.225403,-2.01022 -33.312062,-3.82992 -33.525904,-4.04376 -0.523889,-0.52388 2.31679,-26.73097 2.967219,-27.37448 0.282274,-0.27928 9.840915,0.54944 21.241424,1.8416 38.401491,4.35249 56.488801,6.17012 57.521861,5.78047 0.56505,-0.21312 2.33404,-2.72406 3.93109,-5.57986 1.59706,-2.8558 3.408,-5.19236 4.02432,-5.19236 0.61632,0 4.51711,1.96253 8.6684,4.36118 9.36087,5.40877 105.34338,62.70165 113.44382,67.71571 l 5.91294,3.66001 -2.36723,4.19759 c -1.30197,2.30868 -3.93158,7.78222 -5.84357,12.16342 -2.97824,6.82444 -3.31158,8.12151 -2.3264,9.05245 0.63247,0.59765 14.68296,4.93896 31.22331,9.64737 29.39685,8.3681 33.4122,9.11732 31.49112,5.87568 -0.32956,-0.55609 -13.40191,-12.5793 -29.04967,-26.71824 -15.64776,-14.13893 -29.34733,-27.01385 -30.4435,-28.61092 -1.4415,-2.1002 -15.9506,-12.24928 -52.43015,-36.67476 -27.74041,-18.57405 -51.6457,-34.92384 -53.12285,-36.33286 l -2.68574,-2.56186 -38.23709,-4.20819 c -21.0304,-2.31449 -38.41766,-4.38874 -38.638354,-4.60943 -0.220687,-0.22069 0.274603,-6.55733 1.100651,-14.08141 l 1.501908,-13.68014 2.023698,0.20014 c 1.113037,0.11007 20.474497,2.21337 43.025467,4.67401 22.55097,2.46062 41.96482,4.47386 43.1419,4.47386 1.69663,0 3.6859,-1.75299 9.59942,-8.45919 4.10261,-4.65254 7.4593,-8.88794 7.4593,-9.41198 0,-0.52404 -13.71719,-7.68892 -30.48265,-15.92195 -16.76545,-8.23303 -30.48264,-15.43316 -30.48264,-16.0003 0,-1.9725 11.3107,-24.17779 12.31543,-24.17779 0.55625,0 16.69088,7.68162 35.85472,17.07027 19.16386,9.38866 35.46085,17.06074 36.21553,17.04908 0.75469,-0.0117 5.30804,-3.10268 10.11856,-6.86894 4.81051,-3.76625 9.50451,-7.37873 10.43108,-8.02774 0.9859,-0.69054 1.57262,-1.85402 1.41449,-2.80497 -0.15264,-0.91792 -11.67513,-11.78301 -26.48169,-24.97078 l -26.21148,-23.34582 4.78181,-5.38841 c 2.62999,-2.96362 6.74353,-7.64814 9.1412,-10.41005 2.39766,-2.76192 4.59176,-5.04812 4.87578,-5.08044 0.58514,-0.0666 67.79383,59.63832 68.59747,60.93865 0.28621,0.4631 -0.82287,2.32882 -2.46462,4.14604 -1.70177,1.88365 -2.83309,3.87981 -2.63162,4.64336 0.47024,1.78228 64.55329,104.16034 66.37197,106.03483 1.3641,1.40597 1.56791,1.40511 5.41409,-0.0229 4.72069,-1.75275 5.27161,-3.24756 2.5452,-6.90579 -2.37868,-3.19166 -61.94847,-106.93064 -64.07552,-111.58559 -1.93162,-4.22724 -1.9784,-9.50653 -0.0989,-11.16153 0.78239,-0.68895 3.31704,-2.20185 5.63257,-3.36201 4.69903,-2.35438 5.52662,-3.23687 4.57231,-4.87562 -0.3595,-0.61734 -11.8103,-11.05844 -25.4462,-23.20245 -13.6359,-12.144 -24.79255,-22.40791 -24.79255,-22.80869 0,-1.21791 16.99334,-20.23629 18.133,-20.29385 0.58451,-0.0295 12.43349,10.09704 26.33109,22.50348 37.34874,33.34134 35.9632,32.22223 38.70868,31.26516 3.02188,-1.05344 4.48598,-0.16057 7.12734,4.34656 1.17435,2.00388 12.8466,31.34446 25.93833,65.20128 l 23.80314,61.55787 3.89656,0.25385 c 4.88481,0.31824 7.66221,-0.35185 7.66221,-1.84862 0,-0.63655 -0.71849,-2.37512 -1.59666,-3.8635 -0.87817,-1.48838 -10.99964,-29.58381 -22.49215,-62.43427 -20.85786,-59.62056 -20.89561,-59.74067 -20.9605,-66.69739 l -0.065,-6.96926 -20.13995,-27.77027 c -11.07698,-15.27365 -20.33466,-28.27763 -20.57262,-28.89775 -0.28517,-0.74313 3.10006,-3.69604 9.9306,-8.66237 5.69978,-4.1442 10.93375,-7.66484 11.63103,-7.82365 0.87482,-0.19924 8.64636,9.91545 25.07205,32.63138 19.11674,26.43751 24.15894,32.91601 25.60542,32.89925 0.99064,-0.0115 4.91039,-0.73367 8.71056,-1.60487 10.55235,-2.41916 11.16528,-2.31826 13.14824,2.16457 1.61883,3.65964 26.20833,128.024 27.2163,137.64974 l 0.46823,4.47139 -7.15092,1.47194 c -9.15384,1.88422 -10.10047,2.41329 -10.14172,5.66808 -0.0182,1.43727 1.71014,22.07031 3.84078,45.8512 2.13064,23.78088 3.67554,43.43631 3.43311,43.67874 -0.62907,0.62908 -26.86533,3.06076 -27.38769,2.5384 -0.23856,-0.23857 -2.128,-19.08854 -4.19875,-41.88884 -2.32144,-25.56065 -4.12733,-41.81742 -4.71004,-42.40013 -1.18063,-1.18063 -5.46419,0.35027 -16.81547,6.00971 -4.74406,2.36525 -9.17188,4.02483 -10.73846,4.02483 -1.46618,0 -3.04459,0.45645 -3.50761,1.01435 -0.60658,0.73089 3.22895,12.46373 13.72508,41.98476 8.0118,22.53372 14.6861,41.45241 14.83178,42.04153 0.17013,0.68797 -2.06133,1.9209 -6.23809,3.4467 -13.8041,5.04271 -13.41236,4.8432 -13.41236,6.83063 0,1.68413 -2.40632,4.67009 -13.15315,16.32149 -2.03175,2.2028 -2.18249,2.73222 -1.38869,4.87722 0.75843,2.04949 0.35066,4.2744 -2.75021,15.00575 -3.14209,10.87401 -3.84931,12.56308 -5.16415,12.3336 -0.83792,-0.14623 -17.54617,-4.81008 -37.12945,-10.36409 -19.58325,-5.55402 -36.14438,-10.09821 -36.80248,-10.09821 -1.33775,0 -2.78205,3.16182 -2.78205,6.09043 0,2.35367 -3.1752,4.98769 -7.37612,6.11888 -2.2285,0.60006 -18.19707,0.25817 -56.82382,-1.21654 -29.54835,-1.12818 -56.31994,-2.0512 -59.49241,-2.0512 h -5.76812 l 0.48899,3.04827 c 0.26896,1.67654 0.59147,3.75765 0.71669,4.62466 0.18307,1.26743 -0.64836,1.8444 -4.2431,2.94438 -3.34613,1.02397 -4.47079,1.75206 -4.47079,2.89447 0,1.83831 1.99564,1.85985 83.11601,0.89635 l 53.0398,-0.62997 0.0124,3.88145 c 0.007,2.13484 0.33639,4.39308 0.73233,5.01842 0.60941,0.96252 7.03184,1.04568 41.85038,0.54202 l 41.1305,-0.59502 v 14.29287 14.29294 l -16.05419,0.0675 c -8.82981,0.0374 -29.40559,0.34165 -45.72397,0.67704 -25.37746,0.52154 -29.87086,0.43903 -31.05978,-0.57031 -1.23193,-1.04584 -8.02633,0.18241 -59.74598,10.80053 -32.09579,6.58929 -60.79699,12.25711 -63.78045,12.5951 -5.24099,0.59372 -6.40328,1.20906 -34.36153,18.1922 -15.91537,9.66755 -29.078403,17.57751 -29.251178,17.57751 -0.172775,0 -3.498553,-5.19709 -7.390619,-11.5491 z M 354.9196,791.35767 c 0.54766,-1.42717 -19.56273,-58.04268 -21.1983,-59.67826 -0.97789,-0.97789 -1.68776,-0.77694 -4.99584,1.41424 -8.64295,5.72485 -7.65959,6.54657 -54.82355,-45.8117 -23.24849,-25.80892 -40.95035,-44.80715 -41.87598,-44.94272 -1.25353,-0.18359 -2.1771,0.92846 -4.23212,5.09583 -1.44577,2.93188 -2.62868,5.97462 -2.62868,6.76166 0,0.7961 19.08955,20.87316 43.0273,45.25311 23.66501,24.10218 43.48029,44.66855 44.03394,45.70306 0.86921,1.62412 0.76571,2.13738 -0.75803,3.75933 -0.97057,1.03313 -1.76468,2.46196 -1.76468,3.1752 0,1.35065 42.45729,40.46126 43.92351,40.46126 0.45947,0 1.04106,-0.53595 1.29243,-1.19101 z m 1286.4329,121.90722 c -13.9911,-12.29742 -25.8534,-22.35889 -26.3606,-22.35889 -0.5071,0 -2.0947,1.28027 -3.5281,2.84505 -3.1645,3.45486 -6.5773,3.75529 -11.543,1.01608 -1.8236,-1.00592 -23.7829,-20.81176 -48.7987,-44.01303 l -45.4831,-42.18404 -36.8838,-15.35586 c -20.2861,-8.44573 -37.7068,-15.56522 -38.7128,-15.82109 -1.0059,-0.25587 -1.8289,-0.73006 -1.8289,-1.05376 0,-0.78711 10.1743,-25.12503 10.7397,-25.69045 0.2438,-0.24378 3.6426,0.88111 7.5528,2.49975 5.292,2.19065 7.3433,2.70742 8.0241,2.0215 0.5847,-0.58912 0.9146,-4.78771 0.9146,-11.64051 v -10.71902 l 41.8628,-2.2994 c 46.0811,-2.53111 46.8651,-2.65864 41.6124,-6.76946 -2.1778,-1.70443 -2.5959,-2.50279 -2.2214,-4.24161 0.2538,-1.1781 0.9609,-4.78462 1.5715,-8.01451 1.9007,-10.05603 3.6548,-10.27621 -31.0566,3.89838 -16.6495,6.79898 -30.4776,12.15614 -30.7288,11.90481 -0.2514,-0.25133 -2.7646,-6.06357 -5.5849,-12.91609 -5.0778,-12.33743 -5.1109,-12.46812 -3.3821,-13.38044 0.9602,-0.50674 16.6975,-7.01818 34.9718,-14.46988 18.2744,-7.4517 34.5522,-14.17213 36.1728,-14.93429 l 2.9467,-1.38573 0.2544,-8.93693 c 0.3537,-12.42802 -0.3961,-19.09648 -2.148,-19.10246 -0.7468,-0.002 -15.737,5.87334 -33.3115,13.05753 -17.5744,7.18418 -32.3461,12.9313 -32.826,12.77136 -0.7942,-0.26476 -11.4347,-25.07144 -10.9583,-25.54782 0.1127,-0.11265 15.5278,-6.46389 34.2559,-14.11388 35.5612,-14.5259 38.1944,-15.67786 39.068,-17.0914 0.2938,-0.47531 -0.1272,-4.13583 -0.9355,-8.1345 -1.674,-8.28155 -1.5825,-8.51403 4.2254,-10.74752 5.3305,-2.04987 129.5465,-33.10679 134.5308,-33.63589 l 4.5346,-0.48135 1.4156,6.55184 c 0.7786,3.60351 1.9167,6.96766 2.529,7.47591 0.8427,0.69933 10.0712,-0.14421 37.9449,-3.46835 20.2573,-2.41583 36.9325,-4.32258 37.0561,-4.23722 0.4037,0.27889 3.494,27.41813 3.16,27.75209 -0.1786,0.17874 -16.1937,2.1957 -35.5889,4.48213 -19.3953,2.28643 -35.7213,4.51332 -36.2801,4.94863 -0.5589,0.43532 -1.0161,2.36621 -1.0161,4.29087 0,3.8802 -1.9113,6.0372 -6.757,7.62571 -1.425,0.46716 -29.2938,4.16485 -61.9306,8.21709 -32.6367,4.05224 -59.5829,7.6231 -59.8803,7.93525 -0.2975,0.31215 -0.6633,1.42649 -0.8129,2.47634 -0.2109,1.47912 -1.369,2.35386 -5.145,3.8859 -5.1351,2.08344 -7.6211,3.92971 -6.6283,4.92256 0.3274,0.3273 31.7637,-2.24144 69.8585,-5.70833 38.0949,-3.46689 70.033,-6.28652 70.9737,-6.26584 0.9406,0.0207 2.6182,0.87907 3.728,1.90755 1.7448,1.61708 5.4706,2.45442 27.553,6.19228 43.2694,7.32415 51.1326,8.72884 51.6264,9.22267 0.8174,0.81739 -3.9188,27.42423 -4.8786,27.4068 -0.4899,-0.009 -16.6197,-2.70339 -35.8441,-5.98775 -23.4917,-4.01341 -35.4199,-5.73131 -36.3759,-5.23888 -1.2345,0.63583 -1.4226,2.01596 -1.4226,10.43979 0,9.43367 -0.057,9.74428 -2.0138,11.02662 -1.1076,0.72573 -3.3648,1.62421 -5.0161,1.99664 -1.8816,0.42438 -25.1749,-0.5116 -62.4062,-2.50762 -32.6721,-1.7516 -60.2383,-3.19035 -61.2583,-3.1972 -1.0199,-0.007 -2.0514,0.50064 -2.292,1.12776 -0.627,1.63385 2.852,9.29756 4.4383,9.7768 0.7337,0.22165 24.013,2.42189 51.7319,4.88944 27.7189,2.46755 51.9104,4.69193 53.7588,4.94305 4.2117,0.57217 5.5941,-0.6634 6.3451,-5.67114 0.3049,-2.034 0.7506,-3.69819 0.9903,-3.69819 0.5908,0 86.2968,14.53083 88.9661,15.08356 l 2.118,0.43856 -2.3307,13.5186 c -1.2819,7.43522 -2.4888,13.67671 -2.6821,13.86997 -0.1933,0.19326 -15.6699,-2.24964 -34.3925,-5.42868 -33.6688,-5.71684 -38.7426,-6.37826 -39.502,-5.14949 -0.2144,0.34682 -1.5664,7.14213 -3.0046,15.10069 -2.2227,12.29945 -2.4458,14.62808 -1.4873,15.52323 0.6203,0.57923 16.1252,7.72034 34.4554,15.86914 18.3303,8.14879 33.4716,14.95401 33.6474,15.12269 0.1758,0.16868 -2.2018,5.98781 -5.2836,12.93138 -4.8617,10.95361 -5.8186,12.57425 -7.2291,12.24364 -0.8942,-0.20957 -15.1383,-6.43081 -31.6536,-13.82499 -16.5154,-7.39417 -30.8443,-13.44394 -31.8422,-13.44394 -1.3833,0 -2.043,0.72398 -2.7772,3.04827 -0.5298,1.67654 -2.9623,7.89636 -5.4058,13.82182 -2.4435,5.92546 -4.3229,11.39539 -4.1765,12.15539 0.1556,0.80857 12.5662,9.04791 29.9147,19.86031 16.3066,10.16323 29.7757,18.85997 29.9311,19.32623 0.1554,0.46627 -2.9242,5.98891 -6.8435,12.27264 -4.9579,7.94874 -7.4779,11.28996 -8.2824,10.98123 -3.4807,-1.33563 -78.1957,-48.72386 -78.1957,-49.59583 0,-0.5721 -22.7112,-13.42762 -50.4694,-28.56776 -27.7613,-15.1419 -52.083,-28.93014 -54.0559,-30.64488 -2.6753,-2.3253 -3.5865,-3.7072 -3.5865,-5.4389 0,-1.27686 -0.353,-2.53971 -0.7844,-2.80634 -0.8288,-0.51224 -44.6177,1.74329 -47.8386,2.46413 -4.6128,1.03232 -1.2763,3.14566 16.8574,10.67753 10.0226,4.16291 18.8489,7.56894 19.6141,7.56894 0.7652,0 2.3807,-1.29733 3.5902,-2.88297 l 2.199,-2.88297 4.6037,2.59419 c 6.2163,3.50294 121.4885,73.84742 122.2958,74.63062 0.3514,0.34092 -1.5882,4.01152 -4.3102,8.15683 -2.7221,4.14539 -4.8385,8.09229 -4.7032,8.77095 0.1353,0.67859 11.9512,11.53106 26.2577,24.11657 14.3066,12.58551 26.0119,23.29808 26.0119,23.8058 0,1.12973 -16.5665,20.08562 -17.8081,20.37671 -0.4884,0.11446 -12.3352,-9.85337 -26.3264,-22.15072 z m 17.7672,-147.11665 c 2.5087,-5.53291 2.8749,-7.34298 1.6401,-8.10616 -1.2701,-0.78499 -109.802,-29.71017 -111.4772,-29.71017 -1.3695,0 -1.5771,0.5878 -1.5771,4.4639 0,3.4348 0.3407,4.67669 1.4779,5.38691 2.3549,1.47064 102.7306,33.09973 105.2623,33.16888 2.0444,0.0558 2.539,-0.49477 4.674,-5.20336 z m -1201.02284,5.06259 c -0.17109,-0.55885 -2.02858,-20.76884 -4.12775,-44.91109 -3.7841,-43.52038 -3.83713,-43.93577 -6.21409,-48.67193 -2.18264,-4.34897 -3.2559,-10.17488 -11.97985,-65.02964 l -9.58241,-60.25271 -6.11227,-8.1287 c -9.44293,-12.55815 -49.43325,-67.91925 -49.63692,-68.71549 -0.26232,-1.02551 22.3462,-17.2127 22.9859,-16.45738 0.29547,0.34889 11.25707,15.44891 24.3591,33.55559 29.5367,40.81902 27.46486,38.05453 29.12004,38.85535 0.76421,0.36974 6.51056,0.2832 12.76966,-0.1923 10.78037,-0.819 11.39355,-0.95842 11.6336,-2.64514 0.14465,-1.01631 -6.24856,-15.9758 -14.89493,-34.85273 -8.3316,-18.1897 -14.84698,-33.36237 -14.47865,-33.71706 0.78717,-0.758 23.74246,-11.34312 24.59912,-11.34312 0.32093,0 8.74195,17.83235 18.71335,39.62743 9.9714,21.79509 18.72187,40.22494 19.44548,40.95522 1.91032,1.92794 23.54561,3.59017 25.21361,1.93715 0.9742,-0.96545 0.12251,-6.46082 -5.93032,-38.26415 -3.88733,-20.42523 -6.95978,-37.22608 -6.82766,-37.33524 0.85331,-0.70497 27.08358,-5.17453 27.4903,-4.68427 0.27784,0.33491 4.28621,20.66992 8.9075,45.18893 9.03284,47.92523 8.86545,46.01366 4.03165,46.04259 -4.54158,0.0272 -4.10408,-2.0919 -13.83043,66.98942 -8.80639,62.54732 -9.08837,64.98545 -7.63835,66.04572 0.82808,0.60551 2.35016,1.10092 3.38241,1.10092 1.51594,0 1.86854,0.42982 1.83379,2.2354 -0.12801,6.65227 -5.37748,89.61068 -5.68671,89.86811 -0.46264,0.38514 -27.06652,-1.13877 -27.54364,-1.57775 -0.19365,-0.17818 0.64984,-17.60159 1.87446,-38.71868 2.59362,-44.72408 2.64306,-45.88045 1.98978,-46.53373 -0.27275,-0.27276 -2.63774,-0.7069 -5.2555,-0.96476 -6.22458,-0.61314 -8.67652,-1.93764 -10.54329,-5.6953 -1.79584,-3.61489 -1.80301,0.006 0.16114,-81.4009 0.83692,-34.68706 1.03708,-55.02733 0.54635,-55.51806 -1.10923,-1.10923 -13.3993,4.45213 -14.02305,6.34555 -0.27077,0.82193 -0.18302,30.39196 0.19501,65.71118 0.37801,35.31922 0.47848,65.36834 0.22324,66.77582 -0.33516,1.84827 -1.02258,2.69924 -2.47493,3.06375 -1.67874,0.42134 -2.01087,0.99364 -2.01087,3.46497 0,1.62816 1.67386,21.4035 3.71968,43.94522 2.04582,22.54171 3.54752,41.43354 3.33712,41.98185 -0.25173,0.65601 -4.37295,1.33221 -12.0516,1.97739 -14.39528,1.20956 -15.30219,1.20623 -15.68907,-0.0575 z M 1459.5117,615.81474 c -4.348,-5.9996 -7.9562,-11.16314 -8.0184,-11.47452 -0.062,-0.3114 15.0674,-11.63069 33.6211,-25.15399 l 33.7342,-24.58782 v -4.37795 -4.37796 l 4.8772,-2.56491 c 4.5303,-2.38249 117.2542,-48.35546 124.9652,-50.96546 1.9076,-0.64567 4.3681,-1.30239 5.4678,-1.45938 2.0972,-0.29941 2.3535,0.22436 9.3062,19.02023 0.8366,2.26161 1.9347,3.86114 2.6508,3.86114 0.6723,0 16.4626,-4.9835 35.0894,-11.07444 18.6268,-6.09093 34.1955,-11.12057 34.597,-11.17697 1.0734,-0.15073 9.3948,26.24208 8.4566,26.82185 -0.4305,0.26614 -16.208,5.53471 -35.061,11.70794 -18.8529,6.17324 -37.3873,12.34253 -41.1875,13.70954 -10.5833,3.80702 -128.2791,36.66745 -131.3314,36.66745 -1.4775,0 -3.652,0.36713 -4.8322,0.81583 -1.1802,0.4487 -15.9733,10.87376 -32.8736,23.16681 -16.9004,12.29304 -30.9143,22.35098 -31.142,22.35098 -0.2278,0 -3.9715,-4.90877 -8.3194,-10.90837 z m -13.7398,-42.43461 c -9.2089,-8.44049 -10.1963,-9.60226 -9.2592,-10.89482 0.5768,-0.79578 14.5464,-16.09495 31.0433,-33.99817 23.0302,-24.99328 30.4909,-32.60834 32.1324,-32.79695 1.1757,-0.13512 25.2633,-13.39059 53.5278,-29.45662 42.0236,-23.88686 51.3887,-29.51682 51.3822,-30.88908 -0.011,-2.49895 -3.6709,-9.8914 -5.1832,-10.47175 -0.865,-0.33192 -18.2377,9.6899 -50.6958,29.24496 -27.1589,16.36246 -50.8429,30.42629 -52.6312,31.25295 -1.7883,0.82668 -4.5318,1.50346 -6.0966,1.50398 -2.603,8.1e-4 -3.1393,-0.44697 -6.3049,-5.26581 -1.903,-2.89671 -3.803,-5.26674 -4.2223,-5.26674 -1.2476,0 -3.6593,2.49977 -28.0585,29.08249 l -23.336,25.42459 -7.2935,-6.72857 c -4.0115,-3.7007 -8.5515,-7.76997 -10.0891,-9.04279 -1.5376,-1.27283 -2.7956,-2.7727 -2.7956,-3.33304 0,-1.02497 60.4504,-67.27493 61.8496,-67.7833 0.412,-0.14974 1.8706,0.67143 3.2414,1.82482 2.1823,1.83631 2.7256,1.97123 4.3694,1.08511 1.0324,-0.55658 22.4054,-15.98919 47.4954,-34.29471 31.5985,-23.05399 45.6183,-33.74087 45.6183,-34.77339 0,-0.81985 -1.1026,-3.67496 -2.4503,-6.34468 -1.7033,-3.37423 -2.9224,-4.85404 -3.999,-4.85404 -1.3544,0 -86.7157,66.35875 -93.1273,72.3959 -2.8944,2.72536 -8.9269,5.59677 -11.8108,5.62181 -1.614,0.014 -3.4457,-1.6499 -8.5166,-7.73675 -4.7813,-5.73917 -6.8877,-7.69338 -8.1046,-7.51905 -1.2452,0.17838 -6.0827,8.26822 -19.9338,33.33583 -10.0593,18.20516 -18.556,33.11117 -18.8815,33.12447 -0.3256,0.0133 -5.9259,-2.94706 -12.445,-6.57857 -9.2983,-5.17965 -11.7437,-6.88785 -11.3458,-7.92549 0.279,-0.7275 7.4909,-13.94254 16.0266,-29.36676 25.4754,-46.03461 25.2442,-45.58972 24.4874,-47.12573 -0.3778,-0.76641 -4.4681,-4.94669 -9.0896,-9.28949 -5.7307,-5.38495 -8.9093,-7.81636 -9.9952,-7.64556 -1.1666,0.18351 -6.2783,8.7237 -19.125,31.9524 -9.6431,17.43607 -17.6554,31.83612 -17.8052,32.0001 -0.2307,0.25258 -20.4734,-10.62288 -23.8303,-12.80286 -0.8829,-0.57343 2.6111,-7.47894 16.3521,-32.31719 20.4969,-37.05017 21.1744,-38.34919 20.6768,-39.64592 -0.5434,-1.41593 -20.0364,-15.92168 -21.3959,-15.92168 -0.6229,0 -1.4796,0.82303 -1.9039,1.82896 -0.4242,1.00592 -4.6656,16.64352 -9.4254,34.75021 -4.7596,18.10669 -8.7583,33.03778 -8.8859,33.1802 -0.333,0.37187 -25.8752,-6.4578 -26.6104,-7.11531 -0.3375,-0.30183 3.7891,-17.17221 9.1703,-37.48973 5.3813,-20.31752 9.9987,-38.44825 10.261,-40.2905 0.4608,-3.23611 0.3567,-3.43139 -3.0738,-5.76607 -6.2691,-4.26651 -17.7874,-10.79971 -19.0404,-10.79971 -1.6563,0 -1.53,-0.40782 -10.9572,35.35987 -4.5957,17.43607 -8.6515,32.0369 -9.013,32.44629 -0.3892,0.44085 -4.7287,-0.32633 -10.6427,-1.88154 -5.4921,-1.44425 -11.3573,-2.98213 -13.0338,-3.41752 -1.9169,-0.49778 -3.0483,-1.27265 -3.0483,-2.08761 0,-0.71281 4.2066,-17.16577 9.348,-36.56214 5.1414,-19.39637 9.348,-36.17135 9.348,-37.27774 0,-1.75683 -1.2355,-2.63094 -9.7544,-6.90137 -5.365,-2.68936 -9.7455,-5.16128 -9.7346,-5.49314 0.1195,-3.63061 5.6522,-16.51227 29.3769,-68.39901 27.0323,-59.12063 30.7294,-66.73443 32.4049,-66.73443 0.4488,0 4.3384,1.64606 8.6436,3.65791 4.3053,2.01186 8.2838,3.65792 8.8413,3.65792 0.5575,0 9.5238,-14.26588 19.9252,-31.70195 10.4014,-17.43607 19.311,-31.69721 19.7991,-31.69141 1.5367,0.0182 23.656,13.59682 23.4841,14.4164 -0.09,0.42949 -5.4107,9.52172 -11.8238,20.20492 -25.9986,43.31023 -26.9133,44.96756 -27.5098,49.84135 -0.4823,3.94196 -4.2404,11.29335 -28.6914,56.12556 -15.475,28.37421 -28.1364,52.09099 -28.1364,52.70397 0,0.61299 1.1172,1.53618 2.4825,2.05155 1.9338,0.72991 2.3805,1.29827 2.0212,2.57122 -0.2537,0.8988 -0.6941,3.22619 -0.9786,5.17196 -1.2593,8.61189 2.3465,3.02456 33.9401,-52.59141 34.5053,-60.74196 36.1625,-63.52892 37.7743,-63.52892 0.6044,0 2.9931,1.11692 5.3084,2.48204 2.3153,1.36513 5.0339,2.37106 6.0415,2.2354 1.2872,-0.1733 8.9015,-8.82869 25.603,-29.10355 13.0741,-15.8713 24.0399,-28.96257 24.3684,-29.09172 0.4495,-0.17666 16.2652,12.32462 21.4208,16.93174 0.3802,0.33969 -9.7706,13.301 -22.5572,28.80292 -12.7865,15.50191 -23.2482,28.66509 -23.2482,29.2515 0,0.58642 0.5464,2.11395 1.2142,3.39452 1.3583,2.60439 1.5942,7.34861 0.5072,10.20088 -0.3944,1.03504 -15.7793,24.31637 -34.1885,51.7363 -22.7389,33.8689 -33.3906,50.40766 -33.2201,51.57981 0.3513,2.41422 9.0021,4.81609 10.7318,2.97968 0.6109,-0.64865 16.6758,-23.49266 35.6996,-50.76446 19.0239,-27.27181 35.6488,-50.83847 36.9442,-52.37038 2.2938,-2.71253 2.4061,-2.74969 4.3009,-1.42252 1.0701,0.74951 2.6941,1.36275 3.6087,1.36275 1.1974,0 8.2449,-7.98916 25.1718,-28.53492 12.9297,-15.69421 23.969,-28.71159 24.5317,-28.92751 1.1233,-0.43103 21.4358,15.89694 21.4207,17.2187 -0.01,0.45074 -10.426,13.43933 -23.1574,28.86355 -12.7315,15.42421 -23.1523,28.72297 -23.1575,29.55278 -0.01,0.82981 0.9124,2.23383 2.0391,3.12004 1.1266,0.8862 2.5898,2.65819 3.2515,3.93776 1.2459,2.40952 1.6111,8.52636 0.6574,11.01178 -0.4102,1.06915 -71.0117,87.49773 -78.1698,95.69364 -0.9592,1.09823 -1.0673,1.81789 -0.4274,2.84504 0.934,1.49906 6.6219,4.99798 8.1599,5.01949 0.5258,0.007 18.5411,-20.50014 40.0338,-45.57222 29.9342,-34.91917 39.0872,-46.09346 39.1181,-47.75614 0.032,-1.75234 1.3247,-3.12871 6.7062,-7.14341 3.6662,-2.73509 19.8235,-14.95172 35.905,-27.1481 16.0814,-12.19637 29.6637,-22.2126 30.1828,-22.25828 0.5192,-0.0457 4.6905,4.79686 9.2695,10.76122 6.9341,9.03168 8.1391,11.01601 7.2091,11.87155 -0.614,0.56499 -13.8277,10.64345 -29.3637,22.3966 -21.4234,16.20701 -28.2472,21.78306 -28.2468,23.08188 2e-4,1.04112 1.5595,3.05529 3.9773,5.13745 6.9867,6.01666 9.0821,13.55639 5.3505,19.25152 -0.6608,1.00859 -21.7769,22.10731 -46.9245,46.88604 -29.6745,29.23922 -45.723,45.6138 -45.723,46.65213 0,1.68972 5.3369,5.27154 7.8913,5.29615 1.7332,0.0167 89.2468,-82.56714 89.2468,-84.21943 0,-0.66267 -0.8983,-2.52682 -1.9963,-4.14256 -1.0978,-1.61574 -1.8336,-3.20077 -1.6349,-3.52229 0.8007,-1.29548 72.0268,-54.82546 72.9499,-54.82546 0.9922,0 16.8455,20.33772 16.8455,21.61058 0,0.36897 -12.9713,10.47209 -28.825,22.45138 -18.0393,13.63065 -28.837,22.307 -28.8569,23.18751 -0.018,0.77384 3.1818,5.16334 7.1097,9.75445 3.9279,4.59111 8.1845,9.72795 9.4593,11.41519 1.7739,2.3479 2.7003,2.9463 3.9479,2.55031 0.8966,-0.28457 16.6105,-7.60915 34.9197,-16.27686 18.3093,-8.6677 33.6139,-15.75946 34.0104,-15.75946 0.7525,0 11.1054,21.1111 11.7537,23.96759 0.3276,1.44333 -3.3107,3.37548 -30.6363,16.2695 -17.0544,8.04742 -31.3476,15.18035 -31.7626,15.85097 -1.0187,1.64619 15.1089,26.01186 17.2172,26.01186 0.7872,0 15.7229,-6.76715 33.1904,-15.03811 17.4675,-8.27095 31.9619,-15.0381 32.2097,-15.0381 0.5453,0 10.9371,21.63327 11.5337,24.01028 0.3784,1.50785 -2.7559,3.17954 -30.5042,16.2695 -17.0093,8.02393 -31.0988,15.03707 -31.3101,15.58475 -0.3986,1.03356 12.9088,27.48126 14.2421,28.30528 0.4157,0.25691 15.9001,-4.49322 34.4099,-10.55584 18.5098,-6.06262 33.9722,-11.02295 34.3609,-11.02295 0.8385,0 9.5549,25.93164 8.9272,26.55924 -0.393,0.39309 -86.347,28.71595 -87.1469,28.71595 -0.1897,0 -0.8797,-1.28027 -1.5336,-2.84504 -0.6538,-1.56478 -1.6646,-2.84837 -2.2463,-2.85243 -0.5816,-0.004 -25.0961,10.44618 -54.4767,23.22275 -58.3318,25.36647 -60.8634,26.24177 -63.6403,22.00365 -0.7701,-1.17528 -2.0333,-2.13689 -2.8074,-2.13689 -0.8083,0 -12.0565,11.58843 -26.4317,27.23116 -13.7634,14.97714 -25.1077,27.23116 -25.2095,27.23116 -0.1017,0 -4.8237,-4.25159 -10.4932,-9.44797 z M 145.92499,506.01185 c 21.24983,-38.83286 56.87928,-90.43507 78.85667,-114.2083 10.10131,-10.92672 22.09073,-24.87513 38.07467,-44.29577 11.48538,-13.95486 14.30553,-18.29525 11.88724,-18.29525 -0.45075,0 -5.11459,1.80231 -10.3641,4.00514 -11.21574,4.70641 -23.86779,8.58159 -33.51665,10.26579 -9.06795,1.5828 -26.01677,2.23986 -36.18033,1.40263 l -8.12871,-0.66961 11.52712,-1.00776 c 28.76824,-2.51509 44.77663,-8.06946 72.60498,-25.19144 l 11.78662,-7.25198 -0.14388,-5.03855 c -0.10448,-3.65883 -0.79973,-6.44006 -2.53893,-10.15666 -2.66857,-5.70261 -5.48266,-8.14091 -10.25417,-8.88486 -1.96865,-0.30694 -4.15373,-1.43752 -5.72879,-2.96413 -1.40044,-1.35736 -2.85052,-2.46793 -3.22238,-2.46793 -0.37188,0 -6.10055,2.01186 -12.73038,4.47079 -6.62983,2.45893 -12.52288,4.47079 -13.09567,4.47079 -0.57278,0 4.05306,-4.86145 10.27965,-10.80321 8.36168,-7.9792 11.18541,-11.15677 10.80208,-12.15572 -0.48578,-1.26591 -14.71374,-6.23785 -25.20184,-8.80674 -2.13123,-0.52201 -4.03464,-1.2075 -4.22982,-1.5233 -0.36117,-0.58438 18.39035,-3.2902 22.80121,-3.2902 3.39327,0 5.75398,-1.92234 6.36582,-5.18374 0.36616,-1.95177 1.58488,-3.65547 4.07389,-5.69501 2.80534,-2.29879 3.75228,-3.74739 4.50752,-6.89556 1.09609,-4.56901 0.16446,-11.45004 -2.20652,-16.29738 -1.3505,-2.76101 -1.69245,-2.94339 -6.51649,-3.47548 -20.7664,-2.29057 -42.36765,-2.21068 -55.78123,0.2063 -6.65457,1.19908 -20.69401,5.78084 -31.19618,10.18086 -4.70858,1.97272 -8.78136,3.58029 -9.05063,3.57238 -0.96458,-0.0284 11.06442,-6.7922 20.23862,-11.38009 17.78191,-8.8925 31.80128,-12.34937 57.9291,-14.2841 3.91857,-0.29017 7.29043,-0.79576 7.49301,-1.12354 0.20258,-0.32779 -0.0772,-1.15349 -0.62172,-1.8349 -1.34307,-1.68067 -49.8593,-22.49673 -70.49048,-30.24418 -32.05894,-12.03882 -79.157315,-37.2747 -121.365951,-65.02935 -5.228412,-3.43799 -9.506202,-6.452862 -9.506202,-6.699731 0,-0.24686 0.823031,0.08704 1.828959,0.742001 6.565742,4.27495 35.485169,19.72639 55.071977,29.42455 36.560887,18.10266 51.644407,24.24888 86.977147,35.4414 8.71803,2.76166 31.76291,10.787 51.21084,17.8341 42.12976,15.26603 45.73989,16.47601 48.14158,16.13522 1.14565,-0.16257 1.94223,-0.90834 2.09234,-1.95889 0.18722,-1.31033 -2.31016,-3.83011 -10.97375,-11.07225 -12.34133,-10.31645 -18.45186,-16.43287 -26.21573,-26.241 -5.70966,-7.21304 -14.8136,-20.58254 -18.27179,-26.83287 l -2.24873,-4.06436 2.20375,2.43862 c 1.21207,1.34123 6.01272,6.72924 10.66812,11.97334 14.71419,16.57488 21.65936,22.20712 47.84723,38.80209 14.65497,9.2867 12.43176,8.82097 26.82473,5.61932 6.70553,-1.49162 10.76157,-1.81907 23.1668,-1.87032 13.81589,-0.0571 15.35016,0.082 18.87756,1.71154 4.61783,2.13324 6.43555,4.8553 9.12904,13.67088 3.01419,9.86521 15.70119,60.27487 16.60848,65.99092 1.12163,7.06657 -0.0485,14.03093 -3.54632,21.10848 -5.41793,10.96242 -14.95283,16.83792 -35.82429,22.07527 l -12.15386,3.04982 -10.40545,17.35359 c -14.14845,23.59594 -19.1948,35.78585 -25.43743,61.44648 l -2.76853,11.38018 0.47397,-6.9094 c 1.84237,-26.85737 6.55035,-46.58549 16.48882,-69.09398 5.18644,-11.74622 5.31974,-13.63343 0.92042,-13.0318 -1.81024,0.24756 -3.05418,1.5007 -28.67051,28.88277 -12.9657,13.85944 -34.4293,36.17273 -47.69687,49.5851 -13.26758,13.41236 -28.25084,29.38899 -33.29614,35.50362 -16.5295,20.03287 -37.99679,49.02025 -52.86869,71.38884 -8.04574,12.10148 -9.52776,13.80275 -5.31082,6.09653 z M 1229.4695,360.30665 c -3.5751,-0.15436 -6.7871,-0.56762 -7.1378,-0.91836 -0.3508,-0.35075 0.3041,-15.91101 1.4552,-34.57836 1.1511,-18.66735 1.9855,-36.3735 1.8542,-39.34702 l -0.2388,-5.40638 -8.3319,-3.18048 c -8.0991,-3.09157 -8.3317,-3.25094 -8.3223,-5.70142 0.016,-4.22693 1.4917,-8.59148 23.7988,-70.39563 21.8114,-60.43078 24.2657,-66.94088 25.5317,-67.72329 0.3863,-0.23877 5.8121,1.50337 12.0571,3.87144 7.6918,2.91663 11.7813,4.08476 12.677,3.62109 0.7272,-0.37646 9.8422,-14.9771 20.2555,-32.44586 13.9333,-23.373854 19.2488,-31.640256 20.1285,-31.302671 2.8961,1.111306 22.2848,12.954283 22.6144,13.813251 0.2012,0.524147 -10.6751,19.39892 -24.1696,41.94394 l -24.5352,40.99094 -20.6961,47.14648 -20.696,47.14649 -0.7086,10.97375 c -1.5074,23.34305 -4.8108,78.4235 -4.8108,80.21521 0,1.83989 -0.169,1.88082 -7.1126,1.72112 -3.9119,-0.09 -10.0376,-0.28988 -13.6127,-0.44424 z M 495.92341,325.34556 c -23.69143,-42.32092 -29.63639,-52.6718 -31.39345,-54.6597 -0.9879,-1.1177 -2.37276,-2.94666 -3.07747,-4.06436 -1.53852,-2.44012 -23.31528,-98.72922 -23.31528,-103.09183 0,-1.67774 0.73158,-4.4854 1.62574,-6.23924 0.89415,-1.75384 1.62574,-4.32261 1.62574,-5.70838 0,-1.38576 -2.37765,-19.11843 -5.28366,-39.40593 -2.90601,-20.287498 -5.28366,-37.29074 -5.28366,-37.784985 0,-0.975616 26.58508,-4.994884 27.43257,-4.147395 0.27072,0.270717 2.80152,16.632877 5.62401,36.36036 2.82248,19.72748 5.54609,36.36735 6.05247,36.97749 0.50637,0.61014 1.9973,1.10935 3.31319,1.10935 4.01795,0 9.07121,3.463 10.51629,7.20682 1.48083,3.83647 23.47122,102.90622 23.46826,105.72784 -0.004,3.73139 -2.50569,7.79963 -6.10085,9.92083 -1.56073,0.92085 -2.83769,2.19149 -2.83769,2.82365 0,0.63216 7.47688,14.43055 16.61529,30.66309 9.1384,16.23254 16.72858,29.99972 16.86706,30.59374 0.15265,0.6548 -4.38879,3.73401 -11.53484,7.82092 -6.48265,3.7075 -11.96952,6.75944 -12.19306,6.78211 -0.22354,0.0227 -5.67784,-9.37532 -12.12066,-20.88438 z m 684.36459,12.60338 c -6.9297,-0.42241 -12.7583,-0.92118 -12.9522,-1.10835 -0.2915,-0.28119 2.1527,-45.21692 3.6868,-67.78048 0.2279,-3.35309 0.092,-6.56396 -0.3025,-7.13527 -0.3943,-0.57132 -3.4325,-1.801 -6.7515,-2.73263 -8.126,-2.28093 -8.3623,-2.52529 -7.7221,-7.98734 0.29,-2.47428 7.4831,-30.06633 15.9848,-61.31566 8.5016,-31.24933 15.3469,-57.69619 15.2118,-58.77079 -0.1893,-1.50542 -1.3358,-2.44548 -4.9956,-4.09626 -3.4297,-1.54697 -5.1029,-1.9198 -6.0199,-1.34138 -0.8575,0.5409 -5.7155,18.21306 -14.9569,54.41028 -7.5278,29.48506 -14.618,56.90132 -15.7559,60.92502 l -2.069,7.31584 4.8466,35.76071 c 2.6656,19.6684 4.7512,35.85601 4.6348,35.97247 -0.3689,0.36891 -23.4424,3.45733 -25.8295,3.45733 -1.2567,0 -2.2849,-0.37768 -2.2849,-0.83929 0,-1.97691 -9.8376,-73.21559 -10.264,-74.32696 -0.2588,-0.67426 -1.9875,-1.60185 -3.8416,-2.06131 -9.0501,-2.2427 -8.2225,-1.589 -8.4915,-6.70707 -0.1752,-3.33336 2.8494,-20.97882 10.826,-63.15826 6.0881,-32.1929 10.9528,-59.5454 10.8104,-60.78333 -0.209,-1.81934 -0.8818,-2.45451 -3.5101,-3.31364 -1.7883,-0.58457 -4.5209,-1.13326 -6.0724,-1.21931 -2.6759,-0.1484 -2.8555,0.0108 -3.492,3.09504 -0.369,1.78831 -5.1746,29.27405 -10.679,61.07942 -7.6941,44.45762 -10.4481,58.73703 -11.9113,61.75978 -1.0469,2.16252 -1.8369,4.85459 -1.7556,5.98239 0.081,1.1278 2.0444,16.22472 4.3625,33.54872 2.3179,17.32399 4.0559,31.65671 3.8621,31.8505 -0.6176,0.61757 -26.8245,3.90406 -27.3044,3.42413 -0.2532,-0.25326 -2.599,-16.29522 -5.2127,-35.64881 -2.6137,-19.35359 -4.9476,-35.99536 -5.1865,-36.9817 -0.4136,-1.70855 -1.559,-2.14429 -7.7369,-2.94341 -3.1891,-0.41252 -2.9538,-4.46747 3.9793,-68.5656 4.0772,-37.69458 6.4366,-62.51714 5.9854,-62.96837 -0.4097,-0.40967 -3.0139,-1.16682 -5.7871,-1.68256 -4.2024,-0.78152 -5.2233,-0.74377 -6.1296,0.22668 -0.766,0.82013 -2.8125,19.18009 -6.9223,62.10004 -6.1414,64.13776 -6.4745,66.30779 -10.5672,68.86375 -0.9312,0.58155 -1.6931,1.7239 -1.6931,2.53856 0,0.81466 4.2488,15.92583 9.4417,33.58039 5.1929,17.65455 9.308,32.19711 9.1447,32.31679 -1.2211,0.89497 -26.4072,7.64049 -26.8347,7.18706 -0.3001,-0.31837 -5.367,-17.01043 -11.2596,-37.09348 -5.8927,-20.08304 -11.02059,-37.32103 -11.39533,-38.30665 -0.45293,-1.1914 -1.63931,-1.97175 -3.53948,-2.32823 -2.67394,-0.50163 -2.89585,-0.7833 -3.44267,-4.36905 -0.33132,-2.173 0.77938,-30.48249 2.56493,-65.37138 1.73215,-33.84619 2.88789,-61.80006 2.56819,-62.11971 -0.31962,-0.319648 -2.8661,-1.052906 -5.65872,-1.629451 -4.16856,-0.860602 -5.26846,-0.858033 -6.14392,0.01439 -0.81059,0.807823 -1.71589,15.858231 -3.77505,62.761541 -1.90651,43.42621 -3.03518,62.66186 -3.8109,64.95038 -0.82742,2.44084 -1.86212,3.62284 -4.15044,4.74096 -1.67654,0.8192 -3.04826,1.99138 -3.04826,2.60484 0,0.61347 4.21083,15.47655 9.35752,33.02908 5.14661,17.55253 9.24429,32.25322 9.10594,32.66819 -0.13827,0.41497 -6.17627,2.48949 -13.41773,4.61002 l -13.16623,3.85554 -1.52811,-4.98802 c -0.84051,-2.7434 -5.85226,-19.76341 -11.13722,-37.82225 -6.05849,-20.70188 -10.28826,-33.76748 -11.44733,-35.35986 -5.14279,-7.06573 -4.76424,-1.12571 -4.44323,-69.71004 0.28174,-60.19616 0.24012,-62.333725 -1.22809,-63.090296 -0.83587,-0.430716 -3.10459,-0.984922 -5.04158,-1.23158 -1.93699,-0.246649 -3.66572,-0.592347 -3.84155,-0.768203 -0.1759,-0.175856 0.21216,-4.321764 0.86221,-9.213139 6.42176,-48.316992 10.99969,-81.9440044 11.18039,-82.1247117 0.12079,-0.1207957 6.25032,0.577791 13.62119,1.552415 12.15639,1.6073987 13.4235,1.9253136 13.63777,3.4216625 0.12998,0.9072902 -1.78872,16.7837702 -4.26383,35.2810672 -3.05965,22.866525 -4.23977,33.945123 -3.68678,34.611423 0.49854,0.600721 4.64971,1.204371 10.72632,1.559806 10.4136,0.60911 11.88872,1.022601 15.43235,4.325685 1.2028,1.121143 2.70539,1.839477 3.3391,1.59629 1.40741,-0.540071 0.92733,1.87248 8.36582,-42.038285 3.37025,-19.895004 6.25919,-36.5870506 6.41997,-37.0934366 0.20566,-0.6480332 4.33605,-0.2135328 13.94685,1.4671483 7.5099,1.3133174 13.7458,2.4790773 13.8572,2.5905763 0.1116,0.1115 -2.3584,15.180327 -5.4889,33.486281 -3.1303,18.305954 -5.5888,34.380929 -5.4632,35.722165 0.2675,2.85676 1.1505,3.099703 15.7672,4.33794 6.2241,0.527277 9.7172,1.211957 11.2256,2.200327 1.8766,1.22958 2.3463,1.271548 3.2826,0.293348 0.6485,-0.677519 3.6584,-16.340679 7.4047,-38.533562 3.4717,-20.565622 6.5245,-37.637431 6.7842,-37.937354 0.4477,-0.5173312 26.6384,3.680479 27.34,4.382019 0.183,0.183078 -2.4351,16.568999 -5.818,36.413161 -5.3875,31.60341 -5.999,36.191291 -4.9274,36.974866 1.7631,1.289123 29.6568,4.956201 30.5236,4.012784 0.3856,-0.41984 5.5373,-17.223969 11.4482,-37.342512 5.9109,-20.118544 10.8201,-36.656364 10.9094,-36.750712 0.2315,-0.244774 25.1034,7.131413 26.1994,7.769911 0.6202,0.361285 -2.2948,11.410305 -9.1448,34.662419 -8.6576,29.388433 -10.8446,37.782361 -9.8519,37.813282 0.1118,0.0033 6.5718,1.43266 14.3556,3.175955 7.7838,1.7433 14.5823,3.00464 15.1078,2.80298 1.2241,-0.46974 1.3351,-0.70422 17.5615,-37.081569 7.5292,-16.879427 14.1574,-31.582426 14.7294,-32.673331 l 1.04,-1.983464 12.5995,5.618739 c 7.2058,3.213434 12.5609,6.065121 12.5094,6.661477 -0.05,0.573506 -6.5998,15.603988 -14.5559,33.40107 -12.4787,27.913378 -14.3077,32.516478 -13.3146,33.509618 1.5562,1.5562 23.1137,7.98132 27.0062,8.0491 l 3.1099,0.0541 15.1323,-33.937337 c 8.3229,-18.665538 15.5194,-33.943271 15.9925,-33.950519 1.6011,-0.02452 24.8399,10.816976 24.8399,11.588428 0,0.833104 -36.3828,82.792288 -37.0479,83.457338 -0.2234,0.22344 -1.5695,-0.0328 -2.9915,-0.56959 -2.0726,-0.78231 -2.799,-0.76216 -3.6628,0.10162 -0.5926,0.59259 -9.3222,25.0076 -19.3991,54.25557 l -18.3217,53.17811 -2.6976,42.26927 c -1.4836,23.24809 -2.7333,42.36071 -2.777,42.47248 -0.044,0.11177 -0.5368,0.14696 -1.0956,0.0782 -0.5589,-0.0688 -6.6859,-0.47061 -13.6156,-0.89303 z M 545.84918,299.75331 c -11.08438,-19.78727 -21.14223,-37.25712 -22.35076,-38.8219 -1.20853,-1.56478 -2.76683,-3.9467 -3.46288,-5.29317 -0.69606,-1.34646 -5.94968,-26.12708 -11.67472,-55.06804 -9.85032,-49.79495 -10.35241,-52.80563 -9.35221,-56.07856 0.58132,-1.90224 1.23476,-4.73889 1.45208,-6.30367 0.21733,-1.56477 -2.05387,-19.96413 -5.04708,-40.887444 -2.99323,-20.923321 -5.30814,-38.176292 -5.14425,-38.339935 0.1639,-0.163643 6.42035,-1.179174 13.90323,-2.256734 l 13.60522,-1.959201 0.43889,2.50066 c 0.2414,1.375364 2.61767,17.797633 5.28061,36.493935 2.66294,18.696299 5.01995,34.281669 5.23781,34.634179 0.21786,0.35249 2.322,0.86899 4.67588,1.14777 4.44627,0.5266 7.22303,2.084 9.74475,5.46552 1.0367,1.39017 4.7898,18.5667 12.5696,57.52633 l 11.09159,55.54438 -1.56882,3.79516 c -1.04353,2.52439 -2.58175,4.45317 -4.59389,5.76031 -1.76139,1.14424 -3.02506,2.61809 -3.02506,3.52821 0,0.85968 7.16728,14.33303 15.92728,29.94079 8.76,15.60775 16.08816,29.01752 16.28479,29.79948 0.35791,1.42333 -1.6897,2.74417 -18.47412,11.91702 l -5.36451,2.93175 z m 76.51454,21.94671 c -2.16601,-3.75409 -33.63363,-59.66242 -36.9483,-65.64583 -1.11453,-2.01186 -2.83949,-4.5724 -3.83326,-5.6901 -0.99376,-1.11769 -2.2127,-2.82252 -2.70876,-3.78848 -0.49605,-0.96598 -5.14834,-26.20561 -10.33843,-56.08806 -7.61745,-43.85829 -9.32677,-55.11523 -8.8672,-58.3961 0.91314,-6.51896 0.56355,-11.78518 -3.33889,-50.297606 -2.03301,-20.063344 -3.39516,-36.750254 -3.027,-37.082023 0.93125,-0.83921 26.56544,-3.288969 27.18458,-2.597925 0.27683,0.308991 2.03144,16.290845 3.89911,35.515231 1.86767,19.224386 3.73662,35.776463 4.15323,36.782383 0.6447,1.55668 1.37114,1.82896 4.87961,1.82896 2.26719,0 5.17253,0.54317 6.45631,1.20704 5.18342,2.68046 5.04475,2.12349 15.46575,62.11502 5.36632,30.89281 9.75695,58.06521 9.75695,60.38311 0,4.00319 -0.20742,4.41429 -4.13952,8.20434 -2.85011,2.74714 -4.01755,4.45643 -3.74793,5.48749 0.21539,0.82363 7.38216,13.93871 15.92616,29.14461 8.54399,15.20591 15.5294,27.94109 15.52313,28.30042 -0.007,0.35932 -2.84117,2.19674 -6.29975,4.08316 -3.45859,1.88642 -8.92318,4.90715 -12.14355,6.71274 l -5.8552,3.28287 z m 49.62239,-14.58134 c -2.81701,-5.95508 -10.33948,-22.01318 -16.7166,-35.68467 -7.42096,-15.90932 -12.60384,-25.9915 -14.39797,-28.00815 -1.54176,-1.73299 -3.16064,-4.4473 -3.59752,-6.03181 -1.74162,-6.31673 -16.92452,-114.50543 -16.88826,-120.34071 0.0208,-3.35309 -1.32323,-23.771889 -2.98678,-45.375114 -1.66356,-21.603224 -2.87355,-39.429692 -2.68886,-39.614374 0.18467,-0.184681 6.47886,-0.814267 13.98708,-1.399076 9.37075,-0.729883 13.72665,-0.7977 13.89162,-0.216278 0.13219,0.465857 1.39571,16.576057 2.80783,35.800443 1.41212,19.224385 2.75111,35.593559 2.97553,36.375949 0.33291,1.1606 1.34867,1.42253 5.51671,1.42253 5.80024,0 9.52204,1.89857 11.95654,6.09929 1.00391,1.73223 3.89293,19.40095 10.00161,61.16789 4.72446,32.30262 8.58856,60.10279 8.58689,61.77815 -0.004,3.8668 -2.45953,7.91913 -6.10085,10.06756 -1.56073,0.92086 -2.83769,2.25317 -2.83769,2.96071 0,0.70753 6.03557,14.18854 13.41237,29.9578 7.3768,15.76926 13.41236,29.06004 13.41236,29.53506 0,0.76489 -19.42406,10.49513 -23.59124,11.81774 -1.41904,0.45039 -2.25889,-0.83414 -6.74277,-10.31294 z m 61.83843,0.009 c -21.09902,-45.6552 -31.3034,-66.53487 -34.04366,-69.65833 -1.71149,-1.95083 -3.31977,-4.69427 -3.57396,-6.09652 -0.25419,-1.40227 -3.49336,-28.33789 -7.19815,-59.85694 -3.7048,-31.51905 -7.14566,-58.03895 -7.64637,-58.9331 -1.01161,-1.80653 -3.67613,-91.448278 -2.74687,-92.412234 0.29577,-0.30683 6.61683,-0.672621 14.04678,-0.812871 l 13.509,-0.255 0.50006,10.567316 c 0.27503,5.812024 0.7454,21.723962 1.04528,35.359864 0.29986,13.635902 0.78973,25.707027 1.08858,26.824724 0.51916,1.941688 0.81839,2.032176 6.72007,2.032176 5.00884,0 6.61139,0.323458 8.47561,1.710711 4.87473,3.627507 4.69411,2.632277 12.46654,68.691904 4.01828,34.15239 7.30668,62.95446 7.30752,64.00459 0.002,3.25448 -2.54958,7.49008 -5.81559,9.65142 -1.71844,1.13721 -3.12444,2.53671 -3.12444,3.11 0,0.57329 6.03557,13.92916 13.41237,29.6797 7.3768,15.75055 13.41236,28.78228 13.41236,28.95941 0,0.46759 -21.90902,10.7816 -24.03657,11.31558 -1.53394,0.385 -2.08824,-0.18153 -3.79856,-3.88242 z m 54.23307,-0.0965 c -0.19362,-0.54184 -5.99873,-16.30151 -12.90024,-35.0215 -10.84191,-29.40806 -12.9378,-34.43738 -15.41317,-36.9856 -1.57573,-1.6221 -3.27401,-4.03551 -3.77395,-5.36311 -0.49995,-1.32761 -3.27432,-29.67647 -6.16527,-62.99746 -4.87989,-56.24551 -5.37262,-60.67224 -6.88124,-61.82119 -1.55711,-1.18588 -1.6746,-2.93427 -2.81316,-41.862825 -0.65351,-22.34392 -1.19339,-43.094382 -1.19974,-46.112163 l -0.0116,-5.486876 h 14.22524 14.22523 l -8.1e-4,6.706181 c -0.002,17.422609 1.87764,66.149909 2.58551,67.017794 0.55845,0.684722 2.77135,0.832453 7.48577,0.499745 6.62488,-0.467523 6.7224,-0.446453 9.59127,2.072454 1.59409,1.399624 3.3055,3.55239 3.80313,4.783913 1.20776,2.988925 12.44427,133.353267 11.79692,136.866157 -0.73159,3.97007 -2.49693,6.406 -4.64248,6.406 -1.02194,0 -2.55255,0.50781 -3.40135,1.12847 -1.73149,1.2661 -2.45442,-0.98267 13.48709,41.95366 5.2147,14.04512 6.82556,19.25522 6.08455,19.67946 -0.55429,0.31736 -4.63299,1.90631 -9.06379,3.531 -15.9809,5.85989 -16.64314,6.05469 -17.01792,5.00587 z m 58.96956,-2.32797 c -0.45895,-1.04977 -6.46785,-17.19284 -13.35303,-35.87349 -11.27979,-30.60391 -12.84294,-34.31682 -15.79765,-37.52227 -1.91585,-2.0784 -3.47274,-4.68622 -3.74465,-6.27229 -0.25605,-1.49314 -1.92605,-30.29607 -3.71118,-64.00652 -2.08532,-39.37901 -3.57093,-61.683588 -4.15538,-62.387811 -0.50031,-0.602865 -1.96225,-1.096107 -3.24874,-1.096107 -1.3431,0 -2.32812,-0.432658 -2.31333,-1.016088 0.17528,-6.913097 5.52466,-90.9695535 5.80733,-91.2522184 0.46358,-0.463581 26.92877,1.2090798 27.45884,1.7354573 0.20378,0.2024526 -0.55495,16.1742171 -1.68622,35.4928091 -1.13127,19.318594 -1.89553,35.76485 -1.69833,36.547238 0.31027,1.231258 1.41131,1.422932 8.1891,1.425562 6.33226,0.0024 8.32867,0.306677 10.43311,1.589797 3.30505,2.015228 4.97079,5.245193 5.53549,10.733426 1.10518,10.742045 6.97995,129.130675 6.58352,132.670705 -0.5886,5.25569 -2.32538,7.82268 -5.2926,7.82268 -5.00818,0 -4.94315,0.30808 6.7934,32.1772 6.05491,16.44145 11.00895,30.29877 11.00895,30.79405 0,0.71015 -9.79631,4.63001 -24.97691,9.99416 -0.54844,0.19379 -1.37269,-0.50654 -1.83172,-1.55632 z m 45.06099,-35.84604 c -11.30598,-34.00467 -12.12933,-36.13594 -15.07265,-39.01613 -1.72914,-1.69203 -3.47933,-4.40266 -3.93633,-6.09653 -0.7237,-2.68252 -2.52478,-86.29026 -2.50275,-116.18406 0.009,-12.230783 -0.22207,-12.751411 -6.0484,-13.625116 -2.03397,-0.305014 -3.68938,-0.989402 -3.67857,-1.520856 0.0106,-0.531455 2.7245,-21.084827 6.03053,-45.674158 3.37276,-25.085909 5.6809,-44.8275358 5.25902,-44.9805189 -1.91,-0.6925508 0.30467,-1.37298424 3.46495,-1.06456792 2.50559,0.2445202 3.06696,0.50292422 1.95414,0.89949132 -0.9044,0.3222981 3.62735,1.1946231 10.77053,2.0732319 7.15082,0.879548 12.34222,1.8791654 12.35645,2.3792661 0.0138,0.4743454 -2.0673,16.6748985 -4.6241,36.0012285 -2.5568,19.326332 -4.36763,35.421166 -4.02412,35.7663 0.3436,0.345134 4.77277,0.810412 9.84265,1.033951 8.41971,0.371238 9.40629,0.582424 11.39262,2.438612 4.95412,4.629728 4.69417,1.746045 5.86259,65.029636 1.3344,72.27305 1.2397,79.53621 -1.07787,82.65153 -1.1164,1.50075 -2.59143,2.38147 -4.26757,2.54815 -2.17451,0.21624 -2.56144,0.58461 -2.56144,2.43846 0,1.20106 4.42397,15.45586 9.8311,31.67733 5.40714,16.22147 9.65845,29.93873 9.44743,30.4828 -0.3853,0.99352 -22.65259,8.71146 -25.13363,8.71146 -1.02503,0 -4.03517,-8.15036 -13.28458,-35.96951 z m -484.8483,13.81879 c -1.47801,-1.00592 -3.37397,-2.7565 -4.21325,-3.89018 -1.49571,-2.0204 -25.06227,-94.90159 -25.02397,-98.62517 0.0303,-2.94768 2.923,-8.31279 5.45344,-10.11462 1.32509,-0.94355 8.31163,-3.41831 15.52563,-5.49948 15.28481,-4.4095 17.44346,-4.37724 22.12227,0.33066 2.96149,2.97991 2.96621,2.99617 15.03923,51.75307 6.64225,26.82473 12.05881,50.34766 12.03681,52.27319 -0.0423,3.69962 -1.69927,6.63303 -5.24004,9.2766 -2.36168,1.76325 -23.3482,6.32489 -29.0986,6.32489 -2.72105,0 -4.7334,-0.55752 -6.60152,-1.82896 z"
     class="species_main_colour"/>
 
</svg>
